<svg width="231" height="164" viewBox="0 0 231 164" fill="none" xmlns="http://www.w3.org/2000/svg">
<g clip-path="url(#clip0_333_28934)">
<path d="M212.638 81.8382H201.216V41.4849H212.638C213.634 41.4849 214.62 41.6811 215.541 42.0624C216.461 42.4436 217.297 43.0024 218.002 43.7068C218.706 44.4112 219.265 45.2475 219.646 46.1678C220.027 47.0882 220.224 48.0746 220.224 49.0708V74.2523C220.224 76.2642 219.424 78.1937 218.002 79.6164C216.579 81.039 214.65 81.8382 212.638 81.8382V81.8382Z" stroke="#131313" stroke-width="0.84518" stroke-miterlimit="10" stroke-dasharray="3.38 1.69"/>
<path d="M184.88 7.43677H196.129C197.115 7.43677 198.06 7.8283 198.757 8.52522C199.454 9.22215 199.845 10.1674 199.845 11.153V22.4019C199.845 23.3875 199.454 24.3328 198.757 25.0297C198.06 25.7266 197.115 26.1182 196.129 26.1182H184.88C183.895 26.1182 182.949 25.7266 182.253 25.0297C181.556 24.3328 181.164 23.3876 181.164 22.402V11.153C181.164 10.1674 181.556 9.22215 182.253 8.52522C182.949 7.8283 183.895 7.43677 184.88 7.43677Z" stroke="#131313" stroke-width="0.84518" stroke-miterlimit="10" stroke-dasharray="3.45 1.73"/>
<path d="M99.2214 81.8387H97.9829" stroke="#131313" stroke-width="0.84518" stroke-miterlimit="10"/>
<path d="M96.7398 81.8383H43.7578C41.3183 81.8383 38.9787 80.8691 37.2537 79.1441C35.5287 77.4192 34.5596 75.0796 34.5596 72.64V18.3975C34.5596 17.1896 34.7975 15.9935 35.2598 14.8775C35.722 13.7616 36.3995 12.7476 37.2537 11.8935C38.1078 11.0393 39.1218 10.3618 40.2378 9.89955C41.3538 9.43731 42.5498 9.1994 43.7578 9.1994H137.483C138.691 9.1994 139.887 9.43731 141.003 9.89955C142.119 10.3618 143.133 11.0393 143.987 11.8935C144.841 12.7476 145.519 13.7616 145.981 14.8775C146.443 15.9935 146.681 17.1896 146.681 18.3975V19.6348" stroke="#131313" stroke-width="0.84518" stroke-miterlimit="10" stroke-dasharray="3.39 1.7"/>
<path d="M146.681 20.2568V21.4953" stroke="#131313" stroke-width="0.84518" stroke-miterlimit="10"/>
<path d="M205.868 118.537C205.988 118.537 206.103 118.489 206.188 118.404C206.273 118.319 206.321 118.204 206.321 118.084V114.251C206.321 114.131 206.273 114.016 206.188 113.932C206.103 113.847 205.988 113.799 205.868 113.799H177.178V118.537H205.868Z" stroke="#131313" stroke-width="0.84518" stroke-miterlimit="10"/>
<path d="M205.868 112.562H176.575V113.8H205.868C205.988 113.8 206.103 113.848 206.188 113.932C206.273 114.017 206.32 114.132 206.321 114.252V118.085C206.32 118.205 206.273 118.32 206.188 118.405C206.103 118.49 205.988 118.538 205.868 118.538H176.575V119.776H205.868C206.316 119.776 206.746 119.597 207.063 119.28C207.38 118.963 207.558 118.533 207.559 118.085V114.252C207.558 113.804 207.38 113.374 207.063 113.057C206.746 112.74 206.316 112.562 205.868 112.562Z" fill="#5793FF" stroke="#131313" stroke-width="0.84518" stroke-miterlimit="10"/>
<path d="M177.178 115.47H205.139" stroke="#131313" stroke-width="0.84518" stroke-miterlimit="10"/>
<path d="M177.178 116.943H205.139" stroke="#131313" stroke-width="0.84518" stroke-miterlimit="10"/>
<path d="M208.227 125.752C208.347 125.752 208.462 125.704 208.547 125.619C208.632 125.534 208.68 125.419 208.68 125.299V121.466C208.68 121.346 208.632 121.231 208.547 121.147C208.462 121.062 208.347 121.014 208.227 121.014H179.537V125.752H208.227Z" stroke="#131313" stroke-width="0.84518" stroke-miterlimit="10"/>
<path d="M208.227 119.775H178.935V121.013H208.227C208.347 121.013 208.462 121.061 208.547 121.146C208.632 121.23 208.68 121.345 208.68 121.465V125.298C208.68 125.418 208.632 125.533 208.547 125.618C208.462 125.703 208.347 125.751 208.227 125.751H178.935V126.989H208.227C208.675 126.989 209.105 126.811 209.422 126.493C209.739 126.176 209.918 125.747 209.918 125.298V121.465C209.918 121.017 209.739 120.587 209.422 120.27C209.105 119.953 208.675 119.775 208.227 119.775Z" fill="#5793FF" stroke="#131313" stroke-width="0.84518" stroke-miterlimit="10"/>
<path d="M179.537 122.603H207.499" stroke="#131313" stroke-width="0.84518" stroke-miterlimit="10"/>
<path d="M179.47 124.203H207.432" stroke="#131313" stroke-width="0.84518" stroke-miterlimit="10"/>
<path d="M202.503 34.3835H98.5535C98.0737 34.3835 97.6135 34.5741 97.2742 34.9134C96.9349 35.2527 96.7443 35.7129 96.7443 36.1928V90.0289H204.312V36.1928C204.312 35.7129 204.122 35.2527 203.782 34.9134C203.443 34.5741 202.983 34.3835 202.503 34.3835Z" fill="white" stroke="#424242" stroke-width="0.84518" stroke-miterlimit="10"/>
<path d="M201.216 37.4799H99.8405V86.9332H201.216V37.4799Z" fill="#5793FF" stroke="#4B4B4B" stroke-width="0.84518" stroke-miterlimit="10"/>
<path d="M96.7443 90.0287V102.416C96.7443 102.896 96.9349 103.356 97.2742 103.696C97.6135 104.035 98.0737 104.225 98.5535 104.225H202.503C202.983 104.225 203.443 104.035 203.782 103.696C204.122 103.356 204.312 102.896 204.312 102.416V90.0287H96.7443Z" fill="white" stroke="#4B4B4B" stroke-width="0.84518" stroke-miterlimit="10"/>
<path d="M155.359 96.7052C155.359 97.2107 155.209 97.7049 154.928 98.1252C154.647 98.5456 154.248 98.8732 153.781 99.0667C153.314 99.2601 152.8 99.3107 152.304 99.2121C151.808 99.1135 151.353 98.8701 150.995 98.5126C150.638 98.1551 150.394 97.6997 150.296 97.2038C150.197 96.708 150.248 96.1941 150.441 95.727C150.634 95.2599 150.962 94.8607 151.382 94.5799C151.803 94.299 152.297 94.1491 152.803 94.1491C153.138 94.1491 153.471 94.2152 153.781 94.3437C154.091 94.4721 154.373 94.6604 154.61 94.8977C154.847 95.1351 155.036 95.4169 155.164 95.727C155.293 96.0371 155.359 96.3695 155.359 96.7052Z" fill="#5793FF" stroke="#353535" stroke-width="0.84518" stroke-miterlimit="10"/>
<path d="M174.143 122.288H133.2V126.99H174.143V122.288Z" fill="#5793FF" stroke="#3C3C3C" stroke-width="0.84518" stroke-miterlimit="10"/>
<path d="M163.923 104.226H141.683V122.289H163.923V104.226Z" fill="white" stroke="#3C3C3C" stroke-width="0.84518" stroke-miterlimit="10"/>
<path d="M163.923 104.226H141.683V110.129H163.923V104.226Z" fill="#5793FF" stroke="#3C3C3C" stroke-width="0.84518" stroke-miterlimit="10"/>
<path d="M189.104 15.8384H115.778C115.034 15.8384 114.431 16.4414 114.431 17.1853V57.3883C114.431 58.1321 115.034 58.7351 115.778 58.7351H189.104C189.848 58.7351 190.451 58.1321 190.451 57.3883V17.1853C190.451 16.4414 189.848 15.8384 189.104 15.8384Z" fill="#000C76" stroke="#131313" stroke-width="0.84518" stroke-miterlimit="10"/>
<path d="M187.355 18.9349H117.527V55.6394H187.355V18.9349Z" fill="white" stroke="#131313" stroke-width="0.84518" stroke-miterlimit="10"/>
<path d="M148.753 26.4943H125.443V47.1762H148.753V26.4943Z" fill="#80ADFF"/>
<path d="M146.681 25.4812H124.105V45.5129H146.681V25.4812Z" stroke="#353535" stroke-width="0.84518" stroke-miterlimit="10"/>
<path d="M144.178 28.216H126.608V35.0674H144.178V28.216Z" fill="white" stroke="#131313" stroke-width="0.84518" stroke-miterlimit="10"/>
<path d="M126.608 36.5095H144.178" stroke="#131313" stroke-width="0.84518" stroke-miterlimit="10" stroke-linecap="round"/>
<path d="M126.608 38.284H144.178" stroke="#131313" stroke-width="0.84518" stroke-miterlimit="10" stroke-linecap="round"/>
<path d="M126.608 40.0548H144.178" stroke="#131313" stroke-width="0.84518" stroke-miterlimit="10" stroke-linecap="round"/>
<path d="M126.608 41.8284H144.178" stroke="#131313" stroke-width="0.84518" stroke-miterlimit="10" stroke-linecap="round"/>
<path d="M126.608 43.601H144.178" stroke="#131313" stroke-width="0.84518" stroke-miterlimit="10" stroke-linecap="round"/>
<path d="M46.3055 19.8407H22.2448V51.0295H46.3055V19.8407Z" fill="#80ADFF"/>
<path d="M44.6728 18.8403H21.3636V49.055H44.6728V18.8403Z" stroke="#353535" stroke-width="0.84518" stroke-miterlimit="10"/>
<path d="M31.9882 21.5761H23.9265V30.3955H31.9882V21.5761Z" fill="white" stroke="#131313" stroke-width="0.84518" stroke-miterlimit="10"/>
<path d="M33.8993 22.8718H42.791" stroke="#131313" stroke-width="0.84518" stroke-linecap="round" stroke-linejoin="round"/>
<path d="M33.8993 26.139H42.791" stroke="#131313" stroke-width="0.84518" stroke-linecap="round" stroke-linejoin="round"/>
<path d="M33.8993 29.4072H42.791" stroke="#131313" stroke-width="0.84518" stroke-linecap="round" stroke-linejoin="round"/>
<path d="M23.9265 32.6754H42.7911" stroke="#131313" stroke-width="0.84518" stroke-linecap="round" stroke-linejoin="round"/>
<path d="M23.9265 35.9435H42.7911" stroke="#131313" stroke-width="0.84518" stroke-linecap="round" stroke-linejoin="round"/>
<path d="M23.9265 39.2108H42.7911" stroke="#131313" stroke-width="0.84518" stroke-linecap="round" stroke-linejoin="round"/>
<path d="M23.9265 42.4789H42.7911" stroke="#131313" stroke-width="0.84518" stroke-linecap="round" stroke-linejoin="round"/>
<path d="M23.9265 45.7462H42.7911" stroke="#131313" stroke-width="0.84518" stroke-linecap="round" stroke-linejoin="round"/>
<path d="M98.8728 117.147C100.643 116.862 102.306 116.969 104.079 116.773C106.318 116.526 108.563 116.351 110.813 116.247C114.623 116.072 118.843 115.953 122.53 116.809C123.866 117.159 125.115 117.784 126.196 118.645C128.143 120.098 129.737 121.972 130.859 124.126C131.133 124.541 131.237 125.046 131.149 125.535C130.911 126.326 129.828 126.675 128.925 126.618C127.462 126.525 126.204 125.747 124.851 125.265C122.866 124.58 120.721 124.502 118.69 125.042C116.818 125.537 115.39 126.522 113.405 126.626C111.143 126.745 108.904 127.114 106.653 127.269" fill="white"/>
<path d="M98.8728 117.147C100.643 116.862 102.306 116.969 104.079 116.773C106.318 116.526 108.563 116.351 110.813 116.247C114.623 116.072 118.843 115.953 122.53 116.809C123.866 117.159 125.115 117.784 126.196 118.645C128.143 120.098 129.737 121.972 130.859 124.126C131.133 124.541 131.237 125.046 131.149 125.535C130.911 126.326 129.828 126.675 128.925 126.618C127.462 126.525 126.204 125.747 124.851 125.265C122.866 124.58 120.721 124.502 118.69 125.042C116.818 125.537 115.39 126.522 113.405 126.626C111.143 126.745 108.904 127.114 106.653 127.269" stroke="#131313" stroke-width="0.79894" stroke-miterlimit="10"/>
<path d="M127.187 165.805C120.041 147.603 74.5283 142.919 74.5283 142.919C68.3509 147.094 60.5157 148.994 56.1099 149.786L60.8653 165.805H127.187Z" fill="#3B4FFD" stroke="#131313" stroke-width="0.84518" stroke-miterlimit="10"/>
<path d="M68.3667 126.99H49.3434L56.1102 149.786C60.516 148.994 68.3512 147.094 74.5287 142.919L68.3667 126.99Z" fill="#5793FF" stroke="#131313" stroke-width="0.84518" stroke-miterlimit="10"/>
<path d="M85.1792 140.408H80.5122L68.3671 165.806H75.0759L85.1792 140.408Z" fill="white" stroke="#131313" stroke-width="0.84518" stroke-miterlimit="10"/>
<path d="M113.482 140.408H72.8013C72.5495 140.408 72.308 140.308 72.1299 140.13C71.9519 139.951 71.8518 139.71 71.8518 139.458V137.843C71.8518 137.001 72.1864 136.193 72.7819 135.597C73.3774 135.002 74.1851 134.667 75.0273 134.667H111.256C112.098 134.667 112.906 135.002 113.501 135.597C114.097 136.193 114.431 137.001 114.431 137.843V139.458C114.431 139.71 114.331 139.951 114.153 140.13C113.975 140.308 113.734 140.408 113.482 140.408Z" fill="#404040" stroke="#393939" stroke-width="0.81155" stroke-miterlimit="10"/>
<path d="M220.092 126.99H86.9036V131.663H220.092V126.99Z" fill="white" stroke="#2C2C2C" stroke-width="0.80071" stroke-miterlimit="10"/>
<path d="M57.0868 76.1749L60.3834 69.2099L61.9356 67.5466L60.442 58.3533L53.54 56.7237C51.9586 59.0817 50.1417 61.2728 48.1172 63.2633C46.4915 64.8217 42.8841 69.4027 39.7983 73.4371C41.9408 77.048 46.6971 79.6495 57.0868 76.1749Z" fill="white" stroke="#131313" stroke-width="0.84518" stroke-miterlimit="10"/>
<path d="M97.9766 110.032L73.2875 108.585L65.9062 80.4014C63.9889 73.9787 57.0869 76.1749 57.0869 76.1749C46.6972 79.6494 41.9409 77.048 39.7985 73.4371C36.9581 77.1507 34.5596 80.4014 34.5596 80.4014L52.7077 126.99H109.715C109.778 123.83 109.028 120.707 107.535 117.921C106.041 115.136 103.856 112.781 101.19 111.085C100.227 110.462 99.1206 110.1 97.9766 110.032Z" fill="#5793FF" stroke="#131313" stroke-width="0.84518" stroke-miterlimit="10"/>
<path d="M60.8912 75.9021C60.8912 75.9021 57.7563 75.5329 55.2178 85.1793" stroke="#131313" stroke-width="0.84518" stroke-linecap="round" stroke-linejoin="round"/>
<path d="M53.7562 93.4459C53.7562 93.4459 51.0768 109.95 50.689 121.807" stroke="#131313" stroke-width="0.84518" stroke-linecap="round" stroke-linejoin="round"/>
<path d="M53.8254 59.3985C53.8761 59.3801 53.9221 59.351 53.9605 59.3132C53.999 59.2755 54.0288 59.2299 54.0482 59.1797V59.1796C53.9737 59.2525 53.8995 59.3255 53.8254 59.3985Z" stroke="#131313" stroke-width="0.94784" stroke-miterlimit="10"/>
<path d="M51.2281 59.1609C50.8004 58.8846 50.4373 58.5195 50.1634 58.0902C49.8895 57.661 49.7114 57.1778 49.6411 56.6735C49.304 54.9724 48.9565 52.3735 50.3993 51.0715C51.2852 50.2723 52.9176 50.088 53.6424 51.1255C54.2805 52.0388 54.3298 53.4705 55.4825 53.9733C55.8261 54.1059 56.2013 54.1339 56.5608 54.0537C56.9204 53.9736 57.2482 53.789 57.503 53.5231C58.4238 52.6223 58.5349 51.3426 58.6132 50.1313C58.7308 48.315 58.8239 46.4974 58.8927 44.6784C58.9033 44.3881 58.9997 44.1074 59.1699 43.8719C59.3401 43.6365 59.5763 43.4568 59.8487 43.3557L69.3111 39.8526L69.3183 39.8538C69.4189 39.7953 69.9363 39.4949 70.0363 39.4404C70.4248 39.2385 70.8018 39.0153 71.1656 38.7717C73.3727 37.2367 75.8127 34.7842 75.8212 31.8895C75.7965 31.0301 75.5651 30.1893 75.1466 29.4383C74.7282 28.6873 74.1349 28.0482 73.4171 27.575C71.4783 26.2133 69.0394 25.9783 66.7237 26.1823C65.9847 26.2408 65.2518 26.3609 64.5327 26.5413C60.5115 27.5889 56.3126 30.2181 52.8047 32.4009C52.4668 32.6431 52.087 32.8206 51.6843 32.9243C51.5988 32.0362 51.6583 31.2019 51.0882 30.482C50.8361 30.1668 50.5124 29.9163 50.144 29.7515C49.7755 29.5867 49.373 29.5123 48.97 29.5344C48.5675 29.5647 48.1791 29.6958 47.8406 29.9157C47.5021 30.1357 47.2244 30.4373 47.0332 30.7928C46.9008 31.0626 46.8042 31.3486 46.746 31.6435C46.5023 32.7284 46.5267 33.8564 46.8171 34.9298C46.303 34.3406 45.6289 33.9135 44.8766 33.7003C44.1243 33.4871 43.3263 33.4971 42.5796 33.729C40.9006 34.3054 40.7469 36.429 41.3026 37.9033C41.5182 38.5279 41.8592 39.1019 42.3046 39.5899C42.75 40.078 43.2904 40.4699 43.8928 40.7415C43.6417 45.9943 43.7178 51.2575 44.1206 56.5008C44.1586 57.8433 44.4144 59.1708 44.878 60.4313C45.4275 61.7237 46.5718 63.2161 48.1177 63.2627C49.4685 63.3035 50.6842 62.275 51.6525 61.4521C52.4138 60.8051 53.1157 60.0986 53.8255 59.3979C53.2004 59.6867 51.515 59.317 51.2281 59.1609Z" fill="#000C76" stroke="#131313" stroke-width="0.84518" stroke-miterlimit="10"/>
<path d="M69.311 39.8531L59.8486 43.3562C59.5762 43.4573 59.34 43.637 59.1698 43.8725C58.9996 44.1079 58.9032 44.3886 58.8926 44.679C58.8239 46.4977 58.7307 48.3153 58.6131 50.1319C58.5348 51.3431 58.4237 52.6229 57.503 53.5236C57.2481 53.7895 56.9203 53.9742 56.5607 54.0543C56.2012 54.1344 55.826 54.1064 55.4824 53.9738C54.3297 53.4711 54.2804 52.0393 53.6423 51.126C52.9175 50.0886 51.2851 50.2728 50.3993 51.0721C48.9564 52.374 49.3039 54.9729 49.641 56.6741C49.7113 57.1783 49.8894 57.6615 50.1633 58.0908C50.4372 58.52 50.8003 58.8852 51.228 59.1614C51.5149 59.3175 53.2003 59.6872 53.8254 59.3984C53.8996 59.3253 53.9738 59.2523 54.0481 59.1795C54.0536 61.4999 55.7565 64.1688 56.9399 66.0834C58.5851 68.7448 61.3116 69.9779 64.3652 70.3703C67.1131 70.7233 69.1883 70.1517 69.9391 67.3605C70.0807 66.7657 70.1877 64.4239 70.1978 63.8127C69.8168 62.7594 68.8679 62.704 68.9234 62.0388C68.9788 61.3735 70.5777 60.9301 70.5777 60.9301C70.5839 60.4424 70.5857 59.5877 70.5777 59.113C70.8517 59.0735 72.685 58.7266 73.6267 58.6268C73.6867 58.62 73.7443 58.5991 73.7946 58.5657C73.845 58.5322 73.8866 58.4873 73.9161 58.4346C73.9456 58.3818 73.9621 58.3228 73.9643 58.2624C73.9664 58.2021 73.9542 58.142 73.9285 58.0873L69.9391 49.4947C69.6102 48.8908 69.4614 48.2053 69.5104 47.5194C69.4925 44.9655 69.297 39.8667 69.297 39.8667L69.3182 39.8543L69.311 39.8531Z" fill="white" stroke="#131313" stroke-width="0.84518" stroke-miterlimit="10"/>
<path d="M66.5292 49.388C66.5292 50.3084 66.1204 51.0545 65.6161 51.0545C65.1118 51.0545 64.7029 50.3084 64.7029 49.388C64.7029 48.4676 65.1118 47.7214 65.6161 47.7214C66.1204 47.7214 66.5292 48.4676 66.5292 49.388Z" fill="#131313"/>
<path d="M63.2197 46.5046C63.2593 46.1716 63.348 45.8463 63.483 45.5393C63.6211 45.2204 63.8166 44.9295 64.0598 44.6813C64.3154 44.418 64.6284 44.2174 64.9744 44.0952C65.3145 43.9731 65.6728 43.9095 66.0341 43.9069C66.1098 43.9035 66.1854 43.915 66.2567 43.9408C66.3279 43.9666 66.3934 44.0062 66.4493 44.0573C66.5053 44.1084 66.5506 44.1701 66.5827 44.2387C66.6148 44.3073 66.6331 44.3816 66.6365 44.4573C66.64 44.533 66.6284 44.6086 66.6026 44.6799C66.5768 44.7511 66.5372 44.8166 66.4861 44.8725C66.435 44.9284 66.3734 44.9738 66.3047 45.0059C66.2361 45.038 66.1618 45.0563 66.0861 45.0597C66.0542 45.0612 66.0222 45.06 65.9905 45.0562L65.9692 45.0534C65.741 45.0106 65.5065 45.014 65.2795 45.0634C65.0526 45.1128 64.8379 45.2071 64.6481 45.3408C64.4496 45.4902 64.2806 45.6751 64.1497 45.8862C64.0112 46.1066 63.9044 46.3453 63.8322 46.5954L63.8241 46.6244C63.8031 46.6994 63.7547 46.7637 63.6884 46.8044C63.622 46.8452 63.5428 46.8595 63.4664 46.8444C63.3901 46.8292 63.3222 46.7858 63.2765 46.7228C63.2307 46.6598 63.2105 46.5819 63.2197 46.5046Z" fill="#131313"/>
<path d="M76.5273 1.02667H96.7959C98.1013 1.02667 99.3532 1.54525 100.276 2.46832C101.199 3.39139 101.718 4.64334 101.718 5.94876V15.0409C101.718 16.3463 101.199 17.5982 100.276 18.5213C99.3532 19.4444 98.1013 19.963 96.7959 19.963H76.5273C75.2218 19.963 73.9699 19.4444 73.0468 18.5213C72.1237 17.5982 71.6051 16.3462 71.6051 15.0408V5.94893C71.6051 5.30253 71.7324 4.66246 71.9798 4.06526C72.2271 3.46807 72.5897 2.92543 73.0468 2.46836C73.5039 2.01129 74.0465 1.64871 74.6437 1.40135C75.2409 1.15398 75.8809 1.02667 76.5273 1.02667Z" fill="#80ADFF"/>
<path d="M75.3613 0H95.0543C95.6823 0 96.3042 0.123696 96.8844 0.364033C97.4646 0.60437 97.9918 0.956643 98.4359 1.40073C98.88 1.84481 99.2323 2.37202 99.4726 2.95224C99.7129 3.53247 99.8366 4.15434 99.8366 4.78237V13.6162C99.8366 14.2442 99.7129 14.8661 99.4726 15.4464C99.2323 16.0266 98.88 16.5538 98.4359 16.9979C97.9918 17.442 97.4646 17.7942 96.8844 18.0346C96.3042 18.2749 95.6823 18.3986 95.0543 18.3986H75.3612C74.0928 18.3986 72.8764 17.8947 71.9796 16.9979C71.0827 16.101 70.5789 14.8846 70.5789 13.6163V4.78245C70.5789 4.15441 70.7026 3.53251 70.9429 2.95228C71.1832 2.37204 71.5355 1.84483 71.9796 1.40074C72.4237 0.956647 72.9509 0.604384 73.5311 0.364044C74.1114 0.123704 74.7333 -9.62124e-07 75.3613 0V0Z" stroke="#353535" stroke-width="0.84518" stroke-miterlimit="10"/>
<path d="M90.7649 9.19988L82.0127 4.14679V14.253L90.7649 9.19988Z" fill="white" stroke="#131313" stroke-width="0.84518" stroke-miterlimit="10"/>
<path d="M206.969 1.92163C199.806 1.92163 194 5.63126 194 10.2073C194.029 11.6582 194.578 13.0505 195.546 14.1313L190.781 21.4306L199.798 17.1088C202.072 18.043 204.51 18.5136 206.969 18.493C214.131 18.493 219.938 14.7834 219.938 10.2073C219.938 5.63126 214.131 1.92163 206.969 1.92163Z" fill="#80ADFF"/>
<path d="M205.649 1.24292C198.486 1.24292 192.68 4.95246 192.68 9.52859C192.709 10.9795 193.257 12.3717 194.226 13.4526L189.461 20.7518L198.477 16.4301C200.752 17.3643 203.19 17.8349 205.649 17.8143C212.811 17.8143 218.617 14.1046 218.617 9.52859C218.617 4.95246 212.811 1.24292 205.649 1.24292Z" stroke="#353535" stroke-width="0.84518" stroke-miterlimit="10"/>
<path d="M211.402 9.9431C211.402 10.1517 211.34 10.3556 211.224 10.529C211.108 10.7024 210.944 10.8376 210.751 10.9174C210.558 10.9972 210.346 11.0181 210.142 10.9774C209.937 10.9367 209.749 10.8363 209.602 10.6888C209.454 10.5414 209.354 10.3535 209.313 10.1489C209.273 9.94436 209.293 9.73235 209.373 9.53966C209.453 9.34697 209.588 9.18226 209.762 9.06639C209.935 8.95052 210.139 8.88867 210.347 8.88867C210.486 8.88867 210.623 8.91593 210.751 8.96892C210.879 9.0219 210.995 9.09958 211.093 9.19749C211.191 9.2954 211.269 9.41165 211.322 9.53958C211.375 9.66751 211.402 9.80462 211.402 9.9431Z" fill="white" stroke="#131313" stroke-width="0.84518" stroke-miterlimit="10"/>
<path d="M201.983 9.9431C201.983 10.1517 201.921 10.3555 201.806 10.529C201.69 10.7024 201.525 10.8375 201.332 10.9173C201.14 10.9971 200.928 11.018 200.723 10.9773C200.519 10.9367 200.331 10.8362 200.183 10.6888C200.036 10.5413 199.935 10.3534 199.895 10.1488C199.854 9.94429 199.875 9.73227 199.955 9.53959C200.034 9.34691 200.17 9.18223 200.343 9.06637C200.516 8.9505 200.72 8.88866 200.929 8.88867C201.067 8.88867 201.204 8.91594 201.332 8.96893C201.46 9.02192 201.577 9.09959 201.674 9.1975C201.772 9.29542 201.85 9.41165 201.903 9.53958C201.956 9.66751 201.983 9.80463 201.983 9.9431Z" fill="white" stroke="#131313" stroke-width="0.84518" stroke-miterlimit="10"/>
<path d="M206.693 9.9431C206.693 10.1517 206.631 10.3556 206.515 10.529C206.399 10.7024 206.235 10.8376 206.042 10.9174C205.849 10.9972 205.637 11.0181 205.433 10.9774C205.228 10.9367 205.04 10.8363 204.893 10.6888C204.745 10.5414 204.645 10.3535 204.604 10.1489C204.563 9.94436 204.584 9.73235 204.664 9.53966C204.744 9.34697 204.879 9.18226 205.052 9.06639C205.226 8.95052 205.43 8.88867 205.638 8.88867C205.777 8.88867 205.914 8.91593 206.042 8.96892C206.17 9.0219 206.286 9.09958 206.384 9.19749C206.482 9.2954 206.559 9.41165 206.612 9.53958C206.665 9.66751 206.693 9.80462 206.693 9.9431Z" fill="white" stroke="#131313" stroke-width="0.84518" stroke-miterlimit="10"/>
<path d="M231.092 55.2391H211.823V67.3179H231.092V55.2391Z" fill="#80ADFF"/>
<path d="M229.858 54.0906H210.589V66.1695H229.858V54.0906Z" stroke="#353535" stroke-width="0.84518" stroke-miterlimit="10"/>
<path d="M210.589 54.0906L220.223 61.9871L229.858 54.0906" stroke="#353535" stroke-width="0.84518" stroke-miterlimit="10"/>
<path d="M217.53 59.7802L210.589 66.1695" stroke="#353535" stroke-width="0.84518" stroke-miterlimit="10"/>
<path d="M222.917 59.7802L229.858 66.1695" stroke="#353535" stroke-width="0.84518" stroke-miterlimit="10"/>
<path d="M15.4406 76.1757C24.7155 76.1757 32.8715 82.0607 35.4416 90.6074L58.0546 165.806H63.902L41.394 87.761C40.1664 83.5042 37.5881 79.762 34.0479 77.0985C30.5077 74.435 26.1976 72.9947 21.7673 72.9947C17.2259 72.9809 12.796 74.4011 9.10925 77.0529C11.169 76.4691 13.2997 76.1739 15.4406 76.1757Z" fill="white" stroke="black" stroke-width="0.84518" stroke-miterlimit="10"/>
<path d="M0.856089 100.789L19.6067 165.805H58.0551L35.4421 90.6064C32.872 82.0596 24.716 76.1746 15.4411 76.1746C13.3002 76.1728 11.1695 76.468 9.10975 77.0518C5.44605 79.6672 2.68444 83.3552 1.20605 87.607C-0.272338 91.8587 -0.394617 96.4645 0.856089 100.789Z" fill="#5B5B5B"/>
<path d="M121.946 119.478C124.788 121.024 127.598 122.576 129.871 124.925C130.009 125.048 130.115 125.203 130.179 125.376C130.461 126.39 128.633 126.653 128.021 126.454" stroke="#131313" stroke-width="0.79894" stroke-linecap="round" stroke-linejoin="round"/>
</g>
<defs>
<clipPath id="clip0_333_28934">
<rect width="231" height="164" fill="white"/>
</clipPath>
</defs>
</svg>
