<svg width="227" height="199" viewBox="0 0 227 199" fill="none" xmlns="http://www.w3.org/2000/svg">
<g clip-path="url(#clip0_333_28843)">
<path fill-rule="evenodd" clip-rule="evenodd" d="M211.542 156.584C210.464 155.903 202.561 148.251 201.315 148.393C194.545 139.045 177.642 119.42 169.484 114.378C148.24 101.291 119.064 105.03 91.8427 115.114C73.1192 122.026 49.4105 144.347 34.1995 160.153C14.3713 161.654 -0.868004 175.137 0.038425 190.575C0.236706 193.945 1.19979 197.118 2.75771 200.035L69.2952 200.489C69.4085 200.319 69.5218 200.12 69.6351 199.95L168.323 199.611C168.436 199.752 168.549 199.894 168.662 200.064L223.303 199.979C228.373 193.266 226.649 188.246 226.649 178.87C223.798 172.909 223.303 164.012 211.542 156.584Z" fill="#DBDBDB"/>
<path fill-rule="evenodd" clip-rule="evenodd" d="M171.439 115.653C146.314 131.232 123.766 131.572 109.15 129.051C95.6103 126.728 85.8379 121.516 82.6654 119.477C82.1272 119.788 81.589 120.1 81.0225 120.412C83.6284 122.196 93.8258 128.088 108.555 130.666C113.371 131.515 118.214 131.94 123.086 131.94C128.043 131.94 133 131.515 137.929 130.637C149.854 128.513 161.61 123.839 172.94 116.729C172.43 116.333 171.949 115.993 171.439 115.653Z" fill="white"/>
<path fill-rule="evenodd" clip-rule="evenodd" d="M168.832 142.42C172.826 136.811 177.755 133.667 183.505 133.044C186.168 132.761 188.405 133.129 189.737 133.441C189.199 132.761 188.66 132.081 188.122 131.43C186.819 131.26 185.205 131.175 183.42 131.373C179.086 131.826 172.798 133.922 167.444 141.457C167.161 141.825 167.274 142.363 167.643 142.647C167.784 142.76 167.954 142.817 168.124 142.817C168.407 142.788 168.662 142.675 168.832 142.42Z" fill="white"/>
<path fill-rule="evenodd" clip-rule="evenodd" d="M169.144 162.333C169.626 162.333 169.994 161.965 170.022 161.512C170.079 159.019 171.07 153.354 174.554 148.029C178.577 141.825 184.525 138.03 192.173 136.67C191.805 136.16 191.437 135.65 191.04 135.141C183.392 136.698 177.217 140.806 173.11 147.094C169.682 152.363 168.379 158.141 168.294 161.455C168.294 161.937 168.663 162.333 169.144 162.333Z" fill="white"/>
<path fill-rule="evenodd" clip-rule="evenodd" d="M49.1274 153.979C45.53 153.837 42.0742 154.177 39.5249 154.715C38.6751 155.565 37.8254 156.415 37.0039 157.265C40.1481 155.537 58.0501 153.384 65.4431 161.797C65.6131 161.995 65.8397 162.08 66.0946 162.08C66.2929 162.08 66.4912 162.023 66.6611 161.882C67.001 161.57 67.0577 161.032 66.7461 160.692C61.959 155.225 53.6595 154.149 49.1274 153.979Z" fill="white"/>
<path fill-rule="evenodd" clip-rule="evenodd" d="M33.6333 160.208C33.6333 160.208 33.6616 160.208 33.6899 160.208C33.6616 160.179 33.6333 160.208 33.6333 160.208C33.6333 160.208 33.6049 160.208 33.6333 160.208Z" fill="white"/>
<path fill-rule="evenodd" clip-rule="evenodd" d="M63.687 166.13C53.6879 158.567 41.2245 158.113 35.9559 158.34C35.3611 158.963 34.7662 159.558 34.1997 160.153C37.2306 159.898 51.7051 159.218 62.6672 167.489C62.8089 167.603 63.0071 167.659 63.1771 167.659C63.432 167.659 63.687 167.546 63.8569 167.319C64.1402 166.951 64.0552 166.413 63.687 166.13Z" fill="white"/>
<path fill-rule="evenodd" clip-rule="evenodd" d="M20.49 199.78C20.49 199.78 29.7809 172.304 55.9257 177.29C82.0705 182.275 117.846 192.982 117.846 192.982V199.865L20.49 199.78Z" fill="white"/>
<path fill-rule="evenodd" clip-rule="evenodd" d="M218.942 199.78C218.942 199.78 209.651 172.304 183.506 177.29C157.361 182.275 121.586 192.982 121.586 192.982V199.865L218.942 199.78Z" fill="white"/>
<path fill-rule="evenodd" clip-rule="evenodd" d="M37.8839 178.419C33.4397 180.493 29.6304 183.69 26.4126 187.699C24.3439 190.277 22.6427 193.036 21.2828 195.795C20.8063 196.761 20.4062 197.66 20.0793 198.468L19.9408 198.816C19.8978 198.927 19.8579 199.031 19.8211 199.129L19.7112 199.43C19.7001 199.462 19.6912 199.487 19.6846 199.507C19.4984 200.057 19.9076 200.628 20.4889 200.629L117.845 200.714C118.315 200.714 118.695 200.334 118.695 199.864V192.981C118.695 192.605 118.449 192.274 118.089 192.167L116.959 191.832L115.431 191.383C113.3 190.761 110.891 190.068 108.252 189.321C100.712 187.187 92.8433 185.053 85.0386 183.062C81.1157 182.061 77.3013 181.12 73.6237 180.249L72.5916 180.006C66.5973 178.598 61.0646 177.403 56.0845 176.454C49.3086 175.162 43.2457 175.917 37.8839 178.419ZM55.7664 178.123C61.0043 179.122 66.8628 180.395 73.2324 181.903C76.9 182.771 80.705 183.71 84.6186 184.709C91.9979 186.592 99.4359 188.603 106.598 190.62L107.789 190.956C110.184 191.634 112.389 192.268 114.368 192.844L116.996 193.615V199.014L21.7266 198.931L21.804 198.743C22.0865 198.068 22.4204 197.331 22.8074 196.546C24.1157 193.892 25.7529 191.237 27.7384 188.763C30.803 184.944 34.414 181.914 38.6028 179.959C43.641 177.608 49.3411 176.898 55.7664 178.123Z" fill="#2E186A"/>
<path fill-rule="evenodd" clip-rule="evenodd" d="M201.548 178.419C205.992 180.493 209.801 183.69 213.019 187.699C215.088 190.277 216.789 193.036 218.149 195.795C218.625 196.761 219.025 197.66 219.352 198.468L219.491 198.816C219.534 198.927 219.574 199.031 219.61 199.129L219.72 199.43C219.731 199.462 219.74 199.487 219.747 199.507C219.933 200.057 219.524 200.628 218.943 200.629L121.586 200.714C121.117 200.714 120.736 200.334 120.736 199.864V192.981C120.736 192.605 120.982 192.274 121.342 192.167L122.473 191.832L124 191.383C126.131 190.761 128.541 190.068 131.18 189.321C138.72 187.187 146.588 185.053 154.393 183.062C158.316 182.061 162.13 181.12 165.808 180.249L166.84 180.006C172.834 178.598 178.367 177.403 183.347 176.454C190.123 175.162 196.186 175.917 201.548 178.419ZM183.665 178.123C178.427 179.122 172.569 180.395 166.199 181.903C162.532 182.771 158.727 183.71 154.813 184.709C147.434 186.592 139.996 188.603 132.834 190.62L131.643 190.956C129.248 191.634 127.042 192.268 125.064 192.844L122.435 193.615V199.014L217.705 198.931L217.628 198.743C217.345 198.068 217.011 197.331 216.624 196.546C215.316 193.892 213.679 191.237 211.693 188.763C208.629 184.944 205.018 181.914 200.829 179.959C195.791 177.608 190.091 176.898 183.665 178.123Z" fill="#2E186A"/>
<path fill-rule="evenodd" clip-rule="evenodd" d="M112.407 95.2288L113.512 115.255C113.512 115.255 111.642 126.076 126.655 124.065C141.611 122.082 139.77 113.216 139.77 113.216L135.153 88.3456L112.407 95.2288Z" fill="white"/>
<path fill-rule="evenodd" clip-rule="evenodd" d="M134.907 87.5319L112.161 94.4151C111.786 94.5286 111.537 94.884 111.559 95.2753L112.659 115.214L112.647 115.304C112.641 115.354 112.635 115.41 112.629 115.472C112.489 116.911 112.651 118.551 113.358 120.131C115.083 123.989 119.381 125.896 126.768 124.906C132.797 124.107 136.718 122.153 138.869 119.353C140.432 117.318 140.857 115.178 140.65 113.364L140.636 113.249C140.626 113.178 140.617 113.12 140.608 113.074L135.988 88.1902C135.896 87.6923 135.391 87.3853 134.907 87.5319ZM113.292 95.8481L134.491 89.4331L138.942 113.414C138.948 113.449 138.955 113.494 138.962 113.556C139.122 114.967 138.784 116.674 137.521 118.317C135.671 120.727 132.158 122.477 126.543 123.222C119.849 124.118 116.298 122.543 114.909 119.437C114.341 118.167 114.207 116.807 114.321 115.636L114.333 115.516C114.34 115.46 114.346 115.42 114.349 115.399L114.358 115.336C114.362 115.293 114.363 115.251 114.36 115.208L113.292 95.8481Z" fill="#2E186A"/>
<path fill-rule="evenodd" clip-rule="evenodd" d="M140.903 63.0792C140.903 63.0792 152.517 58.717 152.97 70.8121C153.423 82.9073 140.903 79.7631 140.903 79.7631" fill="white"/>
<path fill-rule="evenodd" clip-rule="evenodd" d="M142.027 61.8676C143.705 61.471 145.436 61.3289 147.08 61.5967C151.083 62.249 153.609 65.1775 153.819 70.7788C154.036 76.5706 151.457 79.7409 147.124 80.6892C145.36 81.0752 143.502 81.0526 141.746 80.7856L141.472 80.7417C141.126 80.6835 140.862 80.6276 140.696 80.5858C140.241 80.4714 139.964 80.0098 140.079 79.5546C140.189 79.1157 140.622 78.843 141.061 78.9266L141.245 78.9683L141.333 78.9868C141.528 79.027 141.752 79.0675 142.002 79.1054C143.569 79.3437 145.23 79.3639 146.76 79.0289C150.306 78.2529 152.306 75.7946 152.12 70.8424L152.107 70.5546C151.862 65.9515 149.938 63.7844 146.806 63.2741C145.415 63.0474 143.897 63.1722 142.418 63.5216C142.132 63.5892 141.868 63.6609 141.63 63.7327L141.513 63.7687C141.427 63.7959 141.355 63.8194 141.301 63.8381L141.202 63.8731C140.762 64.0382 140.272 63.8158 140.107 63.3764C139.942 62.9371 140.165 62.4471 140.604 62.2821L140.714 62.2422C141.008 62.1381 141.458 62.0022 142.027 61.8676Z" fill="#2E186A"/>
<path fill-rule="evenodd" clip-rule="evenodd" d="M119.12 101.32C106.544 101.32 96.3464 91.1223 96.3464 78.5456V58.6608C96.3464 50.6162 102.89 44.0729 110.934 44.0729H130.876C136.966 44.0729 141.923 49.03 141.923 55.12V78.5172C141.923 91.0939 131.725 101.32 119.12 101.32Z" fill="white"/>
<path fill-rule="evenodd" clip-rule="evenodd" d="M130.875 43.2226H110.934C102.42 43.2226 95.4963 50.1463 95.4963 58.6602V78.545C95.4963 91.591 106.074 102.169 119.12 102.169L119.504 102.166C132.411 101.956 142.772 91.4265 142.772 78.5167V55.1195C142.772 48.5601 137.435 43.2226 130.875 43.2226ZM110.934 44.9232H130.875C136.496 44.9232 141.073 49.4998 141.073 55.1206V78.5178C141.073 90.4997 131.456 100.273 119.484 100.467L119.113 100.47C107.013 100.47 97.196 90.6535 97.196 78.5461V58.6613C97.196 51.0861 103.359 44.9232 110.934 44.9232Z" fill="#2E186A"/>
<path fill-rule="evenodd" clip-rule="evenodd" d="M147.22 89.3095C147.191 81.5765 146.115 75.9397 145.832 74.5234C145.832 74.4384 145.86 74.3251 145.86 74.2401C145.86 72.4556 144.415 71.011 142.631 71.011V74.2401L142.716 77.4693C143.396 77.441 144.019 77.2144 144.529 76.8461C145.577 83.3611 147.644 102.793 138.92 119.307C137.334 122.338 135.833 125.142 134.36 127.833C126.145 143.157 120.707 153.298 120.848 162.334C120.848 162.787 121.245 163.183 121.698 163.183C122.179 163.183 122.548 162.787 122.548 162.334C122.434 153.723 127.788 143.752 135.861 128.654C137.306 125.935 138.807 123.159 140.421 120.1C146.115 109.308 147.276 97.4107 147.22 89.3095Z" fill="#0D5EFB"/>
<path fill-rule="evenodd" clip-rule="evenodd" d="M94.1368 77.8374C94.5334 78.064 94.9583 78.2056 95.4398 78.2339V71.804C93.9385 71.9456 92.7488 73.0786 92.5506 74.5516C92.4656 74.6932 92.4089 74.8632 92.4089 75.0331C92.4089 76.3361 92.4089 106.843 101.473 120.609C110.736 134.716 113.597 142.76 114.248 156.413C114.277 156.867 114.645 157.235 115.098 157.235H115.126C115.608 157.207 115.948 156.81 115.948 156.357C115.296 142.307 112.379 134.093 102.89 119.675C95.6381 108.684 94.3634 85.7969 94.1368 77.8374Z" fill="#0D5EFB"/>
<path fill-rule="evenodd" clip-rule="evenodd" d="M112.138 64.0129C112.59 64.0052 112.966 64.3526 113 64.7982L113.002 64.8481L113.307 82.8305L113.32 82.8356C113.382 82.8556 113.45 82.8512 113.544 82.8167L113.586 82.8C114.022 82.6131 114.598 81.9809 115.259 80.771C115.484 80.3591 116 80.2075 116.412 80.4324C116.824 80.6574 116.975 81.1736 116.75 81.5855C115.198 84.4286 113.527 85.1433 112.193 84.1348C111.995 83.985 111.855 83.8309 111.766 83.703C111.682 83.5819 111.631 83.4413 111.618 83.2951L111.614 83.2321L111.303 64.877C111.295 64.4077 111.669 64.0208 112.138 64.0129Z" fill="#2E186A"/>
<path fill-rule="evenodd" clip-rule="evenodd" d="M121.091 85.5091C121.565 85.1988 122.204 85.4306 122.369 85.9725L122.389 86.0427C122.41 86.1212 122.433 86.2244 122.455 86.3497C122.63 87.3457 122.535 88.4473 121.966 89.5022C121.017 91.2598 118.966 92.4057 115.663 92.731C115.196 92.777 114.78 92.4356 114.734 91.9686C114.688 91.5015 115.029 91.0856 115.496 91.0396C118.278 90.7657 119.816 89.9061 120.47 88.6948C120.631 88.3962 120.733 88.0865 120.787 87.7774L120.805 87.6574L120.779 87.6716C117.085 89.6609 113.395 89.7935 111.567 87.7478L111.506 87.678C111.201 87.3209 111.244 86.7846 111.601 86.48C111.958 86.1754 112.494 86.218 112.799 86.5751C114.114 88.1165 117.593 87.7981 121.091 85.5091Z" fill="#2E186A"/>
<path fill-rule="evenodd" clip-rule="evenodd" d="M119.876 57.383C121.73 55.9727 123.932 55.822 126.306 57.7107C126.673 58.0029 126.734 58.5374 126.442 58.9047C126.15 59.272 125.615 59.3329 125.248 59.0408C123.53 57.6741 122.179 57.7665 120.905 58.7357C120.733 58.8667 120.579 59.0009 120.413 59.1603L120.101 59.4686C120.057 59.5108 120.02 59.5446 119.98 59.5769C119.87 59.6657 119.775 59.7254 119.61 59.7666C119.154 59.8805 118.693 59.6037 118.579 59.1483C118.494 58.8069 118.628 58.462 118.893 58.2628L118.93 58.2364L119.116 58.0515C119.37 57.7994 119.602 57.5917 119.876 57.383Z" fill="#2E186A"/>
<path fill-rule="evenodd" clip-rule="evenodd" d="M125.777 72.4547C126.559 72.4547 127.193 71.4782 127.193 70.2736C127.193 69.069 126.559 68.0925 125.777 68.0925C124.995 68.0925 124.361 69.069 124.361 70.2736C124.361 71.4782 124.995 72.4547 125.777 72.4547Z" fill="#2E186A"/>
<path fill-rule="evenodd" clip-rule="evenodd" d="M105.184 72.9918C105.966 72.9918 106.6 72.0153 106.6 70.8107C106.6 69.6061 105.966 68.6296 105.184 68.6296C104.402 68.6296 103.768 69.6061 103.768 70.8107C103.768 72.0153 104.402 72.9918 105.184 72.9918Z" fill="#2E186A"/>
<path fill-rule="evenodd" clip-rule="evenodd" d="M101.234 57.1161C103.355 55.424 105.681 55.3444 107.724 57.9683C108.012 58.3386 107.946 58.8726 107.575 59.1609C107.205 59.4492 106.671 59.3827 106.383 59.0124C105.004 57.2411 103.749 57.2841 102.294 58.4447C102.097 58.6017 101.919 58.7621 101.722 58.9544L101.389 59.2877C101.343 59.3316 101.306 59.3662 101.267 59.3986C101.151 59.4952 101.06 59.5545 100.886 59.598C100.431 59.7118 99.9695 59.435 99.8557 58.9797C99.7703 58.6382 99.9047 58.2933 100.169 58.0942L100.202 58.0708L100.421 57.8516C100.7 57.5727 100.946 57.3453 101.234 57.1161Z" fill="#2E186A"/>
<path fill-rule="evenodd" clip-rule="evenodd" d="M124.814 39.115C119.29 39.2 115.098 39.4549 112.605 39.9365C92.3241 44.5536 95.6099 59.5663 95.6099 59.5663C95.6099 59.5663 105.524 61.4642 113.597 49.5106C113.597 49.5106 124.672 58.5466 141.073 62.2006C141.328 62.144 141.639 62.059 141.923 61.974V62.7955C142.886 62.5406 144.444 62.2573 146.058 62.3706C145.888 56.4505 144.812 48.9724 139.94 44.157C136.484 40.7296 131.385 39.0301 124.814 39.115Z" fill="#263238"/>
<path fill-rule="evenodd" clip-rule="evenodd" d="M113.055 38.1028C116.287 37.654 121.374 37.359 125.758 37.3866C134.512 37.4793 140.363 40.7052 143.831 46.3945C145.196 48.6344 146.148 51.1836 146.789 54.0435C147.263 56.1547 147.516 58.0894 147.755 60.8233C147.795 61.2908 147.449 61.7029 146.982 61.7436C146.514 61.7844 146.102 61.4384 146.061 60.9708L146.016 60.4624C145.488 54.7554 144.582 50.8917 142.38 47.279C139.222 42.0978 133.916 39.1727 125.743 39.0861L125.244 39.0844C121.059 39.0816 116.313 39.3661 113.289 39.7862C112.824 39.8507 112.395 39.5262 112.33 39.0614C112.266 38.5965 112.59 38.1674 113.055 38.1028Z" fill="white"/>
<path fill-rule="evenodd" clip-rule="evenodd" d="M178.038 26.7925C171.041 6.7944 151.213 -4.45098 133.736 1.66741C119.375 6.6811 111.075 21.8921 112.435 38.2361C115.069 37.7829 119.205 37.4997 124.814 37.4147C131.867 37.3297 137.362 39.1709 141.158 42.9382C146.539 48.2635 147.644 56.3364 147.786 62.6247C150.392 63.3329 152.8 65.4573 152.998 70.8109C153.026 71.3491 152.545 75.513 152.658 75.4847C152.658 76.816 152.941 78.4873 153.933 80.1301C155.887 83.2743 159.853 85.2288 165.744 85.9086C165.773 85.9086 165.801 85.9086 165.858 85.9086C166.283 85.9086 166.651 85.597 166.708 85.1722C166.764 84.7189 166.424 84.2941 165.971 84.2374C160.646 83.6142 157.077 81.943 155.405 79.252C154.726 78.1757 154.471 77.071 154.386 76.1079C155.83 77.8074 158.351 79.6486 162.345 79.6486C163.308 79.6486 164.356 79.5353 165.49 79.3087C165.943 79.2237 166.254 78.7705 166.141 78.3173C166.056 77.8641 165.603 77.5525 165.15 77.6658C159.994 78.7422 157.133 76.7877 155.632 75.0315C156.793 74.7766 157.926 74.465 159.06 74.0684C176.508 67.9217 185.006 46.7622 178.038 26.7925Z" fill="#263238"/>
<path fill-rule="evenodd" clip-rule="evenodd" d="M126.995 59.5967C120.8 59.5967 115.778 64.6187 115.778 70.8137C115.778 77.0087 120.8 82.0308 126.995 82.0308C133.19 82.0308 138.212 77.0087 138.212 70.8137C138.212 64.6187 133.19 59.5967 126.995 59.5967ZM126.995 61.2963C132.251 61.2963 136.512 65.5574 136.512 70.8138C136.512 76.0701 132.251 80.3313 126.995 80.3313C121.738 80.3313 117.477 76.0701 117.477 70.8138C117.477 65.5574 121.738 61.2963 126.995 61.2963Z" fill="#2E186A"/>
<path fill-rule="evenodd" clip-rule="evenodd" d="M116.401 69.7083C116.87 69.7083 117.251 70.0888 117.251 70.5581C117.251 71.0106 116.897 71.3806 116.451 71.4064L116.401 71.4079H109.659C109.19 71.4079 108.81 71.0274 108.81 70.5581C108.81 70.1055 109.163 69.7356 109.609 69.7098L109.659 69.7083H116.401Z" fill="#2E186A"/>
<path fill-rule="evenodd" clip-rule="evenodd" d="M141.505 61.745C141.913 61.5141 142.432 61.6581 142.663 62.0667C142.885 62.4601 142.76 62.9554 142.385 63.1978L142.341 63.2246L136.478 66.5387C136.069 66.7697 135.551 66.6257 135.32 66.2171C135.097 65.8236 135.223 65.3283 135.597 65.086L135.641 65.0592L141.505 61.745Z" fill="#2E186A"/>
<path fill-rule="evenodd" clip-rule="evenodd" d="M98.9526 59.5967C92.7576 59.5967 87.7356 64.6187 87.7356 70.8137C87.7356 77.0087 92.7576 82.0308 98.9526 82.0308C105.148 82.0308 110.17 77.0087 110.17 70.8137C110.17 64.6187 105.148 59.5967 98.9526 59.5967ZM98.9525 61.2963C104.209 61.2963 108.47 65.5574 108.47 70.8138C108.47 76.0701 104.209 80.3313 98.9525 80.3313C93.6961 80.3313 89.435 76.0701 89.435 70.8138C89.435 65.5574 93.6961 61.2963 98.9525 61.2963Z" fill="#2E186A"/>
<path fill-rule="evenodd" clip-rule="evenodd" d="M170.248 189.16H164.356L161.467 146.303C161.268 143.3 158.662 140.864 155.66 140.864H73.5431C70.5405 140.864 68.2461 143.3 68.4727 146.303L71.6735 193.748C71.8718 196.751 74.4778 199.187 77.4804 199.187L170.219 199.074C171.919 199.074 173.279 197.686 173.279 196.015V192.247C173.307 190.548 171.947 189.16 170.248 189.16Z" fill="#0D5EFB"/>
<path d="M92.96 174H94.46L95.52 170.15C95.74 169.38 95.95 168.53 96.15 167.73H96.19C96.4 168.52 96.61 169.38 96.83 170.15L97.89 174H99.44L97.07 166.6H95.33L92.96 174ZM94.43 172.1H97.95V170.96H94.43V172.1ZM100.216 174H101.696V166.6H100.216V174ZM102.907 170.84V171.87H111.277V170.84H102.907ZM106.537 171.6V173H107.877V171.6H106.537ZM103.877 173.7V174.73H110.367V173.7H103.877ZM103.877 172.44V174.35H105.197V172.44H103.877ZM103.307 166.38V167.38H110.847V166.38H103.307ZM107.097 167.64C105.127 167.64 103.997 168.13 103.997 169.05C103.997 169.97 105.127 170.47 107.097 170.47C109.067 170.47 110.197 169.97 110.197 169.05C110.197 168.13 109.067 167.64 107.097 167.64ZM107.097 168.57C108.297 168.57 108.837 168.71 108.837 169.05C108.837 169.39 108.297 169.53 107.097 169.53C105.887 169.53 105.357 169.39 105.357 169.05C105.357 168.71 105.887 168.57 107.097 168.57ZM106.427 165.59V167.02H107.757V165.59H106.427ZM112.476 166.36V170.84H116.966V166.36H112.476ZM115.666 167.41V169.79H113.776V167.41H115.666ZM118.366 165.64V172.22H119.706V165.64H118.366ZM113.536 173.63V174.7H119.936V173.63H113.536ZM113.536 171.62V174.1H114.866V171.62H113.536ZM126.125 167.87V168.95H127.885V167.87H126.125ZM127.525 165.63V171.13H128.855V165.63H127.525ZM125.715 171.33C123.755 171.33 122.545 172 122.545 173.12C122.545 174.25 123.755 174.9 125.715 174.9C127.675 174.9 128.885 174.25 128.885 173.12C128.885 172 127.675 171.33 125.715 171.33ZM125.715 172.34C126.925 172.34 127.565 172.59 127.565 173.12C127.565 173.64 126.925 173.89 125.715 173.89C124.515 173.89 123.875 173.64 123.875 173.12C123.875 172.59 124.515 172.34 125.715 172.34ZM123.245 166.56V167.14C123.245 168.33 122.585 169.56 121.055 170.08L121.735 171.13C123.505 170.53 124.325 168.91 124.325 167.14V166.56H123.245ZM123.525 166.56V167.14C123.525 168.79 124.315 170.33 126.035 170.9L126.685 169.85C125.225 169.36 124.595 168.23 124.595 167.14V166.56H123.525ZM121.415 166.19V167.25H126.395V166.19H121.415ZM134.395 165.8C132.355 165.8 131.045 166.49 131.045 167.61C131.045 168.73 132.355 169.41 134.395 169.41C136.435 169.41 137.745 168.73 137.745 167.61C137.745 166.49 136.435 165.8 134.395 165.8ZM134.395 166.83C135.655 166.83 136.375 167.08 136.375 167.61C136.375 168.13 135.655 168.39 134.395 168.39C133.125 168.39 132.415 168.13 132.415 167.61C132.415 167.08 133.125 166.83 134.395 166.83ZM131.175 171.63V174.79H137.575V171.63H131.175ZM136.275 172.68V173.74H132.485V172.68H136.275ZM130.205 169.94V170.99H138.575V169.94H130.205Z" fill="white"/>
</g>
<defs>
<clipPath id="clip0_333_28843">
<rect width="227" height="199" fill="white"/>
</clipPath>
</defs>
</svg>
