<svg width="308" height="202" viewBox="0 0 308 202" fill="none" xmlns="http://www.w3.org/2000/svg">
<g clip-path="url(#clip0_333_28905)">
<path d="M90.6322 125.159C88.5529 126.027 83.5032 125.924 83.5032 125.924C83.5032 125.924 84.5963 122.715 84.6913 122.498C85.8082 120.214 89.3371 116.548 92.2125 116.925C92.688 116.999 93.1419 117.17 93.5445 117.424C93.9472 117.678 94.2897 118.011 94.5497 118.401C94.8097 118.791 94.9813 119.229 95.0536 119.687C95.1258 120.145 95.097 120.613 94.969 121.059C94.4105 122.989 92.4026 124.417 90.6322 125.159Z" fill="#F0AE00"/>
<path d="M335.905 0C335.905 0 320.91 4.97941 318.641 12.5627C316.371 20.146 305.131 61.8657 302.113 68.0443C299.095 74.2228 292.287 77.8432 292.287 82.5713C292.287 87.2995 291.919 90.9198 291.919 90.9198C291.919 90.9198 283.982 91.2853 283.221 97.4524C282.461 103.62 280.964 111.614 280.964 111.614L250.725 156.566C250.725 156.566 232.7 157.959 228.542 157.605C224.383 157.251 212.038 157.993 207.523 160.277C205.776 161.168 202.295 164.046 199.562 173.297C198.208 177.865 195.202 186.785 197.091 186.419C198.98 186.054 201.309 181.006 202.057 179.91C203.187 177.535 204.178 175.103 205.028 172.623C205.028 172.623 203.519 183.153 203.139 185.334C202.965 186.823 203.224 188.33 203.887 189.686L204.054 189.754C205.911 190.479 207.966 190.595 209.899 190.085L211.444 189.686C212.9 190.442 214.609 190.614 216.197 190.165L217.884 189.686C217.884 189.686 220.331 182.228 222.636 179.327C224.942 176.426 232.023 173.263 232.023 173.263C232.023 173.263 224.336 181.703 224.716 187.15C224.87 189.354 224.336 191.136 226.225 190.051C228.114 188.966 230.383 183.519 234.542 181.703C238.701 179.887 248.515 177.34 252.293 175.159C256.072 172.977 262.119 164.994 262.119 164.994L311.559 122.201C311.559 122.201 316.466 117.484 317.227 114.938L317.975 112.402C317.975 112.402 324.784 108.405 326.673 106.224C328.562 104.042 329.31 99.3711 329.31 99.3711L339.517 88.1218L332.709 26.0277" fill="white"/>
<path d="M335.905 0C335.905 0 320.91 4.97941 318.641 12.5627C316.371 20.146 305.131 61.8657 302.113 68.0443C299.095 74.2228 292.287 77.8432 292.287 82.5713C292.287 87.2995 291.919 90.9198 291.919 90.9198C291.919 90.9198 283.982 91.2853 283.221 97.4524C282.461 103.62 280.964 111.614 280.964 111.614L250.725 156.566C250.725 156.566 232.7 157.959 228.542 157.605C224.383 157.251 212.038 157.993 207.523 160.277C205.776 161.168 202.295 164.046 199.562 173.297C198.208 177.865 195.202 186.785 197.091 186.419C198.98 186.054 201.309 181.006 202.057 179.91C203.187 177.535 204.178 175.103 205.028 172.623C205.028 172.623 203.519 183.153 203.139 185.334C202.965 186.823 203.224 188.33 203.887 189.686L204.054 189.754C205.911 190.479 207.966 190.595 209.899 190.085L211.444 189.686C212.9 190.442 214.609 190.614 216.197 190.165L217.884 189.686C217.884 189.686 220.331 182.228 222.636 179.327C224.942 176.426 232.023 173.263 232.023 173.263C232.023 173.263 224.336 181.703 224.716 187.15C224.87 189.354 224.336 191.136 226.225 190.051C228.114 188.966 230.383 183.519 234.542 181.703C238.701 179.887 248.515 177.34 252.293 175.159C256.072 172.977 262.119 164.994 262.119 164.994L311.559 122.201C311.559 122.201 316.466 117.484 317.227 114.938L317.975 112.402C317.975 112.402 324.784 108.405 326.673 106.224C328.562 104.042 329.31 99.3711 329.31 99.3711L339.517 88.1218L332.709 26.0277" stroke="#263238" stroke-width="1.39649" stroke-linecap="round" stroke-linejoin="round"/>
<path d="M336.57 40.372L339.517 88.0875L329.31 99.3597C329.31 99.3597 328.562 104.088 326.673 106.212C324.784 108.336 317.975 112.391 317.975 112.391L317.227 114.926C316.466 117.473 311.559 122.19 311.559 122.19L304.157 128.608C301.139 122.966 293.986 112.79 281.059 111.157C281.392 109.33 282.58 102.763 283.221 97.4524C283.982 91.2853 291.919 90.9198 291.919 90.9198C291.919 90.9198 292.287 87.2881 292.287 82.5713C292.287 77.8546 299.095 74.2114 302.113 68.0443C305.131 61.8771 316.371 20.1917 318.641 12.5627C320.91 4.93372 335.905 0 335.905 0" fill="white"/>
<path d="M336.57 40.372L339.517 88.0875L329.31 99.3597C329.31 99.3597 328.562 104.088 326.673 106.212C324.784 108.336 317.975 112.391 317.975 112.391L317.227 114.926C316.466 117.473 311.559 122.19 311.559 122.19L304.157 128.608C301.139 122.966 293.986 112.79 281.059 111.157C281.392 109.33 282.58 102.763 283.221 97.4524C283.982 91.2853 291.919 90.9198 291.919 90.9198C291.919 90.9198 292.287 87.2881 292.287 82.5713C292.287 77.8546 299.095 74.2114 302.113 68.0443C305.131 61.8771 316.371 20.1917 318.641 12.5627C320.91 4.93372 335.905 0 335.905 0" stroke="#263238" stroke-width="1.39649" stroke-linecap="round" stroke-linejoin="round"/>
<path d="M302.08 97.3834C301.034 96.6867 299.918 96.0015 298.718 95.3391" stroke="#263238" stroke-width="1.39649" stroke-linecap="round" stroke-linejoin="round"/>
<path d="M305.905 90.9423C304.259 90.6843 302.592 90.5773 300.926 90.6225" stroke="#263238" stroke-width="1.39649" stroke-linecap="round" stroke-linejoin="round"/>
<path d="M229.959 175.958C229.959 175.958 234.117 170.51 239.785 170.144" stroke="#263238" stroke-width="1.39649" stroke-linecap="round" stroke-linejoin="round"/>
<path d="M228.07 163.977C228.07 163.977 223.543 165.062 217.876 171.971C212.208 178.881 210.747 189.045 210.747 189.045" stroke="#263238" stroke-width="1.39649" stroke-linecap="round" stroke-linejoin="round"/>
<path d="M217.256 162.527C217.256 162.527 208.808 169.06 207.299 175.227C205.79 181.394 203.889 189.754 203.889 189.754" stroke="#263238" stroke-width="1.39649" stroke-linecap="round" stroke-linejoin="round"/>
<path d="M205.03 172.692C206.067 168.537 207.857 164.59 210.317 161.031" stroke="#263238" stroke-width="1.39649" stroke-linecap="round" stroke-linejoin="round"/>
<path d="M90.5626 187.196H194.825L166.118 95.6937H61.8564L90.5626 187.196Z" fill="#E1E1E1" stroke="black" stroke-width="1.39649" stroke-linecap="round" stroke-linejoin="round"/>
<path d="M128 153C120.82 153 115 147.627 115 141C115 134.373 120.82 129 128 129C135.18 129 141 134.373 141 141C141 147.627 135.18 153 128 153Z" fill="#0D5EFB" stroke="#263238" stroke-width="1.39649" stroke-linecap="round" stroke-linejoin="round"/>
<path d="M122.92 145H124.74L125.67 141.28C125.86 140.54 126.06 139.67 126.24 138.89H126.28C126.48 139.65 126.67 140.54 126.87 141.28L127.8 145H129.68L127.37 137.55H125.23L122.92 145ZM124.49 143.29H128.09V141.91H124.49V143.29ZM130.462 145H132.252V137.55H130.462V145Z" fill="white"/>
<path d="M89.433 186.83H284.364V192.643H89.433V186.83Z" fill="white" stroke="#0A297A" stroke-width="1.39649" stroke-linecap="round" stroke-linejoin="round"/>
<path d="M89.4224 186.83H196.484V192.643H89.4224V186.83Z" fill="#0D5EFB" stroke="#263238" stroke-width="1.39649" stroke-linecap="round" stroke-linejoin="round"/>
<path d="M189.158 186.83L188.777 187.196H187.886C188.322 187.117 188.748 186.995 189.158 186.83Z" fill="#263238" stroke="#263238" stroke-width="1.39649" stroke-linecap="round" stroke-linejoin="round"/>
</g>
<defs>
<clipPath id="clip0_333_28905">
<rect width="308" height="202" fill="white" transform="matrix(-1 0 0 1 308 0)"/>
</clipPath>
</defs>
</svg>
