<svg width="95" height="94" viewBox="0 0 95 94" fill="none" xmlns="http://www.w3.org/2000/svg">
<path d="M30.1953 34.1721C30.4249 33.2536 30.4793 31.5541 29.5618 30.2019M27.714 28.7131C28.5642 29.0775 29.1574 29.606 29.5618 30.2019M29.5618 30.2019C27.2916 31.5253 22.0565 33.0803 19.2774 28.7131C18.2849 25.7355 17.3916 19.0855 21.7588 16.3064C23.0925 15.4577 25.7772 14.4134 28.2103 15.167M28.2103 21.7654C31.7834 21.3684 31.3533 18.2915 30.6916 16.8027C29.9495 15.9546 29.0966 15.4415 28.2103 15.167M28.2103 15.167C28.8719 13.8926 30.6916 11.3438 32.6767 11.3438H37.1431C37.8048 11.3438 39.1282 11.9393 39.1282 14.3214V18.2915" stroke="black" stroke-width="1.48881" stroke-linecap="round"/>
<path d="M53.7895 41.9525C54.8873 41.5107 56.0027 41.1825 57.1227 40.9624C57.4971 40.8888 57.8378 41.1728 57.8822 41.5518C57.924 41.9092 57.6905 42.2535 57.3376 42.324C56.3182 42.5275 55.303 42.8279 54.3036 43.2301C45.6014 46.7321 41.3858 56.6256 44.8878 65.3278C45.1704 66.0299 45.4945 66.7028 45.8563 67.3448C46.0149 67.6262 45.9202 67.9862 45.6716 68.1924C45.3627 68.4485 44.8801 68.4155 44.6821 68.0665C44.281 67.3592 43.9221 66.617 43.6102 65.8419C39.8243 56.4341 44.3817 45.7385 53.7895 41.9525Z" fill="black"/>
<path d="M51.5085 73.9894C51.2548 74.3001 51.2831 74.7894 51.6327 74.986C56.3214 77.623 62.121 78.1857 67.4997 76.0212C76.9075 72.2352 81.4649 61.5395 77.6789 52.1317C76.5761 49.3914 74.8871 47.0626 72.8144 45.2317C72.5284 44.9791 72.0898 45.0538 71.8599 45.3582C71.6429 45.6456 71.672 46.0591 71.9411 46.2983C73.8403 47.9866 75.3883 50.1285 76.4013 52.6459C79.9033 61.3481 75.6878 71.2416 66.9855 74.7436C62.0258 76.7395 56.6791 76.2286 52.3493 73.8088C52.0672 73.6512 51.7129 73.7391 51.5085 73.9894Z" fill="black"/>
<circle cx="60.0624" cy="58.5123" r="12.7257" transform="rotate(-21.9213 60.0624 58.5123)" stroke="black" stroke-width="1.48881"/>
<path d="M38.809 24.7412V26.7263M38.809 49.5546C38.9744 51.5397 38.2135 55.5099 33.8463 55.5099M38.809 49.5546C37.7329 47.8059 35.191 45.2916 32.3575 46.5477M38.809 49.5546V26.7263M30.3724 48.0658C31.04 47.3241 31.7065 46.8364 32.3575 46.5477M32.3575 46.5477C31.365 46.0612 29.5784 44.3934 30.3724 41.6143M38.809 26.7263C38.0584 26.6429 36.9041 26.7193 35.8931 27.2226M33.8463 30.2002C34.0432 28.6254 34.8988 27.7175 35.8931 27.2226M35.8931 27.2226C35.2108 27.388 33.8463 27.1233 33.8463 24.7412M44.268 24.7412V26.7263M44.268 41.1181V26.7263M44.268 26.7263C44.7848 26.8124 45.7054 26.8358 46.7493 26.6141M49.7269 25.2375C48.7755 25.9986 47.7102 26.4101 46.7493 26.6141M46.7493 26.6141C47.9073 27.1478 50.1239 28.7114 49.7269 30.6964" stroke="black" stroke-width="1.48881" stroke-linecap="round"/>
<path d="M51.2158 57.4982C54.5243 57.4982 62.1337 56.3071 66.1039 51.543M59.1561 68.4161V63.4534C59.1561 62.4609 58.5606 60.6743 56.1785 61.4683C55.186 61.7992 52.9031 62.4609 51.7121 62.4609M70.074 55.5131C68.2544 56.5057 64.5158 59.0863 64.1188 61.4683V68.4161" stroke="#2B78D3" stroke-width="1.48881" stroke-linecap="round"/>
<path d="M53.697 34.1721C53.4674 33.2536 53.4131 31.5541 54.3306 30.2019M56.1784 28.7131C55.3282 29.0775 54.735 29.606 54.3306 30.2019M54.3306 30.2019C56.6007 31.5253 61.8358 33.0803 64.6149 28.7131C65.6075 25.7355 66.5007 19.0855 62.1336 16.3064C60.7998 15.4577 58.1151 14.4134 55.6821 15.167M55.6821 21.7654C52.1089 21.3684 52.539 18.2915 53.2007 16.8027C53.9428 15.9546 54.7957 15.4415 55.6821 15.167M55.6821 15.167C55.0204 13.8926 53.2007 11.3438 51.2157 11.3438H46.7492C46.0875 11.3438 44.7642 11.9393 44.7642 14.3214V18.2915" stroke="black" stroke-width="1.48881" stroke-linecap="round"/>
<path d="M65.6074 24.7425C68.585 25.4042 74.1433 29.1097 72.5552 38.6381M18.4619 23.75C15.6497 24.7425 10.3231 29.0104 11.5141 38.1418C11.6349 40.1942 12.6367 43.6388 15.4843 45.0416M18.9582 38.6381C19.289 39.4652 20.5462 40.9209 22.9283 40.1269C23.7224 43.303 20.9433 45.0896 19.4545 45.5858C17.8455 45.8003 16.5384 45.5609 15.4843 45.0416M15.4843 45.0416C13.9955 48.6969 12.5067 57.2978 18.4619 62.459C19.4676 63.2411 21.3336 64.0535 22.9283 63.1525M24.9134 60.4739C25.4097 58.4888 25.4097 54.6179 21.4395 55.0149M24.9134 60.4739C25.9059 60.3085 28.288 60.1761 29.8761 60.9701M24.9134 60.4739C24.398 61.8911 23.6945 62.7196 22.9283 63.1525M22.9283 63.1525C22.1012 65.7335 23.9209 73.3769 30.6246 70.8955M33.35 65.9328C31.6958 66.5945 28.9828 68.8112 31.3649 72.3843C32.6883 73.8731 35.9306 76.4537 38.3127 74.8657C38.4781 74.5348 38.8089 73.3769 38.8089 71.3918V69.903M38.8089 63.1525V69.903M38.8089 69.903C37.4856 69.7376 34.7395 69.6052 34.3425 70.3993" stroke="black" stroke-width="1.48881" stroke-linecap="round"/>
</svg>
