<svg width="96" height="94" viewBox="0 0 96 94" fill="none" xmlns="http://www.w3.org/2000/svg">
<path d="M21.3633 33.3992V25.4235C21.6956 22.2665 25.052 15.2546 35.8192 12.4631C38.6439 11.7984 46.1876 10.9676 53.7644 12.9616C57.0876 13.7923 64.3322 14.9554 66.7249 12.9616C67.3039 12.5273 68.3116 11.4878 68.2981 10.4362C68.2967 10.3281 68.4617 10.2441 68.5313 10.3269C70.2631 12.3845 73.2051 17.0564 73.2051 21.9342V33.8977" stroke="black" stroke-width="1.49544" stroke-linecap="round"/>
<path d="M69.4378 20.7323C69.3244 20.3353 68.9105 20.1053 68.5134 20.2188C68.1164 20.3322 67.8865 20.7461 67.9999 21.1431L69.4378 20.7323ZM66.7249 33.3997L66.9614 34.109L66.9822 34.1021L67.0026 34.0939L66.7249 33.3997ZM56.2569 30.4088L55.7011 30.909L56.2569 30.4088ZM41.2348 19.6946C40.8235 19.732 40.5205 20.0957 40.5578 20.5069C40.5952 20.9182 40.9589 21.2213 41.3702 21.1839L41.2348 19.6946ZM64.9132 21.6253C64.7424 21.2493 64.2991 21.0831 63.9231 21.254C63.5472 21.4249 63.381 21.8682 63.5518 22.2441L64.9132 21.6253ZM63.7341 27.9164L63.6111 27.1789L63.5694 27.1859L63.5286 27.1975L63.7341 27.9164ZM55.3892 20.0331C55.1649 19.6864 54.7019 19.5872 54.3552 19.8115C54.0085 20.0358 53.9093 20.4987 54.1337 20.8455L55.3892 20.0331ZM67.9999 21.1431C68.4839 22.8372 68.9637 25.4685 68.8444 27.8415C68.722 30.2781 67.9973 32.0854 66.4472 32.7055L67.0026 34.0939C69.4404 33.1188 70.2112 30.4398 70.338 27.9166C70.468 25.3297 69.9507 22.5276 69.4378 20.7323L67.9999 21.1431ZM66.4885 32.6903C64.6724 33.2957 60.1383 33.6038 56.8126 29.9086L55.7011 30.909C59.5536 35.1895 64.7896 34.833 66.9614 34.109L66.4885 32.6903ZM56.8126 29.9086C56.096 29.1124 55.3711 28.0733 54.4923 26.8909C53.63 25.7307 52.6465 24.4724 51.4658 23.3393C49.0802 21.0498 45.8853 19.2718 41.2348 19.6946L41.3702 21.1839C45.4929 20.8091 48.2798 22.3543 50.4303 24.4182C51.5177 25.4618 52.4409 26.6378 53.2921 27.783C54.1268 28.9061 54.9223 30.0437 55.7011 30.909L56.8126 29.9086ZM63.5518 22.2441C63.9482 23.1161 64.3825 24.4166 64.4456 25.5047C64.4774 26.0513 64.41 26.4619 64.2728 26.7296C64.1578 26.954 63.9778 27.1178 63.6111 27.1789L63.857 28.654C64.6867 28.5157 65.271 28.0605 65.6036 27.4116C65.914 26.8059 65.9775 26.0887 65.9386 25.4181C65.8605 24.0721 65.3477 22.581 64.9132 21.6253L63.5518 22.2441ZM63.5286 27.1975C63.2665 27.2724 62.3601 27.2443 60.8797 26.2282C59.4355 25.237 57.5471 23.3681 55.3892 20.0331L54.1337 20.8455C56.3623 24.2898 58.3788 26.3256 60.0334 27.4612C61.6519 28.572 63.0385 28.8928 63.9395 28.6354L63.5286 27.1975Z" fill="#2B78D3"/>
<path d="M61.2418 39.3793V38.6316H61.2079L61.1741 38.6346L61.2418 39.3793ZM50.7737 34.3945L51.327 33.8915L51.3217 33.8857L50.7737 34.3945ZM38.8102 28.4127L38.8569 29.159L38.9007 29.1563L38.944 29.1484L38.8102 28.4127ZM29.3391 34.3945L28.6177 34.1978L28.6013 34.258L28.5951 34.3201L29.3391 34.3945ZM27.3452 40.8747L26.8165 40.346L26.7872 40.3753L26.7613 40.4076L27.3452 40.8747ZM36.8163 79.7561L37.1931 79.1102L37.1576 79.0895L37.12 79.0728L36.8163 79.7561ZM46.7859 83.2455L46.8356 82.4994L46.8108 82.4977H46.7859V83.2455ZM64.2327 72.7774L64.7859 73.2804L64.8553 73.204L64.9014 73.1118L64.2327 72.7774ZM31.8315 43.6164C31.4186 43.6164 31.0838 43.9511 31.0838 44.3641C31.0838 44.777 31.4186 45.1118 31.8315 45.1118V43.6164ZM39.8072 44.3641L39.8999 43.6221L39.8537 43.6164H39.8072V44.3641ZM43.795 49.3489H43.0473V49.3708L43.0486 49.3928L43.795 49.3489ZM43.2965 59.3185L42.6744 58.9037L42.6486 58.9424L42.6278 58.9841L43.2965 59.3185ZM47.2844 63.8048L47.2223 64.5499L47.2906 64.5556L47.3588 64.5488L47.2844 63.8048ZM50.9244 59.446C50.7196 59.0874 50.2628 58.9628 49.9043 59.1677C49.5457 59.3726 49.4212 59.8294 49.626 60.1879L50.9244 59.446ZM31.9232 49.8868C31.6697 49.5608 31.1999 49.5021 30.874 49.7556C30.548 50.0091 30.4893 50.4789 30.7428 50.8049L31.9232 49.8868ZM41.2189 51.4664C41.5625 51.2374 41.6553 50.7731 41.4263 50.4295C41.1972 50.0859 40.733 49.9931 40.3894 50.2222L41.2189 51.4664ZM52.8594 49.8868C52.6058 49.5608 52.1361 49.5021 51.8101 49.7556C51.4841 50.0091 51.4254 50.4789 51.6789 50.8049L52.8594 49.8868ZM62.155 51.4664C62.4986 51.2374 62.5915 50.7731 62.3624 50.4295C62.1333 50.0859 61.6691 49.9931 61.3255 50.2222L62.155 51.4664ZM50.578 47.0773C50.4246 47.4607 50.6111 47.8958 50.9945 48.0492C51.3779 48.2026 51.8131 48.0161 51.9664 47.6326L50.578 47.0773ZM62.2388 45.6103C62.6517 45.6103 62.9865 45.2755 62.9865 44.8626C62.9865 44.4496 62.6517 44.1148 62.2388 44.1148V45.6103ZM40.5987 71.56C40.2017 71.6734 39.9717 72.0873 40.0852 72.4843C40.1986 72.8814 40.6125 73.1113 41.0096 72.9979L40.5987 71.56ZM52.4899 72.9732C52.8734 73.1265 53.3085 72.94 53.4619 72.5566C53.6152 72.1732 53.4288 71.738 53.0453 71.5847L52.4899 72.9732ZM50.7737 75.519C51.1867 75.519 51.5214 75.1843 51.5214 74.7713C51.5214 74.3584 51.1867 74.0236 50.7737 74.0236V75.519ZM43.2965 74.0236C42.8836 74.0236 42.5488 74.3584 42.5488 74.7713C42.5488 75.1843 42.8836 75.519 43.2965 75.519V74.0236ZM67.6343 62.0956L68.3755 62.1937L67.6343 62.0956ZM68.4908 61.1412L68.7029 61.8581L68.4908 61.1412ZM24.9816 60.7304L25.1333 59.9982L24.9816 60.7304ZM23.4727 44.084L23.1325 43.4181L23.4727 44.084ZM69.7872 38.6316H61.2418V40.127H69.7872V38.6316ZM61.1741 38.6346C59.571 38.7804 55.1513 38.0983 51.327 33.8915L50.2205 34.8975C54.3718 39.4639 59.257 40.3105 61.3095 40.1239L61.1741 38.6346ZM51.3217 33.8857C50.2026 32.6805 48.2548 30.9378 46.0118 29.5911C43.7943 28.2598 41.144 27.2284 38.6765 27.6771L38.944 29.1484C40.8631 28.7995 43.1145 29.5959 45.2421 30.8732C47.3441 32.1353 49.1848 33.7822 50.2258 34.9033L51.3217 33.8857ZM38.7636 27.6665C37.3556 27.7545 35.1872 28.1721 33.1967 29.1498C31.2078 30.1267 29.2942 31.7174 28.6177 34.1978L30.0605 34.5912C30.5804 32.6849 32.073 31.3679 33.856 30.4921C35.6373 29.6171 37.6063 29.2372 38.8569 29.159L38.7636 27.6665ZM28.5951 34.3201C28.5151 35.1204 28.3215 36.4025 28.0048 37.621C27.8465 38.23 27.6615 38.8078 27.4514 39.2952C27.2367 39.7935 27.018 40.1444 26.8165 40.346L27.8739 41.4034C28.2705 41.0068 28.5794 40.4563 28.8248 39.887C29.0748 39.3069 29.2823 38.6509 29.4522 37.9971C29.7918 36.6901 29.997 35.3302 30.0831 34.4689L28.5951 34.3201ZM26.7613 40.4076C26.2038 41.1046 24.7516 42.591 23.1325 43.4181L23.8129 44.7499C25.6871 43.7923 27.2952 42.1342 27.9291 41.3418L26.7613 40.4076ZM22.1112 45.039V58.3215H23.6066V45.039H22.1112ZM22.1112 58.3215C22.1112 59.2843 22.7103 61.0233 24.8298 61.4625L25.1333 59.9982C23.9046 59.7436 23.6066 58.7976 23.6066 58.3215H22.1112ZM25.2425 61.7977C25.6946 64.4894 26.7257 68.3302 28.5161 71.8955C30.2996 75.4472 32.8893 78.829 36.5126 80.4394L37.12 79.0728C33.9545 77.666 31.5686 74.6419 29.8525 71.2244C28.1431 67.8204 27.1504 64.1287 26.7172 61.55L25.2425 61.7977ZM36.4396 80.402C37.466 81.0007 39.195 81.8903 41.0783 82.6326C42.9426 83.3674 45.0447 83.9932 46.7859 83.9932V82.4977C45.3369 82.4977 43.4511 81.9604 41.6266 81.2413C39.8212 80.5297 38.1606 79.6746 37.1931 79.1102L36.4396 80.402ZM46.7362 83.9915C48.1623 84.0866 50.6669 83.6076 53.79 82.0312C56.9325 80.445 60.7428 77.7278 64.7859 73.2804L63.6794 72.2744C59.7469 76.6002 56.08 79.2002 53.1161 80.6962C50.1328 82.2021 47.9019 82.5705 46.8356 82.4994L46.7362 83.9915ZM64.9014 73.1118C65.8583 71.1981 67.806 66.5014 68.3755 62.1937L66.893 61.9976C66.3538 66.0755 64.4833 70.6042 63.5639 72.443L64.9014 73.1118ZM68.7029 61.8581C69.3627 61.6629 70.1513 61.321 70.7894 60.7689C71.4417 60.2046 71.9591 59.3956 71.9591 58.3215H70.4637C70.4637 58.8608 70.2195 59.2845 69.8109 59.638C69.3881 60.0038 68.8164 60.265 68.2786 60.4242L68.7029 61.8581ZM71.9591 58.3215V40.8035H70.4637V58.3215H71.9591ZM31.8315 45.1118H39.8072V43.6164H31.8315V45.1118ZM39.7144 45.106C40.2421 45.172 41.0868 45.4626 41.7889 46.1191C42.4683 46.7543 43.0473 47.7611 43.0473 49.3489H44.5427C44.5427 47.3476 43.7925 45.9451 42.8102 45.0267C41.8507 44.1296 40.7016 43.7223 39.8999 43.6221L39.7144 45.106ZM43.0486 49.3928C43.1309 50.7913 43.2048 52.9634 43.1597 54.9271C43.1371 55.9104 43.085 56.8258 42.9924 57.5597C42.9461 57.9269 42.8913 58.2352 42.8294 58.477C42.7641 58.7319 42.7041 58.8591 42.6744 58.9037L43.9187 59.7332C44.0883 59.4787 44.1986 59.1583 44.2781 58.8479C44.3609 58.5244 44.4253 58.1496 44.4761 57.7468C44.5778 56.9405 44.6316 55.968 44.6547 54.9615C44.701 52.9457 44.6253 50.7311 44.5414 49.305L43.0486 49.3928ZM42.6278 58.9841C42.2313 59.777 41.9515 61.0683 42.5866 62.2618C43.2389 63.4876 44.7078 64.3404 47.2223 64.5499L47.3465 63.0596C45.0756 62.8704 44.2182 62.1446 43.9068 61.5593C43.5781 60.9417 43.6971 60.1892 43.9653 59.6528L42.6278 58.9841ZM47.3588 64.5488C48.2532 64.4593 49.5772 64.1354 50.4848 63.3655C50.9566 62.9653 51.344 62.4186 51.4535 61.7083C51.5622 61.0031 51.3805 60.244 50.9244 59.446L49.626 60.1879C49.9676 60.7856 50.0184 61.2021 49.9755 61.4804C49.9334 61.7535 49.7849 61.9982 49.5174 62.2252C48.9461 62.7098 47.9771 62.984 47.21 63.0608L47.3588 64.5488ZM30.7428 50.8049C31.4235 51.68 32.7451 52.7087 34.5586 53.0844C36.3993 53.4657 38.6781 53.1603 41.2189 51.4664L40.3894 50.2222C38.1448 51.7186 36.2696 51.9116 34.8619 51.62C33.427 51.3228 32.4057 50.5071 31.9232 49.8868L30.7428 50.8049ZM51.6789 50.8049C52.3596 51.68 53.6812 52.7087 55.4947 53.0844C57.3354 53.4657 59.6142 53.1603 62.155 51.4664L61.3255 50.2222C59.0809 51.7186 57.2057 51.9116 55.798 51.62C54.3631 51.3228 53.3418 50.5071 52.8594 49.8868L51.6789 50.8049ZM51.9664 47.6326C52.0936 47.3146 52.404 46.7905 52.8918 46.355C53.3695 45.9284 53.9884 45.6103 54.7616 45.6103V44.1148C53.5408 44.1148 52.5812 44.6275 51.8958 45.2394C51.2205 45.8424 50.7831 46.5645 50.578 47.0773L51.9664 47.6326ZM54.7616 45.6103H62.2388V44.1148H54.7616V45.6103ZM41.0096 72.9979C42.1209 72.6803 44.0591 72.2914 46.2022 72.1782C48.3547 72.0645 50.6401 72.2332 52.4899 72.9732L53.0453 71.5847C50.9074 70.7295 48.3741 70.5659 46.1233 70.6848C43.8632 70.8042 41.8137 71.2128 40.5987 71.56L41.0096 72.9979ZM50.7737 74.0236H43.2965V75.519H50.7737V74.0236ZM68.3755 62.1937C68.3922 62.0678 68.5026 61.9174 68.7029 61.8581L68.2786 60.4242C67.5928 60.6271 66.9975 61.2073 66.893 61.9976L68.3755 62.1937ZM24.8298 61.4625C25.1007 61.5187 25.2236 61.6853 25.2425 61.7977L26.7172 61.55C26.5706 60.6767 25.8409 60.1448 25.1333 59.9982L24.8298 61.4625ZM23.1325 43.4181C22.5532 43.7141 22.1112 44.3144 22.1112 45.039H23.6066C23.6066 44.9483 23.6661 44.8248 23.8129 44.7499L23.1325 43.4181ZM69.7872 40.127C70.1608 40.127 70.4637 40.4299 70.4637 40.8035H71.9591C71.9591 39.604 70.9867 38.6316 69.7872 38.6316V40.127Z" fill="black"/>
</svg>
