<svg width="97" height="96" viewBox="0 0 97 96" fill="none" xmlns="http://www.w3.org/2000/svg">
<path d="M54.5806 47.6288C55.1802 47.6288 55.6664 47.1427 55.6664 46.543C55.6664 45.9433 55.1802 45.4571 54.5806 45.4571V47.6288ZM41.4059 45.4571C40.8063 45.4571 40.3201 45.9433 40.3201 46.543C40.3201 47.1427 40.8063 47.6288 41.4059 47.6288V45.4571ZM54.5806 45.4571H47.9933V47.6288H54.5806V45.4571ZM47.9933 45.4571H41.4059V47.6288H47.9933V45.4571Z" fill="#2B78D3"/>
<path d="M29.0651 40.4249L47.9933 11.582L68.352 40.9365C71.7851 45.2598 73.8358 50.7303 73.8358 56.6798C73.8358 70.6724 62.4926 82.0156 48.5 82.0156C34.5074 82.0156 23.1642 70.6724 23.1642 56.6798C23.1642 50.4931 25.3816 44.8244 29.0651 40.4249Z" stroke="black" stroke-width="1.52015" stroke-linecap="round"/>
<path d="M49.5858 40.4639C49.5858 39.8642 49.0997 39.378 48.5 39.378C47.9003 39.378 47.4142 39.8642 47.4142 40.4639H49.5858ZM47.4142 53.6385C47.4142 54.2382 47.9003 54.7243 48.5 54.7243C49.0997 54.7243 49.5858 54.2382 49.5858 53.6385H47.4142ZM47.4142 40.4639V47.0512H49.5858V40.4639H47.4142ZM47.4142 47.0512V53.6385H49.5858V47.0512H47.4142Z" fill="#2B78D3"/>
<path d="M41.4059 63.265H55.0872M65.7283 56.6777C65.7283 61.7449 62.4853 72.2846 49.5133 73.9061" stroke="black" stroke-width="1.52015" stroke-linecap="round"/>
</svg>
