<svg width="95" height="94" viewBox="0 0 95 94" fill="none" xmlns="http://www.w3.org/2000/svg">
<path d="M28.5527 60.6487C30.0406 60.814 33.2146 59.756 34.0082 54.2013L35.496 41.8025C36.6532 41.8025 38.9677 41.505 38.9677 40.3147V37.339C39.133 35.1899 37.2815 30.8916 28.5527 30.8916" stroke="black" stroke-width="1.48786" stroke-linecap="round"/>
<path d="M62.2775 26.4275C62.6081 25.7662 64.1621 24.4436 65.7491 24.4436C67.5676 24.2783 71.2046 24.9396 71.2046 28.9072V30.3951C70.7086 32.5442 68.2289 37.14 62.2775 40.3141" stroke="black" stroke-width="1.48786" stroke-linecap="round"/>
<path d="M20.6174 68.5829H14.17V57.672M35.9919 68.5829H42.4393M64.7572 77.0141H53.3503M28.5527 61.1436V72.0546C28.5527 76.0222 30.8671 77.0141 32.0243 77.0141H42.4393M81.1236 57.672V17.0039H14.17V57.672M81.1236 57.672V68.5829H53.3503M81.1236 57.672H38.4717M14.17 57.672H17.6417M55.3341 61.6396V64.1194M60.2936 61.6396V64.1194M65.2531 61.6396V64.1194M42.4393 68.5829V77.0141M42.4393 68.5829H53.3503M42.4393 77.0141H53.3503M53.3503 68.5829V77.0141" stroke="black" stroke-width="1.48786" stroke-linecap="round"/>
<path d="M47.3988 48.496C46.9879 48.496 46.6549 48.8291 46.6549 49.2399C46.6549 49.6508 46.9879 49.9839 47.3988 49.9839V48.496ZM52.3583 49.2399V49.9839H52.8181L53.0237 49.5726L52.3583 49.2399ZM75.1721 49.4879C75.583 49.4879 75.916 49.1548 75.916 48.744C75.916 48.3331 75.583 48.0001 75.1721 48.0001V49.4879ZM72.1679 48.794L72.8138 49.1631L72.1679 48.794ZM70.1265 52.0649L70.7724 51.6958L70.1265 52.0649ZM70.2987 52.0649L69.6528 51.6958L70.2987 52.0649ZM68.2573 48.794L67.6114 49.1631L68.2573 48.794ZM64.2338 48.6892L64.8991 48.3565L64.2338 48.6892ZM62.2073 45.0216L62.9226 45.2259L62.2073 45.0216ZM62.3914 45.0044L63.0568 44.6718L62.3914 45.0044ZM60.1795 51.4916L59.5141 51.8243L60.1795 51.4916ZM60.3636 51.4745L59.6483 51.2701L60.3636 51.4745ZM58.214 47.8861L57.6086 47.4537L58.214 47.8861ZM55.7626 51.0553L56.4533 50.779L55.7626 51.0553ZM55.9354 51.0761L56.5408 51.5085L55.9354 51.0761ZM53.7474 46.4618L53.082 46.1291L53.7474 46.4618ZM53.9282 46.4693L53.2375 46.7456L53.9282 46.4693ZM47.3988 49.9839H52.3583V48.496H47.3988V49.9839ZM53.0237 49.5726L54.4128 46.7945L53.082 46.1291L51.6929 48.9072L53.0237 49.5726ZM53.2375 46.7456L55.0719 51.3316L56.4533 50.779L54.6189 46.193L53.2375 46.7456ZM56.5408 51.5085L58.8194 48.3185L57.6086 47.4537L55.3301 50.6437L56.5408 51.5085ZM57.718 48.2321L59.5141 51.8243L60.8449 51.1589L59.0488 47.5667L57.718 48.2321ZM61.0789 51.6789L62.9226 45.2259L61.492 44.8172L59.6483 51.2701L61.0789 51.6789ZM61.726 45.3371L63.5684 49.0218L64.8991 48.3565L63.0568 44.6718L61.726 45.3371ZM64.3225 49.4879H68.1712V48.0001H64.3225V49.4879ZM67.6114 49.1631L69.4806 52.434L70.7724 51.6958L68.9033 48.4249L67.6114 49.1631ZM70.9446 52.434L72.8138 49.1631L71.5219 48.4249L69.6528 51.6958L70.9446 52.434ZM72.254 49.4879H75.1721V48.0001H72.254V49.4879ZM72.8138 49.1631C72.699 49.3639 72.4853 49.4879 72.254 49.4879V48.0001C71.9514 48.0001 71.6721 48.1622 71.5219 48.4249L72.8138 49.1631ZM69.4806 52.434C69.8042 53.0004 70.621 53.0004 70.9446 52.434L69.6528 51.6958C69.9003 51.2627 70.5249 51.2627 70.7724 51.6958L69.4806 52.434ZM68.1712 49.4879C67.9399 49.4879 67.7262 49.3639 67.6114 49.1631L68.9033 48.4249C68.7531 48.1622 68.4738 48.0001 68.1712 48.0001V49.4879ZM63.5684 49.0218C63.7112 49.3075 64.0031 49.4879 64.3225 49.4879V48.0001C64.5667 48.0001 64.7899 48.138 64.8991 48.3565L63.5684 49.0218ZM62.9226 45.2259C62.7611 45.7913 61.989 45.8631 61.726 45.3371L63.0568 44.6718C62.7129 43.984 61.7033 44.0778 61.492 44.8172L62.9226 45.2259ZM59.5141 51.8243C59.858 52.5121 60.8677 52.4182 61.0789 51.6789L59.6483 51.2701C59.8098 50.7048 60.5819 50.633 60.8449 51.1589L59.5141 51.8243ZM58.8194 48.3185C58.537 48.7139 57.9353 48.6667 57.718 48.2321L59.0488 47.5667C58.7647 46.9985 57.9779 46.9367 57.6086 47.4537L58.8194 48.3185ZM55.0719 51.3316C55.3194 51.9505 56.1534 52.0509 56.5408 51.5085L55.3301 50.6437C55.6263 50.229 56.264 50.3058 56.4533 50.779L55.0719 51.3316ZM54.4128 46.7945C54.164 47.2921 53.4441 47.2621 53.2375 46.7456L54.6189 46.193C54.3488 45.5176 53.4074 45.4784 53.082 46.1291L54.4128 46.7945Z" fill="#2B78D3"/>
<path d="M62.2774 26.4275C61.9467 25.7662 60.8887 24.4436 59.3017 24.4436C57.4832 24.2783 53.8462 24.9396 53.8462 28.9072V30.3951C54.3421 32.5442 56.326 37.14 62.2774 40.3141" stroke="black" stroke-width="1.48786" stroke-linecap="round"/>
<path d="M28.5528 60.6487C27.0649 60.814 23.8908 59.756 23.0973 54.2013L21.6199 41.8899C21.6139 41.8401 21.5722 41.8026 21.522 41.802C20.3397 41.7874 18.1378 41.4757 18.1378 40.3147V37.339C17.9725 35.1899 19.824 30.8916 28.5528 30.8916" stroke="black" stroke-width="1.48786" stroke-linecap="round"/>
<path d="M35.496 41.8018H28.0568" stroke="black" stroke-width="1.48786" stroke-linecap="round"/>
<path d="M21.1134 29.4031C23.5932 28.2459 29.9414 26.6258 35.496 29.4031M18.6337 26.4274C21.94 24.6089 30.5365 22.063 38.4717 26.4274" stroke="black" stroke-width="1.48786" stroke-linecap="round"/>
<path fill-rule="evenodd" clip-rule="evenodd" d="M71.7401 60.2507C71.7401 60.1959 71.6955 60.1513 71.6408 60.1534C70.2954 60.2056 69.2207 61.3127 69.2207 62.6709C69.2207 64.0624 70.3487 65.1904 71.7402 65.1904C72.8698 65.1904 73.8257 64.4469 74.1455 63.4227C74.1648 63.3608 74.1174 63.2996 74.0526 63.2996H73.1967C73.1578 63.2996 73.1227 63.3226 73.1051 63.3574C72.8537 63.8563 72.3369 64.1985 71.7402 64.1985C70.8965 64.1985 70.2126 63.5146 70.2126 62.6709C70.2126 61.8606 70.8435 61.1977 71.6409 61.1465C71.6955 61.143 71.7401 61.099 71.7401 61.0442V60.2507Z" fill="black"/>
</svg>
