<svg width="95" height="94" viewBox="0 0 95 94" fill="none" xmlns="http://www.w3.org/2000/svg">
<path d="M26.338 24.2452H39.241C41.3915 24.4106 45.6925 26.528 45.6925 33.6743M43.2111 21.2676C45.8579 23.4181 51.0522 29.4064 50.6552 36.1556C50.4898 38.3061 49.7619 43.8974 48.1738 49.0586M55.1216 38.637C55.4524 40.4566 57.4044 44.0959 62.5656 44.0959H65.2951M75.9649 66.9243C77.5529 62.9541 75.3032 59.3148 73.9798 57.9915C70.8037 55.2124 70.6713 50.5474 71.0022 48.5624C71.0022 44.9892 69.0171 44.0959 68.0246 44.0959H65.2951M54.6253 47.0735C54.9562 45.9156 56.1141 43.5004 58.0992 43.1034M63.5582 48.0661C63.5582 47.0735 63.9056 44.89 65.2951 44.0959" stroke="#2B78D3" stroke-width="1.48881" stroke-linecap="round"/>
<path d="M85.8902 38.1407H86.6346V38.1079L86.6318 38.0753L85.8902 38.1407ZM12.4425 21.2676V20.5232H12.4053L12.3684 20.5269L12.4425 21.2676ZM11.4499 26.7265L10.8687 27.1916L10.9011 27.2321L10.9388 27.2677L11.4499 26.7265ZM24.3529 41.6146L23.7189 42.0047L23.726 42.0163L23.7335 42.0275L24.3529 41.6146ZM48.1738 49.0586H48.9182V48.3142H48.1738V49.0586ZM48.1738 52.5325H47.4294V52.63L47.4545 52.7243L48.1738 52.5325ZM65.5432 68.4131L64.9311 68.8368L64.9694 68.892L65.0168 68.9395L65.5432 68.4131ZM73.4835 69.4056L73.0368 68.8101L73.4835 69.4056ZM75.9648 66.9243L76.5367 66.4477L75.808 65.5733L75.299 66.5914L75.9648 66.9243ZM81.4238 69.9019L81.506 69.1621L81.465 69.1575H81.4238V69.9019ZM66.9918 58.5648L67.0406 59.3076L66.9918 58.5648ZM67.1389 59.0126L67.5599 59.6265L67.1389 59.0126ZM86.6346 63.9467V38.1407H85.1458V63.9467H86.6346ZM86.6318 38.0753C86.375 35.1648 85.2512 30.813 82.6905 27.1672C80.1103 23.4934 76.0539 20.5232 70.0096 20.5232V22.012C75.4788 22.012 79.1146 24.6661 81.4722 28.0229C83.8494 31.4074 84.9093 35.4922 85.1487 38.2061L86.6318 38.0753ZM70.0096 20.5232H12.4425V22.012H70.0096V20.5232ZM12.3684 20.5269C11.458 20.6179 10.0879 21.0402 9.47358 22.2284C8.82221 23.4881 9.23393 25.1482 10.8687 27.1916L12.0312 26.2615C10.4898 24.3348 10.5707 23.348 10.7961 22.9122C11.0584 22.4047 11.7728 22.0827 12.5165 22.0083L12.3684 20.5269ZM10.9388 27.2677C13.9131 30.0767 20.5985 36.934 23.7189 42.0047L24.9869 41.2245C21.7551 35.9728 14.942 29.0007 11.9611 26.1853L10.9388 27.2677ZM23.7335 42.0275C25.4669 44.6276 30.7631 49.803 38.2484 49.803V48.3142C31.4412 48.3142 26.5473 43.5643 24.9723 41.2017L23.7335 42.0275ZM38.2484 49.803H48.1738V48.3142H38.2484V49.803ZM47.4294 49.0586V52.5325H48.9182V49.0586H47.4294ZM47.4545 52.7243C47.8545 54.2244 49.3986 56.0964 52.459 57.4682C55.5378 58.8483 60.2105 59.7564 67.0406 59.3076L66.943 57.822C60.2761 58.2601 55.8626 57.3624 53.068 56.1097C50.255 54.8488 49.1385 53.2612 48.8931 52.3407L47.4545 52.7243ZM66.718 58.3986C65.52 59.22 64.1996 60.556 63.6195 62.355C63.026 64.1958 63.2461 66.4029 64.9311 68.8368L66.1552 67.9894C64.6985 65.8852 64.6033 64.1553 65.0365 62.8119C65.4831 61.4268 66.5314 60.3316 67.5599 59.6265L66.718 58.3986ZM65.0168 68.9395C65.7518 69.6745 67.0534 70.5974 68.6262 71.018C70.2276 71.4463 72.1272 71.3533 73.9301 70.0012L73.0368 68.8101C71.6636 69.84 70.2548 69.9125 69.0109 69.5798C67.7384 69.2395 66.6579 68.4751 66.0696 67.8867L65.0168 68.9395ZM73.9301 70.0012C74.2794 69.7392 74.8223 69.2997 75.3335 68.8188C75.8213 68.36 76.3669 67.7846 76.6306 67.2572L75.299 66.5914C75.1657 66.858 74.8016 67.2752 74.3134 67.7344C73.8486 68.1716 73.3493 68.5758 73.0368 68.8101L73.9301 70.0012ZM75.393 67.4008C75.8515 67.9511 76.6767 68.7472 77.7082 69.4112C78.7342 70.0717 80.0339 70.6463 81.4238 70.6463V69.1575C80.4316 69.1575 79.4153 68.7395 78.5141 68.1594C77.6185 67.5828 76.9053 66.8901 76.5367 66.4477L75.393 67.4008ZM81.3416 70.6418C82.2722 70.7452 83.6125 70.4977 84.7219 69.4672C85.845 68.424 86.6346 66.6709 86.6346 63.9467H85.1458C85.1458 66.3837 84.4467 67.6909 83.7087 68.3764C82.9571 69.0745 82.0642 69.2241 81.506 69.1621L81.3416 70.6418ZM67.0406 59.3076C66.6948 59.3303 66.5398 59.0683 66.507 58.9677C66.4744 58.8676 66.4471 58.5843 66.718 58.3986L67.5599 59.6265C68.011 59.3172 68.0192 58.8029 67.9225 58.5062C67.8256 58.209 67.5069 57.7849 66.943 57.822L67.0406 59.3076Z" fill="black"/>
<path d="M69.0171 57.9893C68.3554 58.3201 66.7343 58.8825 65.5432 60.4706" stroke="black" stroke-width="1.48881" stroke-linecap="round"/>
</svg>
