<svg width="95" height="94" viewBox="0 0 95 94" fill="none" xmlns="http://www.w3.org/2000/svg">
<path d="M26.3379 24.2452H39.2409C41.3914 24.4106 45.6924 26.528 45.6924 33.6743M43.211 21.2676C45.8578 23.4181 51.0521 29.4064 50.6551 36.1556C50.4896 38.3061 49.7618 43.8974 48.1737 49.0586M55.1215 38.637C55.4523 40.4566 57.4043 44.0959 62.5655 44.0959H65.295M75.9648 66.9243C77.5528 62.9541 75.3031 59.3148 73.9797 57.9915C70.8036 55.2124 70.6712 50.5474 71.0021 48.5624C71.0021 44.9892 69.017 44.0959 68.0245 44.0959H65.295M54.6252 47.0735C54.9561 45.9156 56.114 43.5004 58.0991 43.1034M63.558 48.0661C63.558 47.0735 63.9054 44.89 65.295 44.0959" stroke="#2B78D3" stroke-width="1.48881" stroke-linecap="round"/>
<path d="M85.8901 38.1407H86.6345V38.1079L86.6316 38.0753L85.8901 38.1407ZM12.4423 21.2676V20.5232H12.4052L12.3683 20.5269L12.4423 21.2676ZM11.4498 26.7265L10.8685 27.1916L10.901 27.2321L10.9387 27.2677L11.4498 26.7265ZM24.3528 41.6146L23.7188 42.0047L23.7259 42.0163L23.7334 42.0275L24.3528 41.6146ZM48.1737 49.0586H48.9181V48.3142H48.1737V49.0586ZM48.1737 52.5325H47.4293V52.63L47.4544 52.7243L48.1737 52.5325ZM65.5431 68.4131L64.931 68.8368L64.9692 68.892L65.0167 68.9395L65.5431 68.4131ZM73.4834 69.4056L73.0367 68.8101L73.4834 69.4056ZM75.9647 66.9243L76.5366 66.4477L75.8079 65.5733L75.2989 66.5914L75.9647 66.9243ZM81.4237 69.9019L81.5059 69.1621L81.4649 69.1575H81.4237V69.9019ZM66.9917 58.5648L67.0405 59.3076L66.9917 58.5648ZM67.1388 59.0126L67.5597 59.6265L67.1388 59.0126ZM86.6345 63.9467V38.1407H85.1457V63.9467H86.6345ZM86.6316 38.0753C86.3748 35.1648 85.2511 30.813 82.6904 27.1672C80.1102 23.4934 76.0538 20.5232 70.0095 20.5232V22.012C75.4787 22.012 79.1145 24.6661 81.4721 28.0229C83.8493 31.4074 84.9091 35.4922 85.1486 38.2061L86.6316 38.0753ZM70.0095 20.5232H12.4423V22.012H70.0095V20.5232ZM12.3683 20.5269C11.4578 20.6179 10.0878 21.0402 9.47346 22.2284C8.82208 23.4881 9.23381 25.1482 10.8685 27.1916L12.0311 26.2615C10.4897 24.3348 10.5706 23.348 10.7959 22.9122C11.0583 22.4047 11.7726 22.0827 12.5164 22.0083L12.3683 20.5269ZM10.9387 27.2677C13.9129 30.0767 20.5983 36.934 23.7188 42.0047L24.9867 41.2245C21.755 35.9728 14.9419 29.0007 11.9609 26.1853L10.9387 27.2677ZM23.7334 42.0275C25.4668 44.6276 30.763 49.803 38.2483 49.803V48.3142C31.4411 48.3142 26.5472 43.5643 24.9721 41.2017L23.7334 42.0275ZM38.2483 49.803H48.1737V48.3142H38.2483V49.803ZM47.4293 49.0586V52.5325H48.9181V49.0586H47.4293ZM47.4544 52.7243C47.8544 54.2244 49.3984 56.0964 52.4589 57.4682C55.5377 58.8483 60.2104 59.7564 67.0405 59.3076L66.9429 57.822C60.276 58.2601 55.8624 57.3624 53.0678 56.1097C50.2549 54.8488 49.1384 53.2612 48.8929 52.3407L47.4544 52.7243ZM66.7179 58.3986C65.5199 59.22 64.1995 60.556 63.6194 62.355C63.0258 64.1958 63.246 66.4029 64.931 68.8368L66.1551 67.9894C64.6983 65.8852 64.6032 64.1553 65.0363 62.8119C65.483 61.4268 66.5313 60.3316 67.5597 59.6265L66.7179 58.3986ZM65.0167 68.9395C65.7517 69.6745 67.0533 70.5974 68.6261 71.018C70.2275 71.4463 72.1271 71.3533 73.93 70.0012L73.0367 68.8101C71.6635 69.84 70.2546 69.9125 69.0108 69.5798C67.7383 69.2395 66.6578 68.4751 66.0694 67.8867L65.0167 68.9395ZM73.93 70.0012C74.2793 69.7392 74.8221 69.2997 75.3333 68.8188C75.8212 68.36 76.3668 67.7846 76.6305 67.2572L75.2989 66.5914C75.1656 66.858 74.8014 67.2752 74.3132 67.7344C73.8485 68.1716 73.3491 68.5758 73.0367 68.8101L73.93 70.0012ZM75.3928 67.4008C75.8514 67.9511 76.6766 68.7472 77.7081 69.4112C78.7341 70.0717 80.0338 70.6463 81.4237 70.6463V69.1575C80.4314 69.1575 79.4152 68.7395 78.514 68.1594C77.6184 67.5828 76.9052 66.8901 76.5366 66.4477L75.3928 67.4008ZM81.3415 70.6418C82.272 70.7452 83.6124 70.4977 84.7218 69.4672C85.8449 68.424 86.6345 66.6709 86.6345 63.9467H85.1457C85.1457 66.3837 84.4465 67.6909 83.7086 68.3764C82.9569 69.0745 82.0641 69.2241 81.5059 69.1621L81.3415 70.6418ZM67.0405 59.3076C66.6947 59.3303 66.5397 59.0683 66.5069 58.9677C66.4743 58.8676 66.447 58.5843 66.7179 58.3986L67.5597 59.6265C68.0109 59.3172 68.0191 58.8029 67.9224 58.5062C67.8255 58.209 67.5068 57.7849 66.9429 57.822L67.0405 59.3076Z" fill="black"/>
<path d="M69.0171 57.9893C68.3554 58.3201 66.7343 58.8825 65.5432 60.4706" stroke="black" stroke-width="1.48881" stroke-linecap="round"/>
</svg>
