<svg width="96" height="94" viewBox="0 0 96 94" fill="none" xmlns="http://www.w3.org/2000/svg">
<path d="M44.5208 11.3926V19.6176V27.8426C44.2563 28.2394 42.8965 29.2681 39.536 30.6772M36.5451 31.8305C37.6834 31.4239 38.6753 31.0381 39.536 30.6772M39.536 30.6772C40.0345 26.9076 39.8351 19.6674 35.0496 20.8638C29.8986 21.5284 15.6087 26.8456 10.6239 47.782C9.46074 57.087 9.02872 76.5944 16.6057 80.1835C18.2673 80.8481 24.4818 78.8874 36.0466 65.7274C37.8744 63.5673 41.5299 57.5523 41.5299 50.7729L41.0315 34.8214" stroke="black" stroke-width="1.49545" stroke-linecap="round"/>
<path d="M48.5088 33.825C44.7718 33.5581 36.8107 34.6849 29.8958 40.3053M23.5846 55.2599C23.4544 53.4374 23.4978 51.8486 23.6383 50.5005M17.6028 45.7887C18.6917 44.9579 21.7891 43.5953 25.4672 44.7917M25.4672 44.7917C25.3372 44.9556 25.2081 45.1217 25.0801 45.2902C24.6324 45.9617 23.9284 47.7188 23.6383 50.5005M25.4672 44.7917C26.8515 43.0477 28.3475 41.5639 29.8958 40.3053M19.5967 42.2993C19.7629 42.9492 20.3943 44.2579 21.5907 44.2932M29.5664 48.7796C29.4318 47.6567 29.2865 45.922 29.2772 44.2932M29.8958 40.3053C29.4133 40.9242 29.2672 42.5479 29.2772 44.2932M32.0588 46.7857C31.1193 46.4533 29.2477 45.4896 29.2772 44.2932M19.0982 53.7644C20.4366 53.6506 23.2182 52.8383 23.6383 50.5005" stroke="#2B78D3" stroke-width="1.49545" stroke-linecap="round"/>
<path d="M52.4123 11.3926V19.6176V27.8426C52.6768 28.2394 54.0366 29.2681 57.3971 30.6772M60.388 31.8305C59.2497 31.4239 58.2578 31.0381 57.3971 30.6772M57.3971 30.6772C56.8986 26.9076 57.098 19.6674 61.8835 20.8638C67.0345 21.5284 81.3244 26.8456 86.3092 47.782C87.4724 57.087 87.9044 76.5944 80.3274 80.1835C78.6658 80.8481 72.4514 78.8874 60.8865 65.7274C59.0587 63.5673 55.4032 57.5523 55.4032 50.7729L55.9017 34.8214" stroke="black" stroke-width="1.49545" stroke-linecap="round"/>
<path d="M48.4243 33.825C52.1614 33.5581 60.1224 34.6849 67.0373 40.3053M73.3485 55.2599C73.4787 53.4374 73.4353 51.8486 73.2948 50.5005M79.3303 45.7887C78.2414 44.9579 75.144 43.5953 71.4659 44.7917M71.4659 44.7917C71.5959 44.9556 71.725 45.1217 71.853 45.2902C72.3007 45.9617 73.0047 47.7188 73.2948 50.5005M71.4659 44.7917C70.0816 43.0477 68.5856 41.5639 67.0373 40.3053M77.3364 42.2993C77.1702 42.9492 76.5388 44.2579 75.3424 44.2932M67.3667 48.7796C67.5013 47.6567 67.6466 45.922 67.6559 44.2932M67.0373 40.3053C67.5198 40.9242 67.6659 42.5479 67.6559 44.2932M64.8743 46.7857C65.8138 46.4533 67.6854 45.4896 67.6559 44.2932M77.8349 53.7644C76.4966 53.6506 73.7149 52.8383 73.2948 50.5005" stroke="#2B78D3" stroke-width="1.49545" stroke-linecap="round"/>
<path d="M51.998 14.3838H49.0071M51.998 24.3535H49.5056M44.5208 19.3686H47.5117M44.5208 27.8429H47.5117" stroke="black" stroke-width="1.49545" stroke-linecap="round"/>
</svg>
