<svg width="97" height="96" viewBox="0 0 97 96" fill="none" xmlns="http://www.w3.org/2000/svg">
<path d="M65.9226 39.3213C67.2289 39.3213 68.5064 39.4449 69.7439 39.681C70.1577 39.7599 70.3895 40.1911 70.2788 40.5976C70.1743 40.9808 69.7933 41.2371 69.4029 41.1639C68.2752 40.9522 67.1118 40.8414 65.9226 40.8414C55.5681 40.8414 47.1741 49.2354 47.1741 59.5899C47.1741 60.4254 47.2287 61.248 47.3346 62.0545C47.381 62.4081 47.1358 62.7377 46.7962 62.8464C46.3743 62.9814 45.8937 62.7486 45.8348 62.3096C45.7155 61.42 45.6539 60.5122 45.6539 59.5899C45.6539 48.3959 54.7285 39.3213 65.9226 39.3213Z" fill="black"/>
<path d="M50.3844 71.1881C49.9966 71.4016 49.824 71.9144 50.1009 72.2598C53.8155 76.8924 59.5227 79.8586 65.9226 79.8586C77.1167 79.8586 86.1912 70.784 86.1912 59.5899C86.1912 56.3293 85.4213 53.2485 84.0533 50.5194C83.8646 50.1429 83.3846 50.0386 83.0237 50.2556C82.6831 50.4605 82.5425 50.8959 82.7195 51.2518C83.9687 53.7633 84.6711 56.5946 84.6711 59.5899C84.6711 69.9445 76.2771 78.3385 65.9226 78.3385C60.0212 78.3385 54.7566 75.6118 51.3198 71.3497C51.0959 71.0719 50.6969 71.016 50.3844 71.1881Z" fill="black"/>
<path d="M37.5464 79.3545V33.2433M37.5464 33.2433C37.5464 32.3988 38.1545 30.507 40.5867 29.6963M37.5464 33.2433C37.3775 32.2299 36.4316 30.1017 33.9994 29.6963" stroke="#2B78D3" stroke-width="1.52015" stroke-linecap="round"/>
<path d="M32.9861 46.4165H29.9458C29.2701 46.2476 28.527 46.5179 30.9592 48.9501C31.4659 49.4568 32.4794 50.977 32.4794 53.0039V72.8423M35.0129 72.2591C32.6483 72.5969 29.0337 74.4886 33.4928 79.3531C34.3373 80.3666 36.3304 81.8867 37.5465 79.8598" stroke="black" stroke-width="1.52015" stroke-linecap="round"/>
<path d="M42.107 46.4165H45.1473C45.8229 46.2476 46.5661 46.5179 44.1338 48.9501C43.6271 49.4568 42.6137 50.977 42.6137 53.0039V72.9075M40.0801 72.2591C42.4448 72.5969 46.0593 74.4886 41.6002 79.3531C40.7557 80.3666 38.7626 81.8867 37.5465 79.8598" stroke="black" stroke-width="1.52015" stroke-linecap="round"/>
<path d="M37.5465 44.3911C34.3814 42.8086 28.9624 39.3873 30.9592 37.6285M37.0398 38.3105C34.6075 37.0944 32.3104 37.1282 31.4659 37.2971C31.2615 37.3993 31.0935 37.5101 30.9592 37.6285M30.9592 37.6285C28.2567 35.1533 22.9531 29.3923 23.3584 26.1493C23.2904 25.0601 23.6722 23.532 24.922 22.0956M37.5465 18.0419C30.5286 18.0419 26.7732 19.968 24.922 22.0956M24.922 22.0956C24.2319 20.0687 21.9396 16.015 18.2913 16.015C15.7577 15.6772 10.5892 16.1163 10.1838 20.5754C10.0149 21.42 10.1838 24.3251 12.2107 29.1896C13.0552 30.7098 14.8456 34.5608 15.2509 37.8038C15.5776 43.357 15.9358 55.4174 14.8595 60.606M18.7979 53.512C18.7979 55.9259 19.8331 57.5856 20.8761 58.5792M14.8595 60.606C14.8228 60.7831 14.7843 60.9522 14.7442 61.1127C13.0552 64.3219 11.7039 71.9565 19.8114 76.8209C21.6693 77.6655 25.4866 76.9223 25.892 67.1933C25.7231 65.3354 24.7772 61.2141 22.345 59.5926C21.9449 59.4211 21.4095 59.0872 20.8761 58.5792M14.8595 60.606C15.6998 59.4237 18.0795 57.363 20.8761 58.5792M16.7711 68.7135C16.7711 69.8958 17.3791 72.4632 19.8114 73.2739" stroke="black" stroke-width="1.52015" stroke-linecap="round"/>
<path d="M37.5465 44.3911C40.7116 42.8086 46.1306 39.3873 44.1338 37.6285M38.0532 38.3105C40.4855 37.0944 42.7826 37.1282 43.6271 37.2971C43.8315 37.3993 43.9995 37.5102 44.1338 37.6285M44.1338 37.6285C46.8363 35.1534 52.14 29.3923 51.7346 26.1493C51.8027 25.0601 51.4208 23.532 50.171 22.0956M37.5465 18.0419C44.5644 18.0419 48.3198 19.968 50.171 22.0956M50.171 22.0956C50.8611 20.0687 53.1534 16.015 56.8018 16.015C59.3353 15.6772 64.5039 16.1163 64.9092 20.5754C65.0781 21.42 64.9092 24.3251 62.8824 29.1896C62.0378 30.7098 60.2475 34.5608 59.8421 37.8038" stroke="black" stroke-width="1.52015" stroke-linecap="round"/>
<circle cx="65.8731" cy="60.0824" r="14.4414" stroke="black" stroke-width="1.52015"/>
<path d="M56.8016 64.6575C57.8151 64.6575 60.0446 64.3535 60.8554 63.1374C61.6999 62.4618 63.4903 60.8065 63.8957 59.5904C63.5579 58.0702 63.693 54.6246 66.936 53.0031C69.1317 51.9896 73.6246 50.6722 74.03 53.5098C74.1989 55.3677 73.1179 59.3877 67.4427 60.6038" stroke="black" stroke-width="1.52015" stroke-linecap="round"/>
</svg>
