<svg width="97" height="96" viewBox="0 0 97 96" fill="none" xmlns="http://www.w3.org/2000/svg">
<path d="M31.1399 19.9932C31.2278 19.5828 30.9664 19.1787 30.5559 19.0908C30.1455 19.0028 29.7414 19.2643 29.6535 19.6747L31.1399 19.9932ZM28.5725 42.1295L29.3249 42.237L29.3326 42.1835V42.1295H28.5725ZM24.3161 50.6423L23.739 50.1477L23.7192 50.1707L23.7014 50.1953L24.3161 50.6423ZM29.7886 56.1149L30.029 55.3938L29.8587 55.3371L29.6811 55.3624L29.7886 56.1149ZM37.0853 51.8585L37.8227 51.6741L37.8064 51.6089L37.7789 51.5476L37.0853 51.8585ZM33.589 34.8328C33.589 34.413 33.2487 34.0727 32.8289 34.0727C32.4091 34.0727 32.0688 34.413 32.0688 34.8328H33.589ZM32.9305 60.4411L32.2246 60.1594L32.9305 60.4411ZM33.4363 61.0027L33.8244 61.6563L33.4363 61.0027ZM26.0178 60.5792L25.6265 61.2308L26.0178 60.5792ZM26.5968 60.1655L25.8403 60.2393L26.5968 60.1655ZM29.6535 19.6747C29.0459 22.5102 27.8124 29.23 27.8124 33.2113H29.3326C29.3326 29.4094 30.5313 22.833 31.1399 19.9932L29.6535 19.6747ZM27.8124 33.2113V42.1295H29.3326V33.2113H27.8124ZM27.82 42.022C27.6364 43.3075 26.5574 46.8596 23.739 50.1477L24.8932 51.137C27.9121 47.6149 29.1032 43.7891 29.3249 42.237L27.82 42.022ZM23.7014 50.1953C22.8618 51.3497 21.9691 53.2444 21.9697 55.2957C21.9702 57.4095 22.9236 59.6079 25.6265 61.2308L26.409 59.9276C24.1626 58.5788 23.4902 56.8743 23.4898 55.2953C23.4894 53.6538 24.2206 52.0659 24.9308 51.0894L23.7014 50.1953ZM27.3533 60.0917C27.2889 59.4321 27.3736 58.7002 27.7243 58.1131C28.0545 57.5604 28.6752 57.0417 29.8961 56.8673L29.6811 55.3624C28.061 55.5939 27.0118 56.3417 26.4193 57.3334C25.8474 58.2908 25.7566 59.3813 25.8403 60.2393L27.3533 60.0917ZM29.5482 56.836C30.2645 57.0747 31.1542 57.5333 31.7432 58.1459C32.3043 58.7295 32.5382 59.3737 32.2246 60.1594L33.6364 60.7229C34.2335 59.227 33.6833 57.9705 32.8391 57.0924C32.0229 56.2434 30.8864 55.6796 30.029 55.3938L29.5482 56.836ZM33.8244 61.6563C35.0207 60.9458 36.3521 59.7847 37.2203 58.1201C38.097 56.4391 38.4766 54.2899 37.8227 51.6741L36.3479 52.0428C36.9139 54.3065 36.5731 56.0737 35.8724 57.4171C35.1632 58.7769 34.0602 59.7482 33.0482 60.3492L33.8244 61.6563ZM37.7789 51.5476C37.4581 50.8318 37.0172 50.1118 36.5578 49.4106C36.0787 48.6794 35.6174 48.0231 35.1547 47.2991C34.239 45.8664 33.589 44.5633 33.589 43.3456H32.0688C32.0688 45.0467 32.9565 46.6825 33.8738 48.1178C34.3276 48.8278 34.8565 49.5878 35.2863 50.2437C35.7357 50.9297 36.122 51.5676 36.3917 52.1693L37.7789 51.5476ZM33.589 43.3456V34.8328H32.0688V43.3456H33.589ZM32.2246 60.1594C32.0406 60.6203 32.1651 61.1036 32.4345 61.4178C32.5738 61.5803 32.7759 61.7261 33.0337 61.7849C33.3041 61.8466 33.5831 61.7996 33.8244 61.6563L33.0482 60.3492C33.1294 60.301 33.2478 60.2746 33.3717 60.3029C33.4832 60.3283 33.5529 60.3867 33.5885 60.4283C33.6505 60.5006 33.6823 60.608 33.6364 60.7229L32.2246 60.1594ZM25.6265 61.2308C26.0714 61.498 26.5561 61.3964 26.8715 61.1642C27.1782 60.9385 27.3974 60.5442 27.3533 60.0917L25.8403 60.2393C25.827 60.1028 25.8928 59.997 25.9703 59.94C26.0565 59.8766 26.2363 59.8239 26.409 59.9276L25.6265 61.2308Z" fill="black"/>
<path d="M63.5036 18.9815C63.5916 18.5711 63.3301 18.167 62.9197 18.0791C62.5092 17.9911 62.1052 18.2525 62.0172 18.663L63.5036 18.9815ZM61.8969 38.5842L62.6494 38.6917L62.657 38.6382V38.5842H61.8969ZM54.4989 51.3535L53.9218 50.8588L53.902 50.8819L53.8842 50.9064L54.4989 51.3535ZM62.7077 59.5623L62.948 58.8412L62.7778 58.7845L62.6002 58.8098L62.7077 59.5623ZM73.6528 53.1776L74.3901 52.9933L74.3738 52.9281L74.3463 52.8668L73.6528 53.1776ZM67.0148 27.6391C67.0148 27.2194 66.6745 26.8791 66.2547 26.8791C65.8349 26.8791 65.4946 27.2194 65.4946 27.6391H67.0148ZM67.4205 66.0517L66.7146 65.7699L67.4205 66.0517ZM68.1793 66.894L68.5674 67.5476L68.1793 66.894ZM62.0172 18.663C61.0875 23.0019 61.1369 23.9201 61.1369 29.7673H62.657C62.657 23.9398 62.6092 23.1554 63.5036 18.9815L62.0172 18.663ZM61.1369 29.7673V38.5842H62.657V29.7673H61.1369ZM61.1445 38.4767C61.0132 39.396 60.3172 41.2096 59.0604 43.4839C57.8194 45.7297 56.0749 48.3469 53.9218 50.8588L55.076 51.8481C57.3009 49.2523 59.1034 46.549 60.3909 44.2191C61.6627 41.9178 62.4767 39.9006 62.6494 38.6917L61.1445 38.4767ZM53.8842 50.9064C52.6571 52.5936 51.3585 55.3589 51.3593 58.3333C51.3601 61.3703 52.7199 64.5445 56.6602 66.9104L57.4427 65.6071C53.9589 63.5154 52.8801 60.8351 52.8795 58.333C52.8788 55.7683 54.0159 53.3098 55.1136 51.8005L53.8842 50.9064ZM58.6765 65.5644C58.5751 64.5253 58.7036 63.3379 59.285 62.3647C59.8458 61.4259 60.8841 60.5906 62.8152 60.3147L62.6002 58.8098C60.2698 59.1427 58.8032 60.2071 57.98 61.585C57.1774 62.9285 57.0428 64.4746 57.1635 65.712L58.6765 65.5644ZM62.4673 60.2833C63.577 60.6532 64.9733 61.3674 65.9136 62.3454C66.8259 63.2944 67.2558 64.4139 66.7146 65.7699L68.1265 66.3334C68.9511 64.2672 68.2049 62.5354 67.0095 61.2919C65.842 60.0775 64.1989 59.2582 62.948 58.8412L62.4673 60.2833ZM68.5674 67.5476C70.3158 66.5092 72.2557 64.8151 73.5183 62.3943C74.7893 59.9573 75.349 56.8289 74.3901 52.9933L72.9154 53.362C73.7863 56.8455 73.2654 59.5918 72.1704 61.6914C71.0669 63.8073 69.3552 65.3117 67.7912 66.2405L68.5674 67.5476ZM74.3463 52.8668C73.8683 51.8001 73.1435 50.7275 72.3586 49.676C71.964 49.1474 71.5471 48.6149 71.1313 48.0854C70.7137 47.5536 70.2976 47.0251 69.8955 46.4939C68.2532 44.3241 67.0148 42.3103 67.0148 40.4084H65.4946C65.4946 42.8846 67.0695 45.2791 68.6834 47.4113C69.0954 47.9556 69.5209 48.496 69.9357 49.0242C70.3523 49.5548 70.7584 50.0736 71.1404 50.5854C71.9087 51.6146 72.5515 52.579 72.9592 53.4885L74.3463 52.8668ZM67.0148 40.4084V27.6391H65.4946V40.4084H67.0148ZM66.7146 65.7699C66.4961 66.3173 66.6438 66.8946 66.965 67.2692C67.1303 67.462 67.3654 67.6297 67.6599 67.6968C67.9668 67.7668 68.286 67.7147 68.5674 67.5476L67.7912 66.2405C67.8073 66.2309 67.8365 66.2177 67.8772 66.211C67.9181 66.2043 67.9597 66.206 67.9979 66.2147C68.0727 66.2318 68.1093 66.2684 68.1191 66.2798C68.1292 66.2916 68.1378 66.305 68.1265 66.3334L66.7146 65.7699ZM56.6602 66.9104C57.1731 67.2184 57.7341 67.1046 58.1068 66.8302C58.4707 66.5623 58.7283 66.0959 58.6765 65.5644L57.1635 65.712C57.1579 65.6545 57.1854 65.6209 57.2056 65.606C57.2193 65.5959 57.2486 65.5794 57.2957 65.575C57.3484 65.5701 57.4025 65.5829 57.4427 65.6071L56.6602 66.9104Z" fill="#2B78D3"/>
<path d="M63.2671 71.2666C71.5227 71.2666 78.2152 64.574 78.2152 56.3184C78.2152 52.2602 76.597 48.5784 73.9724 45.8856C73.8646 45.7751 73.7976 45.5344 73.8923 45.2551C73.9864 44.9777 74.1421 44.9173 74.2247 44.9173H83.5358C83.6757 44.9173 83.7891 45.0307 83.7891 45.1707V76.5871C83.7891 76.727 83.6757 76.8404 83.5358 76.8404H12.5955C12.4555 76.8404 12.3421 76.727 12.3421 76.5871V45.1707C12.3421 45.0307 12.4555 44.9173 12.5955 44.9173H20.2134C20.2974 44.9173 20.4466 44.9757 20.546 45.2339C20.6465 45.495 20.6011 45.7434 20.4985 45.8723C18.8822 47.9051 17.916 50.4798 17.916 53.2781C17.916 59.8546 23.2473 65.186 29.8238 65.186C36.4003 65.186 41.7317 59.8546 41.7317 53.2781C41.7317 50.4798 40.7655 47.9051 39.1491 45.8723C39.0466 45.7434 39.0011 45.495 39.1016 45.2339C39.201 44.9757 39.3502 44.9173 39.4342 44.9173H52.3095C52.3921 44.9173 52.5478 44.9777 52.6419 45.2551C52.7366 45.5344 52.6696 45.7751 52.5619 45.8856C49.9372 48.5784 48.319 52.2602 48.319 56.3184C48.319 64.574 55.0115 71.2666 63.2671 71.2666Z" stroke="black" stroke-width="1.52015"/>
</svg>
