<svg width="90" height="89" viewBox="0 0 90 89" fill="none" xmlns="http://www.w3.org/2000/svg">
<path d="M38.8524 8.93359V21.8366C38.6869 25.145 40.1427 32.556 47.2889 35.7321C51.7553 38.048 58.3061 45.3597 48.7777 56.0791C46.131 58.0642 39.2494 60.6448 32.8971 55.0866C32.1035 54.5764 30.8629 53.9962 29.3354 53.5978M10.5651 83.8702C9.94244 81.7629 9.51579 79.7789 9.25529 77.9149M47.2889 11.4149V21.8366C47.4543 23.9871 49.274 28.3873 55.2292 28.7843M54.2367 23.3254C58.5377 18.859 69.5218 12.5067 79.0501 22.8291C82.3586 26.303 88.0822 36.5261 84.5091 49.6276C82.1932 58.7259 72.1024 77.1209 50.2666 77.9149C46.4618 78.2458 37.6613 76.1284 32.8971 65.012C32.2588 64.0544 30.7172 62.6452 28.4307 62.184M18.0091 79.4038C17.5398 78.1665 17.1962 77.0099 16.9614 75.9299M29.3354 53.5978L28.4307 62.184M29.3354 53.5978C26.7767 52.9304 23.4126 52.7729 19.9942 54.3081M28.4307 62.184C27.1622 61.9281 25.6644 61.9639 23.9643 62.5306C23.5002 62.6315 22.9957 62.7875 22.4755 63.0047M22.4755 63.0047L19.9942 54.3081M22.4755 63.0047C21.291 63.4991 20.0252 64.3102 18.9695 65.5082M19.9942 54.3081C19.4983 54.5307 19.0012 54.789 18.5053 55.0866C16.8267 55.897 14.7186 57.5257 12.9083 60.0493M18.9695 65.5082L12.9083 60.0493M18.9695 65.5082C17.9764 66.6352 17.1692 68.1045 16.7904 69.9746M12.9083 60.0493C11.224 62.3972 9.79756 65.5196 9.2145 69.4784M16.7904 69.9746L9.2145 69.4784M16.7904 69.9746C16.4549 71.6316 16.4556 73.6031 16.9614 75.9299M9.2145 69.4784C8.84937 71.9575 8.81501 74.7647 9.25529 77.9149M16.9614 75.9299L9.25529 77.9149" stroke="black" stroke-width="1.48881" stroke-linecap="round"/>
<path d="M76.5688 28.7852C78.5539 30.7702 81.73 37.718 78.5539 49.6284" stroke="#2B78D3" stroke-width="1.48881" stroke-linecap="round"/>
</svg>
