<svg width="97" height="96" viewBox="0 0 97 96" fill="none" xmlns="http://www.w3.org/2000/svg">
<path d="M56.6276 61.6035V67.6803C57.134 67.6803 58.1468 68.0854 58.1468 69.7059C58.3156 70.7187 58.248 72.7443 56.6276 72.7443V79.8339C57.134 80.0027 58.1468 80.7454 58.1468 82.3659C58.3156 83.3787 58.0455 85.4043 55.6148 85.4043H48.0188" stroke="black" stroke-width="1.5192" stroke-linecap="round"/>
<path d="M48.0186 22.6095C47.1746 22.7783 45.3854 22.5082 44.9803 20.0775C44.3051 17.8831 42.2457 14.4058 39.4099 18.0519L36.3715 21.5968C36.0339 20.584 35.7638 18.052 37.3843 16.0264L38.9035 12.4816C39.2411 11.8064 39.7137 10.2534 38.9035 9.44316C38.0595 8.76796 36.1689 7.92396 35.3587 9.94956C33.5019 12.8191 29.9908 19.166 30.8011 21.5968C30.9699 22.272 31.7126 24.3313 33.3331 27.1672C34.0858 28.1708 35.4272 29.8707 36.3715 31.7248M38.3971 48.9424C38.5848 48.3792 38.6855 47.6059 38.7232 46.7143M48.0186 39.3208C47.5123 39.3208 46.2969 39.0169 45.4867 37.8016C44.9803 37.1264 43.4611 35.9785 41.4355 36.7888M34.3459 29.1928C33.3331 28.3488 30.8011 27.8761 28.7755 32.7376C26.9187 36.62 23.2051 45.4988 23.2051 49.9552C22.8675 53.1624 23.914 60.387 30.8011 63.628C32.3203 64.3032 36.2702 64.742 39.9163 61.096C41.2667 59.0704 44.7777 55.0192 48.0186 55.0192M38.7232 46.7143C37.6017 46.4442 35.1561 46.4104 34.3459 48.436M38.7232 46.7143C38.7903 45.1269 38.6575 43.1646 38.46 41.3464M38.46 41.3464C38.2895 39.7778 38.0709 38.3163 37.8907 37.2952C37.8907 37.1304 37.8828 36.9614 37.8677 36.7888M38.46 41.3464C37.2574 41.0088 34.6497 40.9413 33.8395 43.372M37.8677 36.7888C36.5249 36.4512 33.7382 36.3837 33.3331 38.8144M37.8677 36.7888C37.7329 35.2489 37.236 33.4223 36.3715 31.7248M36.3715 31.7248C35.0929 31.8936 32.219 32.6363 31.8139 34.2568" stroke="black" stroke-width="1.5192" stroke-linecap="round"/>
<path d="M37.3843 53.4998C38.5659 51.1366 42.347 46.5115 48.0187 46.9166" stroke="#2B78D3" stroke-width="1.5192" stroke-linecap="round"/>
<path d="M48.0187 22.6095C48.8627 22.7783 50.652 22.5082 51.0571 20.0775C51.7323 17.8831 53.7917 14.4058 56.6275 18.0519L59.6659 21.5968C60.0035 20.584 60.2736 18.052 58.6531 16.0264L57.1339 12.4816C56.7963 11.8064 56.3237 10.2534 57.1339 9.44316C57.9779 8.76796 59.8685 7.92396 60.6787 9.94956C62.5355 12.8191 66.0465 19.166 65.2363 21.5968C65.0675 22.272 64.3248 24.3313 62.7043 27.1672C61.9515 28.1708 60.6102 29.8707 59.6659 31.7248M57.6403 48.9424C57.4526 48.3792 57.3518 47.6059 57.3142 46.7143M48.0187 39.3208C48.5251 39.3208 49.7405 39.0169 50.5507 37.8016C51.0571 37.1264 52.5763 35.9785 54.6019 36.7888M61.6915 29.1928C62.7043 28.3488 65.2363 27.8761 67.2619 32.7376C69.1187 36.62 72.8323 45.4988 72.8323 49.9552C73.1699 53.1624 72.1233 60.387 65.2363 63.628C63.7171 64.3032 59.7672 64.742 56.1211 61.096C54.7707 59.0704 51.2597 55.0192 48.0187 55.0192M57.3142 46.7143C58.4357 46.4442 60.8813 46.4104 61.6915 48.436M57.3142 46.7143C57.2471 45.1269 57.3798 43.1646 57.5774 41.3464M57.5774 41.3464C57.7478 39.7778 57.9665 38.3163 58.1467 37.2952C58.1467 37.1304 58.1546 36.9614 58.1697 36.7888M57.5774 41.3464C58.78 41.0088 61.3877 40.9413 62.1979 43.372M58.1697 36.7888C59.5124 36.4512 62.2992 36.3837 62.7043 38.8144M58.1697 36.7888C58.3045 35.2489 58.8013 33.4223 59.6659 31.7248M59.6659 31.7248C60.9444 31.8936 63.8184 32.6363 64.2235 34.2568" stroke="black" stroke-width="1.5192" stroke-linecap="round"/>
<path d="M58.6532 53.4998C57.4716 51.1366 53.6905 46.5115 48.0188 46.9166" stroke="#2B78D3" stroke-width="1.5192" stroke-linecap="round"/>
<path d="M39.4098 61.6035V67.6803C38.9034 67.6803 37.8906 68.0854 37.8906 69.7059C37.7218 70.7187 37.7893 72.7443 39.4098 72.7443V79.8339C38.9034 80.0027 37.8906 80.7454 37.8906 82.3659C37.7218 83.3787 37.9919 85.4043 40.4226 85.4043H48.0186" stroke="black" stroke-width="1.5192" stroke-linecap="round"/>
<path d="M39.4099 67.6787H47.5123M56.6275 73.2491H48.5251M56.6275 67.6787H52.5763M39.4099 80.3387H42.4483M56.6275 80.3387H47.5123" stroke="black" stroke-width="1.5192" stroke-linecap="round"/>
</svg>
