<svg width="191" height="202" viewBox="0 0 191 202" fill="none" xmlns="http://www.w3.org/2000/svg">
<g clip-path="url(#clip0_435_20098)">
<path opacity="0.5" d="M88.4854 202.001C111.066 202.001 129.371 197.92 129.371 192.887C129.371 187.854 111.066 183.773 88.4854 183.773C65.9048 183.773 47.5997 187.854 47.5997 192.887C47.5997 197.92 65.9048 202.001 88.4854 202.001Z" fill="url(#paint0_radial_435_20098)"/>
<path d="M16.234 159.836C26.8563 182.169 129.371 178.864 155.225 161.538C181.079 144.213 188.094 -3.00599 118.649 -0.00152396C67.9423 2.3019 -11.0231 102.651 16.234 159.836Z" fill="#2B2F35"/>
<path d="M172.561 145.716C168.653 143.613 173.363 120.679 179.776 118.075C186.09 115.471 193.004 128.591 190.499 136.002C187.994 143.413 179.376 149.321 172.561 145.716Z" fill="#2B2F35"/>
<path d="M16.6349 80.8192C20.2425 83.1226 14.1297 103.353 8.21728 104.855C2.3049 106.357 -1.60328 94.6397 0.701543 88.8311C3.00637 83.0225 11.424 77.5143 16.6349 80.8192Z" fill="#2B2F35"/>
<path d="M118.548 143.21C118.749 143.811 118.849 144.512 119.049 145.213C121.755 155.528 124.862 170.951 124.06 177.361C123.859 178.863 123.459 179.864 122.757 180.265C122.557 180.365 122.356 180.365 122.156 180.365C121.454 180.465 120.552 180.165 119.45 179.664C113.037 176.459 101.813 163.44 99.809 159.033C99.5084 158.533 99.4082 158.032 99.5084 157.832C100.611 153.425 114.139 134.196 115.742 135.198C116.143 135.498 117.246 138.703 118.548 143.21Z" fill="url(#paint1_linear_435_20098)"/>
<path d="M99.809 159.035C99.809 160.637 117.847 149.621 115.742 135.199C115.742 135.199 99.809 144.012 99.809 159.035Z" fill="url(#paint2_linear_435_20098)"/>
<path opacity="0.3" d="M118.548 143.21C118.548 143.21 109.229 150.621 108.828 156.73C108.427 162.739 114.239 174.256 119.55 179.664C113.137 176.459 101.913 163.44 99.9092 159.033C99.6086 158.533 99.5084 158.032 99.6086 157.832C100.711 153.425 114.239 134.196 115.843 135.198C116.143 135.498 117.246 138.703 118.548 143.21Z" fill="url(#paint3_linear_435_20098)"/>
<path d="M55.2155 145.714C55.0151 146.315 54.9149 147.016 54.7145 147.717C52.0088 158.032 48.9023 173.455 49.704 179.864C49.9044 181.367 50.3053 182.368 51.0067 182.769C51.2071 182.869 51.4076 182.869 51.608 182.869C52.3095 182.969 53.2113 182.669 54.3136 182.168C60.7271 178.963 71.9506 165.944 73.9548 161.537C74.2554 161.036 74.3556 160.536 74.2554 160.335C73.1531 155.929 59.6248 136.7 58.0214 137.702C57.5204 138.002 56.4181 141.107 55.2155 145.714Z" fill="url(#paint4_linear_435_20098)"/>
<path d="M73.8546 161.539C73.8546 163.141 55.8169 152.125 57.9213 137.703C57.9213 137.703 73.8546 146.516 73.8546 161.539Z" fill="url(#paint5_linear_435_20098)"/>
<path d="M61.3284 161.736C62.0299 162.337 59.6249 168.646 58.1217 168.446C56.6186 168.246 59.7251 160.434 61.3284 161.736Z" fill="white"/>
<path d="M115.642 171.053C116.544 170.953 118.548 174.658 117.346 175.559C116.143 176.461 113.538 171.253 115.642 171.053Z" fill="white"/>
<path opacity="0.3" d="M55.2156 145.714C55.2156 145.714 64.5351 153.125 64.936 159.234C65.3368 165.243 59.5246 176.76 54.2135 182.168C60.6269 178.963 71.8504 165.944 73.8546 161.537C74.1553 161.036 74.2555 160.536 74.1553 160.335C73.053 155.929 59.5246 136.7 57.9213 137.702C57.5204 138.002 56.4181 141.107 55.2156 145.714Z" fill="url(#paint6_linear_435_20098)"/>
<path d="M59.6249 19.4266C59.6249 19.4266 53.3117 14.0185 45.6957 13.1172C45.6957 13.1172 43.3909 14.2188 40.585 22.7315C37.8793 31.144 42.8898 47.8688 42.8898 47.8688L59.6249 19.4266Z" fill="url(#paint7_linear_435_20098)"/>
<path d="M42.6893 17.3234C42.6893 17.3234 43.8918 14.4191 45.6956 13.1172C45.6956 13.1172 52.0088 18.9258 51.7082 32.8465L49.9044 34.7493L42.6893 17.3234Z" fill="url(#paint8_linear_435_20098)"/>
<path d="M111.433 19.4266C111.433 19.4266 117.747 14.0185 125.363 13.1172C125.363 13.1172 127.667 14.2188 130.473 22.7315C133.279 31.2441 128.168 47.8688 128.168 47.8688L111.433 19.4266Z" fill="url(#paint9_linear_435_20098)"/>
<path d="M125.363 13.1157C125.363 13.1157 119.15 19.7255 119.15 30.4415L121.555 31.9437L128.569 17.5223C128.569 17.5223 126.264 12.9154 125.363 13.1157Z" fill="url(#paint10_linear_435_20098)"/>
<path d="M121.354 31.244C121.354 31.244 119.751 22.1304 125.763 15.3203C125.763 15.3203 132.578 18.5251 135.384 30.4428C138.189 42.3605 130.874 49.471 130.874 49.471L121.354 31.244Z" fill="url(#paint11_linear_435_20098)"/>
<path d="M49.704 31.244C49.704 31.244 51.3074 22.1304 45.2948 15.3203C45.2948 15.3203 38.4805 18.5251 35.6746 30.4428C32.8688 42.3605 40.1841 49.471 40.1841 49.471L49.704 31.244Z" fill="url(#paint12_linear_435_20098)"/>
<path d="M129.772 81.8192C115.742 101.448 50.0046 99.9461 41.4868 84.1226C35.8751 73.8073 36.4763 58.1841 41.8876 43.8628C48.9023 25.0348 64.2344 8.41016 84.4768 8.41016C108.327 8.41016 126.665 32.1454 132.177 53.7775C134.882 64.7939 134.482 75.2094 129.772 81.8192Z" fill="url(#paint13_linear_435_20098)"/>
<path d="M46.3971 63.5909C49.5036 76.9107 107.325 78.4129 121.454 66.2949C135.684 54.1769 115.241 11.2131 83.8756 13.116C55.3158 14.8185 41.1862 41.7585 46.3971 63.5909Z" fill="#DFF6FB"/>
<path d="M46.0965 61.9894C49.203 75.3091 107.024 76.8114 121.154 64.6934C135.383 52.5754 114.941 9.61157 83.575 11.5144C55.0152 13.2169 40.9858 40.1569 46.0965 61.9894Z" fill="url(#paint14_linear_435_20098)"/>
<path opacity="0.3" d="M129.772 81.8196C115.742 101.449 50.0046 99.9466 41.4868 84.1231C35.8751 73.8078 36.4763 58.1846 41.8876 43.8633C41.6872 44.6645 36.1757 64.7944 41.7874 73.6075C47.4994 82.6208 70.247 81.4191 94.6982 80.3174C119.149 79.3159 127.166 75.7106 131.275 68.8003C134.482 63.3923 131.275 51.4746 129.772 46.5673L132.177 53.6779C134.882 64.7944 134.482 75.2098 129.772 81.8196Z" fill="url(#paint15_linear_435_20098)"/>
<path d="M84.4768 96.241C70.8483 96.241 60.9275 94.7388 55.416 92.4354C51.8084 91.0333 50.0046 89.2306 50.3053 87.5281C50.5057 86.4265 53.1111 85.5251 57.32 84.7239C69.746 82.5207 95.3997 81.8196 109.229 83.9228C110.431 84.1231 111.534 84.3234 112.536 84.5236C112.736 84.5236 112.936 84.6238 113.137 84.6238H113.237C115.642 85.2247 117.346 85.9257 118.047 86.8271C118.248 87.0274 118.348 87.2277 118.448 87.5281C119.951 91.9347 96.9029 96.241 84.4768 96.241Z" fill="url(#paint16_linear_435_20098)"/>
<path opacity="0.5" d="M118.448 86.4265C118.448 86.5266 118.348 86.7269 118.248 86.8271C116.945 88.7299 111.433 91.1335 111.433 91.1335C111.433 91.1335 90.5896 82.6208 73.6542 86.4265C56.7187 90.2321 55.416 92.4354 55.416 92.4354C51.8084 91.0333 50.0046 89.2306 50.3053 87.5281C50.5057 86.4265 53.1111 85.5251 57.32 84.7239C69.746 82.5207 95.3997 81.8196 109.229 83.9228C110.632 84.2232 112.035 84.4235 113.137 84.7239H113.237C116.644 85.425 118.648 86.0259 118.448 86.4265Z" fill="url(#paint17_linear_435_20098)"/>
<path d="M112.636 84.5244C109.429 87.629 93.8966 90.2328 85.0781 90.2328C69.2449 90.2328 59.6248 87.7291 57.4202 84.7247C70.9485 82.3211 100.11 81.7202 112.636 84.5244Z" fill="url(#paint18_linear_435_20098)"/>
<path opacity="0.5" d="M41.4869 84.1211C41.4869 84.1211 44.2927 80.9164 49.7041 78.3125C55.1154 75.7086 60.1259 73.7057 60.9276 71.6026C61.7292 69.4994 45.9963 70.7012 45.9963 70.7012L38.1799 74.1063C38.1799 74.0061 39.3825 80.3155 41.4869 84.1211Z" fill="url(#paint19_linear_435_20098)"/>
<path d="M35.0734 34.6484C35.0734 34.6484 39.0818 37.2523 36.4763 43.2612C36.4763 43.2612 17.5367 53.5765 18.639 64.7932C19.5409 74.2072 45.6956 69.6003 45.6956 69.6003L46.5975 72.705C46.5975 72.705 24.3509 77.0113 16.735 71.8036C16.735 71.8036 14.1295 65.5944 20.6432 54.4779C27.0566 43.4615 35.0734 34.6484 35.0734 34.6484Z" fill="url(#paint20_linear_435_20098)"/>
<path d="M42.3887 68.7998C39.9837 71.5038 45.0944 74.4081 49.203 74.9089C53.9128 75.4096 62.13 73.6069 61.629 68.8999C61.1279 64.1929 48.0004 62.4904 42.3887 68.7998Z" fill="url(#paint21_linear_435_20098)"/>
<path opacity="0.5" d="M55.5163 28.24C54.8148 32.5464 64.4349 32.3461 77.5624 31.9455C93.2954 31.4447 109.129 44.9648 118.348 35.2504C119.851 33.648 104.82 12.6168 86.5813 13.0174C68.3431 13.5181 56.2177 24.5345 55.5163 28.24Z" fill="url(#paint22_linear_435_20098)"/>
<path opacity="0.5" d="M64.4349 65.8949C63.6332 68.9995 70.1469 71.6033 86.2806 71.403C106.723 71.2027 110.331 66.1953 109.93 65.8949C109.93 65.8949 101.412 70.9023 85.479 67.2969C74.9569 64.9935 65.3368 62.59 64.4349 65.8949Z" fill="url(#paint23_linear_435_20098)"/>
<path opacity="0.3" d="M129.571 46.2654L129.07 44.8633C129.171 45.0636 129.371 45.5643 129.571 46.2654Z" fill="url(#paint24_linear_435_20098)"/>
<path d="M95.6002 11.1128C94.1972 11.4133 105.822 17.6225 106.323 16.8213C106.824 16.1203 99.4082 10.2115 95.6002 11.1128Z" fill="white"/>
<path d="M117.847 15.7214C116.644 16.3223 116.744 17.6242 119.149 17.3238C121.554 17.0234 122.857 15.1205 122.557 14.7199C122.356 14.4195 119.149 15.0204 117.847 15.7214Z" fill="white"/>
<path d="M138.991 51.7748C138.39 51.6746 138.59 57.2829 139.392 56.9825C140.093 56.7822 139.893 51.8749 138.991 51.7748Z" fill="white"/>
<path d="M42.6894 69.3016C42.5892 70.1027 59.224 70.303 59.6249 67.2986C60.0257 64.3943 43.7917 63.3928 42.6894 69.3016Z" fill="url(#paint25_linear_435_20098)"/>
<path opacity="0.2" d="M46.798 57.5831C46.798 57.5831 46.0965 53.0765 46.8982 46.9674C47.6999 40.8583 49.3032 36.9525 50.3053 37.4532C51.3074 37.954 51.107 43.9629 51.7083 49.8717C52.1091 54.4785 53.011 58.7849 53.011 58.7849C53.011 58.7849 48.8022 62.7909 46.798 57.5831Z" fill="url(#paint26_linear_435_20098)"/>
<path opacity="0.72" d="M130.974 20.7284C130.974 20.7284 128.77 18.0244 125.763 18.7254C122.757 19.4265 122.557 28.9406 124.36 29.1409C126.164 29.3412 126.966 23.9332 128.269 23.0318C129.672 22.1305 132.077 22.5311 132.077 22.5311L130.974 20.7284Z" fill="url(#paint27_linear_435_20098)"/>
<path opacity="0.72" d="M37.9795 24.0321C37.9795 24.0321 39.182 22.7302 41.7875 23.1308C44.3929 23.5314 45.8961 28.9394 47.1988 28.3385C48.5015 27.8377 47.5996 19.1248 43.9921 16.6211C43.9921 16.6211 39.4826 20.5269 37.9795 24.0321Z" fill="url(#paint28_linear_435_20098)"/>
<path d="M34.3719 36.6523C34.3719 36.6523 25.1526 46.9677 25.7539 47.7689C26.2549 48.4699 34.9732 37.754 34.3719 36.6523Z" fill="url(#paint29_linear_435_20098)"/>
<path d="M66.3389 92.5364C65.1364 98.4451 62.7313 106.858 58.7229 113.267C52.1091 123.883 42.5892 137.002 42.2885 137.403C37.6789 139.106 32.8688 138.004 29.8625 137.002C28.0587 136.402 26.8562 135.7 26.8562 135.7C26.8562 135.7 30.7644 122.781 40.7854 109.361C45.7959 102.551 51.8085 96.5423 56.7187 92.1358C56.7187 92.1358 56.7187 92.1358 56.8189 92.0356C56.9192 91.9355 56.9192 91.9355 57.0194 91.8353L57.1196 91.7352L57.2198 91.635L57.32 91.5349C62.3305 87.1283 66.2387 84.7248 66.8399 85.2255C67.341 85.6261 67.1406 88.5304 66.3389 92.5364Z" fill="url(#paint30_linear_435_20098)"/>
<path opacity="0.3" d="M66.3389 92.5334C65.1364 98.4422 62.7313 106.855 58.7229 113.264C52.1091 123.88 42.5892 136.999 42.2885 137.4L29.8625 136.999C28.0587 136.399 26.8562 135.698 26.8562 135.698C26.8562 135.698 30.7644 122.778 40.7854 109.358C45.7959 102.548 51.8085 96.5394 56.7187 92.1328C53.9129 94.7367 41.7875 105.953 37.0776 116.569C31.7665 128.687 44.4931 126.083 50.8064 119.173C57.1196 112.263 66.1385 92.3331 66.1385 92.3331L66.3389 92.5334Z" fill="url(#paint31_linear_435_20098)"/>
<path d="M53.3117 104.954C52.4098 104.454 55.6165 99.4462 57.1196 99.6465C58.6228 99.8468 54.0131 105.455 53.3117 104.954Z" fill="white"/>
<path d="M48.6018 111.962C47.9003 111.461 46.798 113.364 47.3992 113.865C48.0005 114.266 49.3032 112.563 48.6018 111.962Z" fill="white"/>
<path d="M28.9606 130.291C28.9606 130.291 32.1673 123.882 37.5787 126.486C42.99 128.989 39.0818 137.802 39.0818 137.802C39.0818 137.802 31.8667 141.107 26.8562 135.9C26.8562 135.799 27.5577 133.496 28.9606 130.291Z" fill="url(#paint32_linear_435_20098)"/>
<path d="M28.7602 128.69C28.7602 128.69 35.6746 125.886 38.8814 129.091C41.4868 131.695 40.4847 137.303 38.9816 140.908C37.4784 144.514 26.9564 156.031 22.2465 155.931C17.5367 155.73 15.0314 150.623 16.9354 144.614C16.9354 144.614 23.6495 132.696 28.7602 128.69Z" fill="url(#paint33_linear_435_20098)"/>
<path d="M28.7602 128.688C28.7602 128.688 28.66 135.097 24.5514 139.504C20.4428 143.91 17.7371 153.524 17.7371 153.524C17.7371 153.524 15.5325 151.121 16.8353 144.611C18.2382 138.101 28.7602 128.688 28.7602 128.688Z" fill="url(#paint34_linear_435_20098)"/>
<path opacity="0.5" d="M17.2361 143.311L20.7434 145.614C20.7434 145.614 22.0462 142.51 23.8499 140.307C25.6537 138.103 27.1569 133.797 27.1569 133.797L17.2361 143.311Z" fill="url(#paint35_linear_435_20098)"/>
<path d="M27.6579 129.488C27.6579 129.488 24.5514 130.189 19.8415 133.294C15.2319 136.499 12.426 140.204 12.1254 141.106C11.8247 142.007 13.2277 143.81 14.831 143.91C16.4344 144.01 21.8457 140.905 21.8457 140.905C21.8457 140.905 29.161 133.995 27.6579 129.488Z" fill="url(#paint36_linear_435_20098)"/>
<path d="M24.5514 139.503C24.5514 139.503 33.0693 136.499 39.4827 139.503L38.8814 140.905C38.8814 140.905 32.3678 137.701 23.7498 140.304L24.5514 139.503Z" fill="url(#paint37_linear_435_20098)"/>
<path d="M16.3341 139.807C15.9333 139.306 20.543 136.201 20.7434 137.002C21.044 137.804 16.9354 140.508 16.3341 139.807Z" fill="white"/>
<path d="M66.9402 85.3242C66.9402 85.3242 60.3263 96.3406 61.0278 108.959C61.128 108.959 69.6459 93.5364 66.9402 85.3242Z" fill="url(#paint38_linear_435_20098)"/>
<path d="M104.719 91.5325C105.922 97.4412 108.327 105.854 112.335 112.263C118.949 122.879 128.469 135.998 128.77 136.399C133.379 138.102 138.189 137 141.196 135.998C142.999 135.398 144.202 134.697 144.202 134.697C144.202 134.697 140.294 121.777 130.273 108.357C125.262 101.547 119.25 95.5384 114.339 91.1319C114.339 91.1319 114.339 91.1319 114.239 91.0317C114.139 90.9316 114.139 90.9316 114.039 90.8314L113.939 90.7313L113.838 90.6311L113.738 90.531C108.728 86.1244 104.819 83.7208 104.218 84.2216C103.717 84.6222 103.918 87.5265 104.719 91.5325Z" fill="url(#paint39_linear_435_20098)"/>
<path opacity="0.3" d="M104.719 91.5334C105.922 97.4422 108.327 105.855 112.335 112.264C118.949 122.88 128.469 135.999 128.77 136.4L141.196 135.999C142.999 135.399 144.202 134.698 144.202 134.698C144.202 134.698 140.294 121.778 130.273 108.358C125.262 101.548 119.25 95.5394 114.339 91.1328C117.145 93.7367 129.271 104.953 133.981 115.569C139.292 127.687 126.565 125.083 120.252 118.173C113.939 111.263 104.92 91.3331 104.92 91.3331L104.719 91.5334Z" fill="url(#paint40_linear_435_20098)"/>
<path d="M117.747 103.95C118.648 103.45 115.442 98.4423 113.939 98.6426C112.435 98.8429 117.045 104.451 117.747 103.95Z" fill="white"/>
<path d="M142.098 129.19C142.098 129.19 138.891 122.78 133.479 125.384C128.068 127.888 131.976 136.701 131.976 136.701C131.976 136.701 139.191 140.006 144.202 134.798C144.202 134.798 143.5 132.495 142.098 129.19Z" fill="url(#paint41_linear_435_20098)"/>
<path d="M142.298 127.686C142.298 127.686 135.383 124.882 132.177 128.087C129.571 130.691 130.573 136.299 132.077 139.904C133.58 143.51 144.102 155.027 148.812 154.927C153.521 154.726 156.027 149.619 154.123 143.61C154.123 143.61 147.409 131.692 142.298 127.686Z" fill="url(#paint42_linear_435_20098)"/>
<path d="M139.993 126.984C139.993 126.984 141.597 133.895 146.507 138.501C150.916 142.608 153.321 152.522 153.321 152.522C153.321 152.522 155.526 150.119 154.223 143.609C152.82 137.099 139.993 126.984 139.993 126.984Z" fill="url(#paint43_linear_435_20098)"/>
<path opacity="0.5" d="M153.822 142.307L150.415 144.31C150.415 144.31 149.112 141.306 147.208 139.303C141.296 133.093 140.093 126.984 140.093 126.984L148.11 134.295C148.11 134.295 150.114 136.398 151.517 138.301C152.219 139.303 153.822 142.307 153.822 142.307Z" fill="url(#paint44_linear_435_20098)"/>
<path d="M139.993 126.988C139.993 126.988 141.597 126.487 147.308 126.387C153.121 126.287 156.227 127.89 157.029 128.39C157.831 128.891 158.031 131.094 156.929 132.296C155.826 133.498 145.605 135.301 145.605 135.301C145.605 135.301 141.897 131.295 139.993 126.988Z" fill="url(#paint45_linear_435_20098)"/>
<path d="M146.507 138.503C146.507 138.503 137.989 135.499 131.576 138.503L132.177 139.905C132.177 139.905 138.69 136.701 147.309 139.304L146.507 138.503Z" fill="url(#paint46_linear_435_20098)"/>
<path d="M152.419 127.789C152.519 127.188 146.908 127.288 147.208 128.089C147.409 128.89 152.319 128.69 152.419 127.789Z" fill="white"/>
<path d="M104.118 84.3242C104.118 84.3242 110.732 95.3406 110.03 107.959C109.93 107.959 101.412 92.4363 104.118 84.3242Z" fill="url(#paint47_linear_435_20098)"/>
<path d="M78.7649 61.8898C78.7649 61.8898 82.6731 56.9826 86.7817 56.0812C90.8903 55.1799 92.2932 60.1873 92.2932 60.1873C92.2932 60.1873 84.6773 59.5864 78.7649 61.8898Z" fill="#2F95CD"/>
<path d="M77.2617 27.5391C77.0613 32.2461 76.9611 36.8529 76.9611 41.4597C76.9611 42.8618 76.9611 44.2639 76.9611 45.666C76.9611 47.0681 76.9611 48.4701 77.0613 49.8722H73.554C73.6542 48.5703 73.6542 47.3685 73.7544 46.0666C73.7544 44.7646 73.8546 43.5629 73.8546 42.2609H67.4412C67.7418 40.0577 68.0424 37.7542 68.2428 35.4508C68.4433 33.1474 68.6437 30.844 68.7439 28.3403H72.151C71.9506 30.1429 71.7502 32.0458 71.5498 33.9486C71.3493 35.8514 71.2491 37.7542 71.2491 39.5569L74.055 39.4568C74.055 38.7557 74.055 37.9545 74.055 37.2535C74.055 36.5524 74.055 35.7513 74.055 35.0502C74.055 33.8484 74.055 32.5465 74.055 31.3447C74.055 30.1429 74.055 28.841 73.9548 27.5391H77.2617Z" fill="#00E0FF"/>
<path d="M90.3893 38.8555C90.3893 40.8585 90.1889 42.6612 89.9884 44.1634C89.6878 45.6656 89.287 46.8674 88.7859 47.8689C88.2849 48.8704 87.6836 49.5715 86.9821 49.972C86.2807 50.4728 85.5792 50.6731 84.7775 50.6731C83.9758 50.6731 83.2744 50.4728 82.5729 49.972C81.8714 49.5715 81.2702 48.8704 80.7691 47.8689C80.2681 46.9676 79.8672 45.6656 79.5666 44.2636C79.266 42.7613 79.1658 40.9587 79.1658 38.9557C79.1658 36.7524 79.266 34.9497 79.5666 33.4475C79.8672 31.9453 80.2681 30.7435 80.7691 29.8421C81.2702 28.9408 81.8714 28.2398 82.5729 27.8392C83.2744 27.4386 83.9758 27.2383 84.7775 27.2383C85.5792 27.2383 86.2807 27.4386 86.9821 27.9393C87.6836 28.3399 88.2849 29.041 88.7859 30.0424C89.287 30.9438 89.6878 32.2457 89.9884 33.6478C90.2891 35.0499 90.3893 36.8526 90.3893 38.8555ZM86.8819 38.8555C86.8819 37.3533 86.7817 35.9512 86.6815 34.8496C86.5813 33.7479 86.3809 32.8466 86.1805 32.1456C85.98 31.4445 85.7796 30.9438 85.479 30.5432C85.1784 30.2427 84.9779 30.0424 84.6773 30.0424C84.3767 30.0424 84.0761 30.2427 83.7754 30.5432C83.4748 30.8436 83.2744 31.3444 83.074 32.0454C82.8735 32.7465 82.6731 33.6478 82.5729 34.7494C82.4727 35.8511 82.3725 37.2532 82.3725 38.8555C82.3725 40.4579 82.4727 41.7598 82.5729 42.8615C82.6731 43.9631 82.8735 44.8645 83.074 45.6656C83.2744 46.3667 83.4748 46.9676 83.7754 47.268C84.0761 47.5685 84.3767 47.7688 84.6773 47.7688C84.9779 47.7688 85.2786 47.5685 85.479 47.268C85.7796 46.8674 85.98 46.3667 86.1805 45.6656C86.3809 44.9646 86.4811 43.9631 86.6815 42.8615C86.7817 41.7598 86.8819 40.3578 86.8819 38.8555Z" fill="#00E0FF"/>
<path d="M101.212 27.5391C101.012 32.2461 100.911 36.8529 100.911 41.4597C100.911 42.8618 100.911 44.2639 100.911 45.666C100.911 47.0681 100.911 48.4701 101.012 49.8722H97.5042C97.6044 48.5703 97.6044 47.3685 97.7046 46.0666C97.7046 44.7646 97.8048 43.5629 97.8048 42.2609H91.3914C91.692 40.0577 91.9926 37.7542 92.193 35.4508C92.3935 33.1474 92.5939 30.844 92.6941 28.3403H96.1012C95.9008 30.1429 95.7004 32.0458 95.5 33.9486C95.2995 35.8514 95.1993 37.7542 95.1993 39.5569L98.0052 39.4568C98.0052 38.7557 98.0052 37.9545 98.0052 37.2535C98.0052 36.5524 98.0052 35.7513 98.0052 35.0502C98.0052 33.8484 98.0052 32.5465 98.0052 31.3447C98.0052 30.1429 98.0052 28.841 97.905 27.5391H101.212Z" fill="#00E0FF"/>
<path d="M112.736 141.509C110.832 152.726 100.711 160.237 86.2807 160.237C73.6542 160.237 63.032 155.53 60.2261 145.215C57.4202 134.899 58.5225 115.771 62.2303 103.953C62.8315 102.151 63.4328 100.448 64.2345 98.8459C64.9359 97.3436 65.7376 95.9415 66.6395 94.6396C71.2492 87.7294 77.9632 83.2227 85.5792 83.2227C93.4958 83.2227 99.5084 86.4274 103.717 91.3347C105.621 93.538 107.124 96.1418 108.227 98.8459C109.429 101.95 110.531 105.356 111.333 108.761V108.861C113.838 119.677 114.44 131.494 112.736 141.509Z" fill="url(#paint48_linear_435_20098)"/>
<path opacity="0.3" d="M112.736 141.507C110.832 152.724 100.711 160.235 86.2807 160.235C73.6542 160.235 63.032 155.528 60.2261 145.213C57.4202 134.897 58.5225 115.769 62.2303 103.951C62.8315 102.149 63.4328 100.446 64.2345 98.8438C64.2345 98.8438 56.6185 124.081 62.7313 140.205C68.8441 156.329 97.2035 155.929 106.824 145.213C115.943 135.098 111.734 111.162 111.333 108.859C113.838 119.675 114.44 131.492 112.736 141.507Z" fill="url(#paint49_linear_435_20098)"/>
<path d="M60.7271 134.8C62.8315 119.677 75.0571 109.462 88.4853 110.764C103.016 112.166 110.832 125.987 110.632 137.904C110.431 149.822 101.713 159.036 86.1804 159.036C70.6479 159.036 58.7229 149.021 60.7271 134.8Z" fill="url(#paint50_linear_435_20098)"/>
<path d="M60.9275 136.099C63.0319 120.976 75.2575 110.761 88.6857 111.963C103.216 113.365 111.032 127.186 110.832 139.103C110.632 151.021 101.913 160.235 86.3808 160.235C70.6479 160.335 58.8231 150.22 60.9275 136.099Z" fill="url(#paint51_radial_435_20098)"/>
<path opacity="0.5" d="M103.617 91.3347C100.511 96.1418 83.575 98.946 73.7545 98.0447C65.2366 97.2435 66.5394 94.9401 66.5394 94.6396C71.149 87.7294 77.8631 83.2227 85.479 83.2227C93.4958 83.2227 99.5084 86.4274 103.617 91.3347Z" fill="url(#paint52_linear_435_20098)"/>
<path d="M97.6044 99.6448C96.8028 99.9452 96.8028 106.255 97.6044 107.256C98.4061 108.258 99.7088 107.957 100.21 106.455C100.711 105.053 98.8069 99.2442 97.6044 99.6448Z" fill="white"/>
<path opacity="0.72" d="M66.0382 126.485C68.6437 130.591 79.1657 128.388 90.9905 129.59C102.815 130.792 104.92 134.597 107.425 133.796C109.93 132.995 106.022 115.169 88.1846 113.967C70.4475 112.765 65.437 125.484 66.0382 126.485Z" fill="url(#paint53_linear_435_20098)"/>
<path opacity="0.72" d="M69.6459 151.922C69.6459 151.922 73.1532 157.931 86.0803 158.031C99.0074 158.131 104.318 150.319 104.318 150.319C104.318 150.319 98.3059 154.225 89.7881 151.922C81.2702 149.618 72.8526 148.316 69.6459 151.922Z" fill="url(#paint54_linear_435_20098)"/>
</g>
<defs>
<radialGradient id="paint0_radial_435_20098" cx="0" cy="0" r="1" gradientUnits="userSpaceOnUse" gradientTransform="translate(88.5023 192.919) scale(40.873 9.08869)">
<stop stop-color="#8D8796" stop-opacity="0.84"/>
<stop offset="0.229167" stop-color="#ADADAD" stop-opacity="0.61"/>
<stop offset="1" stop-color="white" stop-opacity="0"/>
</radialGradient>
<linearGradient id="paint1_linear_435_20098" x1="117.359" y1="181.724" x2="105.585" y2="137.875" gradientUnits="userSpaceOnUse">
<stop stop-color="#CBC1F7"/>
<stop offset="1" stop-color="#E8DCF7"/>
</linearGradient>
<linearGradient id="paint2_linear_435_20098" x1="110.954" y1="154.879" x2="104.772" y2="139.719" gradientUnits="userSpaceOnUse">
<stop stop-color="#BE9DEA"/>
<stop offset="1" stop-color="#9E8CEF"/>
</linearGradient>
<linearGradient id="paint3_linear_435_20098" x1="120.927" y1="179.12" x2="104.799" y2="139.57" gradientUnits="userSpaceOnUse">
<stop stop-color="#9D68C2"/>
<stop offset="1" stop-color="#CCEDFF"/>
</linearGradient>
<linearGradient id="paint4_linear_435_20098" x1="56.3296" y1="184.193" x2="68.1035" y2="140.344" gradientUnits="userSpaceOnUse">
<stop stop-color="#CBC1F7"/>
<stop offset="1" stop-color="#E8DCF7"/>
</linearGradient>
<linearGradient id="paint5_linear_435_20098" x1="62.7343" y1="157.348" x2="68.9164" y2="142.187" gradientUnits="userSpaceOnUse">
<stop stop-color="#BE9DEA"/>
<stop offset="1" stop-color="#9E8CEF"/>
</linearGradient>
<linearGradient id="paint6_linear_435_20098" x1="52.762" y1="181.589" x2="68.8898" y2="142.039" gradientUnits="userSpaceOnUse">
<stop stop-color="#9D68C2"/>
<stop offset="1" stop-color="#CCEDFF"/>
</linearGradient>
<linearGradient id="paint7_linear_435_20098" x1="49.6956" y1="47.8045" x2="49.6956" y2="13.0776" gradientUnits="userSpaceOnUse">
<stop stop-color="#B9ACF4"/>
<stop offset="1" stop-color="#E1D1F5"/>
</linearGradient>
<linearGradient id="paint8_linear_435_20098" x1="47.2075" y1="34.6852" x2="47.2075" y2="13.0776" gradientUnits="userSpaceOnUse">
<stop stop-color="#BE9DEA"/>
<stop offset="1" stop-color="#9E8CEF"/>
</linearGradient>
<linearGradient id="paint9_linear_435_20098" x1="121.369" y1="47.8045" x2="121.369" y2="13.0776" gradientUnits="userSpaceOnUse">
<stop stop-color="#B9ACF4"/>
<stop offset="1" stop-color="#E1D1F5"/>
</linearGradient>
<linearGradient id="paint10_linear_435_20098" x1="123.892" y1="31.9517" x2="123.892" y2="13.0736" gradientUnits="userSpaceOnUse">
<stop stop-color="#BE9DEA"/>
<stop offset="1" stop-color="#9E8CEF"/>
</linearGradient>
<linearGradient id="paint11_linear_435_20098" x1="128.588" y1="49.4659" x2="128.588" y2="15.3458" gradientUnits="userSpaceOnUse">
<stop stop-color="#DD1A8F"/>
<stop offset="1" stop-color="#1145FE"/>
</linearGradient>
<linearGradient id="paint12_linear_435_20098" x1="42.4759" y1="49.4659" x2="42.4759" y2="15.3458" gradientUnits="userSpaceOnUse">
<stop stop-color="#DD1A8F"/>
<stop offset="1" stop-color="#1611FE"/>
</linearGradient>
<linearGradient id="paint13_linear_435_20098" x1="81.7841" y1="97.0604" x2="92.818" y2="9.1545" gradientUnits="userSpaceOnUse">
<stop stop-color="#CBC1F7"/>
<stop offset="1" stop-color="#E8DCF7"/>
</linearGradient>
<linearGradient id="paint14_linear_435_20098" x1="85.3888" y1="72.962" x2="85.3888" y2="11.4534" gradientUnits="userSpaceOnUse">
<stop stop-color="#0665BD"/>
<stop offset="1" stop-color="#1A1F77"/>
</linearGradient>
<linearGradient id="paint15_linear_435_20098" x1="85.6915" y1="96.2483" x2="85.6915" y2="43.8526" gradientUnits="userSpaceOnUse">
<stop stop-color="#68C2B7"/>
<stop offset="1" stop-color="#CCE0FF"/>
</linearGradient>
<linearGradient id="paint16_linear_435_20098" x1="50.3557" y1="89.4371" x2="118.675" y2="89.4371" gradientUnits="userSpaceOnUse">
<stop stop-color="#79EAC1"/>
<stop offset="1" stop-color="#8CDDEF"/>
</linearGradient>
<linearGradient id="paint17_linear_435_20098" x1="84.4156" y1="92.4797" x2="84.4156" y2="82.6381" gradientUnits="userSpaceOnUse">
<stop stop-color="#8DA4E5"/>
<stop offset="1" stop-color="#755CBB"/>
</linearGradient>
<linearGradient id="paint18_linear_435_20098" x1="84.2421" y1="91.0876" x2="85.5229" y2="80.8842" gradientUnits="userSpaceOnUse">
<stop stop-color="#5E36CC"/>
<stop offset="1" stop-color="#4A7696"/>
</linearGradient>
<linearGradient id="paint19_linear_435_20098" x1="49.5402" y1="84.098" x2="49.5402" y2="70.2898" gradientUnits="userSpaceOnUse">
<stop stop-color="#8DA4E5"/>
<stop offset="1" stop-color="#755CBB"/>
</linearGradient>
<linearGradient id="paint20_linear_435_20098" x1="30.7828" y1="75.0759" x2="35.8402" y2="34.7838" gradientUnits="userSpaceOnUse">
<stop stop-color="#BE9DEA"/>
<stop offset="1" stop-color="#9E8CEF"/>
</linearGradient>
<linearGradient id="paint21_linear_435_20098" x1="50.4436" y1="75.3157" x2="53.0453" y2="64.2595" gradientUnits="userSpaceOnUse">
<stop stop-color="#1A39DD"/>
<stop offset="1" stop-color="#FEF511"/>
</linearGradient>
<linearGradient id="paint22_linear_435_20098" x1="55.5058" y1="25.9257" x2="118.468" y2="25.9257" gradientUnits="userSpaceOnUse">
<stop/>
<stop offset="1" stop-color="#6A9BFF"/>
</linearGradient>
<linearGradient id="paint23_linear_435_20098" x1="64.4067" y1="67.8469" x2="110.039" y2="67.8469" gradientUnits="userSpaceOnUse">
<stop/>
<stop offset="1" stop-color="#6A9BFF"/>
</linearGradient>
<linearGradient id="paint24_linear_435_20098" x1="129.359" y1="46.2452" x2="129.359" y2="44.8252" gradientUnits="userSpaceOnUse">
<stop stop-color="#9D68C2"/>
<stop offset="1" stop-color="#CCEDFF"/>
</linearGradient>
<linearGradient id="paint25_linear_435_20098" x1="51.1456" y1="69.8166" x2="51.1456" y2="64.9945" gradientUnits="userSpaceOnUse">
<stop stop-color="#D93DE3"/>
<stop offset="1" stop-color="#FF6DBA"/>
</linearGradient>
<linearGradient id="paint26_linear_435_20098" x1="49.429" y1="60.2404" x2="50.9882" y2="37.4835" gradientUnits="userSpaceOnUse">
<stop/>
<stop offset="1" stop-color="#00E3FF"/>
</linearGradient>
<linearGradient id="paint27_linear_435_20098" x1="123.162" y1="23.8814" x2="132.045" y2="23.8814" gradientUnits="userSpaceOnUse">
<stop/>
<stop offset="1" stop-color="#D4E2FF"/>
</linearGradient>
<linearGradient id="paint28_linear_435_20098" x1="37.9501" y1="22.5099" x2="47.7397" y2="22.5099" gradientUnits="userSpaceOnUse">
<stop stop-color="#D4E2FF"/>
<stop offset="1"/>
</linearGradient>
<linearGradient id="paint29_linear_435_20098" x1="29.9824" y1="47.8445" x2="30.1683" y2="36.5708" gradientUnits="userSpaceOnUse">
<stop stop-color="#CBC1F7"/>
<stop offset="1" stop-color="#E8DCF7"/>
</linearGradient>
<linearGradient id="paint30_linear_435_20098" x1="38.5608" y1="139.918" x2="57.2863" y2="82.1936" gradientUnits="userSpaceOnUse">
<stop stop-color="#CBC1F7"/>
<stop offset="1" stop-color="#E8DCF7"/>
</linearGradient>
<linearGradient id="paint31_linear_435_20098" x1="41.812" y1="139.372" x2="51.3078" y2="89.6788" gradientUnits="userSpaceOnUse">
<stop stop-color="#9D68C2"/>
<stop offset="1" stop-color="#CCEDFF"/>
</linearGradient>
<linearGradient id="paint32_linear_435_20098" x1="33.8285" y1="138.757" x2="33.3572" y2="125.871" gradientUnits="userSpaceOnUse">
<stop stop-color="#BE9DEA"/>
<stop offset="1" stop-color="#9E8CEF"/>
</linearGradient>
<linearGradient id="paint33_linear_435_20098" x1="39.9051" y1="130.145" x2="16.5426" y2="152.297" gradientUnits="userSpaceOnUse">
<stop stop-color="#CBC1F7"/>
<stop offset="1" stop-color="#E8DCF7"/>
</linearGradient>
<linearGradient id="paint34_linear_435_20098" x1="32.8043" y1="134.121" x2="13.7886" y2="148.098" gradientUnits="userSpaceOnUse">
<stop stop-color="#BE9DEA"/>
<stop offset="1" stop-color="#9E8CEF"/>
</linearGradient>
<linearGradient id="paint35_linear_435_20098" x1="28.8902" y1="136.065" x2="17.8751" y2="144.162" gradientUnits="userSpaceOnUse">
<stop stop-color="#8DA4E5"/>
<stop offset="1" stop-color="#755CBB"/>
</linearGradient>
<linearGradient id="paint36_linear_435_20098" x1="28.125" y1="130.073" x2="13.6278" y2="143.819" gradientUnits="userSpaceOnUse">
<stop stop-color="#CBC1F7"/>
<stop offset="1" stop-color="#E8DCF7"/>
</linearGradient>
<linearGradient id="paint37_linear_435_20098" x1="37.162" y1="136.272" x2="26.621" y2="144.02" gradientUnits="userSpaceOnUse">
<stop stop-color="#BE9DEA"/>
<stop offset="1" stop-color="#9E8CEF"/>
</linearGradient>
<linearGradient id="paint38_linear_435_20098" x1="61.628" y1="97.0044" x2="66.981" y2="97.3528" gradientUnits="userSpaceOnUse">
<stop stop-color="#79D6EA"/>
<stop offset="1" stop-color="#8CEFBF"/>
</linearGradient>
<linearGradient id="paint39_linear_435_20098" x1="132.503" y1="138.89" x2="113.778" y2="81.1662" gradientUnits="userSpaceOnUse">
<stop stop-color="#CBC1F7"/>
<stop offset="1" stop-color="#E8DCF7"/>
</linearGradient>
<linearGradient id="paint40_linear_435_20098" x1="129.252" y1="138.349" x2="119.756" y2="88.6552" gradientUnits="userSpaceOnUse">
<stop stop-color="#9D68C2"/>
<stop offset="1" stop-color="#CCEDFF"/>
</linearGradient>
<linearGradient id="paint41_linear_435_20098" x1="137.236" y1="137.732" x2="137.707" y2="124.846" gradientUnits="userSpaceOnUse">
<stop stop-color="#BE9DEA"/>
<stop offset="1" stop-color="#9E8CEF"/>
</linearGradient>
<linearGradient id="paint42_linear_435_20098" x1="131.159" y1="129.117" x2="154.522" y2="151.269" gradientUnits="userSpaceOnUse">
<stop stop-color="#CBC1F7"/>
<stop offset="1" stop-color="#DCF1F7"/>
</linearGradient>
<linearGradient id="paint43_linear_435_20098" x1="136.236" y1="132.096" x2="157.043" y2="147.39" gradientUnits="userSpaceOnUse">
<stop stop-color="#BE9DEA"/>
<stop offset="1" stop-color="#9E8CEF"/>
</linearGradient>
<linearGradient id="paint44_linear_435_20098" x1="137.687" y1="130.122" x2="153.961" y2="142.084" gradientUnits="userSpaceOnUse">
<stop stop-color="#8DA4E5"/>
<stop offset="1" stop-color="#755CBB"/>
</linearGradient>
<linearGradient id="paint45_linear_435_20098" x1="139.976" y1="130.74" x2="157.713" y2="130.867" gradientUnits="userSpaceOnUse">
<stop stop-color="#CBC1F7"/>
<stop offset="1" stop-color="#E8DCF7"/>
</linearGradient>
<linearGradient id="paint46_linear_435_20098" x1="133.902" y1="135.248" x2="144.443" y2="142.996" gradientUnits="userSpaceOnUse">
<stop stop-color="#BE9DEA"/>
<stop offset="1" stop-color="#9E8CEF"/>
</linearGradient>
<linearGradient id="paint47_linear_435_20098" x1="109.436" y1="95.9809" x2="104.083" y2="96.3293" gradientUnits="userSpaceOnUse">
<stop stop-color="#79CFEA"/>
<stop offset="1" stop-color="#8CBFEF"/>
</linearGradient>
<linearGradient id="paint48_linear_435_20098" x1="82.2631" y1="160.157" x2="91.8487" y2="83.7893" gradientUnits="userSpaceOnUse">
<stop stop-color="#CFC1F7"/>
<stop offset="1" stop-color="#DCF2F7"/>
</linearGradient>
<linearGradient id="paint49_linear_435_20098" x1="86.164" y1="160.286" x2="86.164" y2="98.8454" gradientUnits="userSpaceOnUse">
<stop stop-color="#9D68C2"/>
<stop offset="1" stop-color="#CCEDFF"/>
</linearGradient>
<linearGradient id="paint50_linear_435_20098" x1="85.5751" y1="159.039" x2="85.5751" y2="110.649" gradientUnits="userSpaceOnUse">
<stop stop-color="#BE9DEA"/>
<stop offset="1" stop-color="#9E8CEF"/>
</linearGradient>
<radialGradient id="paint51_radial_435_20098" cx="0" cy="0" r="1" gradientUnits="userSpaceOnUse" gradientTransform="translate(87.2299 154.309) scale(38.6685 38.6449)">
<stop stop-color="#9040E0"/>
<stop offset="1" stop-color="#1A51DD"/>
</radialGradient>
<linearGradient id="paint52_linear_435_20098" x1="85.1031" y1="98.1969" x2="85.1031" y2="83.2191" gradientUnits="userSpaceOnUse">
<stop stop-color="#8DA4E5"/>
<stop offset="1" stop-color="#755CBB"/>
</linearGradient>
<linearGradient id="paint53_linear_435_20098" x1="65.9801" y1="123.885" x2="108.085" y2="123.885" gradientUnits="userSpaceOnUse">
<stop/>
<stop offset="1" stop-color="#FFA05C"/>
</linearGradient>
<linearGradient id="paint54_linear_435_20098" x1="87.0328" y1="158.076" x2="87.0328" y2="149.693" gradientUnits="userSpaceOnUse">
<stop stop-color="#4F4BFF"/>
<stop offset="1"/>
</linearGradient>
<clipPath id="clip0_435_20098">
<rect width="191" height="202" fill="white"/>
</clipPath>
</defs>
</svg>
