<svg width="24" height="24" viewBox="0 0 24 24" fill="none" xmlns="http://www.w3.org/2000/svg">
<path d="M0 2C0 0.89543 0.895431 0 2 0H22C23.1046 0 24 0.895431 24 2V22C24 23.1046 23.1046 24 22 24H2C0.89543 24 0 23.1046 0 22V2Z" fill="white" fill-opacity="0.5"/>
<path fill-rule="evenodd" clip-rule="evenodd" d="M21.4897 3H16.3829V4H20.2643L15.0117 9.14273L15.7113 9.85727L20.9897 4.68929V9H21.9897V3.5V3H21.4897ZM20.9897 4.01091V4H20.979L20.9897 4.01091Z" fill="#333333"/>
<path fill-rule="evenodd" clip-rule="evenodd" d="M3.51028 3H8.61712V4H4.73566L9.98828 9.14273L9.28869 9.85727L4.01028 4.68929V9H3.01028V3.5V3H3.51028ZM4.01028 4.01091V4H4.02096L4.01028 4.01091Z" fill="#333333"/>
<path fill-rule="evenodd" clip-rule="evenodd" d="M21.4897 21.3555H16.3829V20.3555H20.2643L15.0117 15.2127L15.7113 14.4982L20.9897 19.6662V15.3555H21.9897V20.8555V21.3555H21.4897ZM20.9897 20.3446V20.3555H20.979L20.9897 20.3446Z" fill="#333333"/>
<path fill-rule="evenodd" clip-rule="evenodd" d="M3.51028 21.3555H8.61712V20.3555H4.73566L9.98828 15.2127L9.28869 14.4982L4.01028 19.6662V15.3555H3.01028V20.8555V21.3555H3.51028ZM4.01028 20.3446V20.3555H4.02096L4.01028 20.3446Z" fill="#333333"/>
</svg>
