<svg width="24" height="24" viewBox="0 0 24 24" fill="none" xmlns="http://www.w3.org/2000/svg">
<path d="M0 2C0 0.89543 0.895431 0 2 0H22C23.1046 0 24 0.895431 24 2V22C24 23.1046 23.1046 24 22 24H2C0.89543 24 0 23.1046 0 22V2Z" fill="url(#paint0_linear_36_2753)"/>
<path d="M10 3V20.1958C10 20.485 10.1598 20.739 10.3995 20.8809C10.5272 20.9561 10.6776 21 10.8386 21C11.3016 21 11.6769 20.6394 11.6769 20.1958C11.6769 20.1723 11.6759 20.1495 11.6739 20.1268V6.8792L15.5713 10.6173C15.7746 10.8125 16.0561 10.8862 16.3187 10.8384C16.4785 10.8094 16.6313 10.7357 16.7549 10.6173C16.9623 10.4182 17.0381 10.1407 16.9822 9.88443C16.9499 9.73707 16.8743 9.59676 16.7549 9.48232L10 3Z" fill="white"/>
<defs>
<linearGradient id="paint0_linear_36_2753" x1="9.91622" y1="0.182307" x2="14.0838" y2="23.8177" gradientUnits="userSpaceOnUse">
<stop stop-color="#2B78D3"/>
<stop offset="1" stop-color="#2B97D3"/>
</linearGradient>
</defs>
</svg>
