<svg width="31" height="31" viewBox="0 0 31 31" fill="none" xmlns="http://www.w3.org/2000/svg">
<path d="M1.05663 3.31788L3.31794 1.05657C3.51895 0.855566 3.71995 0.855566 3.92096 1.05657L30.4536 27.5892C30.6546 27.7902 30.6546 27.9912 30.4536 28.1922L28.1923 30.4536C27.9913 30.6546 27.7903 30.6546 27.5893 30.4536L1.05663 3.92089C0.855629 3.71989 0.855629 3.51888 1.05663 3.31788Z" fill="black"/>
<path d="M1.65991 26.9861L26.9865 1.65946C27.1875 1.45845 27.3886 1.45845 27.5896 1.65946L29.8509 3.92076C30.0519 4.12177 30.0519 4.32277 29.8509 4.52378L4.52423 29.8504C4.32322 30.0514 4.12222 30.0514 3.92121 29.8504L1.65991 27.5891C1.4589 27.3881 1.4589 27.1871 1.65991 26.9861Z" fill="black"/>
</svg>
