<svg width="152" height="215" viewBox="0 0 152 215" fill="none" xmlns="http://www.w3.org/2000/svg">
<g clip-path="url(#clip0_490_33027)">
<path d="M27.6274 167.453C35.9056 181.266 105.522 177.462 131.554 164.75C157.585 151.938 155.491 61.154 143.123 44.7388C130.756 28.3235 57.4489 1.09817 25.2337 18.9147C-6.98153 36.7313 16.5565 149.036 27.6274 167.453Z" fill="#E5F6FF"/>
<path d="M115.197 13.2114C115.297 6.50513 134.446 -1.9027 143.123 0.299354C151.801 2.6015 153.197 32.6294 139.932 33.6304C126.766 34.7314 115.197 21.6192 115.197 13.2114Z" fill="#E5F6FF"/>
<path d="M0.199589 160.15C-1.39621 153.043 8.07886 143.835 13.0657 145.136C18.0526 146.437 23.7376 170.159 16.1576 170.76C8.47781 171.36 1.2967 164.854 0.199589 160.15Z" fill="#E5F6FF"/>
<path opacity="0.5" d="M78.9921 214.998C101.466 214.998 119.685 210.92 119.685 205.89C119.685 200.859 101.466 196.781 78.9921 196.781C56.518 196.781 38.2992 200.859 38.2992 205.89C38.2992 210.92 56.518 214.998 78.9921 214.998Z" fill="url(#paint0_radial_490_33027)"/>
<path d="M72.1102 187.273C71.1129 187.674 35.6063 191.277 31.4173 187.273C27.3281 183.37 55.3543 165.954 59.4436 166.254C60.4409 166.354 61.2388 167.355 62.7349 169.557C67.4226 176.163 72.1102 187.273 72.1102 187.273Z" fill="url(#paint1_linear_490_33027)"/>
<path d="M59.4435 166.255C57.6483 166.455 64.0315 184.872 72.1102 187.274C72.1102 187.274 64.3307 165.554 59.4435 166.255Z" fill="url(#paint2_linear_490_33027)"/>
<path opacity="0.3" d="M72.1103 187.271C71.1129 187.671 35.8058 191.075 31.4174 187.271C31.4174 187.271 41.7901 188.973 51.2651 185.77C60.7402 182.467 60.9397 174.159 60.9397 174.159L61.5381 167.152C66.2258 173.758 72.1103 187.271 72.1103 187.271Z" fill="url(#paint3_linear_490_33027)"/>
<path d="M34.7087 156.644C34.7087 156.644 33.0131 148.436 40.4935 139.628C50.168 128.217 70.4147 119.809 73.8058 121.411C77.1969 123.012 66.126 140.829 66.126 140.829C66.126 140.829 52.1628 144.332 44.7822 153.04C37.3019 161.648 34.7087 156.644 34.7087 156.644Z" fill="url(#paint4_linear_490_33027)"/>
<path d="M106.42 167.555C105.423 175.562 101.832 181.868 95.5486 185.271C91.3596 187.573 86.0735 188.574 79.5906 187.874C70.1155 186.873 64.231 179.766 61.7375 170.057C60.6404 165.653 60.1417 160.849 60.2415 155.744C60.6404 139.329 69.3176 126.316 75.3018 122.313C85.1759 115.606 99.1391 119.51 100.735 131.221C101.932 140.63 108.115 154.242 106.42 167.555Z" fill="url(#paint5_linear_490_33027)"/>
<path d="M97.643 124.816C95.9475 124.115 95.0498 139.63 101.832 148.738C101.832 148.738 104.924 146.736 103.627 139.129C102.331 131.522 99.8372 125.717 97.643 124.816Z" fill="url(#paint6_linear_490_33027)"/>
<path d="M96.4462 130.52C96.4462 130.52 102.63 139.328 100.635 146.935C100.635 146.935 96.6456 140.929 96.4462 130.52Z" fill="#6340A2"/>
<path d="M95.5485 185.271C91.3595 187.573 86.0734 188.574 79.5905 187.874C70.1154 186.873 64.2309 179.766 61.7375 170.057C59.0446 159.247 63.9317 144.934 78.3936 144.934C92.9553 144.934 100.037 159.847 100.735 170.357C101.034 174.561 100.535 182.869 95.5485 185.271Z" fill="url(#paint7_radial_490_33027)"/>
<path d="M124.772 182.067C124.971 186.07 122.777 189.073 118.787 189.874C116.793 190.274 112.304 190.274 107.916 189.774C107.716 189.774 107.617 189.774 107.617 189.774C102.331 189.173 97.3438 187.972 97.0446 186.17C96.8451 184.969 96.8451 183.668 96.8451 182.467C96.9448 171.957 103.029 160.046 106.919 160.847C109.312 161.347 112.803 163.649 115.995 166.852C118.688 169.455 121.181 172.558 122.777 175.661C124.073 177.963 124.672 180.165 124.772 182.067Z" fill="url(#paint8_linear_490_33027)"/>
<path opacity="0.5" d="M116.094 166.852C116.094 166.852 108.714 164.751 102.829 169.555C98.7401 172.958 97.5433 180.165 96.8451 182.467C96.9448 171.957 103.029 160.046 106.919 160.847C109.312 161.447 112.803 163.75 116.094 166.852Z" fill="url(#paint9_linear_490_33027)"/>
<path d="M122.877 150.837C122.178 154.541 114.299 160.046 100.835 159.045C100.835 159.045 94.4514 153.84 95.0498 148.135C95.0498 148.135 95.6483 147.935 96.4462 147.534C98.042 146.733 103.029 144.832 103.528 143.13C104.425 139.927 101.034 135.423 99.0393 130.719C97.1443 126.415 98.5407 122.611 99.538 122.411C100.535 122.211 107.018 124.413 113.402 130.418C114.1 131.019 114.698 131.619 115.197 132.22C122.378 139.927 123.475 147.434 122.877 150.837Z" fill="url(#paint10_linear_490_33027)"/>
<path d="M96.147 148.136C96.147 148.136 90.3622 144.032 86.273 142.23C86.273 142.23 82.2835 143.031 81.4856 145.133C80.7874 147.335 89.5643 151.539 89.5643 151.539L96.147 148.136Z" fill="url(#paint11_linear_490_33027)"/>
<path d="M38.4987 148.936C38.4987 148.936 41.9895 142.23 44.7821 141.329C47.5748 140.428 49.2703 140.828 49.769 141.329C50.2677 141.829 50.2677 144.432 49.1706 146.534C48.0735 148.535 43.685 150.838 43.685 150.838L38.4987 148.936Z" fill="url(#paint12_linear_490_33027)"/>
<path d="M44.1837 141.53C44.1837 141.53 44.6824 143.631 46.4777 144.632C48.273 145.633 49.5695 145.233 49.5695 145.233C49.5695 145.233 51.1653 141.93 49.3701 140.829C47.874 139.928 44.5827 140.929 44.1837 141.53Z" fill="url(#paint13_linear_490_33027)"/>
<path d="M91.4593 173.06C86.7716 174.862 79.0918 166.854 74.1049 163.952C69.2178 161.049 60.6404 160.148 56.7506 161.85C52.8609 163.551 46.9763 170.658 41.5905 169.757C40.5931 169.557 40.2939 167.155 40.4934 163.651C40.8923 156.545 43.685 145.534 47.9737 142.832C54.3569 138.828 80.0892 139.829 86.2729 145.534C89.5643 148.637 91.7585 155.944 92.5564 162.25C93.3543 167.755 93.0551 172.46 91.4593 173.06Z" fill="url(#paint14_linear_490_33027)"/>
<path opacity="0.5" d="M91.4593 173.06C86.7716 174.861 79.0918 166.854 74.1049 163.951C69.2178 161.048 60.6404 160.148 56.7506 161.849C52.8609 163.551 46.9763 170.657 41.5905 169.757C40.5931 169.556 40.2939 167.154 40.4934 163.651L41.8897 161.149L51.664 155.243C51.664 155.243 51.7637 158.746 52.6614 159.247C53.559 159.747 56.9501 158.947 63.3333 158.947C69.7165 158.846 74.6036 162.15 77.5958 160.248C80.5879 158.346 82.7821 153.742 82.7821 153.742L85.5748 153.441L92.5564 162.25C93.3543 167.755 93.0551 172.459 91.4593 173.06Z" fill="url(#paint15_linear_490_33027)"/>
<path d="M37.9002 146.937C37.9002 146.937 44.084 146.536 51.1653 151.841C51.1653 151.841 53.1601 159.248 49.0708 163.852C49.0708 163.852 45.979 165.654 41.4908 166.255C37.1023 166.855 37.9002 146.937 37.9002 146.937Z" fill="url(#paint16_linear_490_33027)"/>
<path d="M95.0498 148.238C95.0498 148.238 100.535 148.238 103.627 152.943C106.121 156.846 102.231 159.148 102.231 159.148C102.231 159.148 95.4488 158.748 95.0498 148.238Z" fill="url(#paint17_linear_490_33027)"/>
<path d="M37.9003 146.936C35.1076 146.736 32.9134 160.348 35.706 164.452C38.4987 168.556 45.58 165.253 46.8766 163.751C48.1732 162.25 50.168 155.844 49.3701 153.142C48.6719 150.439 44.8819 147.336 37.9003 146.936Z" fill="url(#paint18_linear_490_33027)"/>
<path d="M49.0709 142.232C49.0709 142.232 48.5722 145.635 59.4436 146.936C70.315 148.338 80.3885 147.537 84.1785 144.034C84.1785 144.134 66.525 137.027 49.0709 142.232Z" fill="url(#paint19_linear_490_33027)"/>
<path d="M25.2336 184.069C17.2546 184.069 5.08659 183.468 1.69551 179.965C0.997351 179.164 0.698138 178.364 0.797876 177.363C1.19683 173.259 7.58003 171.057 14.2624 168.654C20.8451 166.352 27.727 163.95 28.7244 159.846C29.3228 157.244 28.4252 153.941 27.5275 150.838C26.3307 146.734 25.1338 142.53 27.1286 139.227C28.6247 136.725 31.8163 135.023 36.9029 134.022C56.1522 130.319 65.2283 140.428 65.3281 140.528L64.5302 141.229C64.4304 141.129 55.6535 131.42 37.1023 135.123C32.3149 136.024 29.4226 137.626 28.0262 139.828C26.2309 142.83 27.3281 146.634 28.5249 150.638C29.5223 153.941 30.5197 157.244 29.8215 160.147C28.7244 164.851 21.643 167.353 14.7611 169.756C8.67714 171.857 2.39368 174.16 1.99473 177.563C1.89499 178.163 2.1942 178.764 2.69289 179.264C7.38055 184.169 32.3149 182.968 32.5144 182.968L32.6142 183.969C32.0157 183.869 29.1233 184.069 25.2336 184.069Z" fill="url(#paint20_linear_490_33027)"/>
<path opacity="0.5" d="M61.7375 124.614C61.7375 124.614 67.6221 134.223 79.1916 133.822C90.7612 133.422 96.8452 123.312 96.8452 123.312L63.3333 123.913L61.7375 124.614Z" fill="url(#paint21_linear_490_33027)"/>
<path d="M108.514 51.5481C108.514 51.5481 114.798 46.143 122.378 45.2422C122.378 45.2422 124.672 46.3432 127.465 54.8511C130.157 63.2589 125.171 79.9745 125.171 79.9745L108.514 51.5481Z" fill="url(#paint22_linear_490_33027)"/>
<path d="M122.378 45.2399C122.378 45.2399 116.194 51.8461 116.194 62.556L118.588 64.0574L125.57 49.644C125.57 49.644 123.176 45.1398 122.378 45.2399Z" fill="url(#paint23_linear_490_33027)"/>
<path d="M118.388 63.3562C118.388 63.3562 116.793 54.2477 122.777 47.4414C122.777 47.4414 129.559 50.6444 132.352 62.5555C135.144 74.4665 127.863 81.5732 127.863 81.5732L118.388 63.3562Z" fill="url(#paint24_linear_490_33027)"/>
<path d="M114.898 47.9421C113.701 48.5426 113.8 49.8438 116.194 49.5436C118.588 49.2433 119.884 47.3415 119.585 46.9411C119.386 46.5408 116.194 47.2414 114.898 47.9421Z" fill="white"/>
<path d="M56.1522 52.9465C56.1522 52.9465 49.8688 47.5415 42.2887 46.6406C42.2887 46.6406 39.9947 47.7417 37.2021 56.2496C34.5092 64.6574 39.496 81.3729 39.496 81.3729L56.1522 52.9465Z" fill="url(#paint25_linear_490_33027)"/>
<path d="M42.2886 46.5407C42.2886 46.5407 48.4724 53.1468 48.4724 63.8568L46.0787 65.3582L39.097 50.9448C39.097 51.0449 41.391 46.4406 42.2886 46.5407Z" fill="url(#paint26_linear_490_33027)"/>
<path d="M46.2782 64.7586C46.2782 64.7586 47.874 55.6501 41.8897 48.8438C41.8897 48.8438 35.1076 52.0467 32.3149 63.9578C29.5223 75.8689 37.601 83.7762 37.601 83.7762L46.2782 64.7586Z" fill="url(#paint27_linear_490_33027)"/>
<path d="M49.769 49.2429C50.9658 49.8434 50.8661 51.1446 48.4724 50.8443C46.0787 50.5441 44.7821 48.6423 45.0813 48.2419C45.2808 47.8416 48.4724 48.5422 49.769 49.2429Z" fill="white"/>
<path d="M38.5984 110.802C48.1732 132.922 119.685 126.016 128.262 107.899C137.638 87.9804 116.094 38.8346 81.7847 41.1368C52.8608 43.0386 26.3306 82.3751 38.5984 110.802Z" fill="url(#paint28_linear_490_33027)"/>
<path d="M42.588 105.397C51.7638 123.514 114.2 120.511 123.276 103.896C131.055 89.6824 112.703 46.6424 81.3859 48.1438C49.9685 49.6452 33.8111 87.9808 42.588 105.397Z" fill="url(#paint29_linear_490_33027)"/>
<path d="M91.958 45.2394C91.2598 46.0402 98.9396 49.3432 99.937 48.8428C100.934 48.3423 94.1522 42.637 91.958 45.2394Z" fill="white"/>
<path opacity="0.5" d="M53.559 66.2584C52.8609 70.5624 61.0393 70.0619 74.0052 69.6615C89.664 69.1611 105.423 82.6736 114.598 72.9646C116.094 71.3631 101.134 50.3436 82.9816 50.7439C64.9291 51.2444 54.1574 62.4548 53.559 66.2584Z" fill="url(#paint30_linear_490_33027)"/>
<path opacity="0.5" d="M61.6377 111.302C60.8398 114.405 67.3228 117.608 83.3805 116.807C102.829 115.806 106.919 111.802 105.921 110.601C105.323 109.901 99.538 113.604 83.58 110.101C73.1075 107.799 62.5354 107.999 61.6377 111.302Z" fill="url(#paint31_linear_490_33027)"/>
<path opacity="0.2" d="M44.2835 101.591C44.2835 101.591 43.5853 97.0873 44.3832 90.9816C45.1811 84.8759 46.7769 80.9723 47.7743 81.4728C48.7717 82.0733 48.5722 87.9788 49.1706 93.8843C49.5695 98.4886 50.4672 102.793 50.4672 102.793C50.4672 102.793 46.3779 106.796 44.2835 101.591Z" fill="url(#paint32_linear_490_33027)"/>
<path opacity="0.5" d="M45.6798 118.208C45.6798 118.208 46.6772 117.207 51.8635 114.105C55.3544 112.103 58.9449 109.6 59.5433 108.7C60.3412 106.598 44.6824 107.799 44.6824 107.799L38.6982 110.701C38.5984 110.801 40.9921 115.506 45.6798 118.208Z" fill="url(#paint33_linear_490_33027)"/>
<path d="M33.7112 71.9648C33.7112 71.9648 37.7007 74.5673 35.1075 80.5729C35.1075 80.5729 16.2572 90.8824 17.3543 102.093C18.2519 111.502 44.2834 106.897 44.2834 106.897L45.181 110C45.181 110 23.0393 114.304 15.4593 109.099C15.4593 109.099 12.8661 102.894 19.349 91.7833C25.7322 80.773 33.7112 71.9648 33.7112 71.9648Z" fill="url(#paint34_linear_490_33027)"/>
<path d="M40.9921 106.098C38.5984 108.801 43.685 111.704 47.7743 112.204C52.4619 112.704 60.6404 110.903 60.1417 106.198C59.7428 101.494 46.5774 99.7924 40.9921 106.098Z" fill="url(#paint35_linear_490_33027)"/>
<path d="M41.2913 106.596C41.1916 107.397 57.748 107.597 58.147 104.594C58.5459 101.691 42.3885 100.691 41.2913 106.596Z" fill="url(#paint36_linear_490_33027)"/>
<path opacity="0.72" d="M128.163 52.8483C128.163 52.8483 125.969 50.1458 122.976 50.8465C119.984 51.5471 119.785 61.056 121.58 61.2561C123.375 61.4563 124.173 56.0513 125.47 55.1505C126.866 54.2496 129.26 54.65 129.26 54.65L128.163 52.8483Z" fill="url(#paint37_linear_490_33027)"/>
<path opacity="0.72" d="M34.9081 56.9499C34.9081 56.9499 36.1049 55.6486 38.6981 56.049C41.2913 56.4494 42.7873 61.8544 44.0839 61.2539C45.3805 60.7534 44.4829 52.0453 40.8923 49.543C40.8923 49.543 36.4041 53.3465 34.9081 56.9499Z" fill="url(#paint38_linear_490_33027)"/>
<path d="M30.1208 78.0703C30.1208 78.0703 21.1444 88.5801 21.6431 89.2807C22.2415 89.9814 30.6195 79.0712 30.1208 78.0703Z" fill="url(#paint39_linear_490_33027)"/>
<path d="M94.6509 88.2796C96.2467 91.7829 110.509 92.1833 112.803 86.6781C114.898 81.7736 108.514 68.6614 99.937 69.8625C93.5538 70.8634 91.8583 82.4742 94.6509 88.2796Z" fill="url(#paint40_radial_490_33027)"/>
<path d="M70.3149 88.2818C68.7191 91.785 54.4566 92.1854 52.1627 86.6803C50.0682 81.7757 56.1522 69.2641 65.0288 69.8646C71.5118 70.4652 73.1076 82.4764 70.3149 88.2818Z" fill="url(#paint41_radial_490_33027)"/>
<path d="M77.7953 99.289C77.7953 99.289 82.5827 94.5846 86.1732 94.8849C89.7638 95.1852 87.1706 99.7894 87.1706 99.7894C87.1706 99.7894 82.9816 100.79 77.7953 99.289Z" fill="#2F95CD"/>
<path opacity="0.3" d="M122.877 150.84C122.178 154.543 114.299 160.049 100.835 159.048C100.835 159.048 94.4514 153.843 95.0498 148.137C95.0498 148.137 94.3517 148.538 95.2493 148.137L97.9422 148.638C97.9422 148.638 106.32 150.84 115.396 149.238C124.472 147.637 118.089 136.026 115.396 132.223C122.378 139.93 123.475 147.437 122.877 150.84Z" fill="url(#paint42_linear_490_33027)"/>
<path d="M101.932 160.547C101.932 160.547 101.832 160.547 101.832 160.647C101.732 160.647 101.633 160.747 101.433 160.747C101.433 160.747 101.433 160.747 101.333 160.747C100.735 160.947 99.538 161.448 98.1417 162.048C97.4435 162.349 96.7454 162.649 96.0472 163.049C93.0551 164.45 89.3648 166.853 89.0656 166.953C89.0656 166.953 81.9842 163.65 81.5853 159.346C81.2861 156.343 83.0813 151.939 85.3753 149.336C86.3727 148.135 87.3701 147.335 88.3674 147.134C91.559 146.434 95.1496 148.035 95.1496 148.035C95.1496 148.035 99.8372 147.935 101.932 152.439C104.026 157.044 101.932 160.547 101.932 160.547Z" fill="url(#paint43_linear_490_33027)"/>
<path d="M101.932 160.548C101.932 160.548 101.832 160.548 101.832 160.648C101.732 160.648 101.632 160.748 101.433 160.748C101.433 160.748 101.433 160.748 101.333 160.748C100.735 161.048 99.8372 161.549 98.8398 162.049C95.349 163.951 90.7611 166.954 90.7611 166.954H89.0656C90.5616 164.251 92.7558 162.75 94.9501 161.749C98.5406 160.248 101.932 160.548 101.932 160.548Z" fill="url(#paint44_linear_490_33027)"/>
<path opacity="0.72" d="M69.3176 181.266C69.3176 181.266 73.0079 186.37 80.6877 186.871C88.2678 187.371 91.7586 185.269 91.7586 185.269C91.7586 185.269 90.5617 182.867 87.2704 182.367C83.979 181.866 80.2888 184.569 76.6982 184.168C73.1077 183.668 69.3176 181.266 69.3176 181.266Z" fill="url(#paint45_linear_490_33027)"/>
<path opacity="0.3" d="M124.772 182.067C124.971 186.071 122.777 189.073 118.787 189.874C116.793 190.274 112.304 190.274 107.916 189.774C109.213 189.874 115.396 190.274 116.793 188.673C118.388 186.871 118.488 183.768 120.184 182.467C121.979 181.166 123.675 182.167 124.173 182.067C124.273 182.067 124.472 182.067 124.772 182.067Z" fill="url(#paint46_linear_490_33027)"/>
<path d="M114.798 179.665C114.499 180.466 117.192 182.567 118.688 182.067C120.184 181.466 118.987 179.364 118.289 178.864C117.491 178.464 114.997 179.064 114.798 179.665Z" fill="white"/>
<path d="M36.8032 181.265C36.7034 181.966 40.7927 180.264 41.5906 178.963C42.3885 177.662 42.588 176.16 42.2887 176.06C42.0893 175.96 37.0027 180.164 36.8032 181.265Z" fill="white"/>
<path d="M88.3675 148.237C88.168 148.937 90.9606 152.04 91.7585 151.54C92.4567 151.039 91.8583 148.837 90.462 148.237C88.9659 147.536 88.4672 147.836 88.3675 148.237Z" fill="white"/>
<path d="M107.717 139.629C106.919 139.829 107.018 141.131 106.32 142.232C105.622 143.333 104.226 144.234 104.425 144.534C104.625 144.834 107.916 144.734 108.514 143.032C109.113 141.231 108.215 139.529 107.717 139.629Z" fill="white"/>
<path d="M106.819 138.327C106.52 138.226 105.722 136.525 105.921 136.024C106.121 135.424 107.118 136.125 107.218 136.625C107.417 137.226 107.318 138.427 106.819 138.327Z" fill="white"/>
<path d="M37.9002 147.936C37.9999 149.137 42.4881 149.437 42.9868 148.737C43.4855 148.036 42.5879 147.536 41.0918 147.235C39.496 147.035 37.8005 147.636 37.9002 147.936Z" fill="white"/>
<path opacity="0.3" d="M98.9396 162.048C95.4488 163.95 90.8609 166.952 90.8609 166.952H89.1653C89.1653 166.952 82.084 163.649 81.685 159.345C81.3858 156.342 83.1811 151.938 85.475 149.336C85.9737 150.737 89.0656 158.244 92.0577 160.546C92.9554 161.147 93.9527 161.547 95.0498 161.848C96.147 162.048 97.2441 162.148 98.2414 162.148C98.4409 162.048 98.6404 162.048 98.9396 162.048Z" fill="url(#paint47_linear_490_33027)"/>
<path opacity="0.3" d="M61.139 142.53C61.139 142.53 61.538 143.931 65.9264 144.032C70.3149 144.132 73.9054 141.129 73.9054 141.129L65.5275 140.328L61.139 142.53Z" fill="url(#paint48_linear_490_33027)"/>
<path d="M51.664 131.419C51.5643 132.02 57.748 130.518 57.0499 128.516C56.7507 127.215 51.7638 130.318 51.664 131.419Z" fill="white"/>
<path d="M61.1391 142.532L60.7401 138.328C60.7401 138.328 63.433 137.827 64.6299 137.927C65.8267 138.027 68.1207 142.832 68.1207 142.832C68.1207 142.832 64.2309 144.834 61.1391 142.532Z" fill="url(#paint49_linear_490_33027)"/>
</g>
<defs>
<radialGradient id="paint0_radial_490_33027" cx="0" cy="0" r="1" gradientUnits="userSpaceOnUse" gradientTransform="translate(78.9638 205.919) scale(40.6803 9.08365)">
<stop stop-color="#BE9DEA"/>
<stop offset="0.3883" stop-color="#E0BFF5"/>
<stop offset="1" stop-color="white"/>
</radialGradient>
<linearGradient id="paint1_linear_490_33027" x1="51.0872" y1="190.588" x2="54.2421" y2="165.558" gradientUnits="userSpaceOnUse">
<stop stop-color="#DAD3F9"/>
<stop offset="1" stop-color="#BE9DEA"/>
</linearGradient>
<linearGradient id="paint2_linear_490_33027" x1="65.6318" y1="187.246" x2="65.6318" y2="166.206" gradientUnits="userSpaceOnUse">
<stop stop-color="#BE9DEA"/>
<stop offset="1" stop-color="#9E8CEF"/>
</linearGradient>
<linearGradient id="paint3_linear_490_33027" x1="51.7778" y1="189.017" x2="51.7778" y2="167.079" gradientUnits="userSpaceOnUse">
<stop stop-color="#9D68C2"/>
<stop offset="1" stop-color="#CCEDFF"/>
</linearGradient>
<linearGradient id="paint4_linear_490_33027" x1="51.7732" y1="159.908" x2="56.9086" y2="119.165" gradientUnits="userSpaceOnUse">
<stop stop-color="#DAD3F9"/>
<stop offset="1" stop-color="#BE9DEA"/>
</linearGradient>
<linearGradient id="paint5_linear_490_33027" x1="79.9099" y1="187.959" x2="88.5758" y2="119.207" gradientUnits="userSpaceOnUse">
<stop stop-color="#CBC1F7"/>
<stop offset="1" stop-color="#E8DCF7"/>
</linearGradient>
<linearGradient id="paint6_linear_490_33027" x1="98.6556" y1="148.308" x2="101.555" y2="125.309" gradientUnits="userSpaceOnUse">
<stop stop-color="#BE9DEA"/>
<stop offset="1" stop-color="#9E8CEF"/>
</linearGradient>
<radialGradient id="paint7_radial_490_33027" cx="0" cy="0" r="1" gradientUnits="userSpaceOnUse" gradientTransform="translate(81.5841 181.411) scale(29.5398 30.6115)">
<stop stop-color="#45FFCD"/>
<stop offset="1" stop-color="#22E0FF"/>
</radialGradient>
<linearGradient id="paint8_linear_490_33027" x1="109.805" y1="190.083" x2="113.38" y2="161.721" gradientUnits="userSpaceOnUse">
<stop stop-color="#CBC1F7"/>
<stop offset="1" stop-color="#E8DCF7"/>
</linearGradient>
<linearGradient id="paint9_linear_490_33027" x1="106.475" y1="182.489" x2="106.475" y2="160.878" gradientUnits="userSpaceOnUse">
<stop stop-color="#8DA4E5"/>
<stop offset="1" stop-color="#755CBB"/>
</linearGradient>
<linearGradient id="paint10_linear_490_33027" x1="107.632" y1="159.945" x2="112.163" y2="123.993" gradientUnits="userSpaceOnUse">
<stop stop-color="#CBC1F7"/>
<stop offset="1" stop-color="#E8DCF7"/>
</linearGradient>
<linearGradient id="paint11_linear_490_33027" x1="88.2731" y1="151.377" x2="89.3759" y2="142.628" gradientUnits="userSpaceOnUse">
<stop stop-color="#DAD3F9"/>
<stop offset="1" stop-color="#BE9DEA"/>
</linearGradient>
<linearGradient id="paint12_linear_490_33027" x1="43.6289" y1="150.871" x2="44.9461" y2="140.419" gradientUnits="userSpaceOnUse">
<stop stop-color="#CBC1F7"/>
<stop offset="1" stop-color="#E8DCF7"/>
</linearGradient>
<linearGradient id="paint13_linear_490_33027" x1="47.2084" y1="145.307" x2="47.2084" y2="140.449" gradientUnits="userSpaceOnUse">
<stop stop-color="#BE9DEA"/>
<stop offset="1" stop-color="#9E8CEF"/>
</linearGradient>
<linearGradient id="paint14_linear_490_33027" x1="64.4363" y1="175.092" x2="72.5653" y2="140.685" gradientUnits="userSpaceOnUse">
<stop stop-color="#DD1A8F"/>
<stop offset="1" stop-color="#FE117E"/>
</linearGradient>
<linearGradient id="paint15_linear_490_33027" x1="66.7202" y1="173.373" x2="66.7202" y2="153.375" gradientUnits="userSpaceOnUse">
<stop stop-color="#8DA4E5"/>
<stop offset="1" stop-color="#755CBB"/>
</linearGradient>
<linearGradient id="paint16_linear_490_33027" x1="44.7788" y1="166.219" x2="44.7788" y2="146.89" gradientUnits="userSpaceOnUse">
<stop stop-color="#BE9DEA"/>
<stop offset="1" stop-color="#9E8CEF"/>
</linearGradient>
<linearGradient id="paint17_linear_490_33027" x1="99.7116" y1="159.164" x2="99.7116" y2="148.22" gradientUnits="userSpaceOnUse">
<stop stop-color="#BE9DEA"/>
<stop offset="1" stop-color="#9E8CEF"/>
</linearGradient>
<linearGradient id="paint18_linear_490_33027" x1="40.6309" y1="166.514" x2="43.0281" y2="147.495" gradientUnits="userSpaceOnUse">
<stop stop-color="#CBC1F7"/>
<stop offset="1" stop-color="#E8DCF7"/>
</linearGradient>
<linearGradient id="paint19_linear_490_33027" x1="66.0519" y1="147.807" x2="66.9873" y2="140.386" gradientUnits="userSpaceOnUse">
<stop stop-color="#D93DE3"/>
<stop offset="1" stop-color="#FF6DBA"/>
</linearGradient>
<linearGradient id="paint20_linear_490_33027" x1="31.1211" y1="184.824" x2="34.8586" y2="132.352" gradientUnits="userSpaceOnUse">
<stop stop-color="#A242EA"/>
<stop offset="1" stop-color="#FE117E"/>
</linearGradient>
<linearGradient id="paint21_linear_490_33027" x1="79.304" y1="133.772" x2="79.304" y2="123.235" gradientUnits="userSpaceOnUse">
<stop stop-color="#8DA4E5"/>
<stop offset="1" stop-color="#755CBB"/>
</linearGradient>
<linearGradient id="paint22_linear_490_33027" x1="118.345" y1="79.9458" x2="118.345" y2="45.2382" gradientUnits="userSpaceOnUse">
<stop stop-color="#B9ACF4"/>
<stop offset="1" stop-color="#E1D1F5"/>
</linearGradient>
<linearGradient id="paint23_linear_490_33027" x1="120.857" y1="64.101" x2="120.857" y2="45.2333" gradientUnits="userSpaceOnUse">
<stop stop-color="#BE9DEA"/>
<stop offset="1" stop-color="#9E8CEF"/>
</linearGradient>
<linearGradient id="paint24_linear_490_33027" x1="125.53" y1="81.6036" x2="125.53" y2="47.5023" gradientUnits="userSpaceOnUse">
<stop stop-color="#45FFCD"/>
<stop offset="1" stop-color="#22E0FF"/>
</linearGradient>
<linearGradient id="paint25_linear_490_33027" x1="46.2956" y1="81.2964" x2="46.2956" y2="46.5889" gradientUnits="userSpaceOnUse">
<stop stop-color="#B9ACF4"/>
<stop offset="1" stop-color="#E1D1F5"/>
</linearGradient>
<linearGradient id="paint26_linear_490_33027" x1="43.7838" y1="65.4541" x2="43.7838" y2="46.5864" gradientUnits="userSpaceOnUse">
<stop stop-color="#BE9DEA"/>
<stop offset="1" stop-color="#9E8CEF"/>
</linearGradient>
<linearGradient id="paint27_linear_490_33027" x1="39.1351" y1="83.7279" x2="39.1351" y2="48.8569" gradientUnits="userSpaceOnUse">
<stop stop-color="#45FFCD"/>
<stop offset="1" stop-color="#22E0FF"/>
</linearGradient>
<linearGradient id="paint28_linear_490_33027" x1="79.222" y1="125.775" x2="89.8449" y2="41.4947" gradientUnits="userSpaceOnUse">
<stop stop-color="#CBC1F7"/>
<stop offset="1" stop-color="#E8DCF7"/>
</linearGradient>
<linearGradient id="paint29_linear_490_33027" x1="82.6185" y1="117.703" x2="82.6185" y2="48.0226" gradientUnits="userSpaceOnUse">
<stop stop-color="#0665BD"/>
<stop offset="1" stop-color="#1A1F77"/>
</linearGradient>
<linearGradient id="paint30_linear_490_33027" x1="53.5367" y1="63.6041" x2="114.786" y2="63.6041" gradientUnits="userSpaceOnUse">
<stop/>
<stop offset="1" stop-color="#6A9BFF"/>
</linearGradient>
<linearGradient id="paint31_linear_490_33027" x1="61.591" y1="112.762" x2="106.123" y2="112.762" gradientUnits="userSpaceOnUse">
<stop/>
<stop offset="1" stop-color="#6A9BFF"/>
</linearGradient>
<linearGradient id="paint32_linear_490_33027" x1="46.9467" y1="104.227" x2="48.5115" y2="81.4835" gradientUnits="userSpaceOnUse">
<stop/>
<stop offset="1" stop-color="#00E3FF"/>
</linearGradient>
<linearGradient id="paint33_linear_490_33027" x1="49.0456" y1="118.238" x2="49.0456" y2="107.553" gradientUnits="userSpaceOnUse">
<stop stop-color="#8DA4E5"/>
<stop offset="1" stop-color="#755CBB"/>
</linearGradient>
<linearGradient id="paint34_linear_490_33027" x1="29.4573" y1="112.335" x2="34.5324" y2="72.0709" gradientUnits="userSpaceOnUse">
<stop stop-color="#BE9DEA"/>
<stop offset="1" stop-color="#9E8CEF"/>
</linearGradient>
<linearGradient id="paint35_linear_490_33027" x1="49.0255" y1="112.576" x2="51.6355" y2="101.531" gradientUnits="userSpaceOnUse">
<stop stop-color="#DD1A8F"/>
<stop offset="1" stop-color="#FE117E"/>
</linearGradient>
<linearGradient id="paint36_linear_490_33027" x1="49.7242" y1="107.076" x2="49.7242" y2="102.257" gradientUnits="userSpaceOnUse">
<stop stop-color="#D93DE3"/>
<stop offset="1" stop-color="#FF6DBA"/>
</linearGradient>
<linearGradient id="paint37_linear_490_33027" x1="120.462" y1="56.0189" x2="129.303" y2="56.0189" gradientUnits="userSpaceOnUse">
<stop/>
<stop offset="1" stop-color="#D4E2FF"/>
</linearGradient>
<linearGradient id="paint38_linear_490_33027" x1="34.8729" y1="55.3983" x2="44.6163" y2="55.3983" gradientUnits="userSpaceOnUse">
<stop stop-color="#D4E2FF"/>
<stop offset="1"/>
</linearGradient>
<linearGradient id="paint39_linear_490_33027" x1="25.8659" y1="89.3104" x2="25.8659" y2="78.0414" gradientUnits="userSpaceOnUse">
<stop stop-color="#CBC1F7"/>
<stop offset="1" stop-color="#E8DCF7"/>
</linearGradient>
<radialGradient id="paint40_radial_490_33027" cx="0" cy="0" r="1" gradientUnits="userSpaceOnUse" gradientTransform="translate(103.618 87.6282) scale(14.7579 14.8105)">
<stop stop-color="#45FFCD"/>
<stop offset="1" stop-color="#22E0FF"/>
</radialGradient>
<radialGradient id="paint41_radial_490_33027" cx="0" cy="0" r="1" gradientUnits="userSpaceOnUse" gradientTransform="translate(61.3721 87.6381) rotate(180) scale(14.7704 14.8231)">
<stop stop-color="#45FFCD"/>
<stop offset="1" stop-color="#22E0FF"/>
</radialGradient>
<linearGradient id="paint42_linear_490_33027" x1="108.879" y1="159.198" x2="108.879" y2="132.342" gradientUnits="userSpaceOnUse">
<stop stop-color="#9D68C2"/>
<stop offset="1" stop-color="#CCEDFF"/>
</linearGradient>
<linearGradient id="paint43_linear_490_33027" x1="91.0106" y1="167.206" x2="93.518" y2="147.311" gradientUnits="userSpaceOnUse">
<stop stop-color="#CBC1F7"/>
<stop offset="1" stop-color="#E8DCF7"/>
</linearGradient>
<linearGradient id="paint44_linear_490_33027" x1="95.4901" y1="166.964" x2="95.4901" y2="160.542" gradientUnits="userSpaceOnUse">
<stop stop-color="#BE9DEA"/>
<stop offset="1" stop-color="#9E8CEF"/>
</linearGradient>
<linearGradient id="paint45_linear_490_33027" x1="80.556" y1="186.956" x2="80.556" y2="181.272" gradientUnits="userSpaceOnUse">
<stop stop-color="#D4E2FF"/>
<stop offset="1"/>
</linearGradient>
<linearGradient id="paint46_linear_490_33027" x1="116.325" y1="190.186" x2="116.325" y2="181.795" gradientUnits="userSpaceOnUse">
<stop stop-color="#9D68C2"/>
<stop offset="1" stop-color="#CCEDFF"/>
</linearGradient>
<linearGradient id="paint47_linear_490_33027" x1="90.2424" y1="166.962" x2="90.2424" y2="149.361" gradientUnits="userSpaceOnUse">
<stop stop-color="#9D68C2"/>
<stop offset="1" stop-color="#CCEDFF"/>
</linearGradient>
<linearGradient id="paint48_linear_490_33027" x1="67.5144" y1="144.102" x2="67.5144" y2="140.36" gradientUnits="userSpaceOnUse">
<stop stop-color="#8DA4E5"/>
<stop offset="1" stop-color="#755CBB"/>
</linearGradient>
<linearGradient id="paint49_linear_490_33027" x1="64.2195" y1="143.658" x2="64.6237" y2="137.983" gradientUnits="userSpaceOnUse">
<stop stop-color="#A242EA"/>
<stop offset="1" stop-color="#FE117E"/>
</linearGradient>
<clipPath id="clip0_490_33027">
<rect width="152" height="215" fill="white"/>
</clipPath>
</defs>
</svg>
