<svg width="28" height="28" viewBox="0 0 28 28" fill="none" xmlns="http://www.w3.org/2000/svg">
<path d="M27.7211 8.40156C27.7211 8.40156 27.4477 6.47109 26.6055 5.62344C25.5391 4.50781 24.3469 4.50234 23.8 4.43672C19.8844 4.15234 14.0055 4.15234 14.0055 4.15234H13.9945C13.9945 4.15234 8.11562 4.15234 4.2 4.43672C3.65313 4.50234 2.46094 4.50781 1.39453 5.62344C0.552344 6.47109 0.284375 8.40156 0.284375 8.40156C0.284375 8.40156 0 10.6711 0 12.9352V15.057C0 17.3211 0.278906 19.5906 0.278906 19.5906C0.278906 19.5906 0.552344 21.5211 1.38906 22.3688C2.45547 23.4844 3.85547 23.4461 4.47891 23.5664C6.72109 23.7797 14 23.8453 14 23.8453C14 23.8453 19.8844 23.8344 23.8 23.5555C24.3469 23.4898 25.5391 23.4844 26.6055 22.3688C27.4477 21.5211 27.7211 19.5906 27.7211 19.5906C27.7211 19.5906 28 17.3266 28 15.057V12.9352C28 10.6711 27.7211 8.40156 27.7211 8.40156ZM11.107 17.6328V9.76328L18.6703 13.7117L11.107 17.6328Z" fill="#222222" fill-opacity="0.35"/>
</svg>
