<svg width="96" height="96" viewBox="0 0 96 96" fill="none" xmlns="http://www.w3.org/2000/svg">
<path d="M58.35 19.5V18.9H57.75H27.75C24.5191 18.9 21.9 21.5191 21.9 24.75V68.4H18.6V24.75C18.6 19.6966 22.6966 15.6 27.75 15.6H65.25C70.3034 15.6 74.4 19.6966 74.4 24.75V31.5C74.4 32.4113 73.6613 33.15 72.75 33.15C72.6556 33.15 72.5636 33.1421 72.4743 33.1272L72.375 33.1105L72.2757 33.1272C72.1864 33.1421 72.0944 33.15 72 33.15H64.0179C61.8983 33.15 60.4008 32.2657 59.4819 31.0361C58.6232 29.8872 58.35 28.5513 58.35 27.629V19.5ZM62.25 18.9H61.65V19.5V27.629C61.65 27.9987 61.7794 28.5978 62.1253 29.0607L62.6059 28.7015L62.1253 29.0607C62.2869 29.2769 62.4939 29.4626 62.7684 29.599C63.0429 29.7355 63.4401 29.85 64.0179 29.85H70.5H71.1V29.25V24.75C71.1 21.5191 68.4809 18.9 65.25 18.9H62.25ZM74.4 40.875V68.4H71.1V40.875C71.1 39.9637 71.8387 39.225 72.75 39.225C73.6613 39.225 74.4 39.9637 74.4 40.875Z" fill="#1A1A1A" stroke="#F5F8FF" stroke-width="1.2" stroke-linecap="round"/>
<path d="M35.5333 41.2438C34.8519 41.2438 34.2593 41.0027 33.7556 40.5205C33.2519 40.0082 33 39.4055 33 38.7123V38.5767C33 37.8836 33.2519 37.2808 33.7556 36.7685C34.2593 36.2562 34.8519 36 35.5333 36H54.4667C55.1481 36 55.7407 36.2562 56.2444 36.7685C56.7481 37.2808 57 37.8836 57 38.5767V38.7123C57 39.4055 56.7481 40.0082 56.2444 40.5205C55.7407 41.0027 55.1481 41.2438 54.4667 41.2438H48.5111C48.2741 41.2438 48.1556 41.3795 48.1556 41.6507V60.4233C48.1556 61.1164 47.9037 61.7192 47.4 62.2315C46.8963 62.7438 46.3037 63 45.6222 63H44.3778C43.6963 63 43.1037 62.7438 42.6 62.2315C42.0963 61.7192 41.8444 61.1164 41.8444 60.4233V41.6507C41.8444 41.3795 41.7259 41.2438 41.4889 41.2438H35.5333Z" fill="#AAC9EE"/>
<path d="M33.45 71.25C33.45 70.2248 34.2158 69.45 35.0935 69.45H57.9065C58.7842 69.45 59.55 70.2248 59.55 71.25C59.55 72.2752 58.7842 73.05 57.9065 73.05H35.0935C34.2158 73.05 33.45 72.2752 33.45 71.25ZM33.45 78.57C33.45 77.5759 34.2559 76.77 35.25 76.77H53.0714C54.0655 76.77 54.8714 77.5759 54.8714 78.57C54.8714 79.5641 54.0655 80.37 53.0714 80.37H35.25C34.2559 80.37 33.45 79.5641 33.45 78.57ZM60.4072 78.48C60.4072 79.4278 59.646 80.19 58.7144 80.19C57.7828 80.19 57.0215 79.4278 57.0215 78.48C57.0215 77.5322 57.7828 76.77 58.7144 76.77C59.646 76.77 60.4072 77.5322 60.4072 78.48Z" fill="#C4C4C4" stroke="#AAC9EE" stroke-width="0.9"/>
</svg>
