<svg width="95" height="95" viewBox="0 0 95 95" fill="none" xmlns="http://www.w3.org/2000/svg">
<mask id="path-1-inside-1_333_28209" fill="white">
<path fill-rule="evenodd" clip-rule="evenodd" d="M61.6042 23.7987C60.1395 23.9572 59.0166 24.5027 58.2354 25.4354C57.2943 26.5589 56.8237 28.3911 56.8237 30.9319C56.8237 33.4727 57.2943 35.3049 58.2354 36.4285C59.1765 37.5521 60.6136 38.1138 62.5468 38.1138C64.4799 38.1138 65.917 37.5521 66.8581 36.4285C67.7992 35.3049 68.2698 33.4727 68.2698 30.9319C68.2698 30.4963 68.256 30.0815 68.2283 29.6875H67.8041C66.3596 29.6875 65.1645 29.3023 64.2223 28.6722C64.3135 29.2663 64.3591 30.0195 64.3591 30.9319C64.3591 32.5662 64.2128 33.6962 63.9203 34.3218C63.6405 34.9346 63.1827 35.2411 62.5468 35.2411C61.9109 35.2411 61.4467 34.9346 61.1542 34.3218C60.8744 33.6962 60.7345 32.5662 60.7345 30.9319C60.7345 29.2976 60.8744 28.1741 61.1542 27.5612C61.4197 26.9933 61.8266 26.6832 62.375 26.6308C61.8355 25.6371 61.6293 24.6006 61.6042 23.7987ZM35.4105 35.2411C34.7746 35.2411 34.3104 34.9346 34.0179 34.3218C33.7381 33.6962 33.5982 32.5662 33.5982 30.9319C33.5982 29.2976 33.7381 28.1741 34.0179 27.5612C34.3104 26.9356 34.7746 26.6228 35.4105 26.6228C36.0464 26.6228 36.5043 26.9356 36.7841 27.5612C37.0766 28.1741 37.2228 29.2976 37.2228 30.9319C37.2228 32.5662 37.0766 33.6962 36.7841 34.3218C36.5043 34.9346 36.0464 35.2411 35.4105 35.2411ZM35.4105 23.75C33.4774 23.75 32.0403 24.3118 31.0992 25.4354C30.1581 26.5589 29.6875 28.3911 29.6875 30.9319C29.6875 33.4727 30.1581 35.3049 31.0992 36.4285C32.0403 37.5521 33.4774 38.1138 35.4105 38.1138C37.3436 38.1138 38.7808 37.5521 39.7219 36.4285C40.663 35.3049 41.1336 33.4727 41.1336 30.9319C41.1336 28.3911 40.663 26.5589 39.7219 25.4354C38.7808 24.3118 37.3436 23.75 35.4105 23.75ZM35.4105 69.8572C34.7746 69.8572 34.3104 69.5507 34.0179 68.9379C33.7381 68.3123 33.5982 67.1823 33.5982 65.548C33.5982 63.9137 33.7381 62.7902 34.0179 62.1773C34.3104 61.5517 34.7746 61.2389 35.4105 61.2389C36.0464 61.2389 36.5043 61.5517 36.7841 62.1773C37.0766 62.7902 37.2228 63.9137 37.2228 65.548C37.2228 67.1823 37.0766 68.3123 36.7841 68.9379C36.5043 69.5507 36.0464 69.8572 35.4105 69.8572ZM35.4105 58.3661C33.4774 58.3661 32.0403 58.9279 31.0992 60.0514C30.1581 61.175 29.6875 63.0072 29.6875 65.548C29.6875 68.0888 30.1581 69.921 31.0992 71.0446C32.0403 72.1681 33.4774 72.7299 35.4105 72.7299C37.3436 72.7299 38.7808 72.1681 39.7219 71.0446C40.663 69.921 41.1336 68.0888 41.1336 65.548C41.1336 63.0072 40.663 61.175 39.7219 60.0514C38.7808 58.9279 37.3436 58.3661 35.4105 58.3661ZM47.2149 51.2645C47.5075 51.8774 47.9717 52.1838 48.6076 52.1838C49.2434 52.1838 49.7013 51.8774 49.9811 51.2645C50.2736 50.6389 50.4198 49.509 50.4198 47.8747C50.4198 46.2404 50.2736 45.1168 49.9811 44.504C49.7013 43.8783 49.2434 43.5655 48.6076 43.5655C47.9717 43.5655 47.5075 43.8783 47.2149 44.504C46.9352 45.1168 46.7953 46.2404 46.7953 47.8747C46.7953 49.509 46.9352 50.6389 47.2149 51.2645ZM44.2962 42.3781C45.2373 41.2545 46.6744 40.6927 48.6076 40.6927C50.5407 40.6927 51.9778 41.2545 52.9189 42.3781C53.86 43.5017 54.3306 45.3339 54.3306 47.8747C54.3306 50.4155 53.86 52.2477 52.9189 53.3712C51.9778 54.4948 50.5407 55.0566 48.6076 55.0566C46.6744 55.0566 45.2373 54.4948 44.2962 53.3712C43.3551 52.2477 42.8845 50.4155 42.8845 47.8747C42.8845 45.3339 43.3551 43.5017 44.2962 42.3781ZM61.1542 68.9379C61.4467 69.5507 61.9109 69.8572 62.5468 69.8572C63.1827 69.8572 63.6405 69.5507 63.9203 68.9379C64.2128 68.3123 64.3591 67.1823 64.3591 65.548C64.3591 63.9137 64.2128 62.7902 63.9203 62.1773C63.6405 61.5517 63.1827 61.2389 62.5468 61.2389C61.9109 61.2389 61.4467 61.5517 61.1542 62.1773C60.8744 62.7902 60.7345 63.9137 60.7345 65.548C60.7345 67.1823 60.8744 68.3123 61.1542 68.9379ZM58.2354 60.0514C59.1765 58.9279 60.6136 58.3661 62.5468 58.3661C64.4799 58.3661 65.917 58.9279 66.8581 60.0514C67.7992 61.175 68.2698 63.0072 68.2698 65.548C68.2698 68.0888 67.7992 69.921 66.8581 71.0446C65.917 72.1681 64.4799 72.7299 62.5468 72.7299C60.6136 72.7299 59.1765 72.1681 58.2354 71.0446C57.2943 69.921 56.8237 68.0888 56.8237 65.548C56.8237 63.0072 57.2943 61.175 58.2354 60.0514ZM62.5468 52.1838C61.9109 52.1838 61.4467 51.8774 61.1542 51.2645C60.8744 50.6389 60.7345 49.509 60.7345 47.8747C60.7345 46.2404 60.8744 45.1168 61.1542 44.504C61.4467 43.8783 61.9109 43.5655 62.5468 43.5655C63.1827 43.5655 63.6405 43.8783 63.9203 44.504C64.2128 45.1168 64.3591 46.2404 64.3591 47.8747C64.3591 49.509 64.2128 50.6389 63.9203 51.2645C63.6405 51.8774 63.1827 52.1838 62.5468 52.1838ZM62.5468 40.6927C60.6136 40.6927 59.1765 41.2545 58.2354 42.3781C57.2943 43.5017 56.8237 45.3339 56.8237 47.8747C56.8237 50.4155 57.2943 52.2477 58.2354 53.3712C59.1765 54.4948 60.6136 55.0566 62.5468 55.0566C64.4799 55.0566 65.917 54.4948 66.8581 53.3712C67.7992 52.2477 68.2698 50.4155 68.2698 47.8747C68.2698 45.3339 67.7992 43.5017 66.8581 42.3781C65.917 41.2545 64.4799 40.6927 62.5468 40.6927ZM50.9122 23.7616C51.2047 23.7616 51.4591 23.8701 51.6753 24.0872C51.8915 24.3042 51.9996 24.5596 51.9996 24.8532V36.6508C51.9996 36.9444 51.8915 37.1998 51.6753 37.4168C51.4591 37.6339 51.2047 37.7424 50.9122 37.7424H49.0809C48.7883 37.7424 48.534 37.6339 48.3178 37.4168C48.1016 37.1998 47.9935 36.9444 47.9935 36.6508V27.975H47.9744L45.2655 29.8519C45.0747 29.9795 44.8776 29.9923 44.6741 29.8902C44.4706 29.7753 44.3689 29.6029 44.3689 29.3731V27.343C44.3689 26.6152 44.6678 26.047 45.2655 25.6385L47.0969 24.3745C47.6819 23.9659 48.3432 23.7616 49.0809 23.7616H50.9122ZM51.6753 58.7149C51.4591 58.4978 51.2047 58.3893 50.9122 58.3893H49.0809C48.3432 58.3893 47.6819 58.5936 47.0969 59.0021L45.2655 60.2662C44.6678 60.6747 44.3689 61.2429 44.3689 61.9707V64.0008C44.3689 64.2306 44.4706 64.4029 44.6741 64.5179C44.8776 64.62 45.0747 64.6072 45.2655 64.4795L47.9744 62.6027H47.9935V71.2784C47.9935 71.5721 48.1016 71.8274 48.3178 72.0445C48.534 72.2616 48.7883 72.3701 49.0809 72.3701H50.9122C51.2047 72.3701 51.4591 72.2616 51.6753 72.0445C51.8915 71.8274 51.9996 71.5721 51.9996 71.2784V59.4809C51.9996 59.1873 51.8915 58.9319 51.6753 58.7149ZM38.4342 40.7043C38.7267 40.7043 38.9811 40.8129 39.1973 41.0299C39.4135 41.247 39.5216 41.5023 39.5216 41.796V53.5935C39.5216 53.8872 39.4135 54.1425 39.1973 54.3596C38.9811 54.5766 38.7267 54.6851 38.4342 54.6851H36.6028C36.3103 54.6851 36.056 54.5766 35.8398 54.3596C35.6236 54.1425 35.5155 53.8872 35.5155 53.5935V44.9177H35.4964L32.7875 46.7946C32.5967 46.9223 32.3996 46.9351 32.1961 46.8329C31.9926 46.718 31.8909 46.5456 31.8909 46.3158V44.2857C31.8909 43.558 32.1897 42.9898 32.7875 42.5812L34.6188 41.3172C35.2039 40.9086 35.8652 40.7043 36.6028 40.7043H38.4342Z"/>
</mask>
<path fill-rule="evenodd" clip-rule="evenodd" d="M61.6042 23.7987C60.1395 23.9572 59.0166 24.5027 58.2354 25.4354C57.2943 26.5589 56.8237 28.3911 56.8237 30.9319C56.8237 33.4727 57.2943 35.3049 58.2354 36.4285C59.1765 37.5521 60.6136 38.1138 62.5468 38.1138C64.4799 38.1138 65.917 37.5521 66.8581 36.4285C67.7992 35.3049 68.2698 33.4727 68.2698 30.9319C68.2698 30.4963 68.256 30.0815 68.2283 29.6875H67.8041C66.3596 29.6875 65.1645 29.3023 64.2223 28.6722C64.3135 29.2663 64.3591 30.0195 64.3591 30.9319C64.3591 32.5662 64.2128 33.6962 63.9203 34.3218C63.6405 34.9346 63.1827 35.2411 62.5468 35.2411C61.9109 35.2411 61.4467 34.9346 61.1542 34.3218C60.8744 33.6962 60.7345 32.5662 60.7345 30.9319C60.7345 29.2976 60.8744 28.1741 61.1542 27.5612C61.4197 26.9933 61.8266 26.6832 62.375 26.6308C61.8355 25.6371 61.6293 24.6006 61.6042 23.7987ZM35.4105 35.2411C34.7746 35.2411 34.3104 34.9346 34.0179 34.3218C33.7381 33.6962 33.5982 32.5662 33.5982 30.9319C33.5982 29.2976 33.7381 28.1741 34.0179 27.5612C34.3104 26.9356 34.7746 26.6228 35.4105 26.6228C36.0464 26.6228 36.5043 26.9356 36.7841 27.5612C37.0766 28.1741 37.2228 29.2976 37.2228 30.9319C37.2228 32.5662 37.0766 33.6962 36.7841 34.3218C36.5043 34.9346 36.0464 35.2411 35.4105 35.2411ZM35.4105 23.75C33.4774 23.75 32.0403 24.3118 31.0992 25.4354C30.1581 26.5589 29.6875 28.3911 29.6875 30.9319C29.6875 33.4727 30.1581 35.3049 31.0992 36.4285C32.0403 37.5521 33.4774 38.1138 35.4105 38.1138C37.3436 38.1138 38.7808 37.5521 39.7219 36.4285C40.663 35.3049 41.1336 33.4727 41.1336 30.9319C41.1336 28.3911 40.663 26.5589 39.7219 25.4354C38.7808 24.3118 37.3436 23.75 35.4105 23.75ZM35.4105 69.8572C34.7746 69.8572 34.3104 69.5507 34.0179 68.9379C33.7381 68.3123 33.5982 67.1823 33.5982 65.548C33.5982 63.9137 33.7381 62.7902 34.0179 62.1773C34.3104 61.5517 34.7746 61.2389 35.4105 61.2389C36.0464 61.2389 36.5043 61.5517 36.7841 62.1773C37.0766 62.7902 37.2228 63.9137 37.2228 65.548C37.2228 67.1823 37.0766 68.3123 36.7841 68.9379C36.5043 69.5507 36.0464 69.8572 35.4105 69.8572ZM35.4105 58.3661C33.4774 58.3661 32.0403 58.9279 31.0992 60.0514C30.1581 61.175 29.6875 63.0072 29.6875 65.548C29.6875 68.0888 30.1581 69.921 31.0992 71.0446C32.0403 72.1681 33.4774 72.7299 35.4105 72.7299C37.3436 72.7299 38.7808 72.1681 39.7219 71.0446C40.663 69.921 41.1336 68.0888 41.1336 65.548C41.1336 63.0072 40.663 61.175 39.7219 60.0514C38.7808 58.9279 37.3436 58.3661 35.4105 58.3661ZM47.2149 51.2645C47.5075 51.8774 47.9717 52.1838 48.6076 52.1838C49.2434 52.1838 49.7013 51.8774 49.9811 51.2645C50.2736 50.6389 50.4198 49.509 50.4198 47.8747C50.4198 46.2404 50.2736 45.1168 49.9811 44.504C49.7013 43.8783 49.2434 43.5655 48.6076 43.5655C47.9717 43.5655 47.5075 43.8783 47.2149 44.504C46.9352 45.1168 46.7953 46.2404 46.7953 47.8747C46.7953 49.509 46.9352 50.6389 47.2149 51.2645ZM44.2962 42.3781C45.2373 41.2545 46.6744 40.6927 48.6076 40.6927C50.5407 40.6927 51.9778 41.2545 52.9189 42.3781C53.86 43.5017 54.3306 45.3339 54.3306 47.8747C54.3306 50.4155 53.86 52.2477 52.9189 53.3712C51.9778 54.4948 50.5407 55.0566 48.6076 55.0566C46.6744 55.0566 45.2373 54.4948 44.2962 53.3712C43.3551 52.2477 42.8845 50.4155 42.8845 47.8747C42.8845 45.3339 43.3551 43.5017 44.2962 42.3781ZM61.1542 68.9379C61.4467 69.5507 61.9109 69.8572 62.5468 69.8572C63.1827 69.8572 63.6405 69.5507 63.9203 68.9379C64.2128 68.3123 64.3591 67.1823 64.3591 65.548C64.3591 63.9137 64.2128 62.7902 63.9203 62.1773C63.6405 61.5517 63.1827 61.2389 62.5468 61.2389C61.9109 61.2389 61.4467 61.5517 61.1542 62.1773C60.8744 62.7902 60.7345 63.9137 60.7345 65.548C60.7345 67.1823 60.8744 68.3123 61.1542 68.9379ZM58.2354 60.0514C59.1765 58.9279 60.6136 58.3661 62.5468 58.3661C64.4799 58.3661 65.917 58.9279 66.8581 60.0514C67.7992 61.175 68.2698 63.0072 68.2698 65.548C68.2698 68.0888 67.7992 69.921 66.8581 71.0446C65.917 72.1681 64.4799 72.7299 62.5468 72.7299C60.6136 72.7299 59.1765 72.1681 58.2354 71.0446C57.2943 69.921 56.8237 68.0888 56.8237 65.548C56.8237 63.0072 57.2943 61.175 58.2354 60.0514ZM62.5468 52.1838C61.9109 52.1838 61.4467 51.8774 61.1542 51.2645C60.8744 50.6389 60.7345 49.509 60.7345 47.8747C60.7345 46.2404 60.8744 45.1168 61.1542 44.504C61.4467 43.8783 61.9109 43.5655 62.5468 43.5655C63.1827 43.5655 63.6405 43.8783 63.9203 44.504C64.2128 45.1168 64.3591 46.2404 64.3591 47.8747C64.3591 49.509 64.2128 50.6389 63.9203 51.2645C63.6405 51.8774 63.1827 52.1838 62.5468 52.1838ZM62.5468 40.6927C60.6136 40.6927 59.1765 41.2545 58.2354 42.3781C57.2943 43.5017 56.8237 45.3339 56.8237 47.8747C56.8237 50.4155 57.2943 52.2477 58.2354 53.3712C59.1765 54.4948 60.6136 55.0566 62.5468 55.0566C64.4799 55.0566 65.917 54.4948 66.8581 53.3712C67.7992 52.2477 68.2698 50.4155 68.2698 47.8747C68.2698 45.3339 67.7992 43.5017 66.8581 42.3781C65.917 41.2545 64.4799 40.6927 62.5468 40.6927ZM50.9122 23.7616C51.2047 23.7616 51.4591 23.8701 51.6753 24.0872C51.8915 24.3042 51.9996 24.5596 51.9996 24.8532V36.6508C51.9996 36.9444 51.8915 37.1998 51.6753 37.4168C51.4591 37.6339 51.2047 37.7424 50.9122 37.7424H49.0809C48.7883 37.7424 48.534 37.6339 48.3178 37.4168C48.1016 37.1998 47.9935 36.9444 47.9935 36.6508V27.975H47.9744L45.2655 29.8519C45.0747 29.9795 44.8776 29.9923 44.6741 29.8902C44.4706 29.7753 44.3689 29.6029 44.3689 29.3731V27.343C44.3689 26.6152 44.6678 26.047 45.2655 25.6385L47.0969 24.3745C47.6819 23.9659 48.3432 23.7616 49.0809 23.7616H50.9122ZM51.6753 58.7149C51.4591 58.4978 51.2047 58.3893 50.9122 58.3893H49.0809C48.3432 58.3893 47.6819 58.5936 47.0969 59.0021L45.2655 60.2662C44.6678 60.6747 44.3689 61.2429 44.3689 61.9707V64.0008C44.3689 64.2306 44.4706 64.4029 44.6741 64.5179C44.8776 64.62 45.0747 64.6072 45.2655 64.4795L47.9744 62.6027H47.9935V71.2784C47.9935 71.5721 48.1016 71.8274 48.3178 72.0445C48.534 72.2616 48.7883 72.3701 49.0809 72.3701H50.9122C51.2047 72.3701 51.4591 72.2616 51.6753 72.0445C51.8915 71.8274 51.9996 71.5721 51.9996 71.2784V59.4809C51.9996 59.1873 51.8915 58.9319 51.6753 58.7149ZM38.4342 40.7043C38.7267 40.7043 38.9811 40.8129 39.1973 41.0299C39.4135 41.247 39.5216 41.5023 39.5216 41.796V53.5935C39.5216 53.8872 39.4135 54.1425 39.1973 54.3596C38.9811 54.5766 38.7267 54.6851 38.4342 54.6851H36.6028C36.3103 54.6851 36.056 54.5766 35.8398 54.3596C35.6236 54.1425 35.5155 53.8872 35.5155 53.5935V44.9177H35.4964L32.7875 46.7946C32.5967 46.9223 32.3996 46.9351 32.1961 46.8329C31.9926 46.718 31.8909 46.5456 31.8909 46.3158V44.2857C31.8909 43.558 32.1897 42.9898 32.7875 42.5812L34.6188 41.3172C35.2039 40.9086 35.8652 40.7043 36.6028 40.7043H38.4342Z" fill="#80AEE5"/>
<path d="M58.2354 25.4354L57.6605 24.9538V24.9538L58.2354 25.4354ZM61.6042 23.7987L62.3539 23.7752L62.3285 22.9659L61.5235 23.053L61.6042 23.7987ZM58.2354 36.4285L57.6605 36.9101V36.9101L58.2354 36.4285ZM68.2283 29.6875L68.9765 29.635L68.9275 28.9375H68.2283V29.6875ZM64.2223 28.6722L64.6392 28.0488L63.2224 27.1013L63.481 28.786L64.2223 28.6722ZM63.9203 34.3218L63.2409 34.0041L63.238 34.0103L63.9203 34.3218ZM61.1542 34.3218L60.4695 34.628L60.4733 34.6365L60.4773 34.6448L61.1542 34.3218ZM61.1542 27.5612L60.4747 27.2435L60.4719 27.2497L61.1542 27.5612ZM62.375 26.6308L62.4464 27.3774L63.5752 27.2695L63.0341 26.2729L62.375 26.6308ZM34.0179 34.3218L33.3333 34.628L33.3371 34.6365L33.3411 34.6448L34.0179 34.3218ZM34.0179 27.5612L33.3385 27.2435L33.3357 27.2497L34.0179 27.5612ZM36.7841 27.5612L36.0994 27.8674L36.1032 27.8759L36.1072 27.8843L36.7841 27.5612ZM36.7841 34.3218L36.1046 34.0041L36.1018 34.0103L36.7841 34.3218ZM31.0992 25.4354L30.5242 24.9538L30.5242 24.9538L31.0992 25.4354ZM31.0992 36.4285L30.5242 36.9101H30.5242L31.0992 36.4285ZM39.7219 36.4285L39.1469 35.9469V35.9469L39.7219 36.4285ZM39.7219 25.4354L39.1469 25.9169V25.9169L39.7219 25.4354ZM34.0179 68.9379L33.3333 69.2441L33.3371 69.2525L33.3411 69.2609L34.0179 68.9379ZM34.0179 62.1773L33.3385 61.8596L33.3357 61.8658L34.0179 62.1773ZM36.7841 62.1773L36.0994 62.4835L36.1032 62.492L36.1072 62.5004L36.7841 62.1773ZM36.7841 68.9379L36.1046 68.6202L36.1018 68.6264L36.7841 68.9379ZM31.0992 60.0514L30.5242 59.5699H30.5242L31.0992 60.0514ZM31.0992 71.0446L30.5242 71.5262H30.5242L31.0992 71.0446ZM39.7219 71.0446L40.2968 71.5262H40.2968L39.7219 71.0446ZM39.7219 60.0514L40.2968 59.5699H40.2968L39.7219 60.0514ZM47.2149 51.2645L46.5303 51.5707L46.5341 51.5792L46.5381 51.5876L47.2149 51.2645ZM49.9811 51.2645L49.3016 50.9469L49.2988 50.9531L49.9811 51.2645ZM49.9811 44.504L49.2964 44.8101L49.3002 44.8186L49.3042 44.827L49.9811 44.504ZM47.2149 44.504L46.5355 44.1863L46.5327 44.1925L47.2149 44.504ZM44.2962 42.3781L44.8712 42.8597L44.8712 42.8597L44.2962 42.3781ZM52.9189 42.3781L52.3439 42.8597V42.8597L52.9189 42.3781ZM52.9189 53.3712L53.4939 53.8528V53.8528L52.9189 53.3712ZM44.2962 53.3712L43.7212 53.8528H43.7212L44.2962 53.3712ZM61.1542 68.9379L60.4695 69.2441L60.4733 69.2525L60.4773 69.2609L61.1542 68.9379ZM63.9203 68.9379L63.2409 68.6202L63.238 68.6264L63.9203 68.9379ZM63.9203 62.1773L63.2356 62.4835L63.2394 62.492L63.2434 62.5003L63.9203 62.1773ZM61.1542 62.1773L60.4747 61.8596L60.4719 61.8658L61.1542 62.1773ZM58.2354 60.0514L57.6605 59.5699L58.2354 60.0514ZM66.8581 60.0514L67.4331 59.5699H67.4331L66.8581 60.0514ZM66.8581 71.0446L67.4331 71.5262H67.4331L66.8581 71.0446ZM58.2354 71.0446L57.6605 71.5262L58.2354 71.0446ZM61.1542 51.2645L60.4695 51.5707L60.4733 51.5792L60.4773 51.5876L61.1542 51.2645ZM61.1542 44.504L60.4747 44.1863L60.4719 44.1925L61.1542 44.504ZM63.9203 44.504L63.2356 44.8101L63.2394 44.8186L63.2434 44.827L63.9203 44.504ZM63.9203 51.2645L63.2409 50.9469L63.238 50.9531L63.9203 51.2645ZM58.2354 42.3781L58.8104 42.8597V42.8597L58.2354 42.3781ZM58.2354 53.3712L57.6605 53.8528V53.8528L58.2354 53.3712ZM66.8581 53.3712L67.4331 53.8528V53.8528L66.8581 53.3712ZM66.8581 42.3781L66.2832 42.8597V42.8597L66.8581 42.3781ZM51.6753 24.0872L51.1439 24.6165V24.6165L51.6753 24.0872ZM51.6753 37.4168L51.1439 36.8875L51.1439 36.8875L51.6753 37.4168ZM48.3178 37.4168L47.7864 37.9461L47.7864 37.9461L48.3178 37.4168ZM47.9935 27.975H48.7435V27.225H47.9935V27.975ZM47.9744 27.975V27.225H47.74L47.5473 27.3585L47.9744 27.975ZM45.2655 29.8519L45.6827 30.4752L45.6926 30.4684L45.2655 29.8519ZM44.6741 29.8902L44.3053 30.5432L44.3213 30.5522L44.3377 30.5605L44.6741 29.8902ZM45.2655 25.6385L45.6887 26.2577L45.6915 26.2557L45.2655 25.6385ZM47.0969 24.3745L47.5229 24.9917L47.5263 24.9893L47.0969 24.3745ZM51.6753 58.7149L51.1439 59.2441L51.1439 59.2442L51.6753 58.7149ZM47.0969 59.0021L47.5229 59.6194L47.5263 59.617L47.0969 59.0021ZM45.2655 60.2662L45.6887 60.8853L45.6915 60.8834L45.2655 60.2662ZM44.6741 64.5179L44.3053 65.1709L44.3213 65.1799L44.3377 65.1881L44.6741 64.5179ZM45.2655 64.4795L45.6827 65.1029L45.6926 65.096L45.2655 64.4795ZM47.9744 62.6027V61.8527H47.74L47.5473 61.9862L47.9744 62.6027ZM47.9935 62.6027H48.7435V61.8527H47.9935V62.6027ZM51.6753 72.0445L51.1439 71.5152H51.1439L51.6753 72.0445ZM39.1973 41.0299L39.7286 40.5006L39.7286 40.5006L39.1973 41.0299ZM39.1973 54.3596L39.7286 54.8889L39.7286 54.8889L39.1973 54.3596ZM35.8398 54.3596L35.3084 54.8889L35.3084 54.8889L35.8398 54.3596ZM35.5155 44.9177H36.2655V44.1677H35.5155V44.9177ZM35.4964 44.9177V44.1677H35.2619L35.0692 44.3013L35.4964 44.9177ZM32.7875 46.7946L33.2047 47.418L33.2146 47.4111L32.7875 46.7946ZM32.1961 46.8329L31.8273 47.486L31.8433 47.495L31.8596 47.5032L32.1961 46.8329ZM32.7875 42.5812L33.2107 43.2004L33.2135 43.1985L32.7875 42.5812ZM34.6188 41.3172L35.0449 41.9345L35.0483 41.9321L34.6188 41.3172ZM58.8104 25.9169C59.4418 25.1631 60.3698 24.6866 61.6849 24.5443L61.5235 23.053C59.9093 23.2277 58.5914 23.8423 57.6605 24.9538L58.8104 25.9169ZM57.5737 30.9319C57.5737 28.4501 58.0398 26.8369 58.8104 25.9169L57.6605 24.9538C56.5488 26.2809 56.0737 28.3321 56.0737 30.9319H57.5737ZM58.8104 35.9469C58.0398 35.0269 57.5737 33.4137 57.5737 30.9319H56.0737C56.0737 33.5317 56.5488 35.5829 57.6605 36.9101L58.8104 35.9469ZM62.5468 37.3638C60.76 37.3638 59.5667 36.8498 58.8104 35.9469L57.6605 36.9101C58.7864 38.2543 60.4673 38.8638 62.5468 38.8638V37.3638ZM66.2832 35.9469C65.5268 36.8498 64.3335 37.3638 62.5468 37.3638V38.8638C64.6262 38.8638 66.3072 38.2543 67.4331 36.9101L66.2832 35.9469ZM67.5198 30.9319C67.5198 33.4137 67.0538 35.0269 66.2832 35.9469L67.4331 36.9101C68.5447 35.5829 69.0198 33.5317 69.0198 30.9319H67.5198ZM67.4801 29.74C67.5065 30.1149 67.5198 30.512 67.5198 30.9319H69.0198C69.0198 30.4805 69.0055 30.0481 68.9765 29.635L67.4801 29.74ZM68.2283 28.9375H67.8041V30.4375H68.2283V28.9375ZM67.8041 28.9375C66.4979 28.9375 65.4498 28.5909 64.6392 28.0488L63.8054 29.2957C64.8791 30.0137 66.2213 30.4375 67.8041 30.4375V28.9375ZM65.1091 30.9319C65.1091 29.9988 65.0627 29.2041 64.9636 28.5585L63.481 28.786C63.5642 29.3284 63.6091 30.0402 63.6091 30.9319H65.1091ZM64.5997 34.6394C64.9698 33.8479 65.1091 32.5653 65.1091 30.9319H63.6091C63.6091 32.5671 63.4558 33.5444 63.2409 34.0041L64.5997 34.6394ZM62.5468 35.9911C62.9897 35.9911 63.4137 35.8825 63.7842 35.6345C64.152 35.3884 64.4178 35.038 64.6026 34.6333L63.238 34.0103C63.143 34.2185 63.0399 34.3277 62.9499 34.388C62.8626 34.4464 62.7397 34.4911 62.5468 34.4911V35.9911ZM60.4773 34.6448C60.6693 35.0472 60.9399 35.3938 61.3085 35.6372C61.6801 35.8825 62.1036 35.9911 62.5468 35.9911V34.4911C62.3541 34.4911 62.2275 34.4465 62.1349 34.3853C62.0393 34.3222 61.9315 34.2093 61.831 33.9987L60.4773 34.6448ZM59.9845 30.9319C59.9845 32.5646 60.1177 33.8414 60.4695 34.628L61.8388 34.0156C61.631 33.5509 61.4845 32.5678 61.4845 30.9319H59.9845ZM60.4719 27.2497C60.1171 28.0268 59.9845 29.3016 59.9845 30.9319H61.4845C61.4845 29.2937 61.6316 28.3213 61.8364 27.8727L60.4719 27.2497ZM62.3037 25.8842C61.4501 25.9658 60.8342 26.4748 60.4748 27.2435L61.8336 27.8789C62.0051 27.5119 62.2032 27.4006 62.4464 27.3774L62.3037 25.8842ZM63.0341 26.2729C62.5585 25.3969 62.3759 24.4782 62.3539 23.7752L60.8546 23.8221C60.8828 24.723 61.1125 25.8773 61.7159 26.9886L63.0341 26.2729ZM33.3411 34.6448C33.5331 35.0472 33.8037 35.3938 34.1723 35.6372C34.5439 35.8825 34.9673 35.9911 35.4105 35.9911V34.4911C35.2178 34.4911 35.0912 34.4465 34.9986 34.3853C34.9031 34.3222 34.7953 34.2093 34.6948 33.9987L33.3411 34.6448ZM32.8482 30.9319C32.8482 32.5646 32.9815 33.8414 33.3333 34.628L34.7026 34.0156C34.4948 33.5509 34.3482 32.5678 34.3482 30.9319H32.8482ZM33.3357 27.2497C32.9809 28.0268 32.8482 29.3016 32.8482 30.9319H34.3482C34.3482 29.2937 34.4954 28.3213 34.7002 27.8727L33.3357 27.2497ZM35.4105 25.8728C34.9642 25.8728 34.5386 25.9846 34.1663 26.2354C33.7979 26.4837 33.5289 26.8363 33.3385 27.2436L34.6973 27.8789C34.7994 27.6605 34.9089 27.5438 35.0046 27.4793C35.0965 27.4174 35.2209 27.3728 35.4105 27.3728V25.8728ZM37.4687 27.255C37.2855 26.8455 37.0215 26.4893 36.6539 26.2381C36.2827 25.9845 35.8566 25.8728 35.4105 25.8728V27.3728C35.6004 27.3728 35.7211 27.4175 35.8077 27.4766C35.898 27.5383 36.0028 27.6513 36.0994 27.8674L37.4687 27.255ZM37.9728 30.9319C37.9728 29.3009 37.8342 28.0203 37.4609 27.2381L36.1072 27.8843C36.3189 28.3278 36.4728 29.2943 36.4728 30.9319H37.9728ZM37.4635 34.6394C37.8336 33.8479 37.9728 32.5653 37.9728 30.9319H36.4728C36.4728 32.5671 36.3196 33.5444 36.1047 34.0041L37.4635 34.6394ZM35.4105 35.9911C35.8535 35.9911 36.2774 35.8825 36.648 35.6345C37.0158 35.3884 37.2816 35.038 37.4663 34.6333L36.1018 34.0103C36.0068 34.2185 35.9037 34.3277 35.8137 34.388C35.7264 34.4464 35.6035 34.4911 35.4105 34.4911V35.9911ZM31.6741 25.9169C32.4305 25.014 33.6238 24.5 35.4105 24.5V23C33.3311 23 31.6501 23.6096 30.5242 24.9538L31.6741 25.9169ZM30.4375 30.9319C30.4375 28.4501 30.9035 26.8369 31.6741 25.9169L30.5242 24.9538C29.4126 26.2809 28.9375 28.3321 28.9375 30.9319H30.4375ZM31.6741 35.9469C30.9035 35.0269 30.4375 33.4137 30.4375 30.9319H28.9375C28.9375 33.5317 29.4126 35.5829 30.5242 36.9101L31.6741 35.9469ZM35.4105 37.3638C33.6238 37.3638 32.4305 36.8499 31.6741 35.9469L30.5242 36.9101C31.6501 38.2543 33.3311 38.8638 35.4105 38.8638V37.3638ZM39.1469 35.9469C38.3906 36.8499 37.1973 37.3638 35.4105 37.3638V38.8638C37.49 38.8638 39.1709 38.2543 40.2968 36.9101L39.1469 35.9469ZM40.3836 30.9319C40.3836 33.4137 39.9175 35.0269 39.1469 35.9469L40.2968 36.9101C41.4085 35.5829 41.8836 33.5317 41.8836 30.9319H40.3836ZM39.1469 25.9169C39.9175 26.8369 40.3836 28.4501 40.3836 30.9319H41.8836C41.8836 28.3321 41.4085 26.2809 40.2968 24.9538L39.1469 25.9169ZM35.4105 24.5C37.1973 24.5 38.3906 25.014 39.1469 25.9169L40.2968 24.9538C39.1709 23.6096 37.49 23 35.4105 23V24.5ZM33.3411 69.2609C33.5331 69.6632 33.8037 70.0099 34.1723 70.2533C34.5439 70.4986 34.9673 70.6072 35.4105 70.6072V69.1072C35.2178 69.1072 35.0912 69.0625 34.9986 69.0014C34.9031 68.9383 34.7953 68.8254 34.6948 68.6148L33.3411 69.2609ZM32.8482 65.548C32.8482 67.1807 32.9815 68.4575 33.3333 69.2441L34.7026 68.6317C34.4948 68.167 34.3482 67.1839 34.3482 65.548H32.8482ZM33.3357 61.8658C32.9809 62.6429 32.8482 63.9177 32.8482 65.548H34.3482C34.3482 63.9098 34.4954 62.9374 34.7002 62.4888L33.3357 61.8658ZM35.4105 60.4889C34.9642 60.4889 34.5386 60.6006 34.1663 60.8515C33.7979 61.0998 33.5289 61.4523 33.3385 61.8596L34.6973 62.495C34.7994 62.2766 34.9089 62.1599 35.0046 62.0954C35.0965 62.0335 35.2209 61.9889 35.4105 61.9889V60.4889ZM37.4687 61.8711C37.2855 61.4615 37.0215 61.1054 36.6539 60.8542C36.2827 60.6006 35.8566 60.4889 35.4105 60.4889V61.9889C35.6004 61.9889 35.7211 62.0335 35.8077 62.0927C35.898 62.1544 36.0028 62.2674 36.0994 62.4835L37.4687 61.8711ZM37.9728 65.548C37.9728 63.917 37.8342 62.6364 37.4609 61.8542L36.1072 62.5004C36.3189 62.9439 36.4728 63.9104 36.4728 65.548H37.9728ZM37.4635 69.2555C37.8336 68.464 37.9728 67.1814 37.9728 65.548H36.4728C36.4728 67.1832 36.3196 68.1605 36.1047 68.6202L37.4635 69.2555ZM35.4105 70.6072C35.8535 70.6072 36.2774 70.4986 36.648 70.2506C37.0158 70.0045 37.2816 69.6541 37.4663 69.2494L36.1018 68.6264C36.0068 68.8345 35.9037 68.9438 35.8137 69.0041C35.7264 69.0625 35.6035 69.1072 35.4105 69.1072V70.6072ZM31.6741 60.533C32.4305 59.6301 33.6238 59.1161 35.4105 59.1161V57.6161C33.3311 57.6161 31.6501 58.2257 30.5242 59.5699L31.6741 60.533ZM30.4375 65.548C30.4375 63.0662 30.9035 61.453 31.6741 60.533L30.5242 59.5699C29.4126 60.897 28.9375 62.9482 28.9375 65.548H30.4375ZM31.6741 70.563C30.9035 69.643 30.4375 68.0298 30.4375 65.548H28.9375C28.9375 68.1478 29.4126 70.199 30.5242 71.5262L31.6741 70.563ZM35.4105 71.9799C33.6238 71.9799 32.4305 71.4659 31.6741 70.563L30.5242 71.5262C31.6501 72.8703 33.3311 73.4799 35.4105 73.4799V71.9799ZM39.1469 70.563C38.3906 71.4659 37.1973 71.9799 35.4105 71.9799V73.4799C37.49 73.4799 39.1709 72.8703 40.2968 71.5262L39.1469 70.563ZM40.3836 65.548C40.3836 68.0298 39.9175 69.643 39.1469 70.563L40.2968 71.5262C41.4085 70.199 41.8836 68.1478 41.8836 65.548H40.3836ZM39.1469 60.533C39.9175 61.453 40.3836 63.0662 40.3836 65.548H41.8836C41.8836 62.9482 41.4085 60.897 40.2968 59.5699L39.1469 60.533ZM35.4105 59.1161C37.1973 59.1161 38.3906 59.6301 39.1469 60.533L40.2968 59.5699C39.1709 58.2257 37.49 57.6161 35.4105 57.6161V59.1161ZM48.6076 51.4338C48.4149 51.4338 48.2883 51.3892 48.1957 51.3281C48.1001 51.265 47.9923 51.152 47.8918 50.9415L46.5381 51.5876C46.7301 51.9899 47.0007 52.3366 47.3693 52.5799C47.7409 52.8252 48.1643 52.9338 48.6076 52.9338V51.4338ZM49.2988 50.9531C49.2038 51.1612 49.1007 51.2705 49.0107 51.3307C48.9234 51.3891 48.8005 51.4338 48.6076 51.4338V52.9338C49.0505 52.9338 49.4744 52.8253 49.845 52.5773C50.2128 52.3311 50.4786 51.9807 50.6633 51.576L49.2988 50.9531ZM49.6698 47.8747C49.6698 49.5098 49.5166 50.4872 49.3017 50.9469L50.6605 51.5822C51.0306 50.7906 51.1698 49.5081 51.1698 47.8747H49.6698ZM49.3042 44.827C49.5159 45.2706 49.6698 46.2371 49.6698 47.8747H51.1698C51.1698 46.2437 51.0312 44.963 50.6579 44.1809L49.3042 44.827ZM48.6076 44.3155C48.7974 44.3155 48.9181 44.3602 49.0048 44.4194C49.095 44.4811 49.1998 44.5941 49.2964 44.8101L50.6657 44.1978C50.4826 43.7882 50.2185 43.432 49.851 43.1809C49.4797 42.9272 49.0536 42.8155 48.6076 42.8155V44.3155ZM47.8944 44.8216C47.9964 44.6033 48.1059 44.4866 48.2016 44.4221C48.2935 44.3601 48.418 44.3155 48.6076 44.3155V42.8155C48.1612 42.8155 47.7356 42.9273 47.3634 43.1782C46.9949 43.4265 46.726 43.779 46.5355 44.1863L47.8944 44.8216ZM47.5453 47.8747C47.5453 46.2365 47.6924 45.264 47.8972 44.8154L46.5327 44.1925C46.1779 44.9696 46.0453 46.2443 46.0453 47.8747H47.5453ZM47.8996 50.9583C47.6918 50.4937 47.5453 49.5105 47.5453 47.8747H46.0453C46.0453 49.5074 46.1785 50.7842 46.5303 51.5707L47.8996 50.9583ZM48.6076 39.9427C46.5281 39.9427 44.8472 40.5523 43.7212 41.8965L44.8712 42.8597C45.6275 41.9567 46.8208 41.4427 48.6076 41.4427V39.9427ZM53.4939 41.8965C52.3679 40.5523 50.687 39.9427 48.6076 39.9427V41.4427C50.3943 41.4427 51.5876 41.9567 52.3439 42.8597L53.4939 41.8965ZM55.0806 47.8747C55.0806 45.2749 54.6055 43.2237 53.4939 41.8965L52.3439 42.8597C53.1145 43.7797 53.5806 45.3928 53.5806 47.8747H55.0806ZM53.4939 53.8528C54.6055 52.5257 55.0806 50.4745 55.0806 47.8747H53.5806C53.5806 50.3565 53.1145 51.9697 52.3439 52.8896L53.4939 53.8528ZM48.6076 55.8066C50.687 55.8066 52.3679 55.197 53.4939 53.8528L52.3439 52.8896C51.5876 53.7926 50.3943 54.3066 48.6076 54.3066V55.8066ZM43.7212 53.8528C44.8472 55.197 46.5281 55.8066 48.6076 55.8066V54.3066C46.8208 54.3066 45.6275 53.7926 44.8712 52.8896L43.7212 53.8528ZM42.1345 47.8747C42.1345 50.4745 42.6096 52.5257 43.7212 53.8528L44.8712 52.8896C44.1006 51.9697 43.6345 50.3565 43.6345 47.8747H42.1345ZM43.7212 41.8965C42.6096 43.2237 42.1345 45.2749 42.1345 47.8747H43.6345C43.6345 45.3928 44.1006 43.7797 44.8712 42.8597L43.7212 41.8965ZM62.5468 69.1072C62.3541 69.1072 62.2275 69.0625 62.1349 69.0014C62.0393 68.9383 61.9315 68.8254 61.831 68.6148L60.4773 69.2609C60.6693 69.6632 60.9399 70.0099 61.3085 70.2533C61.6801 70.4986 62.1036 70.6072 62.5468 70.6072V69.1072ZM63.238 68.6264C63.143 68.8345 63.0399 68.9438 62.9499 69.0041C62.8626 69.0625 62.7397 69.1072 62.5468 69.1072V70.6072C62.9897 70.6072 63.4137 70.4986 63.7842 70.2506C64.152 70.0045 64.4178 69.6541 64.6026 69.2494L63.238 68.6264ZM63.6091 65.548C63.6091 67.1832 63.4558 68.1605 63.2409 68.6202L64.5997 69.2555C64.9698 68.464 65.1091 67.1814 65.1091 65.548H63.6091ZM63.2434 62.5003C63.4551 62.9439 63.6091 63.9104 63.6091 65.548H65.1091C65.1091 63.917 64.9704 62.6364 64.5971 61.8542L63.2434 62.5003ZM62.5468 61.9889C62.7366 61.9889 62.8573 62.0335 62.944 62.0927C63.0342 62.1544 63.139 62.2674 63.2356 62.4835L64.6049 61.8711C64.4218 61.4615 64.1577 61.1054 63.7902 60.8542C63.4189 60.6006 62.9928 60.4889 62.5468 60.4889V61.9889ZM61.8336 62.495C61.9356 62.2766 62.0451 62.1599 62.1408 62.0954C62.2327 62.0335 62.3572 61.9889 62.5468 61.9889V60.4889C62.1005 60.4889 61.6748 60.6006 61.3026 60.8515C60.9341 61.0998 60.6652 61.4523 60.4747 61.8596L61.8336 62.495ZM61.4845 65.548C61.4845 63.9098 61.6316 62.9374 61.8364 62.4888L60.4719 61.8658C60.1171 62.6429 59.9845 63.9177 59.9845 65.548H61.4845ZM61.8388 68.6317C61.631 68.167 61.4845 67.1839 61.4845 65.548H59.9845C59.9845 67.1807 60.1177 68.4575 60.4695 69.2441L61.8388 68.6317ZM62.5468 57.6161C60.4673 57.6161 58.7864 58.2257 57.6605 59.5699L58.8104 60.533C59.5667 59.6301 60.76 59.1161 62.5468 59.1161V57.6161ZM67.4331 59.5699C66.3072 58.2257 64.6262 57.6161 62.5468 57.6161V59.1161C64.3335 59.1161 65.5268 59.6301 66.2832 60.533L67.4331 59.5699ZM69.0198 65.548C69.0198 62.9482 68.5447 60.897 67.4331 59.5699L66.2832 60.533C67.0537 61.453 67.5198 63.0662 67.5198 65.548H69.0198ZM67.4331 71.5262C68.5447 70.199 69.0198 68.1478 69.0198 65.548H67.5198C67.5198 68.0298 67.0537 69.643 66.2832 70.563L67.4331 71.5262ZM62.5468 73.4799C64.6262 73.4799 66.3072 72.8703 67.4331 71.5262L66.2832 70.563C65.5268 71.4659 64.3335 71.9799 62.5468 71.9799V73.4799ZM57.6605 71.5262C58.7864 72.8703 60.4673 73.4799 62.5468 73.4799V71.9799C60.76 71.9799 59.5667 71.4659 58.8104 70.563L57.6605 71.5262ZM56.0737 65.548C56.0737 68.1478 56.5488 70.199 57.6605 71.5262L58.8104 70.563C58.0398 69.643 57.5737 68.0298 57.5737 65.548H56.0737ZM57.6605 59.5699C56.5488 60.897 56.0737 62.9482 56.0737 65.548H57.5737C57.5737 63.0662 58.0398 61.453 58.8104 60.533L57.6605 59.5699ZM60.4773 51.5876C60.6693 51.9899 60.9399 52.3366 61.3085 52.5799C61.6801 52.8252 62.1036 52.9338 62.5468 52.9338V51.4338C62.3541 51.4338 62.2275 51.3892 62.1349 51.3281C62.0393 51.265 61.9315 51.152 61.831 50.9415L60.4773 51.5876ZM59.9845 47.8747C59.9845 49.5074 60.1177 50.7842 60.4695 51.5707L61.8388 50.9583C61.631 50.4937 61.4845 49.5105 61.4845 47.8747H59.9845ZM60.4719 44.1925C60.1171 44.9696 59.9845 46.2443 59.9845 47.8747H61.4845C61.4845 46.2365 61.6316 45.264 61.8364 44.8154L60.4719 44.1925ZM62.5468 42.8155C62.1005 42.8155 61.6748 42.9273 61.3026 43.1782C60.9341 43.4265 60.6652 43.779 60.4747 44.1863L61.8336 44.8216C61.9356 44.6033 62.0451 44.4866 62.1408 44.4221C62.2327 44.3601 62.3572 44.3155 62.5468 44.3155V42.8155ZM64.6049 44.1978C64.4218 43.7882 64.1577 43.432 63.7902 43.1809C63.4189 42.9272 62.9928 42.8155 62.5468 42.8155V44.3155C62.7366 44.3155 62.8573 44.3602 62.944 44.4194C63.0342 44.4811 63.139 44.5941 63.2356 44.8101L64.6049 44.1978ZM65.1091 47.8747C65.1091 46.2437 64.9704 44.963 64.5971 44.1809L63.2434 44.827C63.4551 45.2706 63.6091 46.2371 63.6091 47.8747H65.1091ZM64.5997 51.5822C64.9698 50.7906 65.1091 49.5081 65.1091 47.8747H63.6091C63.6091 49.5098 63.4558 50.4872 63.2409 50.9469L64.5997 51.5822ZM62.5468 52.9338C62.9897 52.9338 63.4137 52.8253 63.7842 52.5773C64.152 52.3311 64.4178 51.9807 64.6026 51.576L63.238 50.9531C63.143 51.1612 63.0399 51.2705 62.9499 51.3307C62.8626 51.3891 62.7397 51.4338 62.5468 51.4338V52.9338ZM58.8104 42.8597C59.5667 41.9567 60.76 41.4427 62.5468 41.4427V39.9427C60.4673 39.9427 58.7864 40.5523 57.6605 41.8965L58.8104 42.8597ZM57.5737 47.8747C57.5737 45.3928 58.0398 43.7797 58.8104 42.8597L57.6605 41.8965C56.5488 43.2237 56.0737 45.2749 56.0737 47.8747H57.5737ZM58.8104 52.8896C58.0398 51.9697 57.5737 50.3565 57.5737 47.8747H56.0737C56.0737 50.4745 56.5488 52.5257 57.6605 53.8528L58.8104 52.8896ZM62.5468 54.3066C60.76 54.3066 59.5667 53.7926 58.8104 52.8896L57.6605 53.8528C58.7864 55.197 60.4673 55.8066 62.5468 55.8066V54.3066ZM66.2832 52.8896C65.5268 53.7926 64.3335 54.3066 62.5468 54.3066V55.8066C64.6262 55.8066 66.3072 55.197 67.4331 53.8528L66.2832 52.8896ZM67.5198 47.8747C67.5198 50.3565 67.0537 51.9697 66.2832 52.8896L67.4331 53.8528C68.5447 52.5257 69.0198 50.4745 69.0198 47.8747H67.5198ZM66.2832 42.8597C67.0537 43.7797 67.5198 45.3928 67.5198 47.8747H69.0198C69.0198 45.2749 68.5447 43.2237 67.4331 41.8965L66.2832 42.8597ZM62.5468 41.4427C64.3335 41.4427 65.5268 41.9567 66.2832 42.8597L67.4331 41.8965C66.3072 40.5523 64.6262 39.9427 62.5468 39.9427V41.4427ZM52.2067 23.5579C51.8572 23.207 51.4144 23.0116 50.9122 23.0116V24.5116C50.995 24.5116 51.061 24.5332 51.1439 24.6165L52.2067 23.5579ZM52.7496 24.8532C52.7496 24.3518 52.5561 23.9087 52.2067 23.5579L51.1439 24.6165C51.2269 24.6997 51.2496 24.7673 51.2496 24.8532H52.7496ZM52.7496 36.6508V24.8532H51.2496V36.6508H52.7496ZM52.2067 37.9461C52.5561 37.5953 52.7496 37.1522 52.7496 36.6508H51.2496C51.2496 36.7367 51.2269 36.8043 51.1439 36.8875L52.2067 37.9461ZM50.9122 38.4924C51.4144 38.4924 51.8572 38.297 52.2067 37.9461L51.1439 36.8875C51.061 36.9708 50.995 36.9924 50.9122 36.9924V38.4924ZM49.0809 38.4924H50.9122V36.9924H49.0809V38.4924ZM47.7864 37.9461C48.1359 38.297 48.5786 38.4924 49.0809 38.4924V36.9924C48.998 36.9924 48.932 36.9708 48.8492 36.8875L47.7864 37.9461ZM47.2435 36.6508C47.2435 37.1522 47.4369 37.5953 47.7864 37.9461L48.8492 36.8875C48.7662 36.8043 48.7435 36.7367 48.7435 36.6508H47.2435ZM47.2435 27.975V36.6508H48.7435V27.975H47.2435ZM47.9744 28.725H47.9935V27.225H47.9744V28.725ZM45.6926 30.4684L48.4015 28.5915L47.5473 27.3585L44.8384 29.2354L45.6926 30.4684ZM44.3377 30.5605C44.785 30.785 45.2698 30.7515 45.6827 30.4751L44.8483 29.2286C44.8447 29.231 44.8729 29.2122 44.9261 29.2088C44.9797 29.2053 45.0117 29.2204 45.0106 29.2199L44.3377 30.5605ZM43.6189 29.3731C43.6189 29.879 43.8712 30.2981 44.3053 30.5432L45.0429 29.2371C45.0364 29.2334 45.0646 29.2486 45.0911 29.2935C45.118 29.339 45.1189 29.3741 45.1189 29.3731H43.6189ZM43.6189 27.343V29.3731H45.1189V27.343H43.6189ZM44.8423 25.0193C44.0388 25.5685 43.6189 26.3691 43.6189 27.343H45.1189C45.1189 26.8614 45.2967 26.5256 45.6887 26.2576L44.8423 25.0193ZM46.6708 23.7572L44.8395 25.0212L45.6915 26.2557L47.5229 24.9917L46.6708 23.7572ZM49.0809 23.0116C48.1951 23.0116 47.3828 23.2599 46.6674 23.7596L47.5263 24.9893C47.9809 24.6718 48.4913 24.5116 49.0809 24.5116V23.0116ZM50.9122 23.0116H49.0809V24.5116H50.9122V23.0116ZM50.9122 59.1393C50.995 59.1393 51.061 59.1609 51.1439 59.2441L52.2067 58.1856C51.8572 57.8347 51.4144 57.6393 50.9122 57.6393V59.1393ZM49.0809 59.1393H50.9122V57.6393H49.0809V59.1393ZM47.5263 59.617C47.9809 59.2995 48.4913 59.1393 49.0809 59.1393V57.6393C48.1951 57.6393 47.3828 57.8876 46.6674 58.3873L47.5263 59.617ZM45.6915 60.8834L47.5229 59.6194L46.6708 58.3849L44.8395 59.6489L45.6915 60.8834ZM45.1189 61.9707C45.1189 61.489 45.2967 61.1533 45.6887 60.8853L44.8423 59.647C44.0388 60.1962 43.6189 60.9967 43.6189 61.9707H45.1189ZM45.1189 64.0008V61.9707H43.6189V64.0008H45.1189ZM45.0429 63.8648C45.0364 63.8611 45.0646 63.8762 45.0911 63.9212C45.118 63.9667 45.1189 64.0018 45.1189 64.0008H43.6189C43.6189 64.5067 43.8712 64.9258 44.3053 65.1709L45.0429 63.8648ZM44.8484 63.8563C44.8447 63.8587 44.8729 63.8399 44.9261 63.8365C44.9797 63.833 45.0117 63.8481 45.0106 63.8476L44.3377 65.1881C44.785 65.4127 45.2698 65.3792 45.6827 65.1028L44.8484 63.8563ZM47.5473 61.9862L44.8384 63.8631L45.6926 65.096L48.4015 63.2192L47.5473 61.9862ZM47.9935 61.8527H47.9744V63.3527H47.9935V61.8527ZM48.7435 71.2784V62.6027H47.2435V71.2784H48.7435ZM48.8492 71.5152C48.7662 71.432 48.7435 71.3643 48.7435 71.2784H47.2435C47.2435 71.7798 47.4369 72.2229 47.7864 72.5738L48.8492 71.5152ZM49.0809 71.6201C48.9981 71.6201 48.9321 71.5984 48.8492 71.5152L47.7864 72.5738C48.1359 72.9247 48.5786 73.1201 49.0809 73.1201V71.6201ZM50.9122 71.6201H49.0809V73.1201H50.9122V71.6201ZM51.1439 71.5152C51.061 71.5984 50.995 71.6201 50.9122 71.6201V73.1201C51.4144 73.1201 51.8572 72.9247 52.2067 72.5738L51.1439 71.5152ZM51.2496 71.2784C51.2496 71.3643 51.2269 71.432 51.1439 71.5152L52.2067 72.5738C52.5561 72.2229 52.7496 71.7798 52.7496 71.2784H51.2496ZM51.2496 59.4809V71.2784H52.7496V59.4809H51.2496ZM51.1439 59.2442C51.2269 59.3274 51.2496 59.395 51.2496 59.4809H52.7496C52.7496 58.9795 52.5561 58.5364 52.2067 58.1856L51.1439 59.2442ZM39.7286 40.5006C39.3791 40.1497 38.9364 39.9543 38.4342 39.9543V41.4543C38.517 41.4543 38.583 41.476 38.6659 41.5592L39.7286 40.5006ZM40.2716 41.796C40.2716 41.2946 40.0781 40.8515 39.7286 40.5006L38.6659 41.5592C38.7488 41.6425 38.7716 41.7101 38.7716 41.796H40.2716ZM40.2716 53.5935V41.796H38.7716V53.5935H40.2716ZM39.7286 54.8889C40.0781 54.538 40.2716 54.0949 40.2716 53.5935H38.7716C38.7716 53.6794 38.7488 53.747 38.6659 53.8303L39.7286 54.8889ZM38.4342 55.4351C38.9364 55.4351 39.3791 55.2397 39.7286 54.8889L38.6659 53.8303C38.583 53.9135 38.517 53.9351 38.4342 53.9351V55.4351ZM36.6028 55.4351H38.4342V53.9351H36.6028V55.4351ZM35.3084 54.8889C35.6579 55.2397 36.1006 55.4351 36.6028 55.4351V53.9351C36.52 53.9351 36.454 53.9135 36.3711 53.8303L35.3084 54.8889ZM34.7655 53.5935C34.7655 54.0949 34.9589 54.538 35.3084 54.8889L36.3711 53.8303C36.2882 53.747 36.2655 53.6794 36.2655 53.5935H34.7655ZM34.7655 44.9177V53.5935H36.2655V44.9177H34.7655ZM35.4964 45.6677H35.5155V44.1677H35.4964V45.6677ZM33.2146 47.4111L35.9235 45.5342L35.0692 44.3013L32.3603 46.1781L33.2146 47.4111ZM31.8596 47.5032C32.3069 47.7277 32.7917 47.6942 33.2046 47.4179L32.3703 46.1713C32.3667 46.1738 32.3948 46.155 32.4481 46.1515C32.5017 46.148 32.5337 46.1632 32.5326 46.1626L31.8596 47.5032ZM31.1409 46.3158C31.1409 46.8218 31.3932 47.2408 31.8273 47.486L32.5649 46.1799C32.5584 46.1762 32.5865 46.1913 32.6131 46.2362C32.6399 46.2818 32.6409 46.3168 32.6409 46.3158H31.1409ZM31.1409 44.2857V46.3158H32.6409V44.2857H31.1409ZM32.3643 41.962C31.5608 42.5113 31.1409 43.3118 31.1409 44.2857H32.6409C32.6409 43.8041 32.8187 43.4683 33.2107 43.2004L32.3643 41.962ZM34.1928 40.7L32.3614 41.964L33.2135 43.1985L35.0449 41.9345L34.1928 40.7ZM36.6028 39.9543C35.7171 39.9543 34.9048 40.2027 34.1894 40.7023L35.0483 41.9321C35.5029 41.6146 36.0133 41.4543 36.6028 41.4543V39.9543ZM38.4342 39.9543H36.6028V41.4543H38.4342V39.9543Z" fill="#F5F8FF" mask="url(#path-1-inside-1_333_28209)"/>
<path d="M74.7139 29.6592L74.5898 29.6384L74.4658 29.6592C74.3859 29.6726 74.3034 29.6797 74.2188 29.6797H66.3198C64.2708 29.6797 62.8355 28.8272 61.9562 27.6505C61.1308 26.5461 60.8672 25.2591 60.8672 24.3725V16.3281V15.5781H60.1172H30.4297C27.1462 15.5781 24.4844 18.2399 24.4844 21.5234V73.4766C24.4844 76.7601 27.1462 79.4219 30.4297 79.4219H67.5391C70.8226 79.4219 73.4844 76.7601 73.4844 73.4766V37.4805C73.4844 36.665 74.1455 36.0039 74.9609 36.0039C75.7764 36.0039 76.4375 36.665 76.4375 37.4805V73.4766C76.4375 78.391 72.4535 82.375 67.5391 82.375H30.4297C25.5152 82.375 21.5312 78.391 21.5312 73.4766V21.5234C21.5312 16.609 25.5152 12.625 30.4297 12.625H67.5391C72.4535 12.625 76.4375 16.609 76.4375 21.5234V28.2031C76.4375 29.0186 75.7764 29.6797 74.9609 29.6797C74.8763 29.6797 74.7938 29.6726 74.7139 29.6592ZM64.5703 15.5781H63.8203V16.3281V24.3725C63.8203 24.7648 63.9553 25.3924 64.3217 25.8827L64.9225 25.4338L64.3217 25.8827C64.495 26.1145 64.7183 26.315 65.0138 26.4619C65.3093 26.6088 65.7266 26.7266 66.3198 26.7266H72.7344H73.4844V25.9766V21.5234C73.4844 18.2399 70.8226 15.5781 67.5391 15.5781H64.5703Z" fill="#1A1A1A" stroke="#F5F8FF" stroke-width="1.5" stroke-linecap="round"/>
</svg>
