<svg width="96" height="96" viewBox="0 0 96 96" fill="none" xmlns="http://www.w3.org/2000/svg">
<path d="M14.53 81.12C14.53 81.3133 14.6867 81.47 14.88 81.47H82.56C83.162 81.47 83.65 81.958 83.65 82.56C83.65 83.162 83.162 83.65 82.56 83.65H13.44C12.838 83.65 12.35 83.162 12.35 82.56V13.44C12.35 12.838 12.838 12.35 13.44 12.35C14.042 12.35 14.53 12.838 14.53 13.44V81.12Z" fill="#1A1A1A" stroke="#F5F8FF" stroke-width="0.7" stroke-linecap="round" stroke-linejoin="round"/>
<path fill-rule="evenodd" clip-rule="evenodd" d="M41.0822 59.6653C41.0822 60.063 40.7598 60.3853 40.3622 60.3853C39.9645 60.3853 39.6422 60.063 39.6422 59.6653C39.6422 59.2677 39.9645 58.9453 40.3622 58.9453C40.7598 58.9453 41.0822 59.2677 41.0822 59.6653ZM40.3622 61.6574C40.3622 62.0551 40.0398 62.3774 39.6422 62.3774C39.2445 62.3774 38.9222 62.0551 38.9222 61.6574C38.9222 61.2598 39.2445 60.9374 39.6422 60.9374C40.0398 60.9374 40.3622 61.2598 40.3622 61.6574ZM36.6001 70.9546C36.9977 70.9546 37.3201 70.6322 37.3201 70.2346C37.3201 69.8369 36.9977 69.5146 36.6001 69.5146C36.2024 69.5146 35.8801 69.8369 35.8801 70.2346C35.8801 70.6322 36.2024 70.9546 36.6001 70.9546ZM38.4633 68.6384C38.4633 69.036 38.1409 69.3584 37.7433 69.3584C37.3456 69.3584 37.0233 69.036 37.0233 68.6384C37.0233 68.2408 37.3456 67.9184 37.7433 67.9184C38.1409 67.9184 38.4633 68.2408 38.4633 68.6384ZM41.797 66.9493C42.1947 66.9493 42.517 66.627 42.517 66.2293C42.517 65.8317 42.1947 65.5093 41.797 65.5093C41.3994 65.5093 41.077 65.8317 41.077 66.2293C41.077 66.627 41.3994 66.9493 41.797 66.9493ZM36.6236 66.0887C36.5871 66.0944 36.5497 66.0974 36.5116 66.0974C36.114 66.0974 35.7916 65.7751 35.7916 65.3774C35.7916 64.9798 36.114 64.6574 36.5116 64.6574C36.9093 64.6574 37.2316 64.9798 37.2316 65.3774C37.2316 65.5923 37.1375 65.7852 36.9881 65.9172C37.0246 65.9115 37.0621 65.9085 37.1002 65.9085C37.4978 65.9085 37.8202 66.2309 37.8202 66.6285C37.8202 67.0261 37.4978 67.3485 37.1002 67.3485C36.7025 67.3485 36.3802 67.0261 36.3802 66.6285C36.3802 66.4136 36.4743 66.2207 36.6236 66.0887ZM43.2922 63.6006C43.419 63.4708 43.4972 63.2932 43.4972 63.0974C43.4972 62.6998 43.1749 62.3774 42.7772 62.3774C42.3796 62.3774 42.0572 62.6998 42.0572 63.0974C42.0572 63.2697 42.1177 63.4278 42.2186 63.5517C42.1135 63.4917 41.9919 63.4575 41.8622 63.4575C41.8043 63.4575 41.7479 63.4643 41.694 63.4772C41.7626 63.367 41.8022 63.2368 41.8022 63.0974C41.8022 62.6998 41.4798 62.3774 41.0822 62.3774C40.7423 62.3774 40.4574 62.6129 40.3818 62.9296L40.3622 62.9294C39.9645 62.9294 39.6422 63.2517 39.6422 63.6494C39.6422 64.047 39.9645 64.3694 40.3622 64.3694C40.7021 64.3694 40.9869 64.1339 41.0625 63.8171L41.0822 63.8174C41.1401 63.8174 41.1964 63.8106 41.2504 63.7976C41.1818 63.9079 41.1422 64.038 41.1422 64.1775C41.1422 64.5751 41.4646 64.8975 41.8622 64.8975C42.2598 64.8975 42.5822 64.5751 42.5822 64.1775C42.5822 64.0052 42.5217 63.8471 42.4208 63.7232C42.5259 63.7831 42.6475 63.8174 42.7772 63.8174C42.8237 63.8174 42.8691 63.813 42.9131 63.8046C42.7863 63.9344 42.7081 64.112 42.7081 64.3078C42.7081 64.7054 43.0305 65.0278 43.4281 65.0278C43.8258 65.0278 44.1481 64.7054 44.1481 64.3078C44.1481 63.9101 43.8258 63.5878 43.4281 63.5878C43.3817 63.5878 43.3362 63.5922 43.2922 63.6006ZM38.4722 63.7217C38.8698 63.7217 39.1922 63.3993 39.1922 63.0017C39.1922 62.604 38.8698 62.2817 38.4722 62.2817C38.3005 62.2817 38.1429 62.3417 38.0192 62.442C38.0211 62.4207 38.0221 62.3992 38.0221 62.3774C38.0221 61.9798 37.6997 61.6574 37.3021 61.6574C36.9044 61.6574 36.5821 61.9798 36.5821 62.3774C36.5821 62.7751 36.9044 63.0974 37.3021 63.0974C37.4737 63.0974 37.6313 63.0374 37.755 62.9371C37.7531 62.9584 37.7522 62.9799 37.7522 63.0017C37.7522 63.0963 37.7704 63.1866 37.8036 63.2693C37.7083 63.2229 37.6014 63.1968 37.4883 63.1968C37.0906 63.1968 36.7683 63.5192 36.7683 63.9168C36.7683 64.3145 37.0906 64.6368 37.4883 64.6368C37.4983 64.6368 37.5082 64.6366 37.518 64.6362C37.4177 64.76 37.3575 64.9177 37.3575 65.0895C37.3575 65.4871 37.6799 65.8095 38.0775 65.8095C38.4752 65.8095 38.7975 65.4871 38.7975 65.0895C38.7975 64.6918 38.4752 64.3695 38.0775 64.3695C38.0675 64.3695 38.0576 64.3697 38.0477 64.3701C38.1481 64.2463 38.2083 64.0886 38.2083 63.9168C38.2083 63.8222 38.19 63.7319 38.1569 63.6492C38.2521 63.6956 38.3591 63.7217 38.4722 63.7217ZM40.3622 65.0896C40.3622 65.4873 40.0398 65.8096 39.6422 65.8096C39.2445 65.8096 38.9222 65.4873 38.9222 65.0896C38.9222 64.692 39.2445 64.3696 39.6422 64.3696C40.0398 64.3696 40.3622 64.692 40.3622 65.0896ZM42.7021 61.0443C42.7021 61.442 42.3798 61.7643 41.9821 61.7643C41.5845 61.7643 41.2621 61.442 41.2621 61.0443C41.2621 60.6467 41.5845 60.3243 41.9821 60.3243C42.3798 60.3243 42.7021 60.6467 42.7021 61.0443ZM45.5827 69.2652C45.5827 69.6629 45.2603 69.9852 44.8627 69.9852C44.4651 69.9852 44.1427 69.6629 44.1427 69.2652C44.1427 68.8676 44.4651 68.5452 44.8627 68.5452C45.2603 68.5452 45.5827 68.8676 45.5827 69.2652ZM36.1233 63.6534C36.1233 64.051 35.8009 64.3734 35.4033 64.3734C35.0056 64.3734 34.6833 64.051 34.6833 63.6534C34.6833 63.2557 35.0056 62.9334 35.4033 62.9334C35.8009 62.9334 36.1233 63.2557 36.1233 63.6534ZM38.8622 67.8975C39.2598 67.8975 39.5822 67.5751 39.5822 67.1775C39.5822 66.7798 39.2598 66.4575 38.8622 66.4575C38.4646 66.4575 38.1422 66.7798 38.1422 67.1775C38.1422 67.5751 38.4646 67.8975 38.8622 67.8975ZM45.5827 65.7014C45.5827 66.0991 45.2603 66.4214 44.8627 66.4214C44.4651 66.4214 44.1427 66.0991 44.1427 65.7014C44.1427 65.3038 44.4651 64.9814 44.8627 64.9814C45.2603 64.9814 45.5827 65.3038 45.5827 65.7014ZM35.9217 60.6538C36.2212 60.6538 36.478 60.4709 36.5865 60.2108C36.5837 60.2366 36.5823 60.2628 36.5823 60.2893C36.5823 60.687 36.9046 61.0093 37.3023 61.0093C37.6999 61.0093 38.0223 60.687 38.0223 60.2893C38.0223 59.8917 37.6999 59.5693 37.3023 59.5693C37.0028 59.5693 36.746 59.7522 36.6375 60.0123C36.6403 59.9865 36.6417 59.9603 36.6417 59.9338C36.6417 59.5361 36.3194 59.2138 35.9217 59.2138C35.5241 59.2138 35.2017 59.5361 35.2017 59.9338C35.2017 60.3314 35.5241 60.6538 35.9217 60.6538ZM45.9788 61.6335C45.9788 62.0312 45.6564 62.3535 45.2588 62.3535C44.8611 62.3535 44.5388 62.0312 44.5388 61.6335C44.5388 61.2359 44.8611 60.9135 45.2588 60.9135C45.6564 60.9135 45.9788 61.2359 45.9788 61.6335ZM34.4231 67.6214C34.8208 67.6214 35.1431 67.299 35.1431 66.9014C35.1431 66.5038 34.8208 66.1814 34.4231 66.1814C34.0255 66.1814 33.7031 66.5038 33.7031 66.9014C33.7031 67.299 34.0255 67.6214 34.4231 67.6214ZM41.8022 69.2029C41.8022 69.6006 41.4798 69.9229 41.0822 69.9229C40.6845 69.9229 40.3622 69.6006 40.3622 69.2029C40.3622 68.8053 40.6845 68.4829 41.0822 68.4829C41.4798 68.4829 41.8022 68.8053 41.8022 69.2029Z" fill="#AAC9EE"/>
<path fill-rule="evenodd" clip-rule="evenodd" d="M37.005 65.9106C37.0415 65.9049 37.0789 65.9019 37.117 65.9019C37.3319 65.9019 37.5247 65.996 37.6566 66.1452C37.6731 66.1639 37.6887 66.1834 37.7032 66.2037C37.7201 66.2273 37.7356 66.252 37.7495 66.2776C37.7864 66.3453 37.8128 66.4195 37.8264 66.498C37.8334 66.5383 37.837 66.5797 37.837 66.6219C37.837 66.8419 37.7384 67.0388 37.583 67.1709C37.5669 67.1845 37.5503 67.1974 37.5331 67.2096C37.5043 67.2301 37.4738 67.2485 37.4421 67.2646C37.3451 67.3137 37.2354 67.3416 37.1193 67.3419C37.1185 67.3419 37.1178 67.3419 37.117 67.3419C36.7833 67.3419 36.5027 67.1149 36.421 66.8069C36.4146 66.7827 36.4094 66.7581 36.4056 66.733C36.3999 66.6968 36.397 66.6597 36.397 66.6219C36.397 66.4675 36.4457 66.3244 36.5285 66.2071C36.5609 66.1612 36.5985 66.1193 36.6405 66.0822C36.604 66.0879 36.5666 66.0908 36.5285 66.0908C36.3137 66.0908 36.1208 65.9968 35.9889 65.8476C35.9724 65.8289 35.9569 65.8094 35.9423 65.7891C35.8581 65.6712 35.8085 65.5268 35.8085 65.3708C35.8085 65.2357 35.8457 65.1092 35.9105 65.0012C35.997 64.8569 36.1326 64.7454 36.2942 64.6898C36.3433 64.6729 36.3948 64.6612 36.4481 64.6553C36.4745 64.6524 36.5013 64.6508 36.5285 64.6508C36.5924 64.6508 36.6543 64.6592 36.7132 64.6748C36.7591 64.6869 36.8033 64.7035 36.8451 64.724C36.9979 64.799 37.1203 64.9264 37.1886 65.0829C37.1938 65.0948 37.1987 65.1069 37.2033 65.1191C37.2114 65.1409 37.2185 65.1632 37.2245 65.1859C37.2309 65.2101 37.2361 65.2347 37.24 65.2598C37.2434 65.282 37.2458 65.3044 37.2472 65.3272C37.2481 65.3417 37.2485 65.3562 37.2485 65.3708C37.2485 65.5253 37.1998 65.6684 37.117 65.7857C37.0846 65.8316 37.047 65.8735 37.005 65.9106ZM37.0516 64.4695C37.1754 64.57 37.3332 64.6303 37.5052 64.6303L37.5349 64.6297C37.5246 64.6424 37.5146 64.6556 37.5052 64.669C37.4228 64.7861 37.3744 64.9289 37.3744 65.0829C37.3744 65.0927 37.3746 65.1024 37.375 65.1121C37.3762 65.1443 37.3796 65.1759 37.385 65.2068C37.3867 65.2167 37.3886 65.2265 37.3907 65.2362C37.3991 65.2748 37.4105 65.3121 37.4248 65.3481C37.4278 65.3557 37.431 65.3633 37.4343 65.3708C37.5213 65.5702 37.696 65.7225 37.9097 65.779C37.9536 65.7906 37.9991 65.7982 38.0459 65.8013C38.0619 65.8024 38.0781 65.8029 38.0944 65.8029C38.1599 65.8029 38.2234 65.7942 38.2838 65.7777C38.3167 65.7688 38.3486 65.7576 38.3795 65.7443C38.6236 65.6389 38.7978 65.4023 38.8133 65.1233C38.814 65.11 38.8144 65.0966 38.8144 65.0831C38.8144 65.083 38.8144 65.083 38.8144 65.0829C38.8144 65.0598 38.8133 65.0369 38.8112 65.0143C38.8005 64.9012 38.7636 64.7958 38.7067 64.704C38.6642 64.6354 38.6104 64.5744 38.5479 64.5237C38.5039 64.4879 38.4556 64.4573 38.4038 64.4326C38.3958 64.4288 38.3878 64.4251 38.3796 64.4216C38.2922 64.3838 38.1957 64.3629 38.0944 64.3629L38.0646 64.3635C38.075 64.3507 38.0849 64.3376 38.0944 64.3242C38.1162 64.2931 38.1357 64.2603 38.1525 64.2259C38.199 64.1306 38.2252 64.0235 38.2252 63.9103C38.2252 63.9005 38.225 63.8907 38.2246 63.881C38.2213 63.798 38.2039 63.7186 38.1748 63.6451C38.1744 63.6443 38.1741 63.6434 38.1738 63.6426C38.1757 63.6435 38.1776 63.6445 38.1795 63.6454C38.2733 63.6901 38.3782 63.7151 38.489 63.7151C38.5063 63.7151 38.5234 63.7145 38.5404 63.7133C38.6164 63.708 38.6891 63.6908 38.7567 63.6637C38.8104 63.6422 38.8609 63.6144 38.9072 63.5813C38.919 63.5729 38.9305 63.5641 38.9417 63.5551C39.099 63.4277 39.2016 63.2354 39.2086 63.019C39.2089 63.0111 39.209 63.0031 39.209 62.9951C39.209 62.9384 39.2025 62.8832 39.1901 62.8302C39.1363 62.6009 38.973 62.4138 38.7583 62.3272C38.6939 62.3012 38.6248 62.2842 38.5527 62.2779C38.5317 62.2761 38.5105 62.2751 38.489 62.2751C38.4471 62.2751 38.4061 62.2787 38.3661 62.2856C38.2815 62.3001 38.2019 62.3295 38.1301 62.3708C38.097 62.3899 38.0656 62.4115 38.0361 62.4354C38.038 62.4141 38.039 62.3926 38.039 62.3708C38.039 62.1991 37.9788 62.0414 37.8784 61.9176C37.8341 61.863 37.7819 61.8149 37.7237 61.7753C37.6789 61.7448 37.6305 61.7192 37.5793 61.6993C37.4986 61.668 37.4109 61.6509 37.3191 61.6508C37.3191 61.6508 37.319 61.6508 37.319 61.6508C37.2272 61.6508 37.1395 61.668 37.0588 61.6993C36.7897 61.8036 36.599 62.0649 36.599 62.3708C36.599 62.4986 36.6322 62.6186 36.6906 62.7226C36.7704 62.8648 36.8971 62.9772 37.0497 63.0388C37.0885 63.0545 37.1291 63.0669 37.1709 63.0756C37.1985 63.0814 37.2266 63.0856 37.2553 63.0881C37.2763 63.0899 37.2975 63.0908 37.319 63.0908C37.3833 63.0908 37.4458 63.0824 37.5052 63.0665C37.5663 63.0502 37.6243 63.026 37.6779 62.9951C37.711 62.9761 37.7424 62.9545 37.7719 62.9306C37.77 62.9518 37.769 62.9734 37.769 62.9951C37.769 63.0897 37.7873 63.18 37.8204 63.2628C37.7252 63.2163 37.6182 63.1903 37.5052 63.1903C37.4408 63.1903 37.3784 63.1987 37.319 63.2146C37.2926 63.2216 37.2669 63.2301 37.2418 63.24C37.2403 63.2405 37.2389 63.2411 37.2375 63.2417C37.1838 63.2632 37.1333 63.291 37.087 63.3241C36.9906 63.393 36.912 63.485 36.8591 63.592C36.8503 63.6099 36.8422 63.6282 36.8349 63.6468C36.8257 63.6702 36.8177 63.6942 36.8109 63.7187C36.7941 63.7797 36.7852 63.8439 36.7852 63.9103C36.7852 63.9249 36.7856 63.9395 36.7865 63.9539C36.7886 63.9895 36.7933 64.0245 36.8004 64.0585C36.8178 64.1416 36.8495 64.2194 36.8928 64.2892C36.9354 64.3578 36.9892 64.4188 37.0516 64.4695ZM36.0662 63.9651C36.075 63.9472 36.0831 63.9289 36.0904 63.9103C36.1225 63.8287 36.1402 63.7398 36.1402 63.6468C36.1402 63.596 36.1349 63.5464 36.1249 63.4985C36.0565 63.172 35.767 62.9268 35.4202 62.9268C35.0225 62.9268 34.7002 63.2492 34.7002 63.6468C34.7002 64.0445 35.0225 64.3668 35.4202 64.3668C35.4473 64.3668 35.4742 64.3653 35.5006 64.3624C35.7291 64.337 35.9254 64.2046 36.0381 64.0165C36.0482 63.9998 36.0575 63.9826 36.0662 63.9651ZM35.123 65.0561C34.4703 64.9192 33.9802 64.3402 33.9802 63.6468C33.9802 62.8515 34.6249 62.2068 35.4202 62.2068C35.5816 62.2068 35.7368 62.2334 35.8816 62.2824C35.9044 61.9068 36.0711 61.5701 36.3273 61.3267C36.3239 61.3235 36.3205 61.3202 36.3171 61.317C36.1966 61.3497 36.0697 61.3672 35.9386 61.3672C35.1433 61.3672 34.4986 60.7225 34.4986 59.9272C34.4986 59.1319 35.1433 58.4872 35.9386 58.4872C36.3281 58.4872 36.6814 58.6418 36.9406 58.893C37.0612 58.8603 37.1881 58.8428 37.3191 58.8428C38.1144 58.8428 38.7591 59.4875 38.7591 60.2828C38.7591 60.3728 38.7509 60.4609 38.7351 60.5463C38.8445 60.4547 38.9676 60.3791 39.101 60.3229C38.9975 60.1242 38.939 59.8983 38.939 59.6587C38.939 58.8635 39.5838 58.2188 40.379 58.2188C41.1577 58.2188 41.792 58.8367 41.8182 59.609C41.8774 59.6016 41.9378 59.5978 41.999 59.5978C42.7943 59.5978 43.439 60.2425 43.439 61.0378C43.439 61.2882 43.3751 61.5237 43.2627 61.7288C43.7452 61.8948 44.1119 62.31 44.2088 62.8207L44.4147 62.7814C44.0632 62.5188 43.8357 62.0995 43.8357 61.627C43.8357 60.8317 44.4804 60.187 45.2757 60.187C46.0709 60.187 46.7157 60.8317 46.7157 61.627C46.7157 62.4223 46.0709 63.067 45.2757 63.067C45.0895 63.067 44.9117 63.0317 44.7484 62.9674L44.4514 63.2713C44.7087 63.5227 44.8721 63.8697 44.8843 64.2549C45.6774 64.2574 46.3196 64.9011 46.3196 65.6949C46.3196 66.4901 45.6749 67.1349 44.8796 67.1349C44.0998 67.1349 43.4648 66.515 43.4403 65.7412C43.3448 65.7409 43.2515 65.7313 43.1612 65.7132C43.2211 65.8716 43.2539 66.0434 43.2539 66.2228C43.2539 67.0181 42.6092 67.6628 41.8139 67.6628C41.0551 67.6628 40.4333 67.0758 40.3779 66.3311C40.2978 66.3773 40.2128 66.4161 40.1238 66.4464C40.248 66.6592 40.3191 66.9068 40.3191 67.1709C40.3191 67.8562 39.8403 68.4297 39.199 68.5752C39.1998 68.594 39.2001 68.6129 39.2001 68.6318C39.2001 69.3295 38.704 69.9113 38.0452 70.0436C38.053 70.104 38.0569 70.1655 38.0569 70.228C38.0569 71.0233 37.4122 71.668 36.6169 71.668C35.8216 71.668 35.1769 71.0233 35.1769 70.228C35.1769 69.5303 35.6731 68.9485 36.3318 68.8162C36.3241 68.7558 36.3201 68.6943 36.3201 68.6318C36.3201 68.3753 36.3872 68.1344 36.5049 67.9257C36.2135 67.7887 35.9755 67.5568 35.8307 67.2698C35.6657 67.8833 35.1056 68.3348 34.44 68.3348C33.6447 68.3348 33 67.6901 33 66.8948C33 66.0995 33.6447 65.4548 34.44 65.4548C34.6819 65.4548 34.9098 65.5145 35.1099 65.6198C35.0958 65.539 35.0885 65.4558 35.0885 65.3708C35.0885 65.2627 35.1004 65.1574 35.123 65.0561ZM35.1081 66.6258C35.0015 66.3614 34.7425 66.1748 34.44 66.1748C34.0424 66.1748 33.72 66.4972 33.72 66.8948C33.72 67.2925 34.0424 67.6148 34.44 67.6148C34.8266 67.6148 35.1421 67.3101 35.1593 66.9277C35.1598 66.9168 35.16 66.9058 35.16 66.8948C35.16 66.7997 35.1416 66.7089 35.1081 66.6258ZM37.3441 68.0441C37.1602 68.1746 37.0401 68.3892 37.0401 68.6318C37.0401 68.7129 37.0535 68.7908 37.0782 68.8635C37.1746 69.1474 37.4433 69.3517 37.7598 69.3518C37.7599 69.3518 37.76 69.3518 37.7601 69.3518C38.1578 69.3518 38.4801 69.0295 38.4801 68.6318C38.4801 68.6054 38.4787 68.5794 38.476 68.5537C38.437 68.1928 38.1314 67.9118 37.7601 67.9118C37.7594 67.9118 37.7586 67.9118 37.7579 67.9118C37.7209 67.912 37.6847 67.9148 37.6492 67.9203C37.5368 67.9377 37.433 67.9811 37.3441 68.0441ZM38.2466 67.5152C38.3687 67.739 38.6061 67.8909 38.8791 67.8909C38.9168 67.8909 38.9538 67.888 38.99 67.8824C39.335 67.8291 39.5991 67.5308 39.5991 67.1709C39.5991 66.7732 39.2767 66.4509 38.8791 66.4509C38.7621 66.4509 38.6517 66.4788 38.554 66.5283C38.5033 66.554 38.4561 66.5855 38.4132 66.6219C38.2577 66.754 38.1591 66.9509 38.1591 67.1709C38.1591 67.1973 38.1605 67.2234 38.1633 67.249C38.1736 67.3446 38.2026 67.4346 38.2466 67.5152ZM39.3738 65.7444C39.4613 65.7821 39.5577 65.8031 39.659 65.8031C40.0567 65.8031 40.379 65.4807 40.379 65.0831C40.379 65.083 40.379 65.0829 40.379 65.0828C40.3789 64.6853 40.0566 64.3631 39.659 64.3631C39.5578 64.3631 39.4614 64.384 39.374 64.4217C39.3215 64.4444 39.2722 64.4731 39.2271 64.507C39.1921 64.5333 39.1595 64.5627 39.1298 64.5949C39.1074 64.6192 39.0866 64.6451 39.0676 64.6723C39.0027 64.7657 38.9593 64.8751 38.9446 64.9935C38.9439 64.9986 38.9434 65.0037 38.9428 65.0088C38.9403 65.0332 38.9391 65.0579 38.939 65.0829C38.939 65.083 38.939 65.083 38.939 65.0831C38.939 65.3794 39.118 65.6339 39.3738 65.7444ZM39.678 63.8077C39.7475 64.1041 40 64.33 40.3099 64.3595C40.3326 64.3617 40.3557 64.3628 40.379 64.3628C40.4034 64.3628 40.4275 64.3616 40.4513 64.3592C40.5855 64.3459 40.7088 64.2957 40.811 64.2189C40.831 64.2039 40.8502 64.1879 40.8685 64.1709C40.971 64.0758 41.0458 63.9512 41.0794 63.8106L41.099 63.8108C41.157 63.8108 41.2133 63.804 41.2673 63.7911C41.2559 63.8095 41.2452 63.8284 41.2355 63.8478C41.1866 63.945 41.1591 64.0547 41.1591 64.1709C41.1591 64.2286 41.1659 64.2846 41.1787 64.3384C41.1942 64.4038 41.2188 64.4658 41.2508 64.5229C41.2681 64.5536 41.2875 64.5829 41.3089 64.6107C41.3289 64.6365 41.3506 64.661 41.3738 64.6839C41.3775 64.6875 41.3813 64.6911 41.385 64.6946C41.4323 64.7392 41.4856 64.7775 41.5436 64.8081C41.6256 64.8514 41.717 64.8793 41.8139 64.888C41.8354 64.8899 41.8571 64.8909 41.8791 64.8909C41.9613 64.8909 42.0403 64.8771 42.114 64.8517C42.1343 64.8447 42.1542 64.8368 42.1737 64.8281C42.3214 64.7617 42.4427 64.6471 42.5175 64.5042C42.5224 64.4948 42.5271 64.4852 42.5316 64.4756C42.5572 64.4209 42.5761 64.3624 42.5873 64.3012C42.595 64.2589 42.5991 64.2154 42.5991 64.1709C42.5991 63.9986 42.5386 63.8405 42.4377 63.7166C42.5428 63.7766 42.6644 63.8108 42.7941 63.8108C42.8405 63.8108 42.886 63.8064 42.93 63.798C42.8746 63.8547 42.8285 63.9206 42.7941 63.9931C42.7677 64.0488 42.7482 64.1084 42.7368 64.1709C42.729 64.2132 42.725 64.2567 42.725 64.3012C42.725 64.3474 42.7293 64.3925 42.7376 64.4362C42.7437 64.4685 42.752 64.4999 42.7623 64.5305C42.8204 64.7037 42.9426 64.8475 43.1007 64.9337C43.203 64.9895 43.3203 65.0212 43.445 65.0212C43.5046 65.0212 43.5625 65.014 43.6178 65.0003C43.8833 64.9349 44.0909 64.7222 44.1488 64.4538C44.1594 64.4046 44.165 64.3536 44.165 64.3012C44.165 64.1342 44.1081 63.9804 44.0126 63.8582C43.9928 63.8328 43.9712 63.8088 43.9482 63.7863C43.8184 63.6594 43.6408 63.5812 43.445 63.5812C43.3985 63.5812 43.3531 63.5856 43.3091 63.594C43.3645 63.5373 43.4106 63.4715 43.445 63.399C43.4893 63.3056 43.5141 63.2011 43.5141 63.0908C43.5141 63.0447 43.5097 62.9996 43.5014 62.9558C43.4953 62.9236 43.4871 62.8921 43.4768 62.8615C43.381 62.5763 43.1116 62.3708 42.7941 62.3708C42.651 62.3708 42.5177 62.4126 42.4056 62.4846C42.3004 62.5521 42.2139 62.6463 42.1557 62.7576C42.1406 62.7865 42.1274 62.8165 42.1162 62.8475C42.0889 62.9235 42.0741 63.0054 42.0741 63.0908C42.0741 63.2579 42.131 63.4117 42.2264 63.5338C42.2294 63.5376 42.2324 63.5414 42.2355 63.5451C42.2315 63.5429 42.2275 63.5407 42.2235 63.5385C42.1212 63.4826 42.0038 63.4509 41.8791 63.4509C41.8211 63.4509 41.7648 63.4577 41.7108 63.4707C41.7794 63.3604 41.819 63.2303 41.819 63.0908C41.819 63.0332 41.8123 62.9771 41.7995 62.9233C41.7839 62.8579 41.7594 62.796 41.7273 62.7389C41.6694 62.6357 41.5868 62.5483 41.4876 62.4846C41.3755 62.4126 41.2421 62.3708 41.099 62.3708C41.0255 62.3708 40.9545 62.3819 40.8876 62.4024C40.66 62.4722 40.4804 62.6518 40.4106 62.8794C40.4062 62.8938 40.4022 62.9083 40.3987 62.9231L40.379 62.9228C40.3632 62.9228 40.3474 62.9233 40.3318 62.9243C40.1919 62.9334 40.0628 62.9825 39.9559 63.0602C39.9459 63.0675 39.936 63.0751 39.9264 63.0829C39.7633 63.2149 39.659 63.4167 39.659 63.6428C39.659 63.6429 39.659 63.643 39.659 63.6431C39.6591 63.6997 39.6656 63.7548 39.678 63.8077ZM39.8708 62.3392C39.9475 62.3156 40.0187 62.2796 40.0822 62.2335C40.2068 62.1428 40.3013 62.013 40.3475 61.8623C40.368 61.7954 40.379 61.7244 40.379 61.6508C40.379 61.4112 40.262 61.1989 40.0819 61.0681C39.9752 60.9905 39.8463 60.9415 39.7065 60.9324C39.6908 60.9314 39.675 60.9308 39.659 60.9308C39.2694 60.9308 38.952 61.2404 38.9394 61.627C38.9392 61.6349 38.939 61.6429 38.939 61.6508C38.939 62.0485 39.2614 62.3708 39.659 62.3708C39.6749 62.3708 39.6907 62.3703 39.7063 62.3693C39.7319 62.3677 39.7571 62.3647 39.782 62.3604C39.8122 62.3552 39.8419 62.3481 39.8708 62.3392ZM37.5793 60.9543C37.4986 60.9856 37.4109 61.0028 37.3191 61.0028C37.3191 61.0028 37.319 61.0028 37.319 61.0028C37.2272 61.0028 37.1395 60.9856 37.0588 60.9543C37.0325 60.9441 37.0069 60.9324 36.9822 60.9192C36.7543 60.7984 36.5991 60.5587 36.5991 60.2828C36.5991 60.2562 36.6006 60.23 36.6034 60.2042C36.5921 60.2313 36.5792 60.2575 36.5648 60.2828C36.441 60.5004 36.2069 60.6472 35.9386 60.6472C35.9343 60.6472 35.9299 60.6472 35.9256 60.6471C35.534 60.6402 35.2186 60.3205 35.2186 59.9272C35.2186 59.5296 35.5409 59.2072 35.9386 59.2072C36.0603 59.2072 36.175 59.2374 36.2755 59.2908C36.5034 59.4116 36.6586 59.6513 36.6586 59.9272C36.6586 59.9538 36.6572 59.98 36.6544 60.0058C36.6656 59.9787 36.6785 59.9525 36.6929 59.9272C36.8168 59.7096 37.0508 59.5628 37.3191 59.5628C37.3235 59.5628 37.3278 59.5628 37.3321 59.5629C37.7238 59.5698 38.0391 59.8895 38.0391 60.2828C38.0391 60.5887 37.8484 60.85 37.5793 60.9543ZM41.353 60.7194C41.3056 60.8154 41.279 60.9235 41.279 61.0378C41.279 61.4354 41.6014 61.7578 41.999 61.7578C42.3967 61.7578 42.719 61.4354 42.719 61.0378C42.719 60.6401 42.3967 60.3178 41.999 60.3178C41.8435 60.3178 41.6995 60.3671 41.5818 60.4509C41.485 60.5198 41.4061 60.612 41.353 60.7194ZM40.3316 60.3772C40.3473 60.3782 40.3631 60.3787 40.379 60.3787C40.5346 60.3787 40.6786 60.3294 40.7963 60.2456C40.893 60.1767 40.972 60.0845 41.025 59.9771C41.0724 59.8811 41.099 59.7731 41.099 59.6587C41.099 59.2611 40.7767 58.9387 40.379 58.9387C39.9814 58.9387 39.659 59.2611 39.659 59.6587C39.659 59.8984 39.7761 60.1107 39.9562 60.2415C40.0629 60.3191 40.1918 60.3681 40.3316 60.3772ZM42.1494 65.5856C42.0674 65.5423 41.976 65.5144 41.8791 65.5057C41.8576 65.5038 41.8359 65.5028 41.8139 65.5028C41.709 65.5028 41.6093 65.5252 41.5193 65.5656C41.2686 65.6782 41.0939 65.9301 41.0939 66.2228C41.0939 66.6204 41.4163 66.9428 41.8139 66.9428C42.2116 66.9428 42.5339 66.6204 42.5339 66.2228C42.5339 65.9463 42.3781 65.7062 42.1494 65.5856ZM36.6173 69.508C36.6172 69.508 36.617 69.508 36.6169 69.508C36.2193 69.508 35.8969 69.8304 35.8969 70.228C35.8969 70.6256 36.2193 70.948 36.6169 70.948C37.0146 70.948 37.3369 70.6256 37.3369 70.228C37.3369 70.147 37.3235 70.0691 37.2989 69.9964C37.2025 69.7125 36.9337 69.5081 36.6173 69.508ZM44.1758 65.5423C44.1652 65.5914 44.1596 65.6425 44.1596 65.6949C44.1596 66.0925 44.4819 66.4149 44.8796 66.4149C45.2772 66.4149 45.5996 66.0925 45.5996 65.6949C45.5996 65.2972 45.2772 64.9749 44.8796 64.9749C44.82 64.9749 44.7621 64.9821 44.7067 64.9957C44.4412 65.0612 44.2337 65.2739 44.1758 65.5423ZM46.3196 69.2586C46.3196 70.0539 45.6749 70.6986 44.8796 70.6986C44.0843 70.6986 43.4396 70.0539 43.4396 69.2586C43.4396 68.4634 44.0843 67.8187 44.8796 67.8187C45.6749 67.8187 46.3196 68.4634 46.3196 69.2586ZM42.539 69.1964C42.539 69.9917 41.8943 70.6364 41.099 70.6364C40.3038 70.6364 39.659 69.9917 39.659 69.1964C39.659 68.4011 40.3038 67.7564 41.099 67.7564C41.8943 67.7564 42.539 68.4011 42.539 69.1964ZM44.8796 69.9787C45.2772 69.9787 45.5996 69.6563 45.5996 69.2586C45.5996 68.861 45.2772 68.5387 44.8796 68.5387C44.4819 68.5387 44.1596 68.861 44.1596 69.2586C44.1596 69.6563 44.4819 69.9787 44.8796 69.9787ZM45.2757 62.347C45.6733 62.347 45.9957 62.0246 45.9957 61.627C45.9957 61.2293 45.6733 60.907 45.2757 60.907C44.878 60.907 44.5557 61.2293 44.5557 61.627C44.5557 62.0246 44.878 62.347 45.2757 62.347ZM41.099 69.9164C41.4967 69.9164 41.819 69.594 41.819 69.1964C41.819 68.7987 41.4967 68.4764 41.099 68.4764C40.7014 68.4764 40.379 68.7987 40.379 69.1964C40.379 69.594 40.7014 69.9164 41.099 69.9164Z" fill="#2B78D3"/>
<path fill-rule="evenodd" clip-rule="evenodd" d="M66.0443 53.9428C65.6467 53.9428 65.3243 54.2652 65.3243 54.6628C65.3243 55.0605 65.6467 55.3828 66.0443 55.3828C66.4419 55.3828 66.7643 55.0605 66.7643 54.6628C66.7643 54.2652 66.4419 53.9428 66.0443 53.9428ZM60.4116 54.2881C60.4116 53.8904 60.734 53.5681 61.1316 53.5681C61.5293 53.5681 61.8516 53.8904 61.8516 54.2881C61.8516 54.6857 61.5293 55.0081 61.1316 55.0081C60.734 55.0081 60.4116 54.6857 60.4116 54.2881ZM62.6468 49.9638C62.6468 49.5661 62.9692 49.2438 63.3668 49.2438C63.7645 49.2438 64.0868 49.5661 64.0868 49.9638C64.0868 50.3614 63.7645 50.6838 63.3668 50.6838C62.9692 50.6838 62.6468 50.3614 62.6468 49.9638ZM64.6343 52.4907C64.2367 52.4907 63.9143 52.8131 63.9143 53.2107C63.9143 53.6084 64.2367 53.9307 64.6343 53.9307C65.032 53.9307 65.3543 53.6084 65.3543 53.2107C65.3543 52.8131 65.032 52.4907 64.6343 52.4907ZM71.3569 42.381C71.3569 41.9834 71.6792 41.661 72.0769 41.661C72.4745 41.661 72.7969 41.9834 72.7969 42.381C72.7969 42.7787 72.4745 43.101 72.0769 43.101C71.6792 43.101 71.3569 42.7787 71.3569 42.381ZM58.6868 49.0166C58.2892 49.0166 57.9668 49.339 57.9668 49.7366C57.9668 50.1343 58.2892 50.4566 58.6868 50.4566C59.0845 50.4566 59.4068 50.1343 59.4068 49.7366C59.4068 49.339 59.0845 49.0166 58.6868 49.0166ZM66.1234 52.7492C66.1234 52.3516 66.4457 52.0292 66.8434 52.0292C67.241 52.0292 67.5634 52.3516 67.5634 52.7492C67.5634 53.1469 67.241 53.4692 66.8434 53.4692C66.4457 53.4692 66.1234 53.1469 66.1234 52.7492ZM58.7514 46.1636C58.3538 46.1636 58.0314 46.4859 58.0314 46.8836C58.0314 47.2812 58.3538 47.6036 58.7514 47.6036C59.1491 47.6036 59.4714 47.2812 59.4714 46.8836C59.4714 46.4859 59.1491 46.1636 58.7514 46.1636ZM62.9174 44.1818C62.9174 43.7842 63.2398 43.4618 63.6374 43.4618C64.035 43.4618 64.3574 43.7842 64.3574 44.1818C64.3574 44.5794 64.035 44.9018 63.6374 44.9018C63.2398 44.9018 62.9174 44.5794 62.9174 44.1818ZM65.0468 47.8038C64.6492 47.8038 64.3268 48.1262 64.3268 48.5238C64.3268 48.9215 64.6492 49.2438 65.0468 49.2438C65.4445 49.2438 65.7668 48.9215 65.7668 48.5238C65.7668 48.1262 65.4445 47.8038 65.0468 47.8038ZM65.164 51.2971C65.164 50.8994 65.4864 50.5771 65.884 50.5771C66.2816 50.5771 66.604 50.8994 66.604 51.2971C66.604 51.6947 66.2816 52.0171 65.884 52.0171C65.4864 52.0171 65.164 51.6947 65.164 51.2971ZM62.6468 45.5239C62.2491 45.5239 61.9268 45.8462 61.9268 46.2439C61.9268 46.6415 62.2491 46.9639 62.6468 46.9639C63.0444 46.9639 63.3668 46.6415 63.3668 46.2439C63.3668 45.8462 63.0444 45.5239 62.6468 45.5239ZM67.3268 48.5238C67.3268 48.1262 67.6492 47.8038 68.0468 47.8038C68.4445 47.8038 68.7668 48.1262 68.7668 48.5238C68.7668 48.9215 68.4445 49.2438 68.0468 49.2438C67.6492 49.2438 67.3268 48.9215 67.3268 48.5238ZM70.2805 49.1523C70.2805 48.7547 70.6029 48.4323 71.0005 48.4323C71.3981 48.4323 71.7205 48.7547 71.7205 49.1523C71.7205 49.55 71.3981 49.8723 71.0005 49.8723C70.6029 49.8723 70.2805 49.55 70.2805 49.1523ZM58.4967 42.2655C58.0991 42.2655 57.7767 42.5879 57.7767 42.9855C57.7767 43.3832 58.0991 43.7055 58.4967 43.7055C58.8943 43.7055 59.2167 43.3832 59.2167 42.9855C59.2167 42.5879 58.8943 42.2655 58.4967 42.2655ZM59.3529 44.0293C59.3529 43.6317 59.6753 43.3093 60.0729 43.3093C60.4706 43.3093 60.7929 43.6317 60.7929 44.0293C60.7929 44.427 60.4706 44.7493 60.0729 44.7493C59.6753 44.7493 59.3529 44.427 59.3529 44.0293ZM65.7068 49.1239C65.3091 49.1239 64.9868 49.4462 64.9868 49.8439C64.9868 50.2415 65.3091 50.5639 65.7068 50.5639C66.1044 50.5639 66.4268 50.2415 66.4268 49.8439C66.4268 49.4462 66.1044 49.1239 65.7068 49.1239ZM66.6668 49.8146C66.6668 49.4169 66.9892 49.0946 67.3868 49.0946C67.7844 49.0946 68.1068 49.4169 68.1068 49.8146C68.1068 50.2122 67.7844 50.5346 67.3868 50.5346C66.9892 50.5346 66.6668 50.2122 66.6668 49.8146ZM66.1083 43.2268C65.7107 43.2268 65.3883 43.5491 65.3883 43.9468C65.3883 44.3444 65.7107 44.6668 66.1083 44.6668C66.3509 44.6668 66.5655 44.5468 66.6959 44.3629C66.8264 44.5468 67.041 44.6668 67.2836 44.6668C67.6812 44.6668 68.0036 44.3444 68.0036 43.9468C68.0036 43.5491 67.6812 43.2268 67.2836 43.2268C67.041 43.2268 66.8264 43.3467 66.6959 43.5306C66.5655 43.3467 66.3509 43.2268 66.1083 43.2268ZM61.5754 41.3276C61.5754 40.93 61.8977 40.6076 62.2954 40.6076C62.693 40.6076 63.0154 40.93 63.0154 41.3276C63.0154 41.7253 62.693 42.0476 62.2954 42.0476C61.8977 42.0476 61.5754 41.7253 61.5754 41.3276ZM68.6787 50.8746C68.281 50.8746 67.9587 51.197 67.9587 51.5946C67.9587 51.9923 68.281 52.3146 68.6787 52.3146C69.0763 52.3146 69.3987 51.9923 69.3987 51.5946C69.3987 51.197 69.0763 50.8746 68.6787 50.8746ZM65.8269 46.7186C65.8269 46.321 66.1492 45.9986 66.5469 45.9986C66.9445 45.9986 67.2669 46.321 67.2669 46.7186C67.2669 47.1163 66.9445 47.4386 66.5469 47.4386C66.1492 47.4386 65.8269 47.1163 65.8269 46.7186ZM64.9331 42.0098C64.5355 42.0098 64.2131 42.3322 64.2131 42.7298C64.2131 43.1275 64.5355 43.4498 64.9331 43.4498C65.3307 43.4498 65.6531 43.1275 65.6531 42.7298C65.6531 42.3322 65.3307 42.0098 64.9331 42.0098ZM61.4647 47.4205C61.067 47.4205 60.7447 47.7429 60.7447 48.1405C60.7447 48.5382 61.067 48.8605 61.4647 48.8605C61.8623 48.8605 62.1847 48.5382 62.1847 48.1405C62.1847 47.7429 61.8623 47.4205 61.4647 47.4205ZM62.3468 51.9424C62.3468 51.5448 62.6692 51.2224 63.0668 51.2224C63.4645 51.2224 63.7868 51.5448 63.7868 51.9424C63.7868 52.3401 63.4645 52.6624 63.0668 52.6624C62.6692 52.6624 62.3468 52.3401 62.3468 51.9424ZM69.5469 45.5239C69.1492 45.5239 68.8269 45.8462 68.8269 46.2439C68.8269 46.6415 69.1492 46.9639 69.5469 46.9639C69.9445 46.9639 70.2669 46.6415 70.2669 46.2439C70.2669 45.8462 69.9445 45.5239 69.5469 45.5239Z" fill="#FFF1AD"/>
<path fill-rule="evenodd" clip-rule="evenodd" d="M67.0918 43.261C67.1548 43.243 67.2213 43.2333 67.2901 43.2333C67.6878 43.2333 68.0101 43.5557 68.0101 43.9533C68.0101 44.351 67.6878 44.6733 67.2901 44.6733C67.2213 44.6733 67.1548 44.6637 67.0918 44.6456C67.0125 44.623 66.9389 44.5871 66.8734 44.5405C66.8073 44.4935 66.7495 44.4356 66.7025 44.3695C66.6556 44.4356 66.5977 44.4935 66.5316 44.5405C66.4661 44.5871 66.3925 44.623 66.3133 44.6456C66.2503 44.6637 66.1837 44.6733 66.1149 44.6733C65.7668 44.6733 65.4764 44.4263 65.4094 44.098C65.3999 44.0513 65.3949 44.0029 65.3949 43.9533C65.3949 43.5557 65.7172 43.2333 66.1149 43.2333C66.1732 43.2333 66.2298 43.2402 66.2841 43.2533C66.2939 43.2557 66.3036 43.2582 66.3133 43.261C66.3925 43.2836 66.4661 43.3195 66.5316 43.3661C66.5977 43.4131 66.6556 43.471 66.7025 43.5372C66.7495 43.471 66.8073 43.4131 66.8734 43.3661C66.9389 43.3195 67.0125 43.2836 67.0918 43.261ZM66.7025 42.6384C66.8819 42.5581 67.0808 42.5133 67.2901 42.5133C68.0854 42.5133 68.7301 43.158 68.7301 43.9533C68.7301 44.7486 68.0854 45.3933 67.2901 45.3933C67.2087 45.3933 67.1288 45.3865 67.0511 45.3735C67.6011 45.5761 67.9934 46.1049 67.9934 46.7252C67.9934 46.8528 67.9768 46.9766 67.9457 47.0944C67.9812 47.0917 68.0172 47.0904 68.0534 47.0904C68.1796 47.0904 68.3021 47.1067 68.4188 47.1372C68.2275 46.8927 68.1135 46.5849 68.1135 46.2504C68.1135 45.4551 68.7582 44.8104 69.5535 44.8104C70.3487 44.8104 70.9935 45.4551 70.9935 46.2504C70.9935 47.0457 70.3487 47.6904 69.5535 47.6904C69.4272 47.6904 69.3047 47.6742 69.1881 47.6437C69.3794 47.8881 69.4934 48.1959 69.4934 48.5304C69.4934 49.0392 69.2296 49.4863 68.8312 49.7424C68.8326 49.7685 68.8334 49.7947 68.8334 49.8211C68.8334 49.9397 68.819 50.0549 68.792 50.1651C69.5374 50.2197 70.1252 50.8418 70.1252 51.6012C70.1252 52.3965 69.4805 53.0412 68.6852 53.0412C68.5418 53.0412 68.4032 53.0202 68.2724 52.9811C68.192 53.4927 67.8423 53.9148 67.373 54.0979C67.4488 54.2731 67.4909 54.4663 67.4909 54.6694C67.4909 55.4647 66.8462 56.1094 66.0509 56.1094C65.2556 56.1094 64.6109 55.4647 64.6109 54.6694C64.6109 54.6652 64.6109 54.6611 64.6109 54.657C63.8851 54.6422 63.2911 54.0903 63.2103 53.3826C63.1652 53.3868 63.1195 53.389 63.0734 53.389C62.2781 53.389 61.6334 52.7443 61.6334 51.949C61.6334 51.4824 61.8553 51.0676 62.1994 50.8044C62.0319 50.5691 61.9334 50.2812 61.9334 49.9703C61.9334 49.7978 61.9637 49.6324 62.0194 49.4791C61.8504 49.5487 61.6653 49.5871 61.4713 49.5871C60.676 49.5871 60.0313 48.9424 60.0313 48.1471C60.0313 47.4128 60.5808 46.8069 61.291 46.7183C61.2407 46.5716 61.2133 46.4142 61.2133 46.2504C61.2133 45.5558 61.7052 44.976 62.3597 44.8404C62.2601 44.6446 62.204 44.4231 62.204 44.1884C62.204 43.4417 62.7722 42.8278 63.4998 42.7555C63.4997 42.7491 63.4997 42.7428 63.4997 42.7364C63.4997 41.9411 64.1444 41.2964 64.9397 41.2964C65.6666 41.2964 66.2678 41.8351 66.3657 42.5351C66.4836 42.5559 66.5965 42.5909 66.7025 42.6384ZM65.6451 42.5917C65.5781 42.2634 65.2877 42.0164 64.9397 42.0164C64.542 42.0164 64.2197 42.3388 64.2197 42.7364C64.2197 42.7834 64.2242 42.8294 64.2328 42.8739C64.2863 43.1506 64.4982 43.3708 64.7705 43.4364C64.807 43.4452 64.8446 43.4512 64.883 43.4542C64.9017 43.4557 64.9206 43.4564 64.9397 43.4564C65.3373 43.4564 65.6597 43.134 65.6597 42.7364C65.6597 42.6868 65.6547 42.6384 65.6451 42.5917ZM64.3509 44.0509C64.2902 43.7371 64.0257 43.4959 63.7006 43.4706C63.6819 43.4691 63.663 43.4684 63.644 43.4684C63.2463 43.4684 62.924 43.7907 62.924 44.1884C62.924 44.586 63.2463 44.9084 63.644 44.9084C64.0416 44.9084 64.364 44.586 64.364 44.1884C64.364 44.1414 64.3595 44.0954 64.3509 44.0509ZM64.9488 44.7983C64.7592 45.2032 64.3867 45.5054 63.9376 45.5984C64.0372 45.7942 64.0933 46.0157 64.0933 46.2504C64.0933 46.9847 63.5438 47.5906 62.8336 47.6793C62.8839 47.8259 62.9113 47.9833 62.9113 48.1471C62.9113 48.3196 62.8809 48.485 62.8253 48.6383C62.9942 48.5687 63.1793 48.5303 63.3734 48.5303C63.4552 48.5303 63.5354 48.5372 63.6135 48.5503C63.6134 48.5437 63.6134 48.537 63.6134 48.5304C63.6134 47.7351 64.2581 47.0904 65.0534 47.0904C65.0897 47.0904 65.1256 47.0917 65.1612 47.0944C65.13 46.9766 65.1134 46.8528 65.1134 46.7252C65.1134 46.1208 65.4858 45.6034 66.0136 45.3898C65.5758 45.3594 65.1919 45.1333 64.9488 44.7983ZM66.6544 45.2887C66.7012 45.2919 66.7474 45.2974 66.7929 45.305C66.7622 45.2937 66.7321 45.2815 66.7025 45.2682C66.6866 45.2753 66.6706 45.2821 66.6544 45.2887ZM66.4456 48.1612C66.4768 48.2791 66.4934 48.4028 66.4934 48.5304C66.4934 48.5664 66.4921 48.602 66.4895 48.6373C66.5042 48.6467 66.5187 48.6564 66.533 48.6663C66.5598 48.6463 66.5873 48.6272 66.6155 48.6091C66.6141 48.583 66.6134 48.5568 66.6134 48.5304C66.6134 48.4028 66.63 48.2791 66.6612 48.1612C66.6256 48.1639 66.5897 48.1652 66.5534 48.1652C66.5172 48.1652 66.4812 48.1639 66.4456 48.1612ZM67.3487 48.3818C67.3387 48.4297 67.3334 48.4795 67.3334 48.5304C67.3334 48.6329 67.3548 48.7303 67.3934 48.8185C67.5045 49.0728 67.7582 49.2504 68.0534 49.2504C68.2647 49.2504 68.4547 49.1594 68.5864 49.0145C68.7026 48.8866 68.7734 48.7168 68.7734 48.5304C68.7734 48.1328 68.451 47.8104 68.0534 47.8104C67.7067 47.8104 67.4172 48.0554 67.3487 48.3818ZM66.8604 49.337C66.7442 49.4649 66.6734 49.6347 66.6734 49.8211C66.6734 49.8309 66.6736 49.8407 66.6739 49.8504C66.6783 49.9581 66.7062 50.0597 66.7528 50.1502C66.815 50.2711 66.9104 50.372 67.027 50.4411C67.0364 50.4466 67.0459 50.452 67.0556 50.4571C67.1563 50.5107 67.2713 50.5411 67.3934 50.5411C67.7401 50.5411 68.0295 50.2961 68.098 49.9697C68.1081 49.9218 68.1134 49.8721 68.1134 49.8211C68.1134 49.7187 68.092 49.6212 68.0534 49.533C67.9423 49.2788 67.6886 49.1011 67.3934 49.1011C67.2506 49.1011 67.1175 49.1427 67.0056 49.2143C66.9519 49.2487 66.9031 49.2901 66.8604 49.337ZM66.5311 50.9745C66.4639 50.8439 66.3579 50.7366 66.2283 50.6676C66.1276 50.614 66.0126 50.5836 65.8906 50.5836C65.8294 50.5836 65.77 50.5913 65.7133 50.6056C65.4378 50.6754 65.2255 50.904 65.1797 51.1883C65.1737 51.2259 65.1706 51.2644 65.1706 51.3036C65.1706 51.6123 65.3649 51.8757 65.6378 51.978C65.7165 52.0075 65.8016 52.0236 65.8906 52.0236C66.2775 52.0236 66.5931 51.7185 66.6099 51.3357C66.6103 51.3251 66.6106 51.3144 66.6106 51.3036C66.6106 51.2031 66.59 51.1075 66.5528 51.0206C66.5461 51.0049 66.5389 50.9896 66.5311 50.9745ZM64.5317 51.7814C64.4791 51.6319 64.4506 51.4711 64.4506 51.3036C64.4506 51.1363 64.4791 50.9756 64.5316 50.8262C64.4509 50.9352 64.3551 51.0325 64.2474 51.1149C64.3848 51.3079 64.4757 51.5363 64.504 51.7837C64.5132 51.7828 64.5224 51.7821 64.5317 51.7814ZM64.3851 52.544C64.1467 52.6346 63.969 52.8482 63.9292 53.1072C63.9237 53.1431 63.9209 53.1798 63.9209 53.2173C63.9209 53.6149 64.2432 53.9373 64.6409 53.9373C64.7045 53.9373 64.7662 53.929 64.8249 53.9135C65.0678 53.8495 65.2605 53.6617 65.3314 53.4217C65.3506 53.3569 65.3609 53.2883 65.3609 53.2173C65.3609 52.8196 65.0385 52.4973 64.6409 52.4973C64.5508 52.4973 64.4646 52.5138 64.3851 52.544ZM65.8668 53.9731C65.6239 54.0372 65.4312 54.2249 65.3603 54.465C65.3411 54.5298 65.3309 54.5984 65.3309 54.6694C65.3309 55.067 65.6532 55.3894 66.0509 55.3894C66.4485 55.3894 66.7709 55.067 66.7709 54.6694C66.7709 54.4745 66.6935 54.2978 66.5678 54.1682C66.4369 54.0332 66.2537 53.9494 66.0509 53.9494C66.0486 53.9494 66.0464 53.9494 66.0441 53.9494C65.9829 53.95 65.9235 53.9582 65.8668 53.9731ZM66.333 53.257C66.4639 53.3919 66.6471 53.4758 66.8499 53.4758C66.8522 53.4758 66.8544 53.4758 66.8567 53.4758C67.2512 53.4722 67.5699 53.1512 67.5699 52.7558C67.5699 52.4471 67.3756 52.1838 67.1027 52.0814C67.024 52.0519 66.9389 52.0358 66.8499 52.0358C66.463 52.0358 66.1474 52.341 66.1306 52.7237C66.1302 52.7344 66.1299 52.7451 66.1299 52.7558C66.1299 52.9506 66.2073 53.1274 66.333 53.257ZM63.785 52.0591C63.7905 52.0232 63.7934 51.9864 63.7934 51.949C63.7934 51.7294 63.6951 51.5329 63.5402 51.4008C63.4901 51.3581 63.434 51.3221 63.3734 51.2943C63.2821 51.2524 63.1805 51.229 63.0734 51.229C62.9726 51.229 62.8767 51.2497 62.7896 51.2871C62.5331 51.3972 62.3534 51.6521 62.3534 51.949C62.3534 52.3466 62.6757 52.669 63.0734 52.669C63.1635 52.669 63.2497 52.6524 63.3292 52.6222C63.5675 52.5316 63.7453 52.3181 63.785 52.0591ZM63.6572 50.6323C63.9137 50.5221 64.0934 50.2672 64.0934 49.9703C64.0934 49.5727 63.771 49.2503 63.3734 49.2503C62.9758 49.2503 62.6534 49.5727 62.6534 49.9703C62.6534 50.1899 62.7517 50.3865 62.9066 50.5185C62.9567 50.5613 63.0128 50.5972 63.0734 50.6251C63.1647 50.667 63.2663 50.6903 63.3734 50.6903C63.4742 50.6903 63.5701 50.6696 63.6572 50.6323ZM65.0511 50.1335C65.1611 50.3904 65.4162 50.5704 65.7133 50.5704C65.7745 50.5704 65.8339 50.5628 65.8906 50.5485C65.9662 50.5293 66.0371 50.4982 66.1011 50.4572C66.2701 50.349 66.391 50.172 66.4242 49.9657C66.4302 49.9282 66.4333 49.8897 66.4333 49.8504C66.4333 49.8406 66.4331 49.8308 66.4327 49.8211C66.4255 49.6402 66.3515 49.4766 66.2348 49.354C66.1891 49.306 66.137 49.2644 66.0797 49.2305C65.9724 49.1669 65.8471 49.1304 65.7133 49.1304C65.4182 49.1304 65.1646 49.308 65.0534 49.5621C65.0148 49.6504 64.9933 49.7479 64.9933 49.8504C64.9933 49.891 64.9967 49.9308 65.0031 49.9695C65.0127 50.0268 65.0289 50.0817 65.0511 50.1335ZM64.5319 49.0269C64.6631 49.1646 64.8482 49.2504 65.0534 49.2504C65.3485 49.2504 65.6022 49.0729 65.7133 48.8187C65.752 48.7305 65.7734 48.6329 65.7734 48.5304C65.7734 48.4898 65.77 48.45 65.7636 48.4113C65.7068 48.0703 65.4105 47.8104 65.0534 47.8104C64.6558 47.8104 64.3334 48.1328 64.3334 48.5304C64.3334 48.7229 64.4089 48.8977 64.5319 49.0269ZM59.6982 54.2946C59.6982 53.4993 60.3429 52.8546 61.1382 52.8546C61.9335 52.8546 62.5782 53.4993 62.5782 54.2946C62.5782 55.0899 61.9335 55.7346 61.1382 55.7346C60.3429 55.7346 59.6982 55.0899 59.6982 54.2946ZM70.6434 42.3876C70.6434 41.5923 71.2881 40.9476 72.0834 40.9476C72.8787 40.9476 73.5234 41.5923 73.5234 42.3876C73.5234 43.1829 72.8787 43.8276 72.0834 43.8276C71.2881 43.8276 70.6434 43.1829 70.6434 42.3876ZM58.5306 48.3123C57.8119 48.3932 57.2534 49.0029 57.2534 49.7432C57.2534 50.5385 57.8981 51.1832 58.6934 51.1832C59.4887 51.1832 60.1334 50.5385 60.1334 49.7432C60.1334 49.0253 59.6081 48.4301 58.9208 48.321C59.6395 48.2401 60.198 47.6304 60.198 46.8901C60.198 46.0948 59.5533 45.4501 58.758 45.4501C57.9627 45.4501 57.318 46.0948 57.318 46.8901C57.318 47.608 57.8433 48.2032 58.5306 48.3123ZM69.5671 49.1589C69.5671 48.3636 70.2118 47.7189 71.0071 47.7189C71.8023 47.7189 72.4471 48.3636 72.4471 49.1589C72.4471 49.9542 71.8023 50.5989 71.0071 50.5989C70.2118 50.5989 69.5671 49.9542 69.5671 49.1589ZM57.0633 42.9921C57.0633 42.1968 57.708 41.5521 58.5033 41.5521C59.1656 41.5521 59.7234 41.9992 59.8915 42.608C59.953 42.6 60.0158 42.5959 60.0795 42.5959C60.8748 42.5959 61.5195 43.2406 61.5195 44.0359C61.5195 44.8312 60.8748 45.4759 60.0795 45.4759C59.4172 45.4759 58.8593 45.0288 58.6913 44.4199C58.6297 44.4279 58.567 44.4321 58.5033 44.4321C57.708 44.4321 57.0633 43.7874 57.0633 42.9921ZM58.6813 43.6899C58.9929 43.6106 59.2233 43.3283 59.2233 42.9921C59.2233 42.9553 59.2205 42.9193 59.2152 42.884C59.1631 42.5376 58.8642 42.2721 58.5033 42.2721C58.1056 42.2721 57.7833 42.5944 57.7833 42.9921C57.7833 43.3897 58.1056 43.7121 58.5033 43.7121C58.5647 43.7121 58.6244 43.7044 58.6813 43.6899ZM59.3676 44.144C59.4197 44.4903 59.7186 44.7559 60.0795 44.7559C60.4772 44.7559 60.7995 44.4335 60.7995 44.0359C60.7995 43.6382 60.4772 43.3159 60.0795 43.3159C60.018 43.3159 59.9584 43.3236 59.9014 43.3381C59.5899 43.4173 59.3595 43.6997 59.3595 44.0359C59.3595 44.0726 59.3623 44.1087 59.3676 44.144ZM60.8619 41.3342C60.8619 40.5389 61.5066 39.8942 62.3019 39.8942C63.0972 39.8942 63.7419 40.5389 63.7419 41.3342C63.7419 42.1295 63.0972 42.7742 62.3019 42.7742C61.5066 42.7742 60.8619 42.1295 60.8619 41.3342ZM61.1382 53.5746C60.7405 53.5746 60.4182 53.897 60.4182 54.2946C60.4182 54.6923 60.7405 55.0146 61.1382 55.0146C61.5358 55.0146 61.8582 54.6923 61.8582 54.2946C61.8582 53.897 61.5358 53.5746 61.1382 53.5746ZM72.0834 41.6676C71.6858 41.6676 71.3634 41.99 71.3634 42.3876C71.3634 42.7852 71.6858 43.1076 72.0834 43.1076C72.4811 43.1076 72.8034 42.7852 72.8034 42.3876C72.8034 41.99 72.4811 41.6676 72.0834 41.6676ZM57.9734 49.7432C57.9734 49.3455 58.2958 49.0232 58.6934 49.0232C59.0911 49.0232 59.4134 49.3455 59.4134 49.7432C59.4134 50.1408 59.0911 50.4632 58.6934 50.4632C58.2958 50.4632 57.9734 50.1408 57.9734 49.7432ZM58.038 46.8901C58.038 46.4925 58.3603 46.1701 58.758 46.1701C59.1556 46.1701 59.478 46.4925 59.478 46.8901C59.478 47.2878 59.1556 47.6101 58.758 47.6101C58.3603 47.6101 58.038 47.2878 58.038 46.8901ZM61.9333 46.2504C61.9333 45.8528 62.2557 45.5304 62.6533 45.5304C63.051 45.5304 63.3733 45.8528 63.3733 46.2504C63.3733 46.6481 63.051 46.9704 62.6533 46.9704C62.2557 46.9704 61.9333 46.6481 61.9333 46.2504ZM71.0071 48.4389C70.6094 48.4389 70.2871 48.7612 70.2871 49.1589C70.2871 49.5565 70.6094 49.8789 71.0071 49.8789C71.4047 49.8789 71.7271 49.5565 71.7271 49.1589C71.7271 48.7612 71.4047 48.4389 71.0071 48.4389ZM62.3019 40.6142C61.9043 40.6142 61.5819 40.9365 61.5819 41.3342C61.5819 41.7318 61.9043 42.0542 62.3019 42.0542C62.6996 42.0542 63.0219 41.7318 63.0219 41.3342C63.0219 40.9365 62.6996 40.6142 62.3019 40.6142ZM67.9652 51.6012C67.9652 51.2035 68.2876 50.8812 68.6852 50.8812C69.0829 50.8812 69.4052 51.2035 69.4052 51.6012C69.4052 51.9988 69.0829 52.3212 68.6852 52.3212C68.2876 52.3212 67.9652 51.9988 67.9652 51.6012ZM66.5534 46.0052C66.1558 46.0052 65.8334 46.3276 65.8334 46.7252C65.8334 47.1228 66.1558 47.4452 66.5534 47.4452C66.9511 47.4452 67.2734 47.1228 67.2734 46.7252C67.2734 46.3276 66.9511 46.0052 66.5534 46.0052ZM60.7513 48.1471C60.7513 47.7494 61.0736 47.4271 61.4713 47.4271C61.8689 47.4271 62.1913 47.7494 62.1913 48.1471C62.1913 48.5447 61.8689 48.8671 61.4713 48.8671C61.0736 48.8671 60.7513 48.5447 60.7513 48.1471ZM68.8335 46.2504C68.8335 45.8528 69.1558 45.5304 69.5535 45.5304C69.9511 45.5304 70.2735 45.8528 70.2735 46.2504C70.2735 46.6481 69.9511 46.9704 69.5535 46.9704C69.1558 46.9704 68.8335 46.6481 68.8335 46.2504Z" fill="#CCB129"/>
<path fill-rule="evenodd" clip-rule="evenodd" d="M25.7407 32.9571C26.0792 33.1656 26.5228 33.0603 26.7313 32.7217C26.9399 32.3832 26.8345 31.9396 26.496 31.7311C26.1574 31.5225 25.7139 31.6279 25.5053 31.9664C25.2967 32.305 25.4021 32.7485 25.7407 32.9571ZM30.6542 34.5498C30.9928 34.7584 31.4363 34.653 31.6449 34.3144C31.7161 34.1988 31.7507 34.071 31.7519 33.9444C32.0421 34.0257 32.3613 33.9171 32.5386 33.6594C32.5946 33.744 32.6694 33.818 32.7614 33.8747C32.8101 33.9048 32.8611 33.9283 32.9132 33.9455C32.8966 33.9667 32.8811 33.989 32.8666 34.0124C32.6581 34.3509 32.7635 34.7945 33.102 35.003C33.4406 35.2116 33.8841 35.1062 34.0927 34.7677C34.3012 34.4291 34.1959 33.9856 33.8573 33.777C33.8085 33.747 33.7576 33.7235 33.7055 33.7062C33.7221 33.685 33.7376 33.6628 33.752 33.6393C33.9606 33.3008 33.8552 32.8573 33.5167 32.6487C33.1886 32.4466 32.7621 32.5392 32.5462 32.8531C32.4902 32.7685 32.4154 32.6945 32.3234 32.6378C31.9849 32.4292 31.5413 32.5346 31.3328 32.8732C31.2615 32.9888 31.2269 33.1166 31.2257 33.2432C30.9242 33.1588 30.5913 33.2793 30.4189 33.5592C30.2103 33.8977 30.3157 34.3412 30.6542 34.5498ZM30.3645 32.6378C30.1559 32.9764 29.7124 33.0817 29.3739 32.8732C29.0353 32.6646 28.9299 32.2211 29.1385 31.8825C29.3471 31.544 29.7906 31.4386 30.1291 31.6472C30.4677 31.8557 30.5731 32.2993 30.3645 32.6378ZM41.7979 33.6285C42.1365 33.837 42.58 33.7316 42.7886 33.3931C42.9971 33.0545 42.8917 32.611 42.5532 32.4024C42.2146 32.1939 41.7711 32.2992 41.5625 32.6378C41.354 32.9764 41.4593 33.4199 41.7979 33.6285ZM28.4905 37.7633C28.282 38.1019 27.8384 38.2073 27.4999 37.9987C27.1613 37.7901 27.0559 37.3466 27.2645 37.0081C27.4731 36.6695 27.9166 36.5641 28.2551 36.7727C28.5937 36.9813 28.6991 37.4248 28.4905 37.7633ZM31.0968 29.8935C31.0258 30.0088 30.9276 30.097 30.8155 30.155C30.8541 30.2537 30.8708 30.3604 30.8637 30.4669C31.0843 30.3429 31.3639 30.3392 31.5946 30.4813C31.9332 30.6899 32.0386 31.1334 31.83 31.472C31.6214 31.8106 31.1779 31.9159 30.8393 31.7074C30.6038 31.5623 30.4811 31.3035 30.4985 31.0454C30.2778 31.1694 29.9983 31.1731 29.7675 31.0309C29.429 30.8224 29.3236 30.3788 29.5322 30.0403C29.6032 29.925 29.7014 29.8368 29.8134 29.7788C29.7339 29.5754 29.7474 29.3385 29.8708 29.1382C30.0793 28.7997 30.5229 28.6943 30.8614 28.9029C31.2 29.1114 31.3054 29.555 31.0968 29.8935ZM35.719 37.3521C36.0575 37.5607 36.501 37.4553 36.7096 37.1168C36.9182 36.7782 36.8128 36.3347 36.4742 36.1261C36.1357 35.9175 35.6922 36.0229 35.4836 36.3615C35.275 36.7 35.3804 37.1436 35.719 37.3521ZM34.4344 36.8786C34.2258 37.2172 33.7823 37.3226 33.4437 37.114C33.1052 36.9054 32.9998 36.4619 33.2083 36.1233C33.4169 35.7848 33.8604 35.6794 34.199 35.888C34.5376 36.0965 34.6429 36.5401 34.4344 36.8786ZM34.3349 31.3205C34.6734 31.5291 35.117 31.4237 35.3255 31.0851C35.5341 30.7466 35.4287 30.303 35.0902 30.0945C34.7516 29.8859 34.3081 29.9913 34.0995 30.3298C33.891 30.6684 33.9963 31.1119 34.3349 31.3205ZM30.0606 27.9626C29.852 28.3012 29.4085 28.4066 29.0699 28.198C28.7314 27.9894 28.626 27.5459 28.8346 27.2074C29.0431 26.8688 29.4867 26.7634 29.8252 26.972C30.1638 27.1806 30.2691 27.6241 30.0606 27.9626ZM34.5634 40.7545C34.3548 41.0931 33.9113 41.1985 33.5728 40.9899C33.2342 40.7813 33.1288 40.3378 33.3374 39.9992C33.5459 39.6607 33.9895 39.5553 34.328 39.7639C34.6666 39.9724 34.772 40.416 34.5634 40.7545ZM32.2469 39.741C32.5855 39.9496 33.029 39.8442 33.2376 39.5056C33.4462 39.1671 33.3408 38.7235 33.0022 38.515C32.6637 38.3064 32.2201 38.4118 32.0116 38.7503C31.803 39.0889 31.9084 39.5324 32.2469 39.741ZM32.8898 31.2055C33.2283 31.414 33.6719 31.3087 33.8804 30.9701C34.089 30.6315 33.9836 30.188 33.6451 29.9794C33.3065 29.7709 32.863 29.8763 32.6544 30.2148C32.4458 30.5534 32.5512 30.9969 32.8898 31.2055ZM38.6225 33.7949C38.4139 34.1334 37.9704 34.2388 37.6318 34.0303C37.2933 33.8217 37.1879 33.3782 37.3965 33.0396C37.605 32.701 38.0486 32.5957 38.3871 32.8042C38.7257 33.0128 38.8311 33.4563 38.6225 33.7949ZM39.4752 38.6224C39.8137 38.831 40.2573 38.7256 40.4658 38.3871C40.6744 38.0485 40.569 37.605 40.2305 37.3964C39.8919 37.1878 39.4484 37.2932 39.2398 37.6318C39.0312 37.9703 39.1366 38.4139 39.4752 38.6224ZM33.0425 28.9365C32.8339 29.2751 32.3904 29.3805 32.0518 29.1719C31.7133 28.9633 31.6079 28.5198 31.8165 28.1812C32.025 27.8427 32.4686 27.7373 32.8071 27.9459C33.1457 28.1544 33.2511 28.598 33.0425 28.9365ZM35.0851 33.5444C35.4237 33.753 35.8672 33.6476 36.0758 33.309C36.2843 32.9705 36.179 32.527 35.8404 32.3184C35.5018 32.1098 35.0583 32.2152 34.8497 32.5538C34.6412 32.8923 34.7465 33.3359 35.0851 33.5444ZM36.9584 35.3546C36.7499 35.6932 36.3063 35.7985 35.9678 35.59C35.6292 35.3814 35.5239 34.9379 35.7324 34.5993C35.941 34.2608 36.3845 34.1554 36.7231 34.3639C37.0616 34.5725 37.167 35.016 36.9584 35.3546ZM38.4845 32.6446C38.8231 32.8532 39.2666 32.7478 39.4752 32.4092C39.6837 32.0707 39.5784 31.6272 39.2398 31.4186C38.9012 31.21 38.4577 31.3154 38.2491 31.654C38.0406 31.9925 38.146 32.4361 38.4845 32.6446ZM32.1995 36.8903C31.991 37.2288 31.5474 37.3342 31.2089 37.1256C30.8703 36.9171 30.7649 36.4735 30.9735 36.135C31.1821 35.7964 31.6256 35.691 31.9642 35.8996C32.3027 36.1082 32.4081 36.5517 32.1995 36.8903ZM28.7527 34.8545C29.0912 35.0631 29.5348 34.9577 29.7433 34.6191C29.9519 34.2806 29.8465 33.837 29.508 33.6285C29.1694 33.4199 28.7259 33.5253 28.5173 33.8638C28.3088 34.2024 28.4141 34.6459 28.7527 34.8545ZM37.6962 29.575C37.4877 29.9135 37.0441 30.0189 36.7056 29.8103C36.367 29.6018 36.2616 29.1582 36.4702 28.8197C36.6788 28.4811 37.1223 28.3757 37.4609 28.5843C37.7994 28.7929 37.9048 29.2364 37.6962 29.575Z" fill="#ECC3D1"/>
<path fill-rule="evenodd" clip-rule="evenodd" d="M30.8532 33.2341C30.832 33.2396 30.811 33.246 30.7903 33.2534C30.6538 33.3022 30.5311 33.3923 30.4428 33.5188C30.4349 33.5301 30.4272 33.5418 30.4199 33.5537C30.4162 33.5597 30.4126 33.5657 30.4092 33.5717C30.2366 33.8705 30.3025 34.2448 30.5529 34.4682C30.5841 34.4961 30.6183 34.5216 30.6552 34.5444C30.9938 34.7529 31.4373 34.6476 31.6459 34.309C31.6481 34.3055 31.6502 34.3019 31.6523 34.2983C31.6852 34.2429 31.7098 34.1847 31.7264 34.1253C31.7436 34.064 31.7523 34.0013 31.7529 33.939C31.8144 33.9562 31.8772 33.9649 31.9397 33.9655C31.9906 33.9659 32.0413 33.961 32.0909 33.9508C32.0967 33.9496 32.1026 33.9484 32.1084 33.947C32.1144 33.9456 32.1204 33.9442 32.1264 33.9426C32.2034 33.9228 32.2771 33.8903 32.3442 33.8459C32.3844 33.8194 32.4221 33.7887 32.4568 33.7538C32.4869 33.7236 32.5147 33.6903 32.5396 33.654C32.5815 33.7173 32.6339 33.7747 32.6963 33.8233C32.7078 33.8324 32.7197 33.8411 32.7319 33.8495C32.7418 33.8563 32.752 33.8629 32.7624 33.8693C32.8111 33.8993 32.8621 33.9228 32.9142 33.9401C32.8976 33.9612 32.8821 33.9835 32.8676 34.007C32.8377 34.0555 32.8143 34.1062 32.7971 34.158C32.7704 34.2382 32.7586 34.3211 32.7608 34.4031C32.7611 34.413 32.7615 34.4228 32.7622 34.4327C32.7774 34.6569 32.8971 34.8707 33.103 34.9976C33.2121 35.0648 33.332 35.0994 33.4514 35.1041C33.5484 35.108 33.6451 35.0921 33.7354 35.0581C33.8792 35.0038 34.0068 34.9032 34.0937 34.7622C34.2424 34.5208 34.2315 34.226 34.0902 34.001C34.0469 33.9321 33.9913 33.8698 33.9244 33.8175C33.9035 33.8012 33.8814 33.7858 33.8583 33.7716C33.8095 33.7415 33.7586 33.718 33.7065 33.7008C33.7231 33.6796 33.7386 33.6573 33.753 33.6339C33.7829 33.5854 33.8064 33.5347 33.8236 33.4829C33.8502 33.4027 33.862 33.3198 33.8599 33.2378C33.8536 33.0029 33.7326 32.7757 33.5177 32.6433C33.3554 32.5433 33.169 32.5154 32.9959 32.5508C32.9061 32.5692 32.8199 32.6046 32.7425 32.6557C32.6676 32.7053 32.6008 32.7696 32.5472 32.8477C32.4975 32.7726 32.433 32.7059 32.3549 32.6522C32.3449 32.6454 32.3348 32.6388 32.3244 32.6324C32.2543 32.5892 32.1796 32.5594 32.1035 32.5425C31.8122 32.4775 31.4991 32.5993 31.3337 32.8677C31.3316 32.8713 31.3294 32.8749 31.3273 32.8784C31.2944 32.9339 31.2698 32.992 31.2532 33.0514C31.236 33.1128 31.2273 33.1754 31.2267 33.2378C31.1652 33.2205 31.1024 33.2118 31.0399 33.2113C30.9768 33.2107 30.914 33.2185 30.8532 33.2341ZM30.4698 32.3193C30.4602 32.4269 30.4261 32.5341 30.3655 32.6324C30.3582 32.6443 30.3505 32.656 30.3426 32.6673C30.2543 32.7939 30.1315 32.8839 29.995 32.9327C29.9387 32.9528 29.88 32.9659 29.8204 32.9716C29.6698 32.9859 29.5135 32.9532 29.3749 32.8677C29.3436 32.8485 29.3142 32.8272 29.287 32.8041C29.0195 32.5781 28.9502 32.1843 29.1395 31.8771C29.2029 31.7741 29.2881 31.6927 29.3855 31.6351C29.3893 31.6329 29.3932 31.6306 29.3971 31.6284C29.5341 31.5508 29.694 31.5197 29.851 31.5413C29.9242 31.5514 29.9967 31.5729 30.066 31.6065C30.0877 31.617 30.1091 31.6288 30.1301 31.6417C30.1464 31.6518 30.1622 31.6623 30.1774 31.6734C30.242 31.7205 30.2966 31.7767 30.3407 31.8392C30.4358 31.9739 30.4816 32.1376 30.4711 32.3012C30.4708 32.3072 30.4703 32.3133 30.4698 32.3193ZM30.8169 31.6869C30.72 31.622 30.6437 31.5373 30.5901 31.4416C30.5221 31.3203 30.4905 31.1813 30.4993 31.0424C30.4994 31.0416 30.4994 31.0408 30.4995 31.04C30.3776 31.1085 30.2377 31.1403 30.098 31.131C29.9886 31.1238 29.8794 31.0914 29.779 31.0318C29.7755 31.0297 29.772 31.0276 29.7685 31.0255C29.683 30.9728 29.6123 30.9051 29.5579 30.8279C29.3968 30.5995 29.3773 30.2879 29.5332 30.0348C29.6042 29.9196 29.7024 29.8313 29.8144 29.7733C29.7349 29.57 29.7484 29.333 29.8718 29.1328C30.0803 28.7942 30.5239 28.6889 30.8624 28.8974C31.1253 29.0594 31.2476 29.363 31.1915 29.6491C31.1764 29.726 31.1485 29.8016 31.1069 29.8728C31.104 29.8779 31.1009 29.883 31.0978 29.8881C31.0268 30.0033 30.9286 30.0916 30.8165 30.1496C30.8551 30.2483 30.8718 30.3549 30.8647 30.4614C30.894 30.4449 30.9245 30.4305 30.9557 30.4183C31.054 30.38 31.1601 30.3634 31.2662 30.3704C31.3692 30.3772 31.4722 30.4064 31.5678 30.4596C31.5736 30.4629 31.5794 30.4662 31.5852 30.4696C31.5887 30.4717 31.5921 30.4738 31.5956 30.4759C31.6966 30.5381 31.7768 30.6212 31.8341 30.7162C31.9101 30.8419 31.9459 30.9885 31.9366 31.135C31.9294 31.2488 31.895 31.3626 31.831 31.4666C31.6766 31.7171 31.3936 31.84 31.1196 31.8024C31.0234 31.7891 30.9283 31.7561 30.8403 31.7019C30.8324 31.697 30.8246 31.692 30.8169 31.6869ZM32.4183 31.8845C32.427 31.8712 32.4356 31.8578 32.444 31.8442C32.4551 31.8261 32.4658 31.8079 32.4761 31.7895C32.4883 31.7975 32.5006 31.8053 32.5131 31.813C32.5636 31.8441 32.6152 31.8717 32.6677 31.8959C32.6297 31.9091 32.5922 31.9238 32.5554 31.9402C32.5103 31.9191 32.4645 31.9005 32.4183 31.8845ZM33.7408 31.9474C33.7923 31.9295 33.843 31.9087 33.8924 31.885C33.9138 31.8999 33.9358 31.9142 33.9582 31.9281C34.0669 31.995 34.1809 32.0458 34.2976 32.081C34.2767 32.1099 34.2567 32.1398 34.2377 32.1707C34.2187 32.2016 34.201 32.2329 34.1846 32.2645C34.1006 32.1762 34.004 32.0972 33.8953 32.0302C33.8449 31.9992 33.7932 31.9716 33.7408 31.9474ZM34.9151 34.2576C34.9651 34.2783 35.0158 34.2959 35.067 34.3106C34.8352 34.7582 34.8608 35.2799 35.1006 35.6942C35.0837 35.7104 35.0672 35.727 35.0511 35.7441C34.9417 35.5649 34.7914 35.4071 34.6038 35.286C34.6406 35.24 34.675 35.1913 34.7067 35.1399C34.8759 34.8652 34.9418 34.556 34.9151 34.2576ZM33.8516 35.776C33.971 35.7808 34.091 35.8154 34.2 35.8825C34.5386 36.0911 34.6439 36.5346 34.4354 36.8732C34.2268 37.2117 33.7833 37.3171 33.4447 37.1086C33.1062 36.9 33.0008 36.4565 33.2093 36.1179C33.2962 35.9769 33.4238 35.8764 33.5676 35.8221C33.6579 35.788 33.7546 35.7722 33.8516 35.776ZM32.7095 37.41C32.808 37.5299 32.9276 37.6357 33.0671 37.7216C33.6585 38.0859 34.4101 37.9712 34.8688 37.4851C34.9833 37.6726 35.1425 37.8366 35.3423 37.9597C36.0194 38.3769 36.9065 38.1661 37.3236 37.489C37.6114 37.0218 37.6003 36.4548 37.3434 36.011C37.4296 35.9282 37.5069 35.8333 37.5725 35.7268C37.7437 35.4488 37.8091 35.1354 37.7799 34.8336C38.3382 34.9239 38.9214 34.6786 39.2365 34.1671C39.395 33.9099 39.4628 33.6223 39.4489 33.3418C39.7052 33.228 39.931 33.0383 40.0892 32.7815C40.5063 32.1043 40.2956 31.2173 39.6184 30.8001C38.9413 30.383 38.0543 30.5938 37.6371 31.2709C37.4787 31.5281 37.4108 31.8156 37.4247 32.0962C37.2042 32.1941 37.0063 32.3482 36.8546 32.5529C36.7627 32.2102 36.5449 31.9007 36.219 31.6999C36.1104 31.633 35.9963 31.5822 35.8797 31.547C35.9006 31.5181 35.9205 31.4882 35.9396 31.4573C36.179 31.0687 36.2116 30.6108 36.0678 30.2124C36.145 30.2892 36.2322 30.3583 36.3289 30.4179C37.006 30.835 37.8931 30.6243 38.3102 29.9472C38.7274 29.2701 38.5166 28.383 37.8395 27.9659C37.1624 27.5487 36.2753 27.7595 35.8582 28.4366C35.6187 28.8253 35.5862 29.2831 35.73 29.6816C35.6527 29.6048 35.5655 29.5356 35.4688 29.476C35.0357 29.2092 34.5166 29.1993 34.0896 29.4041C34.0681 29.3892 34.0462 29.3748 34.0237 29.361C33.9228 29.2988 33.8172 29.2506 33.7092 29.2158C34.0536 28.5525 33.8323 27.7257 33.1858 27.3274C32.5086 26.9103 31.6216 27.1211 31.2044 27.7982C31.1292 27.9203 31.0744 28.0493 31.039 28.1812C30.9577 28.1471 30.8745 28.1211 30.7904 28.1028C31.0393 27.4668 30.8059 26.7244 30.2038 26.3535C29.5267 25.9364 28.6397 26.1472 28.2225 26.8243C27.8054 27.5014 28.0162 28.3885 28.6933 28.8056C28.836 28.8935 28.988 28.9535 29.143 28.9872C29.0798 29.1488 29.0478 29.3172 29.0449 29.4845C28.9997 29.5382 28.9579 29.5958 28.9201 29.6572C28.6387 30.1141 28.6431 30.6666 28.8838 31.1058C28.7451 31.2106 28.6232 31.3425 28.5265 31.4994C28.2453 31.9559 28.2494 32.5078 28.4894 32.9468C28.2564 33.0626 28.0518 33.2429 27.9053 33.4808C27.4882 34.1579 27.6989 35.0449 28.376 35.4621C29.0004 35.8467 29.8033 35.6975 30.2516 35.141C30.2602 35.1466 30.2689 35.152 30.2776 35.1574C30.4245 35.2479 30.5812 35.3088 30.7409 35.3419C30.5931 35.4492 30.4633 35.5867 30.3615 35.7519C29.9444 36.429 30.1551 37.3161 30.8322 37.7332C31.1396 37.9225 31.4902 37.9825 31.8204 37.9282C31.6553 38.0394 31.5107 38.1868 31.3995 38.3673C30.9824 39.0444 31.1932 39.9314 31.8703 40.3486C32.0751 40.4748 32.2992 40.5435 32.5236 40.5592C32.5784 40.9737 32.8124 41.3611 33.1961 41.5975C33.8732 42.0146 34.7603 41.8038 35.1774 41.1267C35.5946 40.4496 35.3838 39.5625 34.7067 39.1454C34.5018 39.0192 34.2778 38.9505 34.0533 38.9348C33.9985 38.5202 33.7646 38.1329 33.3809 37.8965C33.0735 37.7072 32.7229 37.6472 32.3926 37.7015C32.5102 37.6223 32.6174 37.5248 32.7095 37.41ZM33.3434 39.0659C33.3551 39.213 33.3219 39.365 33.2386 39.5002C33.1681 39.6146 33.0707 39.7024 32.9597 39.7605C32.8525 39.8165 32.7326 39.8447 32.6118 39.8425C32.4872 39.8403 32.3617 39.8056 32.2479 39.7356C31.9094 39.527 31.804 39.0835 32.0126 38.7449C32.2211 38.4064 32.6647 38.301 33.0032 38.5095C33.2065 38.6348 33.3258 38.8448 33.3434 39.0659ZM33.9652 39.6515C34.0897 39.6537 34.2153 39.6884 34.329 39.7584C34.6676 39.967 34.773 40.4105 34.5644 40.7491C34.3558 41.0876 33.9123 41.193 33.5737 40.9844C33.3704 40.8592 33.2512 40.6492 33.2336 40.4281C33.2219 40.281 33.2551 40.129 33.3384 39.9938C33.4089 39.8793 33.5062 39.7915 33.6173 39.7335C33.7244 39.6775 33.8443 39.6493 33.9652 39.6515ZM31.8795 35.0967C31.9686 35.032 32.0512 34.9563 32.125 34.8703C32.1795 35.0227 32.2597 35.1665 32.364 35.2945C32.357 35.29 32.3499 35.2855 32.3428 35.2812C32.1959 35.1907 32.0392 35.1297 31.8795 35.0967ZM29.755 34.5957C29.7516 34.6018 29.748 34.6077 29.7443 34.6137C29.5358 34.9522 29.0922 35.0576 28.7537 34.8491C28.4151 34.6405 28.3097 34.197 28.5183 33.8584C28.6414 33.6585 28.8465 33.5399 29.0634 33.5192C29.214 33.5048 29.3703 33.5376 29.509 33.623C29.5403 33.6423 29.5696 33.6636 29.5968 33.6866C29.6017 33.6908 29.6066 33.695 29.6113 33.6992C29.8617 33.9226 29.9276 34.2969 29.755 34.5957ZM32.5497 30.541C32.5569 30.4271 32.5914 30.3133 32.6554 30.2094C32.8373 29.9142 33.1977 29.7963 33.5115 29.9091C33.5576 29.9257 33.6027 29.9473 33.6461 29.974C33.7333 30.0277 33.805 30.0971 33.8599 30.1762C34.0181 30.4041 34.0363 30.7133 33.8814 30.9647C33.7706 31.1445 33.5935 31.2586 33.401 31.2947C33.2312 31.3266 33.0495 31.2978 32.8908 31.2C32.7898 31.1378 32.7096 31.0548 32.6522 30.9598C32.5763 30.834 32.5405 30.6875 32.5497 30.541ZM34.581 29.9944C34.7508 29.9625 34.9325 29.9913 35.0912 30.089C35.4297 30.2976 35.5351 30.7411 35.3265 31.0797C35.1447 31.3749 34.7842 31.4928 34.4705 31.3799C34.4244 31.3633 34.3793 31.3418 34.3359 31.3151C34.2487 31.2613 34.1769 31.192 34.122 31.1129C33.9639 30.8849 33.9457 30.5757 34.1005 30.3244C34.2113 30.1445 34.3885 30.0305 34.581 29.9944ZM37.6434 32.7922C37.8659 32.6607 38.152 32.6537 38.3874 32.7984C38.3877 32.7985 38.3879 32.7987 38.3881 32.7988C38.6235 32.9438 38.7461 33.2023 38.729 33.4602C38.7215 33.5733 38.6871 33.6863 38.6235 33.7894C38.4149 34.128 37.9714 34.2334 37.6328 34.0248C37.2943 33.8162 37.1889 33.3727 37.3975 33.0342C37.4609 32.9312 37.5461 32.8498 37.6434 32.7922ZM38.1446 31.9777C38.1522 31.8647 38.1866 31.7517 38.2501 31.6485C38.4587 31.31 38.9022 31.2046 39.2408 31.4132C39.5794 31.6217 39.6847 32.0653 39.4762 32.4038C39.4127 32.5068 39.3275 32.5882 39.2302 32.6458C39.0077 32.7773 38.7216 32.7843 38.4862 32.6396C38.486 32.6395 38.4857 32.6393 38.4855 32.6392C38.2501 32.4942 38.1275 32.2356 38.1446 31.9777ZM36.8375 35.4983C36.6063 35.7141 36.2511 35.7584 35.9688 35.5845C35.8669 35.5218 35.7862 35.4378 35.7287 35.3417C35.5952 35.1186 35.5876 34.8306 35.7334 34.5939C35.942 34.2553 36.3855 34.1499 36.7241 34.3585C37.0626 34.5671 37.168 35.0106 36.9594 35.3492C36.9248 35.4054 36.8836 35.4553 36.8375 35.4983ZM36.7153 36.3635C36.8488 36.5866 36.8564 36.8746 36.7106 37.1113C36.502 37.4499 36.0585 37.5553 35.72 37.3467C35.3814 37.1381 35.276 36.6946 35.4846 36.356C35.5193 36.2998 35.5604 36.2499 35.6065 36.2069C35.8377 35.9911 36.193 35.9468 36.4752 36.1207C36.5771 36.1834 36.6579 36.2674 36.7153 36.3635ZM25.364 33.5647C26.0411 33.9818 26.9282 33.771 27.3453 33.0939C27.7625 32.4168 27.5517 31.5297 26.8746 31.1126C26.1975 30.6955 25.3104 30.9062 24.8933 31.5833C24.4761 32.2605 24.6869 33.1475 25.364 33.5647ZM41.4212 34.236C42.0984 34.6532 42.9854 34.4424 43.4026 33.7653C43.8197 33.0882 43.6089 32.2011 42.9318 31.784C42.2547 31.3668 41.3676 31.5776 40.9505 32.2547C40.5334 32.9318 40.7441 33.8189 41.4212 34.236ZM27.1232 38.6063C27.8003 39.0234 28.6874 38.8127 29.1045 38.1356C29.5217 37.4584 29.3109 36.5714 28.6338 36.1542C27.9567 35.7371 27.0696 35.9479 26.6525 36.625C26.2353 37.3021 26.4461 38.1892 27.1232 38.6063ZM39.0985 39.23C39.7756 39.6471 40.6627 39.4364 41.0798 38.7593C41.497 38.0822 41.2862 37.1951 40.6091 36.778C39.932 36.3608 39.0449 36.5716 38.6278 37.2487C38.2106 37.9258 38.4214 38.8129 39.0985 39.23ZM26.7323 32.7163C26.5237 33.0548 26.0802 33.1602 25.7417 32.9516C25.4031 32.7431 25.2977 32.2995 25.5063 31.961C25.7149 31.6224 26.1584 31.5171 26.4969 31.7256C26.8355 31.9342 26.9409 32.3777 26.7323 32.7163ZM42.7895 33.3876C42.581 33.7262 42.1374 33.8316 41.7989 33.623C41.4603 33.4144 41.355 32.9709 41.5635 32.6324C41.7721 32.2938 42.2156 32.1884 42.5542 32.397C42.8927 32.6056 42.9981 33.0491 42.7895 33.3876ZM27.5009 37.9933C27.8394 38.2018 28.2829 38.0965 28.4915 37.7579C28.7001 37.4194 28.5947 36.9758 28.2561 36.7673C27.9176 36.5587 27.4741 36.6641 27.2655 37.0026C27.0569 37.3412 27.1623 37.7847 27.5009 37.9933ZM29.0709 28.1926C29.4095 28.4011 29.853 28.2958 30.0616 27.9572C30.2701 27.6186 30.1648 27.1751 29.8262 26.9666C29.4876 26.758 29.0441 26.8634 28.8355 27.2019C28.627 27.5405 28.7324 27.984 29.0709 28.1926ZM40.4668 38.3816C40.2583 38.7202 39.8147 38.8256 39.4762 38.617C39.1376 38.4084 39.0322 37.9649 39.2408 37.6263C39.4494 37.2878 39.8929 37.1824 40.2315 37.391C40.57 37.5995 40.6754 38.0431 40.4668 38.3816ZM32.0528 29.1665C32.3914 29.375 32.8349 29.2697 33.0435 28.9311C33.252 28.5925 33.1467 28.149 32.8081 27.9404C32.4696 27.7319 32.026 27.8373 31.8175 28.1758C31.6089 28.5144 31.7143 28.9579 32.0528 29.1665ZM36.0768 33.3036C35.8682 33.6422 35.4247 33.7475 35.0861 33.539C34.7475 33.3304 34.6422 32.8869 34.8507 32.5483C35.0593 32.2098 35.5028 32.1044 35.8414 32.313C36.1799 32.5215 36.2853 32.9651 36.0768 33.3036ZM31.2099 37.1202C31.5484 37.3288 31.992 37.2234 32.2005 36.8848C32.4091 36.5463 32.3037 36.1027 31.9652 35.8942C31.6266 35.6856 31.1831 35.791 30.9745 36.1295C30.7659 36.4681 30.8713 36.9116 31.2099 37.1202ZM36.7066 29.8049C37.0451 30.0135 37.4887 29.9081 37.6972 29.5695C37.9058 29.231 37.8004 28.7874 37.4618 28.5789C37.1233 28.3703 36.6798 28.4757 36.4712 28.8142C36.2626 29.1528 36.368 29.5963 36.7066 29.8049Z" fill="#FF337C"/>
</svg>
