<svg width="95" height="95" viewBox="0 0 95 95" fill="none" xmlns="http://www.w3.org/2000/svg">
<path d="M12.7132 23.75C12.2503 23.75 11.875 24.1253 11.875 24.5882C11.875 25.0512 12.2503 25.4265 12.7132 25.4265H81.4485C81.9115 25.4265 82.2868 25.0512 82.2868 24.5882C82.2868 24.1253 81.9115 23.75 81.4485 23.75H12.7132Z" fill="#D5E4F6"/>
<path d="M12.7132 30.4559C12.2503 30.4559 11.875 30.8312 11.875 31.2941C11.875 31.7571 12.2503 32.1324 12.7132 32.1324H81.4485C81.9115 32.1324 82.2868 31.7571 82.2868 31.2941C82.2868 30.8312 81.9115 30.4559 81.4485 30.4559H12.7132Z" fill="#D5E4F6"/>
<path d="M11.875 38C11.875 37.5371 12.2503 37.1618 12.7132 37.1618H81.4485C81.9115 37.1618 82.2868 37.5371 82.2868 38C82.2868 38.4629 81.9115 38.8382 81.4485 38.8382H12.7132C12.2503 38.8382 11.875 38.4629 11.875 38Z" fill="#D5E4F6"/>
<path d="M12.7132 43.8676C12.2503 43.8676 11.875 44.2429 11.875 44.7059C11.875 45.1688 12.2503 45.5441 12.7132 45.5441H81.4485C81.9115 45.5441 82.2868 45.1688 82.2868 44.7059C82.2868 44.2429 81.9115 43.8676 81.4485 43.8676H12.7132Z" fill="#D5E4F6"/>
<path d="M11.875 51.4118C11.875 50.9488 12.2503 50.5735 12.7132 50.5735H81.4485C81.9115 50.5735 82.2868 50.9488 82.2868 51.4118C82.2868 51.8747 81.9115 52.25 81.4485 52.25H12.7132C12.2503 52.25 11.875 51.8747 11.875 51.4118Z" fill="#D5E4F6"/>
<path d="M12.7132 57.2794C12.2503 57.2794 11.875 57.6547 11.875 58.1176C11.875 58.5806 12.2503 58.9559 12.7132 58.9559H81.4485C81.9115 58.9559 82.2868 58.5806 82.2868 58.1176C82.2868 57.6547 81.9115 57.2794 81.4485 57.2794H12.7132Z" fill="#D5E4F6"/>
<path d="M11.875 64.8235C11.875 64.3606 12.2503 63.9853 12.7132 63.9853H81.4485C81.9115 63.9853 82.2868 64.3606 82.2868 64.8235C82.2868 65.2865 81.9115 65.6618 81.4485 65.6618H12.7132C12.2503 65.6618 11.875 65.2865 11.875 64.8235Z" fill="#D5E4F6"/>
<path d="M12.7132 70.6912C12.2503 70.6912 11.875 71.0665 11.875 71.5294C11.875 71.9924 12.2503 72.3676 12.7132 72.3676H81.4485C81.9115 72.3676 82.2868 71.9924 82.2868 71.5294C82.2868 71.0665 81.9115 70.6912 81.4485 70.6912H12.7132Z" fill="#D5E4F6"/>
<path d="M61.435 42.5991C61.176 42.5293 60.8994 42.6033 60.7097 42.793L46.6495 56.8532C46.1769 57.3258 45.4778 57.4908 44.8436 57.2795L29.0706 52.0218C28.7453 51.9134 28.3879 52.0394 28.2025 52.3279C24.5839 57.9595 17.3767 70.3365 16.8036 71.4828C16.3678 72.3545 15.3077 72.7078 14.436 72.272L14.1006 72.9428L14.436 72.2719C13.5643 71.8361 13.211 70.7761 13.6468 69.9044C14.3562 68.4856 23.2278 53.2714 26.3446 48.7379C26.7901 48.0899 27.6107 47.8148 28.3568 48.0635L44.4853 53.4397C44.7548 53.5295 45.0519 53.4594 45.2528 53.2585L59.2421 39.2692C59.6884 38.8229 60.3392 38.649 60.9487 38.8131L82.7428 44.6807C83.6839 44.9341 84.2414 45.9024 83.9881 46.8435C83.7347 47.7846 82.7664 48.3421 81.8253 48.0888L61.435 42.5991Z" fill="#1A487F" stroke="#F5F8FF" stroke-width="1.5" stroke-linecap="round" stroke-linejoin="round"/>
<path d="M45.5043 41.0219C45.3477 40.8355 45.1105 40.7367 44.8679 40.7569C44.6253 40.7771 44.4076 40.9137 44.284 41.1233L26.8101 70.753C26.5329 71.2231 26.0537 71.5384 25.5123 71.6072C24.9709 71.6759 24.4281 71.4903 24.0422 71.1044L12.3069 59.3691C11.6177 58.6799 11.6177 57.5626 12.3069 56.8734C12.9961 56.1842 14.1134 56.1842 14.8026 56.8734L24.2426 66.3134C24.4066 66.4774 24.6373 66.5563 24.8674 66.5271C25.0975 66.4979 25.3011 66.3638 25.4189 66.164L43.0494 36.2689C43.3403 35.7756 43.8526 35.4541 44.4233 35.4067C44.9941 35.3593 45.5523 35.5918 45.9207 36.0303L61.3254 54.3693C61.4788 54.5519 61.7099 54.6507 61.9479 54.6353C62.1859 54.62 62.4024 54.4924 62.5311 54.2916L81.6426 24.4777C82.1686 23.6572 83.2601 23.4184 84.0806 23.9444C84.9011 24.4704 85.1399 25.5619 84.6139 26.3824L63.6581 59.0736C63.3552 59.546 62.8458 59.8462 62.2858 59.8823C61.7258 59.9184 61.1821 59.6859 60.8211 59.2563L45.5043 41.0219Z" fill="#80AEE5" stroke="#F5F8FF" stroke-width="1.5" stroke-linecap="round" stroke-linejoin="round"/>
</svg>
