<svg width="95" height="95" viewBox="0 0 95 95" fill="none" xmlns="http://www.w3.org/2000/svg">
<path d="M45.6169 81.1506V81.6506H46.1169H51.3702H51.8702V81.1506V73.9271C51.8702 73.1152 52.5284 72.457 53.3403 72.457C54.1521 72.457 54.8103 73.1152 54.8103 73.9271V81.1506V81.6506H55.3103H64.1756C64.9875 81.6506 65.6456 82.3087 65.6456 83.1206C65.6456 83.9325 64.9875 84.5907 64.1756 84.5907H32.6549C31.843 84.5907 31.1848 83.9325 31.1848 83.1206C31.1848 82.3087 31.843 81.6506 32.6549 81.6506H42.1768H42.6768V81.1506V73.9271C42.6768 73.1152 43.3349 72.457 44.1468 72.457C44.9587 72.457 45.6169 73.1152 45.6169 73.9271V81.1506Z" fill="#1A1A1A" stroke="#F5F8FF" stroke-linecap="round"/>
<path d="M61.8895 50.4612H62.3895V49.9612V42.081C62.3895 41.2691 63.0477 40.6109 63.8596 40.6109C64.6714 40.6109 65.3296 41.2691 65.3296 42.081V58.4981C65.3296 67.6515 57.9093 75.0718 48.7559 75.0718C39.6024 75.0718 32.1821 67.6515 32.1821 58.498V26.9773C32.1821 17.8239 39.6024 10.4036 48.7559 10.4036C57.9093 10.4036 65.3296 17.8239 65.3296 26.9773V29.604C65.3296 30.4159 64.6714 31.0741 63.8596 31.0741C63.0477 31.0741 62.3895 30.4159 62.3895 29.604V26.9773C62.3895 19.4476 56.2855 13.3437 48.7559 13.3437C41.2262 13.3437 35.1222 19.4477 35.1222 26.9773V49.9612V50.4612H35.6222H61.8895ZM35.6222 53.4013H35.1222V53.9013V58.498C35.1222 66.0277 41.2262 72.1317 48.7559 72.1317C56.2855 72.1317 62.3895 66.0277 62.3895 58.4981V53.9013V53.4013H61.8895H35.6222Z" fill="#1A1A1A" stroke="#F5F8FF" stroke-linecap="round"/>
<rect x="47.5" y="57" width="4.75" height="4.75" rx="2.375" fill="#1A1A1A"/>
<path d="M45.7904 19.0983C46.3344 19.0983 46.7754 18.6573 46.7754 18.1133C46.7754 17.5693 46.3344 17.1283 45.7904 17.1283C45.2464 17.1283 44.8054 17.5693 44.8054 18.1133C44.8054 18.6573 45.2464 19.0983 45.7904 19.0983Z" fill="#AAC9EE"/>
<path d="M45.7904 23.6951C46.3344 23.6951 46.7754 23.2541 46.7754 22.7101C46.7754 22.1661 46.3344 21.7251 45.7904 21.7251C45.2464 21.7251 44.8054 22.1661 44.8054 22.7101C44.8054 23.2541 45.2464 23.6951 45.7904 23.6951Z" fill="#AAC9EE"/>
<path d="M46.7754 27.3069C46.7754 27.8509 46.3344 28.2919 45.7904 28.2919C45.2464 28.2919 44.8054 27.8509 44.8054 27.3069C44.8054 26.7629 45.2464 26.3218 45.7904 26.3218C46.3344 26.3218 46.7754 26.7629 46.7754 27.3069Z" fill="#AAC9EE"/>
<path d="M45.7904 32.8887C46.3344 32.8887 46.7754 32.4477 46.7754 31.9037C46.7754 31.3596 46.3344 30.9186 45.7904 30.9186C45.2464 30.9186 44.8054 31.3596 44.8054 31.9037C44.8054 32.4477 45.2464 32.8887 45.7904 32.8887Z" fill="#AAC9EE"/>
<path d="M46.7754 36.5004C46.7754 37.0444 46.3344 37.4854 45.7904 37.4854C45.2464 37.4854 44.8054 37.0444 44.8054 36.5004C44.8054 35.9564 45.2464 35.5154 45.7904 35.5154C46.3344 35.5154 46.7754 35.9564 46.7754 36.5004Z" fill="#AAC9EE"/>
<path d="M45.7904 42.0822C46.3344 42.0822 46.7754 41.6412 46.7754 41.0972C46.7754 40.5532 46.3344 40.1122 45.7904 40.1122C45.2464 40.1122 44.8054 40.5532 44.8054 41.0972C44.8054 41.6412 45.2464 42.0822 45.7904 42.0822Z" fill="#AAC9EE"/>
<path d="M46.7754 45.694C46.7754 46.238 46.3344 46.679 45.7904 46.679C45.2464 46.679 44.8054 46.238 44.8054 45.694C44.8054 45.1499 45.2464 44.7089 45.7904 44.7089C46.3344 44.7089 46.7754 45.1499 46.7754 45.694Z" fill="#AAC9EE"/>
<path d="M39.8803 23.6951C40.4243 23.6951 40.8653 23.2541 40.8653 22.7101C40.8653 22.1661 40.4243 21.7251 39.8803 21.7251C39.3363 21.7251 38.8953 22.1661 38.8953 22.7101C38.8953 23.2541 39.3363 23.6951 39.8803 23.6951Z" fill="#AAC9EE"/>
<path d="M40.8653 27.3069C40.8653 27.8509 40.4243 28.2919 39.8803 28.2919C39.3363 28.2919 38.8953 27.8509 38.8953 27.3069C38.8953 26.7629 39.3363 26.3218 39.8803 26.3218C40.4243 26.3218 40.8653 26.7629 40.8653 27.3069Z" fill="#AAC9EE"/>
<path d="M39.8803 32.8887C40.4243 32.8887 40.8653 32.4477 40.8653 31.9037C40.8653 31.3596 40.4243 30.9186 39.8803 30.9186C39.3363 30.9186 38.8953 31.3596 38.8953 31.9037C38.8953 32.4477 39.3363 32.8887 39.8803 32.8887Z" fill="#AAC9EE"/>
<path d="M40.8653 36.5004C40.8653 37.0444 40.4243 37.4854 39.8803 37.4854C39.3363 37.4854 38.8953 37.0444 38.8953 36.5004C38.8953 35.9564 39.3363 35.5154 39.8803 35.5154C40.4243 35.5154 40.8653 35.9564 40.8653 36.5004Z" fill="#AAC9EE"/>
<path d="M39.8803 42.0822C40.4243 42.0822 40.8653 41.6412 40.8653 41.0972C40.8653 40.5532 40.4243 40.1122 39.8803 40.1122C39.3363 40.1122 38.8953 40.5532 38.8953 41.0972C38.8953 41.6412 39.3363 42.0822 39.8803 42.0822Z" fill="#AAC9EE"/>
<path d="M40.8653 45.694C40.8653 46.238 40.4243 46.679 39.8803 46.679C39.3363 46.679 38.8953 46.238 38.8953 45.694C38.8953 45.1499 39.3363 44.7089 39.8803 44.7089C40.4243 44.7089 40.8653 45.1499 40.8653 45.694Z" fill="#AAC9EE"/>
<path d="M51.7006 19.0983C52.2446 19.0983 52.6856 18.6573 52.6856 18.1133C52.6856 17.5693 52.2446 17.1283 51.7006 17.1283C51.1566 17.1283 50.7155 17.5693 50.7155 18.1133C50.7155 18.6573 51.1566 19.0983 51.7006 19.0983Z" fill="#AAC9EE"/>
<path d="M52.6856 22.7101C52.6856 23.2541 52.2446 23.6951 51.7006 23.6951C51.1566 23.6951 50.7155 23.2541 50.7155 22.7101C50.7155 22.1661 51.1566 21.7251 51.7006 21.7251C52.2446 21.7251 52.6856 22.1661 52.6856 22.7101Z" fill="#AAC9EE"/>
<path d="M51.7006 28.2919C52.2446 28.2919 52.6856 27.8509 52.6856 27.3069C52.6856 26.7629 52.2446 26.3218 51.7006 26.3218C51.1566 26.3218 50.7155 26.7629 50.7155 27.3069C50.7155 27.8509 51.1566 28.2919 51.7006 28.2919Z" fill="#AAC9EE"/>
<path d="M52.6856 31.9037C52.6856 32.4477 52.2446 32.8887 51.7006 32.8887C51.1566 32.8887 50.7155 32.4477 50.7155 31.9037C50.7155 31.3596 51.1566 30.9186 51.7006 30.9186C52.2446 30.9186 52.6856 31.3596 52.6856 31.9037Z" fill="#AAC9EE"/>
<path d="M51.7006 37.4854C52.2446 37.4854 52.6856 37.0444 52.6856 36.5004C52.6856 35.9564 52.2446 35.5154 51.7006 35.5154C51.1566 35.5154 50.7155 35.9564 50.7155 36.5004C50.7155 37.0444 51.1566 37.4854 51.7006 37.4854Z" fill="#AAC9EE"/>
<path d="M52.6856 41.0972C52.6856 41.6412 52.2446 42.0822 51.7006 42.0822C51.1566 42.0822 50.7155 41.6412 50.7155 41.0972C50.7155 40.5532 51.1566 40.1122 51.7006 40.1122C52.2446 40.1122 52.6856 40.5532 52.6856 41.0972Z" fill="#AAC9EE"/>
<path d="M51.7006 46.679C52.2446 46.679 52.6856 46.238 52.6856 45.694C52.6856 45.1499 52.2446 44.7089 51.7006 44.7089C51.1566 44.7089 50.7155 45.1499 50.7155 45.694C50.7155 46.238 51.1566 46.679 51.7006 46.679Z" fill="#AAC9EE"/>
<path d="M58.5957 22.7101C58.5957 23.2541 58.1547 23.6951 57.6107 23.6951C57.0667 23.6951 56.6257 23.2541 56.6257 22.7101C56.6257 22.1661 57.0667 21.7251 57.6107 21.7251C58.1547 21.7251 58.5957 22.1661 58.5957 22.7101Z" fill="#AAC9EE"/>
<path d="M57.6107 28.2919C58.1547 28.2919 58.5957 27.8509 58.5957 27.3069C58.5957 26.7629 58.1547 26.3218 57.6107 26.3218C57.0667 26.3218 56.6257 26.7629 56.6257 27.3069C56.6257 27.8509 57.0667 28.2919 57.6107 28.2919Z" fill="#AAC9EE"/>
<path d="M58.5957 31.9037C58.5957 32.4477 58.1547 32.8887 57.6107 32.8887C57.0667 32.8887 56.6257 32.4477 56.6257 31.9037C56.6257 31.3596 57.0667 30.9186 57.6107 30.9186C58.1547 30.9186 58.5957 31.3596 58.5957 31.9037Z" fill="#AAC9EE"/>
<path d="M57.6107 37.4854C58.1547 37.4854 58.5957 37.0444 58.5957 36.5004C58.5957 35.9564 58.1547 35.5154 57.6107 35.5154C57.0667 35.5154 56.6257 35.9564 56.6257 36.5004C56.6257 37.0444 57.0667 37.4854 57.6107 37.4854Z" fill="#AAC9EE"/>
<path d="M58.5957 41.0972C58.5957 41.6412 58.1547 42.0822 57.6107 42.0822C57.0667 42.0822 56.6257 41.6412 56.6257 41.0972C56.6257 40.5532 57.0667 40.1122 57.6107 40.1122C58.1547 40.1122 58.5957 40.5532 58.5957 41.0972Z" fill="#AAC9EE"/>
<path d="M57.6107 46.679C58.1547 46.679 58.5957 46.238 58.5957 45.694C58.5957 45.1499 58.1547 44.7089 57.6107 44.7089C57.0667 44.7089 56.6257 45.1499 56.6257 45.694C56.6257 46.238 57.0667 46.679 57.6107 46.679Z" fill="#AAC9EE"/>
</svg>
