<svg width="96" height="96" viewBox="0 0 96 96" fill="none" xmlns="http://www.w3.org/2000/svg">
<path d="M14.53 81.12C14.53 81.3133 14.6867 81.47 14.88 81.47H82.56C83.162 81.47 83.65 81.958 83.65 82.56C83.65 83.162 83.162 83.65 82.56 83.65H13.44C12.838 83.65 12.35 83.162 12.35 82.56V13.44C12.35 12.838 12.838 12.35 13.44 12.35C14.042 12.35 14.53 12.838 14.53 13.44V81.12Z" fill="#1A1A1A" stroke="#F5F8FF" stroke-width="0.7" stroke-linecap="round" stroke-linejoin="round"/>
<path fill-rule="evenodd" clip-rule="evenodd" d="M82.1335 76.3829C82.6959 75.8206 82.6959 74.9088 82.1335 74.3465L21.6535 13.8665C21.0912 13.3041 20.1794 13.3041 19.6171 13.8665C19.0547 14.4288 19.0547 15.3406 19.6171 15.9029L80.0971 76.3829C80.6594 76.9453 81.5712 76.9453 82.1335 76.3829Z" fill="#AAC9EE"/>
<mask id="path-3-outside-1_333_28722" maskUnits="userSpaceOnUse" x="17" y="40.1562" width="43" height="35" fill="black">
<rect fill="white" x="17" y="40.1562" width="43" height="35"/>
<path fill-rule="evenodd" clip-rule="evenodd" d="M40.5572 41.8763C40.5572 42.2739 40.2348 42.5963 39.8372 42.5963C39.4395 42.5963 39.1172 42.2739 39.1172 41.8763C39.1172 41.4786 39.4395 41.1562 39.8372 41.1562C40.2348 41.1562 40.5572 41.4786 40.5572 41.8763ZM39.1275 56.2786C39.1275 56.6762 38.8051 56.9986 38.4075 56.9986C38.0099 56.9986 37.6875 56.6762 37.6875 56.2786C37.6875 55.881 38.0099 55.5586 38.4075 55.5586C38.8051 55.5586 39.1275 55.881 39.1275 56.2786ZM31.1888 72.8306C31.5864 72.8306 31.9088 72.5083 31.9088 72.1106C31.9088 71.713 31.5864 71.3906 31.1888 71.3906C30.7911 71.3906 30.4688 71.713 30.4688 72.1106C30.4688 72.5083 30.7911 72.8306 31.1888 72.8306ZM23.2838 73.552C23.2838 73.9497 22.9614 74.272 22.5638 74.272C22.1661 74.272 21.8438 73.9497 21.8438 73.552C21.8438 73.1544 22.1661 72.832 22.5638 72.832C22.9614 72.832 23.2838 73.1544 23.2838 73.552ZM54.2513 67.0767C54.6489 67.0767 54.9713 66.7544 54.9713 66.3567C54.9713 65.9591 54.6489 65.6367 54.2513 65.6367C53.8536 65.6367 53.5313 65.9591 53.5313 66.3567C53.5313 66.7544 53.8536 67.0767 54.2513 67.0767ZM36.2447 49.0716C36.2447 49.4692 35.9223 49.7916 35.5247 49.7916C35.127 49.7916 34.8047 49.4692 34.8047 49.0716C34.8047 48.6739 35.127 48.3516 35.5247 48.3516C35.9223 48.3516 36.2447 48.6739 36.2447 49.0716ZM45.6028 58.44C46.0005 58.44 46.3228 58.1176 46.3228 57.72C46.3228 57.3224 46.0005 57 45.6028 57C45.2052 57 44.8828 57.3224 44.8828 57.72C44.8828 58.1176 45.2052 58.44 45.6028 58.44ZM40.44 63.72C40.44 64.1176 40.1176 64.44 39.72 64.44C39.3224 64.44 39 64.1176 39 63.72C39 63.3224 39.3224 63 39.72 63C40.1176 63 40.44 63.3224 40.44 63.72ZM36.72 58.44C37.1176 58.44 37.44 58.1176 37.44 57.72C37.44 57.3224 37.1176 57 36.72 57C36.3224 57 36 57.3224 36 57.72C36 58.1176 36.3224 58.44 36.72 58.44ZM34.44 60.72C34.44 61.1176 34.1176 61.44 33.72 61.44C33.3224 61.44 33 61.1176 33 60.72C33 60.3224 33.3224 60 33.72 60C34.1176 60 34.44 60.3224 34.44 60.72ZM39.72 58.44C40.1176 58.44 40.44 58.1176 40.44 57.72C40.44 57.3224 40.1176 57 39.72 57C39.3224 57 39 57.3224 39 57.72C39 58.1176 39.3224 58.44 39.72 58.44ZM34.44 57.72C34.44 58.1176 34.1176 58.44 33.72 58.44C33.3224 58.44 33 58.1176 33 57.72C33 57.3224 33.3224 57 33.72 57C34.1176 57 34.44 57.3224 34.44 57.72ZM27.72 67.44C28.1176 67.44 28.44 67.1176 28.44 66.72C28.44 66.3224 28.1176 66 27.72 66C27.3224 66 27 66.3224 27 66.72C27 67.1176 27.3224 67.44 27.72 67.44ZM22.44 51.72C22.44 52.1176 22.1176 52.44 21.72 52.44C21.3224 52.44 21 52.1176 21 51.72C21 51.3224 21.3224 51 21.72 51C22.1176 51 22.44 51.3224 22.44 51.72ZM42.72 67.44C43.1176 67.44 43.44 67.1176 43.44 66.72C43.44 66.3224 43.1176 66 42.72 66C42.3224 66 42 66.3224 42 66.72C42 67.1176 42.3224 67.44 42.72 67.44ZM58.44 69.72C58.44 70.1176 58.1176 70.44 57.72 70.44C57.3224 70.44 57 70.1176 57 69.72C57 69.3224 57.3224 69 57.72 69C58.1176 69 58.44 69.3224 58.44 69.72ZM30.72 55.44C31.1176 55.44 31.44 55.1176 31.44 54.72C31.44 54.3224 31.1176 54 30.72 54C30.3224 54 30 54.3224 30 54.72C30 55.1176 30.3224 55.44 30.72 55.44ZM28.44 60.72C28.44 61.1176 28.1176 61.44 27.72 61.44C27.3224 61.44 27 61.1176 27 60.72C27 60.3224 27.3224 60 27.72 60C28.1176 60 28.44 60.3224 28.44 60.72ZM33.72 64.44C34.1176 64.44 34.44 64.1176 34.44 63.72C34.44 63.3224 34.1176 63 33.72 63C33.3224 63 33 63.3224 33 63.72C33 64.1176 33.3224 64.44 33.72 64.44ZM40.44 72.72C40.44 73.1176 40.1176 73.44 39.72 73.44C39.3224 73.44 39 73.1176 39 72.72C39 72.3224 39.3224 72 39.72 72C40.1176 72 40.44 72.3224 40.44 72.72ZM24.72 46.44C25.1176 46.44 25.44 46.1176 25.44 45.72C25.44 45.3224 25.1176 45 24.72 45C24.3224 45 24 45.3224 24 45.72C24 46.1176 24.3224 46.44 24.72 46.44ZM58.44 60.72C58.44 61.1176 58.1176 61.44 57.72 61.44C57.3224 61.44 57 61.1176 57 60.72C57 60.3224 57.3224 60 57.72 60C58.1176 60 58.44 60.3224 58.44 60.72ZM18.72 67.44C19.1176 67.44 19.44 67.1176 19.44 66.72C19.44 66.3224 19.1176 66 18.72 66C18.3224 66 18 66.3224 18 66.72C18 67.1176 18.3224 67.44 18.72 67.44ZM37.44 69.72C37.44 70.1176 37.1176 70.44 36.72 70.44C36.3224 70.44 36 70.1176 36 69.72C36 69.3224 36.3224 69 36.72 69C37.1176 69 37.44 69.3224 37.44 69.72ZM45.72 64.44C46.1176 64.44 46.44 64.1176 46.44 63.72C46.44 63.3224 46.1176 63 45.72 63C45.3224 63 45 63.3224 45 63.72C45 64.1176 45.3224 64.44 45.72 64.44ZM43.44 51.72C43.44 52.1176 43.1176 52.44 42.72 52.44C42.3224 52.44 42 52.1176 42 51.72C42 51.3224 42.3224 51 42.72 51C43.1176 51 43.44 51.3224 43.44 51.72ZM30.72 61.44C31.1176 61.44 31.44 61.1176 31.44 60.72C31.44 60.3224 31.1176 60 30.72 60C30.3224 60 30 60.3224 30 60.72C30 61.1176 30.3224 61.44 30.72 61.44Z"/>
</mask>
<path fill-rule="evenodd" clip-rule="evenodd" d="M40.5572 41.8763C40.5572 42.2739 40.2348 42.5963 39.8372 42.5963C39.4395 42.5963 39.1172 42.2739 39.1172 41.8763C39.1172 41.4786 39.4395 41.1562 39.8372 41.1562C40.2348 41.1562 40.5572 41.4786 40.5572 41.8763ZM39.1275 56.2786C39.1275 56.6762 38.8051 56.9986 38.4075 56.9986C38.0099 56.9986 37.6875 56.6762 37.6875 56.2786C37.6875 55.881 38.0099 55.5586 38.4075 55.5586C38.8051 55.5586 39.1275 55.881 39.1275 56.2786ZM31.1888 72.8306C31.5864 72.8306 31.9088 72.5083 31.9088 72.1106C31.9088 71.713 31.5864 71.3906 31.1888 71.3906C30.7911 71.3906 30.4688 71.713 30.4688 72.1106C30.4688 72.5083 30.7911 72.8306 31.1888 72.8306ZM23.2838 73.552C23.2838 73.9497 22.9614 74.272 22.5638 74.272C22.1661 74.272 21.8438 73.9497 21.8438 73.552C21.8438 73.1544 22.1661 72.832 22.5638 72.832C22.9614 72.832 23.2838 73.1544 23.2838 73.552ZM54.2513 67.0767C54.6489 67.0767 54.9713 66.7544 54.9713 66.3567C54.9713 65.9591 54.6489 65.6367 54.2513 65.6367C53.8536 65.6367 53.5313 65.9591 53.5313 66.3567C53.5313 66.7544 53.8536 67.0767 54.2513 67.0767ZM36.2447 49.0716C36.2447 49.4692 35.9223 49.7916 35.5247 49.7916C35.127 49.7916 34.8047 49.4692 34.8047 49.0716C34.8047 48.6739 35.127 48.3516 35.5247 48.3516C35.9223 48.3516 36.2447 48.6739 36.2447 49.0716ZM45.6028 58.44C46.0005 58.44 46.3228 58.1176 46.3228 57.72C46.3228 57.3224 46.0005 57 45.6028 57C45.2052 57 44.8828 57.3224 44.8828 57.72C44.8828 58.1176 45.2052 58.44 45.6028 58.44ZM40.44 63.72C40.44 64.1176 40.1176 64.44 39.72 64.44C39.3224 64.44 39 64.1176 39 63.72C39 63.3224 39.3224 63 39.72 63C40.1176 63 40.44 63.3224 40.44 63.72ZM36.72 58.44C37.1176 58.44 37.44 58.1176 37.44 57.72C37.44 57.3224 37.1176 57 36.72 57C36.3224 57 36 57.3224 36 57.72C36 58.1176 36.3224 58.44 36.72 58.44ZM34.44 60.72C34.44 61.1176 34.1176 61.44 33.72 61.44C33.3224 61.44 33 61.1176 33 60.72C33 60.3224 33.3224 60 33.72 60C34.1176 60 34.44 60.3224 34.44 60.72ZM39.72 58.44C40.1176 58.44 40.44 58.1176 40.44 57.72C40.44 57.3224 40.1176 57 39.72 57C39.3224 57 39 57.3224 39 57.72C39 58.1176 39.3224 58.44 39.72 58.44ZM34.44 57.72C34.44 58.1176 34.1176 58.44 33.72 58.44C33.3224 58.44 33 58.1176 33 57.72C33 57.3224 33.3224 57 33.72 57C34.1176 57 34.44 57.3224 34.44 57.72ZM27.72 67.44C28.1176 67.44 28.44 67.1176 28.44 66.72C28.44 66.3224 28.1176 66 27.72 66C27.3224 66 27 66.3224 27 66.72C27 67.1176 27.3224 67.44 27.72 67.44ZM22.44 51.72C22.44 52.1176 22.1176 52.44 21.72 52.44C21.3224 52.44 21 52.1176 21 51.72C21 51.3224 21.3224 51 21.72 51C22.1176 51 22.44 51.3224 22.44 51.72ZM42.72 67.44C43.1176 67.44 43.44 67.1176 43.44 66.72C43.44 66.3224 43.1176 66 42.72 66C42.3224 66 42 66.3224 42 66.72C42 67.1176 42.3224 67.44 42.72 67.44ZM58.44 69.72C58.44 70.1176 58.1176 70.44 57.72 70.44C57.3224 70.44 57 70.1176 57 69.72C57 69.3224 57.3224 69 57.72 69C58.1176 69 58.44 69.3224 58.44 69.72ZM30.72 55.44C31.1176 55.44 31.44 55.1176 31.44 54.72C31.44 54.3224 31.1176 54 30.72 54C30.3224 54 30 54.3224 30 54.72C30 55.1176 30.3224 55.44 30.72 55.44ZM28.44 60.72C28.44 61.1176 28.1176 61.44 27.72 61.44C27.3224 61.44 27 61.1176 27 60.72C27 60.3224 27.3224 60 27.72 60C28.1176 60 28.44 60.3224 28.44 60.72ZM33.72 64.44C34.1176 64.44 34.44 64.1176 34.44 63.72C34.44 63.3224 34.1176 63 33.72 63C33.3224 63 33 63.3224 33 63.72C33 64.1176 33.3224 64.44 33.72 64.44ZM40.44 72.72C40.44 73.1176 40.1176 73.44 39.72 73.44C39.3224 73.44 39 73.1176 39 72.72C39 72.3224 39.3224 72 39.72 72C40.1176 72 40.44 72.3224 40.44 72.72ZM24.72 46.44C25.1176 46.44 25.44 46.1176 25.44 45.72C25.44 45.3224 25.1176 45 24.72 45C24.3224 45 24 45.3224 24 45.72C24 46.1176 24.3224 46.44 24.72 46.44ZM58.44 60.72C58.44 61.1176 58.1176 61.44 57.72 61.44C57.3224 61.44 57 61.1176 57 60.72C57 60.3224 57.3224 60 57.72 60C58.1176 60 58.44 60.3224 58.44 60.72ZM18.72 67.44C19.1176 67.44 19.44 67.1176 19.44 66.72C19.44 66.3224 19.1176 66 18.72 66C18.3224 66 18 66.3224 18 66.72C18 67.1176 18.3224 67.44 18.72 67.44ZM37.44 69.72C37.44 70.1176 37.1176 70.44 36.72 70.44C36.3224 70.44 36 70.1176 36 69.72C36 69.3224 36.3224 69 36.72 69C37.1176 69 37.44 69.3224 37.44 69.72ZM45.72 64.44C46.1176 64.44 46.44 64.1176 46.44 63.72C46.44 63.3224 46.1176 63 45.72 63C45.3224 63 45 63.3224 45 63.72C45 64.1176 45.3224 64.44 45.72 64.44ZM43.44 51.72C43.44 52.1176 43.1176 52.44 42.72 52.44C42.3224 52.44 42 52.1176 42 51.72C42 51.3224 42.3224 51 42.72 51C43.1176 51 43.44 51.3224 43.44 51.72ZM30.72 61.44C31.1176 61.44 31.44 61.1176 31.44 60.72C31.44 60.3224 31.1176 60 30.72 60C30.3224 60 30 60.3224 30 60.72C30 61.1176 30.3224 61.44 30.72 61.44Z" fill="#AAC9EE"/>
<path d="M39.8372 43.3163C40.6325 43.3163 41.2772 42.6715 41.2772 41.8763H39.8372L39.8372 41.8763V43.3163ZM38.3972 41.8763C38.3972 42.6715 39.0419 43.3163 39.8372 43.3163V41.8763V41.8763H38.3972ZM39.8372 40.4363C39.0419 40.4363 38.3972 41.081 38.3972 41.8763H39.8372V41.8762V40.4363ZM41.2772 41.8763C41.2772 41.081 40.6325 40.4363 39.8372 40.4363V41.8762L39.8372 41.8763H41.2772ZM38.4075 57.7186C39.2028 57.7186 39.8475 57.0739 39.8475 56.2786H38.4075L38.4075 56.2786V57.7186ZM36.9675 56.2786C36.9675 57.0739 37.6122 57.7186 38.4075 57.7186V56.2786V56.2786H36.9675ZM38.4075 54.8386C37.6122 54.8386 36.9675 55.4833 36.9675 56.2786H38.4075V54.8386ZM39.8475 56.2786C39.8475 55.4833 39.2028 54.8386 38.4075 54.8386V56.2786H38.4075H39.8475ZM31.1888 72.1106L31.1888 72.1106V73.5506C31.984 73.5506 32.6288 72.9059 32.6288 72.1106H31.1888ZM31.1888 72.1106H31.1888H32.6288C32.6288 71.3153 31.984 70.6706 31.1888 70.6706V72.1106ZM31.1888 72.1106V70.6706C30.3935 70.6706 29.7488 71.3153 29.7488 72.1106H31.1888ZM31.1888 72.1106V72.1106H29.7488C29.7488 72.9059 30.3935 73.5506 31.1888 73.5506V72.1106ZM22.5638 74.992C23.359 74.992 24.0038 74.3473 24.0038 73.552H22.5638L22.5638 73.552V74.992ZM21.1238 73.552C21.1238 74.3473 21.7685 74.992 22.5638 74.992V73.552V73.552H21.1238ZM22.5638 72.112C21.7685 72.112 21.1238 72.7567 21.1238 73.552H22.5638V72.112ZM24.0038 73.552C24.0038 72.7567 23.359 72.112 22.5638 72.112V73.552H22.5638H24.0038ZM54.2513 66.3567L54.2513 66.3567V67.7967C55.0465 67.7967 55.6913 67.152 55.6913 66.3567H54.2513ZM54.2513 66.3567H54.2513H55.6913C55.6913 65.5614 55.0465 64.9167 54.2513 64.9167V66.3567ZM54.2513 66.3567V64.9167C53.456 64.9167 52.8113 65.5614 52.8113 66.3567H54.2513ZM54.2513 66.3567V66.3567H52.8113C52.8113 67.152 53.456 67.7967 54.2513 67.7967V66.3567ZM35.5247 50.5116C36.32 50.5116 36.9647 49.8669 36.9647 49.0716H35.5247H35.5247V50.5116ZM34.0847 49.0716C34.0847 49.8669 34.7294 50.5116 35.5247 50.5116V49.0716H34.0847ZM35.5247 47.6316C34.7294 47.6316 34.0847 48.2763 34.0847 49.0716H35.5247V47.6316ZM36.9647 49.0716C36.9647 48.2763 36.32 47.6316 35.5247 47.6316V49.0716H35.5247H36.9647ZM45.6028 57.72L45.6028 57.72V59.16C46.3981 59.16 47.0428 58.5153 47.0428 57.72H45.6028ZM45.6028 57.72H45.6028H47.0428C47.0428 56.9247 46.3981 56.28 45.6028 56.28V57.72ZM45.6028 57.72V56.28C44.8075 56.28 44.1628 56.9247 44.1628 57.72H45.6028ZM45.6028 57.72V57.72H44.1628C44.1628 58.5153 44.8075 59.16 45.6028 59.16V57.72ZM39.72 65.16C40.5153 65.16 41.16 64.5153 41.16 63.72H39.72L39.72 63.72V65.16ZM38.28 63.72C38.28 64.5153 38.9247 65.16 39.72 65.16V63.72V63.72H38.28ZM39.72 62.28C38.9247 62.28 38.28 62.9247 38.28 63.72H39.72V62.28ZM41.16 63.72C41.16 62.9247 40.5153 62.28 39.72 62.28V63.72H39.72H41.16ZM36.72 57.72L36.72 57.72V59.16C37.5153 59.16 38.16 58.5153 38.16 57.72H36.72ZM36.72 57.72H36.72H38.16C38.16 56.9247 37.5153 56.28 36.72 56.28V57.72ZM36.72 57.72V56.28C35.9247 56.28 35.28 56.9247 35.28 57.72H36.72ZM36.72 57.72V57.72H35.28C35.28 58.5153 35.9247 59.16 36.72 59.16V57.72ZM33.72 62.16C34.5153 62.16 35.16 61.5153 35.16 60.72H33.72L33.72 60.72V62.16ZM32.28 60.72C32.28 61.5153 32.9247 62.16 33.72 62.16V60.72V60.72H32.28ZM33.72 59.28C32.9247 59.28 32.28 59.9247 32.28 60.72H33.72V59.28ZM35.16 60.72C35.16 59.9247 34.5153 59.28 33.72 59.28V60.72H33.72H35.16ZM39.72 57.72L39.72 57.72V59.16C40.5153 59.16 41.16 58.5153 41.16 57.72H39.72ZM39.72 57.72H39.72H41.16C41.16 56.9247 40.5153 56.28 39.72 56.28V57.72ZM39.72 57.72V56.28C38.9247 56.28 38.28 56.9247 38.28 57.72H39.72ZM39.72 57.72V57.72H38.28C38.28 58.5153 38.9247 59.16 39.72 59.16V57.72ZM33.72 59.16C34.5153 59.16 35.16 58.5153 35.16 57.72H33.72L33.72 57.72V59.16ZM32.28 57.72C32.28 58.5153 32.9247 59.16 33.72 59.16V57.72V57.72H32.28ZM33.72 56.28C32.9247 56.28 32.28 56.9247 32.28 57.72H33.72V56.28ZM35.16 57.72C35.16 56.9247 34.5153 56.28 33.72 56.28V57.72H33.72H35.16ZM27.72 66.72L27.72 66.72V68.16C28.5153 68.16 29.16 67.5153 29.16 66.72H27.72ZM27.72 66.72H27.72H29.16C29.16 65.9247 28.5153 65.28 27.72 65.28V66.72ZM27.72 66.72V65.28C26.9247 65.28 26.28 65.9247 26.28 66.72H27.72ZM27.72 66.72V66.72H26.28C26.28 67.5153 26.9247 68.16 27.72 68.16V66.72ZM21.72 53.16C22.5153 53.16 23.16 52.5153 23.16 51.72H21.72V51.72V53.16ZM20.28 51.72C20.28 52.5153 20.9247 53.16 21.72 53.16V51.72V51.72H20.28ZM21.72 50.28C20.9247 50.28 20.28 50.9247 20.28 51.72H21.72V50.28ZM23.16 51.72C23.16 50.9247 22.5153 50.28 21.72 50.28V51.72H23.16ZM42.72 66.72L42.72 66.72V68.16C43.5153 68.16 44.16 67.5153 44.16 66.72H42.72ZM42.72 66.72H42.72H44.16C44.16 65.9247 43.5153 65.28 42.72 65.28V66.72ZM42.72 66.72V65.28C41.9247 65.28 41.28 65.9247 41.28 66.72H42.72ZM42.72 66.72V66.72H41.28C41.28 67.5153 41.9247 68.16 42.72 68.16V66.72ZM57.72 71.16C58.5153 71.16 59.16 70.5153 59.16 69.72H57.72L57.72 69.72V71.16ZM56.28 69.72C56.28 70.5153 56.9247 71.16 57.72 71.16V69.72V69.72H56.28ZM57.72 68.28C56.9247 68.28 56.28 68.9247 56.28 69.72H57.72V68.28ZM59.16 69.72C59.16 68.9247 58.5153 68.28 57.72 68.28V69.72H57.72H59.16ZM30.72 54.72L30.72 54.72V56.16C31.5153 56.16 32.16 55.5153 32.16 54.72H30.72ZM30.72 54.72H30.72H32.16C32.16 53.9247 31.5153 53.28 30.72 53.28V54.72ZM30.72 54.72V53.28C29.9247 53.28 29.28 53.9247 29.28 54.72H30.72ZM30.72 54.72V54.72H29.28C29.28 55.5153 29.9247 56.16 30.72 56.16V54.72ZM27.72 62.16C28.5153 62.16 29.16 61.5153 29.16 60.72H27.72L27.72 60.72V62.16ZM26.28 60.72C26.28 61.5153 26.9247 62.16 27.72 62.16V60.72V60.72H26.28ZM27.72 59.28C26.9247 59.28 26.28 59.9247 26.28 60.72H27.72V59.28ZM29.16 60.72C29.16 59.9247 28.5153 59.28 27.72 59.28V60.72H27.72H29.16ZM33.72 63.72L33.72 63.72V65.16C34.5153 65.16 35.16 64.5153 35.16 63.72H33.72ZM33.72 63.72H33.72H35.16C35.16 62.9247 34.5153 62.28 33.72 62.28V63.72ZM33.72 63.72V62.28C32.9247 62.28 32.28 62.9247 32.28 63.72H33.72ZM33.72 63.72V63.72H32.28C32.28 64.5153 32.9247 65.16 33.72 65.16V63.72ZM39.72 74.16C40.5153 74.16 41.16 73.5153 41.16 72.72H39.72H39.72V74.16ZM38.28 72.72C38.28 73.5153 38.9247 74.16 39.72 74.16V72.72H38.28ZM39.72 71.28C38.9247 71.28 38.28 71.9247 38.28 72.72H39.72V71.28ZM41.16 72.72C41.16 71.9247 40.5153 71.28 39.72 71.28V72.72H39.72H41.16ZM24.72 45.72L24.72 45.72V47.16C25.5153 47.16 26.16 46.5153 26.16 45.72H24.72ZM24.72 45.72H24.72H26.16C26.16 44.9247 25.5153 44.28 24.72 44.28V45.72ZM24.72 45.72V44.28C23.9247 44.28 23.28 44.9247 23.28 45.72H24.72ZM24.72 45.72V45.72H23.28C23.28 46.5153 23.9247 47.16 24.72 47.16V45.72ZM57.72 62.16C58.5153 62.16 59.16 61.5153 59.16 60.72H57.72L57.72 60.72V62.16ZM56.28 60.72C56.28 61.5153 56.9247 62.16 57.72 62.16V60.72V60.72H56.28ZM57.72 59.28C56.9247 59.28 56.28 59.9247 56.28 60.72H57.72V59.28ZM59.16 60.72C59.16 59.9247 58.5153 59.28 57.72 59.28V60.72H57.72H59.16ZM18.72 66.72V66.72V68.16C19.5153 68.16 20.16 67.5153 20.16 66.72H18.72ZM18.72 66.72H20.16C20.16 65.9247 19.5153 65.28 18.72 65.28V66.72ZM18.72 66.72H18.72V65.28C17.9247 65.28 17.28 65.9247 17.28 66.72H18.72ZM18.72 66.72L18.72 66.72H17.28C17.28 67.5153 17.9247 68.16 18.72 68.16V66.72ZM36.72 71.16C37.5153 71.16 38.16 70.5153 38.16 69.72H36.72L36.72 69.72V71.16ZM35.28 69.72C35.28 70.5153 35.9247 71.16 36.72 71.16V69.72V69.72H35.28ZM36.72 68.28C35.9247 68.28 35.28 68.9247 35.28 69.72H36.72V68.28ZM38.16 69.72C38.16 68.9247 37.5153 68.28 36.72 68.28V69.72H36.72H38.16ZM45.72 63.72L45.72 63.72V65.16C46.5153 65.16 47.16 64.5153 47.16 63.72H45.72ZM45.72 63.72H45.72H47.16C47.16 62.9247 46.5153 62.28 45.72 62.28V63.72ZM45.72 63.72V62.28C44.9247 62.28 44.28 62.9247 44.28 63.72H45.72ZM45.72 63.72V63.72H44.28C44.28 64.5153 44.9247 65.16 45.72 65.16V63.72ZM42.72 53.16C43.5153 53.16 44.16 52.5153 44.16 51.72H42.72L42.72 51.72V53.16ZM41.28 51.72C41.28 52.5153 41.9247 53.16 42.72 53.16V51.72V51.72H41.28ZM42.72 50.28C41.9247 50.28 41.28 50.9247 41.28 51.72H42.72V50.28ZM44.16 51.72C44.16 50.9247 43.5153 50.28 42.72 50.28V51.72H42.72H44.16ZM30.72 60.72L30.72 60.72V62.16C31.5153 62.16 32.16 61.5153 32.16 60.72H30.72ZM30.72 60.72H30.72H32.16C32.16 59.9247 31.5153 59.28 30.72 59.28V60.72ZM30.72 60.72V59.28C29.9247 59.28 29.28 59.9247 29.28 60.72H30.72ZM30.72 60.72V60.72H29.28C29.28 61.5153 29.9247 62.16 30.72 62.16V60.72Z" fill="#2B78D3" mask="url(#path-3-outside-1_333_28722)"/>
<mask id="path-5-outside-2_333_28722" maskUnits="userSpaceOnUse" x="47.4343" y="19.2824" width="36" height="35" fill="black">
<rect fill="white" x="47.4343" y="19.2824" width="36" height="35"/>
<path fill-rule="evenodd" clip-rule="evenodd" d="M75.7143 51.8424C75.3167 51.8424 74.9943 52.1648 74.9943 52.5624C74.9943 52.9601 75.3167 53.2824 75.7143 53.2824C76.112 53.2824 76.4343 52.9601 76.4343 52.5624C76.4343 52.1648 76.112 51.8424 75.7143 51.8424ZM62.8771 47.4062C62.8771 47.0085 63.1995 46.6862 63.5971 46.6862C63.9948 46.6862 64.3171 47.0085 64.3171 47.4062C64.3171 47.8038 63.9948 48.1262 63.5971 48.1262C63.1995 48.1262 62.8771 47.8038 62.8771 47.4062ZM64.3068 39.0038C64.3068 38.6062 64.6292 38.2838 65.0268 38.2838C65.4245 38.2838 65.7468 38.6062 65.7468 39.0038C65.7468 39.4015 65.4245 39.7238 65.0268 39.7238C64.6292 39.7238 64.3068 39.4015 64.3068 39.0038ZM69.2456 22.4401C68.8479 22.4401 68.5256 22.7624 68.5256 23.1601C68.5256 23.5577 68.8479 23.8801 69.2456 23.8801C69.6432 23.8801 69.9656 23.5577 69.9656 23.1601C69.9656 22.7624 69.6432 22.4401 69.2456 22.4401ZM80.1506 21.7187C80.1506 21.321 80.4729 20.9987 80.8706 20.9987C81.2682 20.9987 81.5906 21.321 81.5906 21.7187C81.5906 22.1163 81.2682 22.4387 80.8706 22.4387C80.4729 22.4387 80.1506 22.1163 80.1506 21.7187ZM49.1831 25.2057C48.7854 25.2057 48.4631 25.528 48.4631 25.9257C48.4631 26.3233 48.7854 26.6457 49.1831 26.6457C49.5807 26.6457 49.9031 26.3233 49.9031 25.9257C49.9031 25.528 49.5807 25.2057 49.1831 25.2057ZM67.1896 46.1991C67.1896 45.8015 67.512 45.4791 67.9096 45.4791C68.3073 45.4791 68.6296 45.8015 68.6296 46.1991C68.6296 46.5968 68.3073 46.9191 67.9096 46.9191C67.512 46.9191 67.1896 46.5968 67.1896 46.1991ZM57.8315 36.8424C57.4339 36.8424 57.1115 37.1648 57.1115 37.5624C57.1115 37.9601 57.4339 38.2824 57.8315 38.2824C58.2292 38.2824 58.5515 37.9601 58.5515 37.5624C58.5515 37.1648 58.2292 36.8424 57.8315 36.8424ZM62.9943 34.5624C62.9943 34.1648 63.3167 33.8424 63.7143 33.8424C64.112 33.8424 64.4343 34.1648 64.4343 34.5624C64.4343 34.9601 64.112 35.2824 63.7143 35.2824C63.3167 35.2824 62.9943 34.9601 62.9943 34.5624ZM66.7143 36.8424C66.3167 36.8424 65.9943 37.1648 65.9943 37.5624C65.9943 37.9601 66.3167 38.2824 66.7143 38.2824C67.112 38.2824 67.4343 37.9601 67.4343 37.5624C67.4343 37.1648 67.112 36.8424 66.7143 36.8424ZM71.9943 43.5624C71.9943 43.1648 72.3167 42.8424 72.7143 42.8424C73.112 42.8424 73.4343 43.1648 73.4343 43.5624C73.4343 43.9601 73.112 44.2824 72.7143 44.2824C72.3167 44.2824 71.9943 43.9601 71.9943 43.5624ZM60.7143 33.8424C60.3167 33.8424 59.9943 34.1648 59.9943 34.5624C59.9943 34.9601 60.3167 35.2824 60.7143 35.2824C61.112 35.2824 61.4343 34.9601 61.4343 34.5624C61.4343 34.1648 61.112 33.8424 60.7143 33.8424ZM68.9943 37.5624C68.9943 37.1648 69.3167 36.8424 69.7143 36.8424C70.112 36.8424 70.4343 37.1648 70.4343 37.5624C70.4343 37.9601 70.112 38.2824 69.7143 38.2824C69.3167 38.2824 68.9943 37.9601 68.9943 37.5624ZM75.7143 27.8424C75.3167 27.8424 74.9943 28.1648 74.9943 28.5624C74.9943 28.9601 75.3167 29.2824 75.7143 29.2824C76.112 29.2824 76.4343 28.9601 76.4343 28.5624C76.4343 28.1648 76.112 27.8424 75.7143 27.8424ZM80.9943 34.5624C80.9943 34.1648 81.3167 33.8424 81.7143 33.8424C82.112 33.8424 82.4343 34.1648 82.4343 34.5624C82.4343 34.9601 82.112 35.2824 81.7143 35.2824C81.3167 35.2824 80.9943 34.9601 80.9943 34.5624ZM51.7143 24.8424C51.3167 24.8424 50.9943 25.1648 50.9943 25.5624C50.9943 25.9601 51.3167 26.2824 51.7143 26.2824C52.112 26.2824 52.4343 25.9601 52.4343 25.5624C52.4343 25.1648 52.112 24.8424 51.7143 24.8424ZM56.9943 25.5624C56.9943 25.1648 57.3167 24.8424 57.7143 24.8424C58.112 24.8424 58.4343 25.1648 58.4343 25.5624C58.4343 25.9601 58.112 26.2824 57.7143 26.2824C57.3167 26.2824 56.9943 25.9601 56.9943 25.5624ZM69.7143 45.8424C69.3167 45.8424 68.9943 46.1648 68.9943 46.5624C68.9943 46.9601 69.3167 47.2824 69.7143 47.2824C70.112 47.2824 70.4343 46.9601 70.4343 46.5624C70.4343 46.1648 70.112 45.8424 69.7143 45.8424ZM74.9943 37.5624C74.9943 37.1648 75.3167 36.8424 75.7143 36.8424C76.112 36.8424 76.4343 37.1648 76.4343 37.5624C76.4343 37.9601 76.112 38.2824 75.7143 38.2824C75.3167 38.2824 74.9943 37.9601 74.9943 37.5624ZM69.7143 30.8424C69.3167 30.8424 68.9943 31.1648 68.9943 31.5624C68.9943 31.9601 69.3167 32.2824 69.7143 32.2824C70.112 32.2824 70.4343 31.9601 70.4343 31.5624C70.4343 31.1648 70.112 30.8424 69.7143 30.8424ZM62.9943 22.5624C62.9943 22.1648 63.3167 21.8424 63.7143 21.8424C64.112 21.8424 64.4343 22.1648 64.4343 22.5624C64.4343 22.9601 64.112 23.2824 63.7143 23.2824C63.3167 23.2824 62.9943 22.9601 62.9943 22.5624ZM65.9943 31.5624C65.9943 31.1648 66.3167 30.8424 66.7143 30.8424C67.112 30.8424 67.4343 31.1648 67.4343 31.5624C67.4343 31.9601 67.112 32.2824 66.7143 32.2824C66.3167 32.2824 65.9943 31.9601 65.9943 31.5624ZM72.7143 27.8424C72.3167 27.8424 71.9943 28.1648 71.9943 28.5624C71.9943 28.9601 72.3167 29.2824 72.7143 29.2824C73.112 29.2824 73.4343 28.9601 73.4343 28.5624C73.4343 28.1648 73.112 27.8424 72.7143 27.8424ZM65.9943 25.5624C65.9943 25.1648 66.3167 24.8424 66.7143 24.8424C67.112 24.8424 67.4343 25.1648 67.4343 25.5624C67.4343 25.9601 67.112 26.2824 66.7143 26.2824C66.3167 26.2824 65.9943 25.9601 65.9943 25.5624ZM57.7143 30.8424C57.3167 30.8424 56.9943 31.1648 56.9943 31.5624C56.9943 31.9601 57.3167 32.2824 57.7143 32.2824C58.112 32.2824 58.4343 31.9601 58.4343 31.5624C58.4343 31.1648 58.112 30.8424 57.7143 30.8424ZM59.9943 43.5624C59.9943 43.1648 60.3167 42.8424 60.7143 42.8424C61.112 42.8424 61.4343 43.1648 61.4343 43.5624C61.4343 43.9601 61.112 44.2824 60.7143 44.2824C60.3167 44.2824 59.9943 43.9601 59.9943 43.5624ZM72.7143 33.8424C72.3167 33.8424 71.9943 34.1648 71.9943 34.5624C71.9943 34.9601 72.3167 35.2824 72.7143 35.2824C73.112 35.2824 73.4343 34.9601 73.4343 34.5624C73.4343 34.1648 73.112 33.8424 72.7143 33.8424Z"/>
</mask>
<path fill-rule="evenodd" clip-rule="evenodd" d="M75.7143 51.8424C75.3167 51.8424 74.9943 52.1648 74.9943 52.5624C74.9943 52.9601 75.3167 53.2824 75.7143 53.2824C76.112 53.2824 76.4343 52.9601 76.4343 52.5624C76.4343 52.1648 76.112 51.8424 75.7143 51.8424ZM62.8771 47.4062C62.8771 47.0085 63.1995 46.6862 63.5971 46.6862C63.9948 46.6862 64.3171 47.0085 64.3171 47.4062C64.3171 47.8038 63.9948 48.1262 63.5971 48.1262C63.1995 48.1262 62.8771 47.8038 62.8771 47.4062ZM64.3068 39.0038C64.3068 38.6062 64.6292 38.2838 65.0268 38.2838C65.4245 38.2838 65.7468 38.6062 65.7468 39.0038C65.7468 39.4015 65.4245 39.7238 65.0268 39.7238C64.6292 39.7238 64.3068 39.4015 64.3068 39.0038ZM69.2456 22.4401C68.8479 22.4401 68.5256 22.7624 68.5256 23.1601C68.5256 23.5577 68.8479 23.8801 69.2456 23.8801C69.6432 23.8801 69.9656 23.5577 69.9656 23.1601C69.9656 22.7624 69.6432 22.4401 69.2456 22.4401ZM80.1506 21.7187C80.1506 21.321 80.4729 20.9987 80.8706 20.9987C81.2682 20.9987 81.5906 21.321 81.5906 21.7187C81.5906 22.1163 81.2682 22.4387 80.8706 22.4387C80.4729 22.4387 80.1506 22.1163 80.1506 21.7187ZM49.1831 25.2057C48.7854 25.2057 48.4631 25.528 48.4631 25.9257C48.4631 26.3233 48.7854 26.6457 49.1831 26.6457C49.5807 26.6457 49.9031 26.3233 49.9031 25.9257C49.9031 25.528 49.5807 25.2057 49.1831 25.2057ZM67.1896 46.1991C67.1896 45.8015 67.512 45.4791 67.9096 45.4791C68.3073 45.4791 68.6296 45.8015 68.6296 46.1991C68.6296 46.5968 68.3073 46.9191 67.9096 46.9191C67.512 46.9191 67.1896 46.5968 67.1896 46.1991ZM57.8315 36.8424C57.4339 36.8424 57.1115 37.1648 57.1115 37.5624C57.1115 37.9601 57.4339 38.2824 57.8315 38.2824C58.2292 38.2824 58.5515 37.9601 58.5515 37.5624C58.5515 37.1648 58.2292 36.8424 57.8315 36.8424ZM62.9943 34.5624C62.9943 34.1648 63.3167 33.8424 63.7143 33.8424C64.112 33.8424 64.4343 34.1648 64.4343 34.5624C64.4343 34.9601 64.112 35.2824 63.7143 35.2824C63.3167 35.2824 62.9943 34.9601 62.9943 34.5624ZM66.7143 36.8424C66.3167 36.8424 65.9943 37.1648 65.9943 37.5624C65.9943 37.9601 66.3167 38.2824 66.7143 38.2824C67.112 38.2824 67.4343 37.9601 67.4343 37.5624C67.4343 37.1648 67.112 36.8424 66.7143 36.8424ZM71.9943 43.5624C71.9943 43.1648 72.3167 42.8424 72.7143 42.8424C73.112 42.8424 73.4343 43.1648 73.4343 43.5624C73.4343 43.9601 73.112 44.2824 72.7143 44.2824C72.3167 44.2824 71.9943 43.9601 71.9943 43.5624ZM60.7143 33.8424C60.3167 33.8424 59.9943 34.1648 59.9943 34.5624C59.9943 34.9601 60.3167 35.2824 60.7143 35.2824C61.112 35.2824 61.4343 34.9601 61.4343 34.5624C61.4343 34.1648 61.112 33.8424 60.7143 33.8424ZM68.9943 37.5624C68.9943 37.1648 69.3167 36.8424 69.7143 36.8424C70.112 36.8424 70.4343 37.1648 70.4343 37.5624C70.4343 37.9601 70.112 38.2824 69.7143 38.2824C69.3167 38.2824 68.9943 37.9601 68.9943 37.5624ZM75.7143 27.8424C75.3167 27.8424 74.9943 28.1648 74.9943 28.5624C74.9943 28.9601 75.3167 29.2824 75.7143 29.2824C76.112 29.2824 76.4343 28.9601 76.4343 28.5624C76.4343 28.1648 76.112 27.8424 75.7143 27.8424ZM80.9943 34.5624C80.9943 34.1648 81.3167 33.8424 81.7143 33.8424C82.112 33.8424 82.4343 34.1648 82.4343 34.5624C82.4343 34.9601 82.112 35.2824 81.7143 35.2824C81.3167 35.2824 80.9943 34.9601 80.9943 34.5624ZM51.7143 24.8424C51.3167 24.8424 50.9943 25.1648 50.9943 25.5624C50.9943 25.9601 51.3167 26.2824 51.7143 26.2824C52.112 26.2824 52.4343 25.9601 52.4343 25.5624C52.4343 25.1648 52.112 24.8424 51.7143 24.8424ZM56.9943 25.5624C56.9943 25.1648 57.3167 24.8424 57.7143 24.8424C58.112 24.8424 58.4343 25.1648 58.4343 25.5624C58.4343 25.9601 58.112 26.2824 57.7143 26.2824C57.3167 26.2824 56.9943 25.9601 56.9943 25.5624ZM69.7143 45.8424C69.3167 45.8424 68.9943 46.1648 68.9943 46.5624C68.9943 46.9601 69.3167 47.2824 69.7143 47.2824C70.112 47.2824 70.4343 46.9601 70.4343 46.5624C70.4343 46.1648 70.112 45.8424 69.7143 45.8424ZM74.9943 37.5624C74.9943 37.1648 75.3167 36.8424 75.7143 36.8424C76.112 36.8424 76.4343 37.1648 76.4343 37.5624C76.4343 37.9601 76.112 38.2824 75.7143 38.2824C75.3167 38.2824 74.9943 37.9601 74.9943 37.5624ZM69.7143 30.8424C69.3167 30.8424 68.9943 31.1648 68.9943 31.5624C68.9943 31.9601 69.3167 32.2824 69.7143 32.2824C70.112 32.2824 70.4343 31.9601 70.4343 31.5624C70.4343 31.1648 70.112 30.8424 69.7143 30.8424ZM62.9943 22.5624C62.9943 22.1648 63.3167 21.8424 63.7143 21.8424C64.112 21.8424 64.4343 22.1648 64.4343 22.5624C64.4343 22.9601 64.112 23.2824 63.7143 23.2824C63.3167 23.2824 62.9943 22.9601 62.9943 22.5624ZM65.9943 31.5624C65.9943 31.1648 66.3167 30.8424 66.7143 30.8424C67.112 30.8424 67.4343 31.1648 67.4343 31.5624C67.4343 31.9601 67.112 32.2824 66.7143 32.2824C66.3167 32.2824 65.9943 31.9601 65.9943 31.5624ZM72.7143 27.8424C72.3167 27.8424 71.9943 28.1648 71.9943 28.5624C71.9943 28.9601 72.3167 29.2824 72.7143 29.2824C73.112 29.2824 73.4343 28.9601 73.4343 28.5624C73.4343 28.1648 73.112 27.8424 72.7143 27.8424ZM65.9943 25.5624C65.9943 25.1648 66.3167 24.8424 66.7143 24.8424C67.112 24.8424 67.4343 25.1648 67.4343 25.5624C67.4343 25.9601 67.112 26.2824 66.7143 26.2824C66.3167 26.2824 65.9943 25.9601 65.9943 25.5624ZM57.7143 30.8424C57.3167 30.8424 56.9943 31.1648 56.9943 31.5624C56.9943 31.9601 57.3167 32.2824 57.7143 32.2824C58.112 32.2824 58.4343 31.9601 58.4343 31.5624C58.4343 31.1648 58.112 30.8424 57.7143 30.8424ZM59.9943 43.5624C59.9943 43.1648 60.3167 42.8424 60.7143 42.8424C61.112 42.8424 61.4343 43.1648 61.4343 43.5624C61.4343 43.9601 61.112 44.2824 60.7143 44.2824C60.3167 44.2824 59.9943 43.9601 59.9943 43.5624ZM72.7143 33.8424C72.3167 33.8424 71.9943 34.1648 71.9943 34.5624C71.9943 34.9601 72.3167 35.2824 72.7143 35.2824C73.112 35.2824 73.4343 34.9601 73.4343 34.5624C73.4343 34.1648 73.112 33.8424 72.7143 33.8424Z" fill="#FFF1AD"/>
<path d="M75.7143 52.5624H75.7143V51.1224C74.919 51.1224 74.2743 51.7671 74.2743 52.5624H75.7143ZM75.7143 52.5624H75.7143H74.2743C74.2743 53.3577 74.919 54.0024 75.7143 54.0024V52.5624ZM75.7143 52.5624H75.7143V54.0024C76.5096 54.0024 77.1543 53.3577 77.1543 52.5624H75.7143ZM75.7143 52.5624H75.7143H77.1543C77.1543 51.7671 76.5096 51.1224 75.7143 51.1224V52.5624ZM63.5971 45.9662C62.8018 45.9662 62.1571 46.6109 62.1571 47.4062H63.5971L63.5971 47.4062V45.9662ZM65.0371 47.4062C65.0371 46.6109 64.3924 45.9662 63.5971 45.9662V47.4062L63.5971 47.4062H65.0371ZM63.5971 48.8462C64.3924 48.8462 65.0371 48.2014 65.0371 47.4062H63.5971L63.5971 47.4062V48.8462ZM62.1571 47.4062C62.1571 48.2015 62.8018 48.8462 63.5971 48.8462V47.4062L63.5971 47.4062H62.1571ZM65.0268 37.5638C64.2315 37.5638 63.5868 38.2085 63.5868 39.0038H65.0268L65.0268 39.0038V37.5638ZM66.4668 39.0038C66.4668 38.2085 65.8221 37.5638 65.0268 37.5638V39.0038L65.0268 39.0038H66.4668ZM65.0268 40.4438C65.8221 40.4438 66.4668 39.7991 66.4668 39.0038H65.0268L65.0268 39.0038V40.4438ZM63.5868 39.0038C63.5868 39.7991 64.2315 40.4438 65.0268 40.4438V39.0038L65.0268 39.0038H63.5868ZM69.2456 23.1601L69.2456 23.1601V21.7201C68.4503 21.7201 67.8056 22.3648 67.8056 23.1601H69.2456ZM69.2456 23.1601L69.2456 23.1601H67.8056C67.8056 23.9554 68.4503 24.6001 69.2456 24.6001V23.1601ZM69.2456 23.1601L69.2456 23.1601V24.6001C70.0409 24.6001 70.6856 23.9554 70.6856 23.1601H69.2456ZM69.2456 23.1601L69.2456 23.1601H70.6856C70.6856 22.3648 70.0409 21.7201 69.2456 21.7201V23.1601ZM80.8706 20.2787C80.0753 20.2787 79.4306 20.9234 79.4306 21.7187H80.8706H80.8706V20.2787ZM82.3106 21.7187C82.3106 20.9234 81.6659 20.2787 80.8706 20.2787V21.7187H80.8706H82.3106ZM80.8706 23.1587C81.6659 23.1587 82.3106 22.5139 82.3106 21.7187H80.8706L80.8706 21.7187V23.1587ZM79.4306 21.7187C79.4306 22.5139 80.0753 23.1587 80.8706 23.1587V21.7187L80.8706 21.7187H79.4306ZM49.1831 25.9257L49.1831 25.9257V24.4857C48.3878 24.4857 47.7431 25.1304 47.7431 25.9257H49.1831ZM49.1831 25.9257L49.1831 25.9257H47.7431C47.7431 26.721 48.3878 27.3657 49.1831 27.3657V25.9257ZM49.1831 25.9257L49.1831 25.9257V27.3657C49.9784 27.3657 50.6231 26.721 50.6231 25.9257H49.1831ZM49.1831 25.9257L49.1831 25.9257H50.6231C50.6231 25.1304 49.9784 24.4857 49.1831 24.4857V25.9257ZM67.9096 44.7591C67.1143 44.7591 66.4696 45.4038 66.4696 46.1991H67.9096L67.9096 46.1991V44.7591ZM69.3496 46.1991C69.3496 45.4038 68.7049 44.7591 67.9096 44.7591V46.1991L67.9096 46.1991H69.3496ZM67.9096 47.6391C68.7049 47.6391 69.3496 46.9944 69.3496 46.1991H67.9096L67.9096 46.1991V47.6391ZM66.4696 46.1991C66.4696 46.9944 67.1143 47.6391 67.9096 47.6391V46.1991L67.9096 46.1991H66.4696ZM57.8315 37.5624H57.8315V36.1224C57.0362 36.1224 56.3915 36.7671 56.3915 37.5624H57.8315ZM57.8315 37.5624L57.8315 37.5624H56.3915C56.3915 38.3577 57.0362 39.0024 57.8315 39.0024V37.5624ZM57.8315 37.5624L57.8315 37.5624V39.0024C58.6268 39.0024 59.2715 38.3577 59.2715 37.5624H57.8315ZM57.8315 37.5624H57.8315H59.2715C59.2715 36.7671 58.6268 36.1224 57.8315 36.1224V37.5624ZM63.7143 33.1224C62.919 33.1224 62.2743 33.7671 62.2743 34.5624H63.7143L63.7143 34.5624V33.1224ZM65.1543 34.5624C65.1543 33.7671 64.5096 33.1224 63.7143 33.1224V34.5624L63.7143 34.5624H65.1543ZM63.7143 36.0024C64.5096 36.0024 65.1543 35.3577 65.1543 34.5624H63.7143L63.7143 34.5624V36.0024ZM62.2743 34.5624C62.2743 35.3577 62.919 36.0024 63.7143 36.0024V34.5624L63.7143 34.5624H62.2743ZM66.7143 37.5624V36.1224C65.919 36.1224 65.2743 36.7671 65.2743 37.5624H66.7143ZM66.7143 37.5624V37.5624H65.2743C65.2743 38.3577 65.919 39.0024 66.7143 39.0024V37.5624ZM66.7143 37.5624L66.7143 37.5624V39.0024C67.5096 39.0024 68.1543 38.3577 68.1543 37.5624H66.7143ZM66.7143 37.5624H66.7143H68.1543C68.1543 36.7671 67.5096 36.1224 66.7143 36.1224V37.5624ZM72.7143 42.1224C71.919 42.1224 71.2743 42.7671 71.2743 43.5624H72.7143L72.7143 43.5624V42.1224ZM74.1543 43.5624C74.1543 42.7671 73.5096 42.1224 72.7143 42.1224V43.5624L72.7143 43.5624H74.1543ZM72.7143 45.0024C73.5096 45.0024 74.1543 44.3577 74.1543 43.5624H72.7143L72.7143 43.5624V45.0024ZM71.2743 43.5624C71.2743 44.3577 71.919 45.0024 72.7143 45.0024V43.5624L72.7143 43.5624H71.2743ZM60.7143 34.5624L60.7143 34.5624V33.1224C59.919 33.1224 59.2743 33.7671 59.2743 34.5624H60.7143ZM60.7143 34.5624L60.7143 34.5624H59.2743C59.2743 35.3577 59.919 36.0024 60.7143 36.0024V34.5624ZM60.7143 34.5624L60.7143 34.5624V36.0024C61.5096 36.0024 62.1543 35.3577 62.1543 34.5624H60.7143ZM60.7143 34.5624L60.7143 34.5624H62.1543C62.1543 33.7671 61.5096 33.1224 60.7143 33.1224V34.5624ZM69.7143 36.1224C68.919 36.1224 68.2743 36.7671 68.2743 37.5624H69.7143H69.7143V36.1224ZM71.1543 37.5624C71.1543 36.7671 70.5096 36.1224 69.7143 36.1224V37.5624H69.7143H71.1543ZM69.7143 39.0024C70.5096 39.0024 71.1543 38.3577 71.1543 37.5624H69.7143L69.7143 37.5624V39.0024ZM68.2743 37.5624C68.2743 38.3577 68.919 39.0024 69.7143 39.0024V37.5624L69.7143 37.5624H68.2743ZM75.7143 28.5624L75.7143 28.5624V27.1224C74.919 27.1224 74.2743 27.7671 74.2743 28.5624H75.7143ZM75.7143 28.5624L75.7143 28.5624H74.2743C74.2743 29.3577 74.919 30.0024 75.7143 30.0024V28.5624ZM75.7143 28.5624L75.7143 28.5624V30.0024C76.5096 30.0024 77.1543 29.3577 77.1543 28.5624H75.7143ZM75.7143 28.5624L75.7143 28.5624H77.1543C77.1543 27.7671 76.5096 27.1224 75.7143 27.1224V28.5624ZM81.7143 33.1224C80.919 33.1224 80.2743 33.7671 80.2743 34.5624H81.7143V34.5624V33.1224ZM83.1543 34.5624C83.1543 33.7671 82.5096 33.1224 81.7143 33.1224V34.5624V34.5624H83.1543ZM81.7143 36.0024C82.5096 36.0024 83.1543 35.3577 83.1543 34.5624H81.7143V34.5624V36.0024ZM80.2743 34.5624C80.2743 35.3577 80.919 36.0024 81.7143 36.0024V34.5624V34.5624H80.2743ZM51.7143 25.5624L51.7143 25.5624V24.1224C50.919 24.1224 50.2743 24.7671 50.2743 25.5624H51.7143ZM51.7143 25.5624L51.7143 25.5624H50.2743C50.2743 26.3577 50.919 27.0024 51.7143 27.0024V25.5624ZM51.7143 25.5624L51.7143 25.5624V27.0024C52.5096 27.0024 53.1543 26.3577 53.1543 25.5624H51.7143ZM51.7143 25.5624L51.7143 25.5624H53.1543C53.1543 24.7671 52.5096 24.1224 51.7143 24.1224V25.5624ZM57.7143 24.1224C56.919 24.1224 56.2743 24.7671 56.2743 25.5624H57.7143L57.7143 25.5624V24.1224ZM59.1543 25.5624C59.1543 24.7671 58.5096 24.1224 57.7143 24.1224V25.5624L57.7143 25.5624H59.1543ZM57.7143 27.0024C58.5096 27.0024 59.1543 26.3577 59.1543 25.5624H57.7143L57.7143 25.5624V27.0024ZM56.2743 25.5624C56.2743 26.3577 56.919 27.0024 57.7143 27.0024V25.5624L57.7143 25.5624H56.2743ZM69.7143 46.5624L69.7143 46.5624V45.1224C68.919 45.1224 68.2743 45.7671 68.2743 46.5624H69.7143ZM69.7143 46.5624L69.7143 46.5624H68.2743C68.2743 47.3577 68.919 48.0024 69.7143 48.0024V46.5624ZM69.7143 46.5624L69.7143 46.5624V48.0024C70.5096 48.0024 71.1543 47.3577 71.1543 46.5624H69.7143ZM69.7143 46.5624L69.7143 46.5624H71.1543C71.1543 45.7671 70.5096 45.1224 69.7143 45.1224V46.5624ZM75.7143 36.1224C74.919 36.1224 74.2743 36.7671 74.2743 37.5624H75.7143H75.7143V36.1224ZM77.1543 37.5624C77.1543 36.7671 76.5096 36.1224 75.7143 36.1224V37.5624H75.7143H77.1543ZM75.7143 39.0024C76.5096 39.0024 77.1543 38.3577 77.1543 37.5624H75.7143L75.7143 37.5624V39.0024ZM74.2743 37.5624C74.2743 38.3577 74.919 39.0024 75.7143 39.0024V37.5624L75.7143 37.5624H74.2743ZM69.7143 31.5624L69.7143 31.5624V30.1224C68.919 30.1224 68.2743 30.7671 68.2743 31.5624H69.7143ZM69.7143 31.5624L69.7143 31.5624H68.2743C68.2743 32.3577 68.919 33.0024 69.7143 33.0024V31.5624ZM69.7143 31.5624L69.7143 31.5624V33.0024C70.5096 33.0024 71.1543 32.3577 71.1543 31.5624H69.7143ZM69.7143 31.5624L69.7143 31.5624H71.1543C71.1543 30.7671 70.5096 30.1224 69.7143 30.1224V31.5624ZM63.7143 21.1224C62.919 21.1224 62.2743 21.7671 62.2743 22.5624H63.7143L63.7143 22.5624V21.1224ZM65.1543 22.5624C65.1543 21.7671 64.5096 21.1224 63.7143 21.1224V22.5624L63.7143 22.5624H65.1543ZM63.7143 24.0024C64.5096 24.0024 65.1543 23.3577 65.1543 22.5624H63.7143L63.7143 22.5624V24.0024ZM62.2743 22.5624C62.2743 23.3577 62.919 24.0024 63.7143 24.0024V22.5624L63.7143 22.5624H62.2743ZM66.7143 30.1224C65.919 30.1224 65.2743 30.7671 65.2743 31.5624H66.7143V31.5624V30.1224ZM68.1543 31.5624C68.1543 30.7671 67.5096 30.1224 66.7143 30.1224V31.5624L66.7143 31.5624H68.1543ZM66.7143 33.0024C67.5096 33.0024 68.1543 32.3577 68.1543 31.5624H66.7143L66.7143 31.5624V33.0024ZM65.2743 31.5624C65.2743 32.3577 65.919 33.0024 66.7143 33.0024V31.5624V31.5624H65.2743ZM72.7143 28.5624L72.7143 28.5624V27.1224C71.919 27.1224 71.2743 27.7671 71.2743 28.5624H72.7143ZM72.7143 28.5624L72.7143 28.5624H71.2743C71.2743 29.3577 71.919 30.0024 72.7143 30.0024V28.5624ZM72.7143 28.5624L72.7143 28.5624V30.0024C73.5096 30.0024 74.1543 29.3577 74.1543 28.5624H72.7143ZM72.7143 28.5624L72.7143 28.5624H74.1543C74.1543 27.7671 73.5096 27.1224 72.7143 27.1224V28.5624ZM66.7143 24.1224C65.919 24.1224 65.2743 24.7671 65.2743 25.5624H66.7143V25.5624V24.1224ZM68.1543 25.5624C68.1543 24.7671 67.5096 24.1224 66.7143 24.1224V25.5624L66.7143 25.5624H68.1543ZM66.7143 27.0024C67.5096 27.0024 68.1543 26.3577 68.1543 25.5624H66.7143L66.7143 25.5624V27.0024ZM65.2743 25.5624C65.2743 26.3577 65.919 27.0024 66.7143 27.0024V25.5624V25.5624H65.2743ZM57.7143 31.5624L57.7143 31.5624V30.1224C56.919 30.1224 56.2743 30.7671 56.2743 31.5624H57.7143ZM57.7143 31.5624L57.7143 31.5624H56.2743C56.2743 32.3577 56.919 33.0024 57.7143 33.0024V31.5624ZM57.7143 31.5624L57.7143 31.5624V33.0024C58.5096 33.0024 59.1543 32.3577 59.1543 31.5624H57.7143ZM57.7143 31.5624L57.7143 31.5624H59.1543C59.1543 30.7671 58.5096 30.1224 57.7143 30.1224V31.5624ZM60.7143 42.1224C59.919 42.1224 59.2743 42.7671 59.2743 43.5624H60.7143L60.7143 43.5624V42.1224ZM62.1543 43.5624C62.1543 42.7671 61.5096 42.1224 60.7143 42.1224V43.5624L60.7143 43.5624H62.1543ZM60.7143 45.0024C61.5096 45.0024 62.1543 44.3577 62.1543 43.5624H60.7143L60.7143 43.5624V45.0024ZM59.2743 43.5624C59.2743 44.3577 59.919 45.0024 60.7143 45.0024V43.5624L60.7143 43.5624H59.2743ZM72.7143 34.5624L72.7143 34.5624V33.1224C71.919 33.1224 71.2743 33.7671 71.2743 34.5624H72.7143ZM72.7143 34.5624L72.7143 34.5624H71.2743C71.2743 35.3577 71.919 36.0024 72.7143 36.0024V34.5624ZM72.7143 34.5624L72.7143 34.5624V36.0024C73.5096 36.0024 74.1543 35.3577 74.1543 34.5624H72.7143ZM72.7143 34.5624L72.7143 34.5624H74.1543C74.1543 33.7671 73.5096 33.1224 72.7143 33.1224V34.5624Z" fill="#CCB129" mask="url(#path-5-outside-2_333_28722)"/>
</svg>
