<svg width="96" height="96" viewBox="0 0 96 96" fill="none" xmlns="http://www.w3.org/2000/svg">
<path d="M15 24H12V22.5H15V24Z" fill="#AAC9EE"/>
<path d="M24 24H18V22.5H24V24Z" fill="#AAC9EE"/>
<path d="M33 24H27V22.5H33V24Z" fill="#AAC9EE"/>
<path d="M42 24H36V22.5H42V24Z" fill="#AAC9EE"/>
<path d="M51 24H45V22.5H51V24Z" fill="#AAC9EE"/>
<path d="M60 24H54V22.5H60V24Z" fill="#AAC9EE"/>
<path d="M69 24H63V22.5H69V24Z" fill="#AAC9EE"/>
<path d="M78 24H72V22.5H78V24Z" fill="#AAC9EE"/>
<path d="M84 24H81V22.5H84V24Z" fill="#AAC9EE"/>
<path d="M15 36H12V34.5H15V36Z" fill="#AAC9EE"/>
<path d="M24 36H18V34.5H24V36Z" fill="#AAC9EE"/>
<path d="M33 36H27V34.5H33V36Z" fill="#AAC9EE"/>
<path d="M42 36H36V34.5H42V36Z" fill="#AAC9EE"/>
<path d="M51 36H45V34.5H51V36Z" fill="#AAC9EE"/>
<path d="M60 36H54V34.5H60V36Z" fill="#AAC9EE"/>
<path d="M69 36H63V34.5H69V36Z" fill="#AAC9EE"/>
<path d="M78 36H72V34.5H78V36Z" fill="#AAC9EE"/>
<path d="M84 36H81V34.5H84V36Z" fill="#AAC9EE"/>
<path d="M12 48H15V46.5H12V48Z" fill="#AAC9EE"/>
<path d="M18 48H24V46.5H18V48Z" fill="#AAC9EE"/>
<path d="M27 48H33V46.5H27V48Z" fill="#AAC9EE"/>
<path d="M36 48H42V46.5H36V48Z" fill="#AAC9EE"/>
<path d="M45 48H51V46.5H45V48Z" fill="#AAC9EE"/>
<path d="M54 48H60V46.5H54V48Z" fill="#AAC9EE"/>
<path d="M63 48H69V46.5H63V48Z" fill="#AAC9EE"/>
<path d="M72 48H78V46.5H72V48Z" fill="#AAC9EE"/>
<path d="M81 48H84V46.5H81V48Z" fill="#AAC9EE"/>
<path d="M15 60H12V58.5H15V60Z" fill="#AAC9EE"/>
<path d="M24 60H18V58.5H24V60Z" fill="#AAC9EE"/>
<path d="M33 60H27V58.5H33V60Z" fill="#AAC9EE"/>
<path d="M42 60H36V58.5H42V60Z" fill="#AAC9EE"/>
<path d="M51 60H45V58.5H51V60Z" fill="#AAC9EE"/>
<path d="M60 60H54V58.5H60V60Z" fill="#AAC9EE"/>
<path d="M69 60H63V58.5H69V60Z" fill="#AAC9EE"/>
<path d="M78 60H72V58.5H78V60Z" fill="#AAC9EE"/>
<path d="M84 60H81V58.5H84V60Z" fill="#AAC9EE"/>
<path d="M12 72H15V70.5H12V72Z" fill="#AAC9EE"/>
<path d="M18 72H24V70.5H18V72Z" fill="#AAC9EE"/>
<path d="M27 72H33V70.5H27V72Z" fill="#AAC9EE"/>
<path d="M36 72H42V70.5H36V72Z" fill="#AAC9EE"/>
<path d="M45 72H51V70.5H45V72Z" fill="#AAC9EE"/>
<path d="M54 72H60V70.5H54V72Z" fill="#AAC9EE"/>
<path d="M63 72H69V70.5H63V72Z" fill="#AAC9EE"/>
<path d="M72 72H78V70.5H72V72Z" fill="#AAC9EE"/>
<path d="M81 72H84V70.5H81V72Z" fill="#AAC9EE"/>
<path d="M81.47 81.12C81.47 81.3133 81.3133 81.47 81.12 81.47H13.44C12.838 81.47 12.35 81.958 12.35 82.56C12.35 83.162 12.838 83.65 13.44 83.65H82.56C83.162 83.65 83.65 83.162 83.65 82.56V13.44C83.65 12.838 83.162 12.35 82.56 12.35C81.958 12.35 81.47 12.838 81.47 13.44V81.12Z" fill="#1A1A1A" stroke="#F5F8FF" stroke-width="0.7" stroke-linecap="round" stroke-linejoin="round"/>
<path fill-rule="evenodd" clip-rule="evenodd" d="M78.2206 29.2834C78.6165 29.4052 78.8387 29.8249 78.7169 30.2208L72.7169 49.7208C72.6925 49.7999 72.6553 49.8744 72.6066 49.9413L60.6066 66.4413C60.4526 66.6531 60.1992 66.7692 59.9382 66.7476C59.6772 66.726 59.4464 66.5699 59.3292 66.3356L57 61.6773L50.1709 75.3356C50.0438 75.5897 49.7841 75.7502 49.5 75.7502C49.216 75.7502 48.9563 75.5897 48.8292 75.3356L44.8534 67.384L39.5857 73.9687C39.4036 74.1964 39.106 74.2979 38.8227 74.2289C38.5395 74.16 38.3218 73.9332 38.2646 73.6473L37.1451 68.0496L33.6432 73.8861C33.5147 74.1002 33.2881 74.2363 33.0387 74.2492C32.7893 74.2621 32.5499 74.15 32.4 73.9502L28.4189 68.642L23.0304 74.0305C22.8715 74.1894 22.6497 74.2687 22.4261 74.2466C22.2025 74.2244 22.0006 74.1032 21.876 73.9162L19.464 70.2982L15.6 75.4502C15.3515 75.7816 14.8814 75.8487 14.55 75.6002C14.2187 75.3517 14.1515 74.8816 14.4 74.5502L18.9 68.5502C19.0461 68.3555 19.2775 68.2437 19.5209 68.2505C19.7642 68.2572 19.9891 68.3816 20.1241 68.5842L22.6166 72.323L27.9697 66.9699C28.1235 66.8161 28.3363 66.7367 28.5532 66.7521C28.7701 66.7675 28.9696 66.8763 29.1 67.0502L32.9308 72.1579L36.8569 65.6143C37.0163 65.3486 37.3227 65.2083 37.628 65.2612C37.9334 65.3141 38.1747 65.5493 38.2355 65.8531L39.4198 71.7749L44.4144 65.5317C44.5742 65.332 44.8247 65.2274 45.0791 65.2544C45.3334 65.2813 45.5565 65.436 45.6709 65.6648L49.5 73.3232L56.3292 59.6648C56.4563 59.4107 56.716 59.2502 57 59.2502C57.2841 59.2502 57.5438 59.4107 57.6709 59.6648L60.1191 64.5613L71.32 49.1602L77.2832 29.7796C77.405 29.3837 77.8247 29.1616 78.2206 29.2834Z" fill="#5693DC"/>
<path fill-rule="evenodd" clip-rule="evenodd" d="M62.8879 56.2584C63.1473 56.2192 63.4083 56.3184 63.5762 56.5199L70.9948 65.4223L78.3859 69.8569C78.7411 70.07 78.8562 70.5307 78.6431 70.8859C78.43 71.2411 77.9693 71.3562 77.6141 71.1431L70.1141 66.6431C70.042 66.5999 69.9777 66.5448 69.9238 66.4802L63.2162 58.431L56.1923 75.2885C56.0496 75.6309 55.678 75.8176 55.3181 75.7276L49.3181 74.2276C49.1588 74.1878 49.0169 74.0968 48.9144 73.9685L44.25 68.1381V75C44.25 75.3034 44.0673 75.5768 43.787 75.6929C43.5068 75.809 43.1842 75.7448 42.9697 75.5303L36 68.5607L29.0303 75.5303C28.7374 75.8232 28.2626 75.8232 27.9697 75.5303L24.1166 71.6772L21.624 75.416C21.4994 75.603 21.2975 75.7242 21.0739 75.7464C20.8503 75.7685 20.6286 75.6892 20.4697 75.5303L15.9697 71.0303C15.6768 70.7375 15.6768 70.2626 15.9697 69.9697C16.2626 69.6768 16.7374 69.6768 17.0303 69.9697L20.8834 73.8228L23.376 70.084C23.5006 69.897 23.7025 69.7758 23.9261 69.7537C24.1497 69.7315 24.3714 69.8108 24.5303 69.9697L28.5 73.9394L35.4697 66.9697C35.7626 66.6768 36.2374 66.6768 36.5303 66.9697L42.75 73.1894V66C42.75 65.6815 42.9512 65.3977 43.2517 65.2923C43.5523 65.1869 43.8867 65.2828 44.0857 65.5315L49.9275 72.8338L55.0559 74.1159L62.3077 56.7116C62.4086 56.4694 62.6286 56.2976 62.8879 56.2584Z" fill="#1A487F"/>
<path fill-rule="evenodd" clip-rule="evenodd" d="M79.8891 28.732H54.6891V76.2765H79.8891V28.732ZM53.7891 27.832V77.1765H80.7891V27.832H53.7891Z" fill="#DF0F0F" fill-opacity="0.7"/>
</svg>
