<svg width="95" height="95" viewBox="0 0 95 95" fill="none" xmlns="http://www.w3.org/2000/svg">
<path fill-rule="evenodd" clip-rule="evenodd" d="M38.6316 25.2367C44.105 25.1053 43.2828 30.5968 42.5009 34.1431C42.1213 35.8646 40.6783 37.3138 39.1399 38.8588C37.509 40.4967 35.771 42.2422 35.079 44.5337C34.6362 45.9999 34.3623 47.7166 34.0962 49.3835C33.5542 52.7794 33.0453 55.9681 31.2096 56.4086C29.1916 56.8928 28.5355 56.5517 27.1396 55.8259C26.6426 55.5675 26.0517 55.2603 25.2721 54.9242C22.3034 53.6443 22.4786 51.9554 23.7878 43.0492C25.0971 34.1429 33.1582 25.368 38.6316 25.2367ZM69.8144 40.0752C67.3384 36.7916 57.0272 37.2647 57.9394 43.044C58.8517 48.8232 58.1493 52.4234 56.4551 54.919C55.6094 56.1648 53.1104 57.0998 50.2198 58.1815C47.32 59.2665 44.026 60.4991 41.6113 62.3408C36.7894 66.0185 34.1894 68.2783 37.1582 69.7627C40.127 71.2471 58.9471 77.235 68.3301 59.3721C72.1719 52.5421 72.2905 43.3588 69.8144 40.0752Z" fill="#80AEE5"/>
<path d="M66.9601 77.2389L67.2743 77.0545L67.12 76.7245C66.7876 76.0135 66.6017 75.22 66.6017 74.382C66.6017 71.3237 69.0809 68.8445 72.1392 68.8445C75.1974 68.8445 77.6767 71.3237 77.6767 74.382C77.6767 77.4403 75.1974 79.9195 72.1392 79.9195C70.806 79.9195 69.5838 79.4489 68.6281 78.6643L68.4105 78.4856L68.1688 78.6303C62.4514 82.0542 55.7201 84.0279 48.5189 84.0279C27.8086 84.0279 10.9762 67.6958 10.9762 47.4962C10.9762 27.2967 27.8086 10.9646 48.5189 10.9646C55.9237 10.9646 62.8317 13.0515 68.6515 16.6561C69.0772 16.9198 69.2085 17.4786 68.9449 17.9043C68.6812 18.33 68.1223 18.4613 67.6967 18.1977C62.1576 14.767 55.5793 12.7779 48.5189 12.7779C28.7619 12.7779 12.7895 28.3457 12.7895 47.4962C12.7895 66.6468 28.7619 82.2146 48.5189 82.2146C55.2688 82.2146 61.5782 80.3966 66.9601 77.2389ZM67.2235 38.0938L67.9792 38.2116L67.6449 37.5237C63.9424 29.9055 56.1288 24.6529 47.0876 24.6529C34.4716 24.6529 24.2443 34.8802 24.2443 47.4962C24.2443 47.997 23.8384 48.4029 23.3376 48.4029C22.8369 48.4029 22.431 47.997 22.431 47.4962C22.431 33.8787 33.4701 22.8396 47.0876 22.8396C60.7051 22.8396 71.7443 33.8787 71.7443 47.4962C71.7443 61.1137 60.7051 72.1529 47.0876 72.1529C42.9263 72.1529 39.0031 71.1213 35.5627 69.299L35.3755 69.6525L35.5627 69.299C35.1202 69.0647 34.9515 68.516 35.1859 68.0735C35.4202 67.631 35.969 67.4622 36.4115 67.6966C39.5968 69.3837 43.2292 70.3396 47.0876 70.3396C59.7037 70.3396 69.931 60.1123 69.931 47.4962C69.931 45.012 69.5343 42.6196 68.8004 40.3794L68.7039 40.0848L68.3946 40.1047C68.3234 40.1093 68.2501 40.1055 68.1758 40.0922C65.5243 39.618 63.5908 39.4465 62.1877 39.509C60.7755 39.5718 60.0112 39.8674 59.5838 40.2157C59.1842 40.5414 58.9532 41.017 58.8598 41.7769C58.7631 42.5629 58.8279 43.5273 58.931 44.7226L59.3295 44.6882L58.931 44.7226C58.9703 45.1785 59.0222 45.6587 59.0754 46.1509L59.0756 46.153C59.2811 48.0536 59.5036 50.1381 59.1753 52.0302C58.9602 53.2704 58.5089 54.4822 57.6605 55.5906C56.8189 56.6902 55.6203 57.644 53.9714 58.428L53.9623 58.4324L53.9533 58.4372C52.2857 59.3364 50.4689 59.7698 48.7803 60.1707C48.4316 60.2535 48.0878 60.3351 47.7546 60.4189C45.7403 60.9254 43.8811 61.5459 42.2177 63.0188C41.8428 63.3508 41.2698 63.3159 40.9379 62.9411C40.6059 62.5662 40.6407 61.9932 41.0156 61.6612C43.0143 59.8914 45.2241 59.1854 47.3123 58.6603L47.2148 58.2724L47.3123 58.6603C47.7086 58.5606 48.0937 58.4684 48.4711 58.3781L48.4975 58.3718C50.1556 57.9749 51.676 57.6109 53.1191 56.8268L53.1416 56.8146L53.1646 56.8037C54.6186 56.1167 55.58 55.3254 56.2206 54.4885C56.8598 53.6533 57.2139 52.7279 57.3887 51.7203C57.6687 50.1061 57.4885 48.4121 57.2964 46.6056L57.2927 46.5714C57.2343 46.0215 57.1745 45.4593 57.1244 44.8785C57.0241 43.7165 56.9362 42.5615 57.06 41.5555C57.1871 40.5218 57.5503 39.5337 58.4382 38.8101C59.2991 38.1084 60.5182 37.7682 62.1071 37.6974C63.4436 37.638 65.1225 37.7661 67.2235 38.0938ZM38.1086 38.5336L38.1088 38.5334L38.1128 38.5296L38.1131 38.5294L38.1415 38.5035C38.8523 37.8552 39.3792 37.3746 39.7451 36.8987C40.0926 36.4469 40.2434 36.0623 40.2434 35.6212C40.2434 35.1205 40.6494 34.7146 41.1501 34.7146C41.6508 34.7146 42.0568 35.1205 42.0568 35.6212C42.0568 36.5706 41.6982 37.3336 41.1826 38.0042C40.7197 38.606 40.0887 39.1825 39.4444 39.7696L39.4443 39.7696L39.3307 39.8732L39.3306 39.8733C37.9376 41.1439 36.2311 42.7284 34.7429 45.5088L34.7219 45.548L34.6972 45.585C34.378 46.0622 34.1857 46.7642 34.0912 47.6842C34.0001 48.5708 34.0082 49.5505 34.0166 50.5683L34.0167 50.583L34.0173 50.6554C34.0257 51.6744 34.0323 52.7478 33.9048 53.6751C33.7807 54.5776 33.5054 55.5544 32.7736 56.1961C32.2084 56.6918 31.6028 57.0348 30.9076 57.1989C30.2202 57.3612 29.5098 57.3333 28.7566 57.187C27.3769 56.919 25.6486 56.2035 23.3644 55.2552L23.3644 55.2552L22.9903 55.0999L22.9902 55.0999C22.5277 54.9081 22.3083 54.3776 22.5001 53.9151C22.6919 53.4525 23.2224 53.2331 23.6849 53.4249L23.7928 53.4697L23.9461 53.1002L23.7928 53.4697L23.8562 53.4959C26.3184 54.5173 27.9002 55.1734 29.1024 55.4069L29.1787 55.0143L29.1024 55.4069C29.692 55.5215 30.1289 55.5196 30.4909 55.4341C30.8451 55.3505 31.1913 55.1719 31.5781 54.8328L31.3143 54.532L31.5781 54.8328C31.7982 54.6397 31.9988 54.2252 32.1083 53.4281C32.2146 52.6555 32.2127 51.72 32.204 50.6703V50.6702L32.2029 50.5369C32.1946 49.5531 32.186 48.4851 32.2874 47.4988C32.3903 46.4974 32.6154 45.465 33.1555 44.6291L33.1642 44.6158L33.1717 44.6017C34.8046 41.571 36.6881 39.8292 38.1086 38.5336ZM72.1392 78.1062C74.196 78.1062 75.8633 76.4388 75.8633 74.382C75.8633 72.3252 74.196 70.6578 72.1392 70.6578C70.0824 70.6578 68.415 72.3252 68.415 74.382C68.415 76.4388 70.0824 78.1062 72.1392 78.1062ZM75.9644 25.1998C76.3585 24.8908 76.9284 24.9597 77.2374 25.3537C79.6201 28.392 81.5252 31.8059 82.842 35.4894C83.0105 35.9609 82.7649 36.4798 82.2934 36.6484C81.8219 36.8169 81.303 36.5713 81.1345 36.0998C79.8848 32.6042 78.0759 29.3613 75.8105 26.4727C75.5015 26.0787 75.5704 25.5088 75.9644 25.1998Z" fill="#1A1A1A" stroke="#F5F8FF" stroke-width="0.8" stroke-linecap="round"/>
</svg>
