<svg width="96" height="96" viewBox="0 0 96 96" fill="none" xmlns="http://www.w3.org/2000/svg">
<rect x="12.75" y="24.75" width="70.5" height="46.5" rx="2.97414" stroke="#1A1A1A" stroke-width="1.5"/>
<path d="M52.9687 47.5862L43.0377 53.1724L43.0377 42L52.9687 47.5862Z" fill="#5693DC"/>
<path fill-rule="evenodd" clip-rule="evenodd" d="M18.8203 64.5C18.8203 63.6716 19.4919 63 20.3203 63H75.6651C76.4936 63 77.1651 63.6716 77.1651 64.5C77.1651 65.3284 76.4936 66 75.6651 66H20.3203C19.4919 66 18.8203 65.3284 18.8203 64.5Z" fill="#80AEE5"/>
<path fill-rule="evenodd" clip-rule="evenodd" d="M18.8203 64.5C18.8203 63.6716 19.4919 63 20.3203 63H59.5272C60.3556 63 61.0272 63.6716 61.0272 64.5C61.0272 65.3284 60.3556 66 59.5272 66H20.3203C19.4919 66 18.8203 65.3284 18.8203 64.5Z" fill="#333333"/>
</svg>
