<svg width="96" height="96" viewBox="0 0 96 96" fill="none" xmlns="http://www.w3.org/2000/svg">
<path d="M14.375 80.275C14.375 80.4683 14.5317 80.625 14.725 80.625H81.7C82.2937 80.625 82.775 81.1063 82.775 81.7C82.775 82.2937 82.2937 82.775 81.7 82.775H13.3C12.7063 82.775 12.225 82.2937 12.225 81.7V13.3C12.225 12.7063 12.7063 12.225 13.3 12.225C13.8937 12.225 14.375 12.7063 14.375 13.3V80.275Z" fill="#1A1A1A" stroke="#F5F8FF" stroke-width="0.7" stroke-linecap="round" stroke-linejoin="round"/>
<path fill-rule="evenodd" clip-rule="evenodd" d="M81.2777 13.7186C81.8342 14.2751 81.8342 15.1774 81.2777 15.7339L21.4277 75.5839C20.8712 76.1404 19.969 76.1404 19.4125 75.5839C18.856 75.0274 18.856 74.1251 19.4125 73.5686L79.2625 13.7186C79.819 13.1621 80.7212 13.1621 81.2777 13.7186Z" fill="#AAC9EE"/>
<mask id="path-3-outside-1_274_608" maskUnits="userSpaceOnUse" x="20.8389" y="17.9907" width="54" height="52" fill="black">
<rect fill="white" x="20.8389" y="17.9907" width="54" height="52"/>
<path fill-rule="evenodd" clip-rule="evenodd" d="M68.862 19.7032C68.862 20.0967 68.543 20.4157 68.1495 20.4157C67.756 20.4157 67.437 20.0967 67.437 19.7032C67.437 19.3097 67.756 18.9907 68.1495 18.9907C68.543 18.9907 68.862 19.3097 68.862 19.7032ZM69.5875 33.2417C69.981 33.2417 70.3 32.9227 70.3 32.5292C70.3 32.1356 69.981 31.8167 69.5875 31.8167C69.194 31.8167 68.875 32.1356 68.875 32.5292C68.875 32.9227 69.194 33.2417 69.5875 33.2417ZM47.4777 45.3551C47.4777 45.7486 47.1587 46.0676 46.7652 46.0676C46.3717 46.0676 46.0527 45.7486 46.0527 45.3551C46.0527 44.9616 46.3717 44.6426 46.7652 44.6426C47.1587 44.6426 47.4777 44.9616 47.4777 45.3551ZM33.237 58.181C33.237 58.5745 32.918 58.8935 32.5245 58.8935C32.131 58.8935 31.812 58.5745 31.812 58.181C31.812 57.7875 32.131 57.4685 32.5245 57.4685C32.918 57.4685 33.237 57.7875 33.237 58.181ZM23.9662 60.3199C24.3597 60.3199 24.6787 60.0009 24.6787 59.6074C24.6787 59.2139 24.3597 58.8949 23.9662 58.8949C23.5727 58.8949 23.2537 59.2139 23.2537 59.6074C23.2537 60.0009 23.5727 60.3199 23.9662 60.3199ZM22.5514 67.4403C22.9449 67.4403 23.2639 67.1213 23.2639 66.7278C23.2639 66.3343 22.9449 66.0153 22.5514 66.0153C22.1579 66.0153 21.8389 66.3343 21.8389 66.7278C21.8389 67.1213 22.1579 67.4403 22.5514 67.4403ZM48.2032 61.7463C48.5967 61.7463 48.9157 61.4273 48.9157 61.0338C48.9157 60.6403 48.5967 60.3213 48.2032 60.3213C47.8097 60.3213 47.4907 60.6403 47.4907 61.0338C47.4907 61.4273 47.8097 61.7463 48.2032 61.7463ZM36.7921 54.6143C37.1856 54.6143 37.5046 54.2953 37.5046 53.9018C37.5046 53.5083 37.1856 53.1893 36.7921 53.1893C36.3986 53.1893 36.0796 53.5083 36.0796 53.9018C36.0796 54.2953 36.3986 54.6143 36.7921 54.6143ZM48.9157 51.049C48.9157 51.4426 48.5967 51.7615 48.2032 51.7615C47.8097 51.7615 47.4907 51.4426 47.4907 51.049C47.4907 50.6555 47.8097 50.3365 48.2032 50.3365C48.5967 50.3365 48.9157 50.6555 48.9157 51.049ZM42.4977 57.4671C42.8912 57.4671 43.2102 57.1481 43.2102 56.7546C43.2102 56.3611 42.8912 56.0421 42.4977 56.0421C42.1042 56.0421 41.7852 56.3611 41.7852 56.7546C41.7852 57.1481 42.1042 57.4671 42.4977 57.4671ZM43.2102 52.4754C43.2102 52.8689 42.8912 53.1879 42.4977 53.1879C42.1042 53.1879 41.7852 52.8689 41.7852 52.4754C41.7852 52.0819 42.1042 51.7629 42.4977 51.7629C42.8912 51.7629 43.2102 52.0819 43.2102 52.4754ZM42.4977 63.1611C42.8912 63.1611 43.2102 62.8421 43.2102 62.4486C43.2102 62.0551 42.8912 61.7361 42.4977 61.7361C42.1042 61.7361 41.7852 62.0551 41.7852 62.4486C41.7852 62.8421 42.1042 63.1611 42.4977 63.1611ZM36.0898 68.1542C36.0898 68.5477 35.7708 68.8666 35.3773 68.8666C34.9838 68.8666 34.6648 68.5477 34.6648 68.1542C34.6648 67.7606 34.9838 67.4417 35.3773 67.4417C35.7708 67.4417 36.0898 67.7606 36.0898 68.1542ZM72.4171 27.5361C72.8106 27.5361 73.1296 27.2171 73.1296 26.8236C73.1296 26.4301 72.8106 26.1111 72.4171 26.1111C72.0236 26.1111 71.7046 26.4301 71.7046 26.8236C71.7046 27.2171 72.0236 27.5361 72.4171 27.5361ZM60.3037 33.9555C60.3037 34.349 59.9847 34.668 59.5912 34.668C59.1977 34.668 58.8787 34.349 58.8787 33.9555C58.8787 33.562 59.1977 33.243 59.5912 33.243C59.9847 33.243 60.3037 33.562 60.3037 33.9555ZM63.8819 47.494C64.2754 47.494 64.5944 47.175 64.5944 46.7815C64.5944 46.388 64.2754 46.069 63.8819 46.069C63.4884 46.069 63.1694 46.388 63.1694 46.7815C63.1694 47.175 63.4884 47.494 63.8819 47.494ZM61.7416 51.049C61.7416 51.4426 61.4227 51.7615 61.0292 51.7615C60.6356 51.7615 60.3167 51.4426 60.3167 51.049C60.3167 50.6555 60.6356 50.3365 61.0292 50.3365C61.4227 50.3365 61.7416 50.6555 61.7416 51.049ZM45.3504 38.9356C45.7439 38.9356 46.0629 38.6166 46.0629 38.2231C46.0629 37.8296 45.7439 37.5106 45.3504 37.5106C44.9569 37.5106 44.6379 37.8296 44.6379 38.2231C44.6379 38.6166 44.9569 38.9356 45.3504 38.9356ZM46.0629 32.5292C46.0629 32.9227 45.7439 33.2417 45.3504 33.2417C44.9569 33.2417 44.6379 32.9227 44.6379 32.5292C44.6379 32.1356 44.9569 31.8167 45.3504 31.8167C45.7439 31.8167 46.0629 32.1356 46.0629 32.5292ZM43.9356 47.494C44.3291 47.494 44.6481 47.175 44.6481 46.7815C44.6481 46.388 44.3291 46.069 43.9356 46.069C43.5421 46.069 43.2231 46.388 43.2231 46.7815C43.2231 47.175 43.5421 47.494 43.9356 47.494ZM37.5046 62.4486C37.5046 62.8421 37.1856 63.1611 36.7921 63.1611C36.3986 63.1611 36.0796 62.8421 36.0796 62.4486C36.0796 62.0551 36.3986 61.7361 36.7921 61.7361C37.1856 61.7361 37.5046 62.0551 37.5046 62.4486ZM28.2569 64.5875C28.6504 64.5875 28.9694 64.2685 28.9694 63.875C28.9694 63.4815 28.6504 63.1625 28.2569 63.1625C27.8634 63.1625 27.5444 63.4815 27.5444 63.875C27.5444 64.2685 27.8634 64.5875 28.2569 64.5875ZM60.3037 56.7546C60.3037 57.1481 59.9847 57.4671 59.5912 57.4671C59.1977 57.4671 58.8787 57.1481 58.8787 56.7546C58.8787 56.3611 59.1977 56.0421 59.5912 56.0421C59.9847 56.0421 60.3037 56.3611 60.3037 56.7546ZM41.0829 40.362C41.4764 40.362 41.7954 40.043 41.7954 39.6495C41.7954 39.256 41.4764 38.937 41.0829 38.937C40.6894 38.937 40.3704 39.256 40.3704 39.6495C40.3704 40.043 40.6894 40.362 41.0829 40.362ZM51.7685 48.2079C51.7685 48.6014 51.4495 48.9204 51.056 48.9204C50.6625 48.9204 50.3435 48.6014 50.3435 48.2079C50.3435 47.8144 50.6625 47.4954 51.056 47.4954C51.4495 47.4954 51.7685 47.8144 51.7685 48.2079ZM56.7616 44.6412C57.1551 44.6412 57.4741 44.3222 57.4741 43.9287C57.4741 43.5352 57.1551 43.2162 56.7616 43.2162C56.3681 43.2162 56.0491 43.5352 56.0491 43.9287C56.0491 44.3222 56.3681 44.6412 56.7616 44.6412ZM40.3574 45.3551C40.3574 45.7486 40.0384 46.0676 39.6449 46.0676C39.2514 46.0676 38.9324 45.7486 38.9324 45.3551C38.9324 44.9616 39.2514 44.6426 39.6449 44.6426C40.0384 44.6426 40.3574 44.9616 40.3574 45.3551ZM51.056 38.9356C51.4495 38.9356 51.7685 38.6166 51.7685 38.2231C51.7685 37.8296 51.4495 37.5106 51.056 37.5106C50.6625 37.5106 50.3435 37.8296 50.3435 38.2231C50.3435 38.6166 50.6625 38.9356 51.056 38.9356ZM56.0361 28.25C56.0361 28.6435 55.7171 28.9625 55.3236 28.9625C54.9301 28.9625 54.6111 28.6435 54.6111 28.25C54.6111 27.8565 54.9301 27.5375 55.3236 27.5375C55.7171 27.5375 56.0361 27.8565 56.0361 28.25ZM61.0292 28.9625C61.4227 28.9625 61.7416 28.6435 61.7416 28.25C61.7416 27.8565 61.4227 27.5375 61.0292 27.5375C60.6356 27.5375 60.3167 27.8565 60.3167 28.25C60.3167 28.6435 60.6356 28.9625 61.0292 28.9625ZM56.0361 38.2231C56.0361 38.6166 55.7171 38.9356 55.3236 38.9356C54.9301 38.9356 54.6111 38.6166 54.6111 38.2231C54.6111 37.8296 54.9301 37.5106 55.3236 37.5106C55.7171 37.5106 56.0361 37.8296 56.0361 38.2231ZM62.4439 40.362C62.8374 40.362 63.1564 40.043 63.1564 39.6495C63.1564 39.256 62.8374 38.937 62.4439 38.937C62.0504 38.937 61.7314 39.256 61.7314 39.6495C61.7314 40.043 62.0504 40.362 62.4439 40.362Z"/>
</mask>
<path fill-rule="evenodd" clip-rule="evenodd" d="M68.862 19.7032C68.862 20.0967 68.543 20.4157 68.1495 20.4157C67.756 20.4157 67.437 20.0967 67.437 19.7032C67.437 19.3097 67.756 18.9907 68.1495 18.9907C68.543 18.9907 68.862 19.3097 68.862 19.7032ZM69.5875 33.2417C69.981 33.2417 70.3 32.9227 70.3 32.5292C70.3 32.1356 69.981 31.8167 69.5875 31.8167C69.194 31.8167 68.875 32.1356 68.875 32.5292C68.875 32.9227 69.194 33.2417 69.5875 33.2417ZM47.4777 45.3551C47.4777 45.7486 47.1587 46.0676 46.7652 46.0676C46.3717 46.0676 46.0527 45.7486 46.0527 45.3551C46.0527 44.9616 46.3717 44.6426 46.7652 44.6426C47.1587 44.6426 47.4777 44.9616 47.4777 45.3551ZM33.237 58.181C33.237 58.5745 32.918 58.8935 32.5245 58.8935C32.131 58.8935 31.812 58.5745 31.812 58.181C31.812 57.7875 32.131 57.4685 32.5245 57.4685C32.918 57.4685 33.237 57.7875 33.237 58.181ZM23.9662 60.3199C24.3597 60.3199 24.6787 60.0009 24.6787 59.6074C24.6787 59.2139 24.3597 58.8949 23.9662 58.8949C23.5727 58.8949 23.2537 59.2139 23.2537 59.6074C23.2537 60.0009 23.5727 60.3199 23.9662 60.3199ZM22.5514 67.4403C22.9449 67.4403 23.2639 67.1213 23.2639 66.7278C23.2639 66.3343 22.9449 66.0153 22.5514 66.0153C22.1579 66.0153 21.8389 66.3343 21.8389 66.7278C21.8389 67.1213 22.1579 67.4403 22.5514 67.4403ZM48.2032 61.7463C48.5967 61.7463 48.9157 61.4273 48.9157 61.0338C48.9157 60.6403 48.5967 60.3213 48.2032 60.3213C47.8097 60.3213 47.4907 60.6403 47.4907 61.0338C47.4907 61.4273 47.8097 61.7463 48.2032 61.7463ZM36.7921 54.6143C37.1856 54.6143 37.5046 54.2953 37.5046 53.9018C37.5046 53.5083 37.1856 53.1893 36.7921 53.1893C36.3986 53.1893 36.0796 53.5083 36.0796 53.9018C36.0796 54.2953 36.3986 54.6143 36.7921 54.6143ZM48.9157 51.049C48.9157 51.4426 48.5967 51.7615 48.2032 51.7615C47.8097 51.7615 47.4907 51.4426 47.4907 51.049C47.4907 50.6555 47.8097 50.3365 48.2032 50.3365C48.5967 50.3365 48.9157 50.6555 48.9157 51.049ZM42.4977 57.4671C42.8912 57.4671 43.2102 57.1481 43.2102 56.7546C43.2102 56.3611 42.8912 56.0421 42.4977 56.0421C42.1042 56.0421 41.7852 56.3611 41.7852 56.7546C41.7852 57.1481 42.1042 57.4671 42.4977 57.4671ZM43.2102 52.4754C43.2102 52.8689 42.8912 53.1879 42.4977 53.1879C42.1042 53.1879 41.7852 52.8689 41.7852 52.4754C41.7852 52.0819 42.1042 51.7629 42.4977 51.7629C42.8912 51.7629 43.2102 52.0819 43.2102 52.4754ZM42.4977 63.1611C42.8912 63.1611 43.2102 62.8421 43.2102 62.4486C43.2102 62.0551 42.8912 61.7361 42.4977 61.7361C42.1042 61.7361 41.7852 62.0551 41.7852 62.4486C41.7852 62.8421 42.1042 63.1611 42.4977 63.1611ZM36.0898 68.1542C36.0898 68.5477 35.7708 68.8666 35.3773 68.8666C34.9838 68.8666 34.6648 68.5477 34.6648 68.1542C34.6648 67.7606 34.9838 67.4417 35.3773 67.4417C35.7708 67.4417 36.0898 67.7606 36.0898 68.1542ZM72.4171 27.5361C72.8106 27.5361 73.1296 27.2171 73.1296 26.8236C73.1296 26.4301 72.8106 26.1111 72.4171 26.1111C72.0236 26.1111 71.7046 26.4301 71.7046 26.8236C71.7046 27.2171 72.0236 27.5361 72.4171 27.5361ZM60.3037 33.9555C60.3037 34.349 59.9847 34.668 59.5912 34.668C59.1977 34.668 58.8787 34.349 58.8787 33.9555C58.8787 33.562 59.1977 33.243 59.5912 33.243C59.9847 33.243 60.3037 33.562 60.3037 33.9555ZM63.8819 47.494C64.2754 47.494 64.5944 47.175 64.5944 46.7815C64.5944 46.388 64.2754 46.069 63.8819 46.069C63.4884 46.069 63.1694 46.388 63.1694 46.7815C63.1694 47.175 63.4884 47.494 63.8819 47.494ZM61.7416 51.049C61.7416 51.4426 61.4227 51.7615 61.0292 51.7615C60.6356 51.7615 60.3167 51.4426 60.3167 51.049C60.3167 50.6555 60.6356 50.3365 61.0292 50.3365C61.4227 50.3365 61.7416 50.6555 61.7416 51.049ZM45.3504 38.9356C45.7439 38.9356 46.0629 38.6166 46.0629 38.2231C46.0629 37.8296 45.7439 37.5106 45.3504 37.5106C44.9569 37.5106 44.6379 37.8296 44.6379 38.2231C44.6379 38.6166 44.9569 38.9356 45.3504 38.9356ZM46.0629 32.5292C46.0629 32.9227 45.7439 33.2417 45.3504 33.2417C44.9569 33.2417 44.6379 32.9227 44.6379 32.5292C44.6379 32.1356 44.9569 31.8167 45.3504 31.8167C45.7439 31.8167 46.0629 32.1356 46.0629 32.5292ZM43.9356 47.494C44.3291 47.494 44.6481 47.175 44.6481 46.7815C44.6481 46.388 44.3291 46.069 43.9356 46.069C43.5421 46.069 43.2231 46.388 43.2231 46.7815C43.2231 47.175 43.5421 47.494 43.9356 47.494ZM37.5046 62.4486C37.5046 62.8421 37.1856 63.1611 36.7921 63.1611C36.3986 63.1611 36.0796 62.8421 36.0796 62.4486C36.0796 62.0551 36.3986 61.7361 36.7921 61.7361C37.1856 61.7361 37.5046 62.0551 37.5046 62.4486ZM28.2569 64.5875C28.6504 64.5875 28.9694 64.2685 28.9694 63.875C28.9694 63.4815 28.6504 63.1625 28.2569 63.1625C27.8634 63.1625 27.5444 63.4815 27.5444 63.875C27.5444 64.2685 27.8634 64.5875 28.2569 64.5875ZM60.3037 56.7546C60.3037 57.1481 59.9847 57.4671 59.5912 57.4671C59.1977 57.4671 58.8787 57.1481 58.8787 56.7546C58.8787 56.3611 59.1977 56.0421 59.5912 56.0421C59.9847 56.0421 60.3037 56.3611 60.3037 56.7546ZM41.0829 40.362C41.4764 40.362 41.7954 40.043 41.7954 39.6495C41.7954 39.256 41.4764 38.937 41.0829 38.937C40.6894 38.937 40.3704 39.256 40.3704 39.6495C40.3704 40.043 40.6894 40.362 41.0829 40.362ZM51.7685 48.2079C51.7685 48.6014 51.4495 48.9204 51.056 48.9204C50.6625 48.9204 50.3435 48.6014 50.3435 48.2079C50.3435 47.8144 50.6625 47.4954 51.056 47.4954C51.4495 47.4954 51.7685 47.8144 51.7685 48.2079ZM56.7616 44.6412C57.1551 44.6412 57.4741 44.3222 57.4741 43.9287C57.4741 43.5352 57.1551 43.2162 56.7616 43.2162C56.3681 43.2162 56.0491 43.5352 56.0491 43.9287C56.0491 44.3222 56.3681 44.6412 56.7616 44.6412ZM40.3574 45.3551C40.3574 45.7486 40.0384 46.0676 39.6449 46.0676C39.2514 46.0676 38.9324 45.7486 38.9324 45.3551C38.9324 44.9616 39.2514 44.6426 39.6449 44.6426C40.0384 44.6426 40.3574 44.9616 40.3574 45.3551ZM51.056 38.9356C51.4495 38.9356 51.7685 38.6166 51.7685 38.2231C51.7685 37.8296 51.4495 37.5106 51.056 37.5106C50.6625 37.5106 50.3435 37.8296 50.3435 38.2231C50.3435 38.6166 50.6625 38.9356 51.056 38.9356ZM56.0361 28.25C56.0361 28.6435 55.7171 28.9625 55.3236 28.9625C54.9301 28.9625 54.6111 28.6435 54.6111 28.25C54.6111 27.8565 54.9301 27.5375 55.3236 27.5375C55.7171 27.5375 56.0361 27.8565 56.0361 28.25ZM61.0292 28.9625C61.4227 28.9625 61.7416 28.6435 61.7416 28.25C61.7416 27.8565 61.4227 27.5375 61.0292 27.5375C60.6356 27.5375 60.3167 27.8565 60.3167 28.25C60.3167 28.6435 60.6356 28.9625 61.0292 28.9625ZM56.0361 38.2231C56.0361 38.6166 55.7171 38.9356 55.3236 38.9356C54.9301 38.9356 54.6111 38.6166 54.6111 38.2231C54.6111 37.8296 54.9301 37.5106 55.3236 37.5106C55.7171 37.5106 56.0361 37.8296 56.0361 38.2231ZM62.4439 40.362C62.8374 40.362 63.1564 40.043 63.1564 39.6495C63.1564 39.256 62.8374 38.937 62.4439 38.937C62.0504 38.937 61.7314 39.256 61.7314 39.6495C61.7314 40.043 62.0504 40.362 62.4439 40.362Z" fill="#AAC9EE"/>
<path d="M68.1495 21.1282C68.9365 21.1282 69.5745 20.4902 69.5745 19.7032H68.1495H68.1495V21.1282ZM66.7245 19.7032C66.7245 20.4902 67.3625 21.1282 68.1495 21.1282V19.7032H68.1495H66.7245ZM68.1495 18.2782C67.3625 18.2782 66.7245 18.9162 66.7245 19.7032H68.1495H68.1495V18.2782ZM69.5745 19.7032C69.5745 18.9162 68.9365 18.2782 68.1495 18.2782V19.7032H68.1495H69.5745ZM69.5875 32.5292L69.5875 32.5292V33.9542C70.3745 33.9542 71.0125 33.3162 71.0125 32.5292H69.5875ZM69.5875 32.5292L69.5875 32.5292H71.0125C71.0125 31.7421 70.3745 31.1042 69.5875 31.1042V32.5292ZM69.5875 32.5292L69.5875 32.5292V31.1042C68.8005 31.1042 68.1625 31.7421 68.1625 32.5292H69.5875ZM69.5875 32.5292L69.5875 32.5292H68.1625C68.1625 33.3162 68.8005 33.9542 69.5875 33.9542V32.5292ZM46.7652 46.7801C47.5522 46.7801 48.1902 46.1421 48.1902 45.3551H46.7652L46.7652 45.3551V46.7801ZM45.3402 45.3551C45.3402 46.1421 45.9782 46.7801 46.7652 46.7801V45.3551L46.7652 45.3551H45.3402ZM46.7652 43.9301C45.9782 43.9301 45.3402 44.5681 45.3402 45.3551H46.7652L46.7652 45.3551V43.9301ZM48.1902 45.3551C48.1902 44.5681 47.5522 43.9301 46.7652 43.9301V45.3551L46.7652 45.3551H48.1902ZM32.5245 59.606C33.3115 59.606 33.9495 58.968 33.9495 58.181H32.5245L32.5245 58.181V59.606ZM31.0995 58.181C31.0995 58.968 31.7375 59.606 32.5245 59.606V58.181L32.5245 58.181H31.0995ZM32.5245 56.756C31.7375 56.756 31.0995 57.394 31.0995 58.181H32.5245L32.5245 58.181V56.756ZM33.9495 58.181C33.9495 57.394 33.3115 56.756 32.5245 56.756V58.181L32.5245 58.181H33.9495ZM23.9662 59.6074L23.9662 59.6074V61.0324C24.7532 61.0324 25.3912 60.3944 25.3912 59.6074H23.9662ZM23.9662 59.6074L23.9662 59.6074H25.3912C25.3912 58.8204 24.7532 58.1824 23.9662 58.1824V59.6074ZM23.9662 59.6074L23.9662 59.6074V58.1824C23.1792 58.1824 22.5412 58.8204 22.5412 59.6074H23.9662ZM23.9662 59.6074L23.9662 59.6074H22.5412C22.5412 60.3944 23.1792 61.0324 23.9662 61.0324V59.6074ZM22.5514 66.7278V66.7278V68.1528C23.3384 68.1528 23.9764 67.5148 23.9764 66.7278H22.5514ZM22.5514 66.7278V66.7278H23.9764C23.9764 65.9408 23.3384 65.3028 22.5514 65.3028V66.7278ZM22.5514 66.7278V66.7278V65.3028C21.7644 65.3028 21.1264 65.9408 21.1264 66.7278H22.5514ZM22.5514 66.7278V66.7278H21.1264C21.1264 67.5148 21.7644 68.1528 22.5514 68.1528V66.7278ZM48.2032 61.0338L48.2032 61.0338V62.4588C48.9902 62.4588 49.6282 61.8208 49.6282 61.0338H48.2032ZM48.2032 61.0338L48.2032 61.0338H49.6282C49.6282 60.2468 48.9902 59.6088 48.2032 59.6088V61.0338ZM48.2032 61.0338L48.2032 61.0338V59.6088C47.4162 59.6088 46.7782 60.2468 46.7782 61.0338H48.2032ZM48.2032 61.0338L48.2032 61.0338H46.7782C46.7782 61.8208 47.4162 62.4588 48.2032 62.4588V61.0338ZM36.7921 53.9018L36.7921 53.9018V55.3268C37.5791 55.3268 38.2171 54.6888 38.2171 53.9018H36.7921ZM36.7921 53.9018L36.7921 53.9018H38.2171C38.2171 53.1148 37.5791 52.4768 36.7921 52.4768V53.9018ZM36.7921 53.9018L36.7921 53.9018V52.4768C36.0051 52.4768 35.3671 53.1148 35.3671 53.9018H36.7921ZM36.7921 53.9018L36.7921 53.9018H35.3671C35.3671 54.6888 36.0051 55.3268 36.7921 55.3268V53.9018ZM48.2032 52.474C48.9902 52.474 49.6282 51.8361 49.6282 51.049H48.2032L48.2032 51.049V52.474ZM46.7782 51.049C46.7782 51.8361 47.4162 52.474 48.2032 52.474V51.049L48.2032 51.049H46.7782ZM48.2032 49.624C47.4162 49.624 46.7782 50.262 46.7782 51.049H48.2032L48.2032 51.049V49.624ZM49.6282 51.049C49.6282 50.262 48.9902 49.624 48.2032 49.624V51.049L48.2032 51.049H49.6282ZM42.4977 56.7546L42.4977 56.7546V58.1796C43.2847 58.1796 43.9227 57.5416 43.9227 56.7546H42.4977ZM42.4977 56.7546L42.4977 56.7546H43.9227C43.9227 55.9676 43.2847 55.3296 42.4977 55.3296V56.7546ZM42.4977 56.7546L42.4977 56.7546V55.3296C41.7106 55.3296 41.0727 55.9676 41.0727 56.7546H42.4977ZM42.4977 56.7546L42.4977 56.7546H41.0727C41.0727 57.5416 41.7107 58.1796 42.4977 58.1796V56.7546ZM42.4977 53.9004C43.2847 53.9004 43.9227 53.2624 43.9227 52.4754H42.4977L42.4977 52.4754V53.9004ZM41.0727 52.4754C41.0727 53.2624 41.7107 53.9004 42.4977 53.9004V52.4754L42.4977 52.4754H41.0727ZM42.4977 51.0504C41.7106 51.0504 41.0727 51.6884 41.0727 52.4754H42.4977L42.4977 52.4754V51.0504ZM43.9227 52.4754C43.9227 51.6884 43.2847 51.0504 42.4977 51.0504V52.4754L42.4977 52.4754H43.9227ZM42.4977 62.4486L42.4977 62.4486V63.8736C43.2847 63.8736 43.9227 63.2356 43.9227 62.4486H42.4977ZM42.4977 62.4486L42.4977 62.4486H43.9227C43.9227 61.6616 43.2847 61.0236 42.4977 61.0236V62.4486ZM42.4977 62.4486L42.4977 62.4486V61.0236C41.7106 61.0236 41.0727 61.6616 41.0727 62.4486H42.4977ZM42.4977 62.4486L42.4977 62.4486H41.0727C41.0727 63.2356 41.7107 63.8736 42.4977 63.8736V62.4486ZM35.3773 69.5791C36.1643 69.5791 36.8023 68.9412 36.8023 68.1542H35.3773L35.3773 68.1541V69.5791ZM33.9523 68.1542C33.9523 68.9412 34.5903 69.5791 35.3773 69.5791V68.1541L35.3773 68.1542H33.9523ZM35.3773 66.7292C34.5903 66.7292 33.9523 67.3671 33.9523 68.1542H35.3773L35.3773 68.1542V66.7292ZM36.8023 68.1542C36.8023 67.3671 36.1643 66.7292 35.3773 66.7292V68.1542L35.3773 68.1542H36.8023ZM72.4171 26.8236L72.4171 26.8236V28.2486C73.2041 28.2486 73.8421 27.6106 73.8421 26.8236H72.4171ZM72.4171 26.8236L72.4171 26.8236H73.8421C73.8421 26.0366 73.2041 25.3986 72.4171 25.3986V26.8236ZM72.4171 26.8236L72.4171 26.8236V25.3986C71.6301 25.3986 70.9921 26.0366 70.9921 26.8236H72.4171ZM72.4171 26.8236L72.4171 26.8236H70.9921C70.9921 27.6106 71.6301 28.2486 72.4171 28.2486V26.8236ZM59.5912 35.3805C60.3782 35.3805 61.0162 34.7425 61.0162 33.9555H59.5912L59.5912 33.9555V35.3805ZM58.1662 33.9555C58.1662 34.7425 58.8042 35.3805 59.5912 35.3805V33.9555L59.5912 33.9555H58.1662ZM59.5912 32.5305C58.8042 32.5305 58.1662 33.1685 58.1662 33.9555H59.5912L59.5912 33.9555V32.5305ZM61.0162 33.9555C61.0162 33.1685 60.3782 32.5305 59.5912 32.5305V33.9555L59.5912 33.9555H61.0162ZM63.8819 46.7815L63.8819 46.7815V48.2065C64.6689 48.2065 65.3069 47.5685 65.3069 46.7815H63.8819ZM63.8819 46.7815L63.8819 46.7815H65.3069C65.3069 45.9945 64.6689 45.3565 63.8819 45.3565V46.7815ZM63.8819 46.7815L63.8819 46.7815V45.3565C63.0949 45.3565 62.4569 45.9945 62.4569 46.7815H63.8819ZM63.8819 46.7815L63.8819 46.7815H62.4569C62.4569 47.5685 63.0949 48.2065 63.8819 48.2065V46.7815ZM61.0292 52.474C61.8162 52.474 62.4541 51.8361 62.4541 51.049H61.0291L61.0292 51.049V52.474ZM59.6042 51.049C59.6042 51.8361 60.2421 52.474 61.0292 52.474V51.049L61.0292 51.049H59.6042ZM61.0292 49.624C60.2421 49.624 59.6042 50.262 59.6042 51.049H61.0292L61.0292 51.049V49.624ZM62.4541 51.049C62.4541 50.262 61.8162 49.624 61.0292 49.624V51.049L61.0291 51.049H62.4541ZM45.3504 38.2231L45.3504 38.2231V39.6481C46.1374 39.6481 46.7754 39.0101 46.7754 38.2231H45.3504ZM45.3504 38.2231L45.3504 38.2231H46.7754C46.7754 37.4361 46.1374 36.7981 45.3504 36.7981V38.2231ZM45.3504 38.2231L45.3504 38.2231V36.7981C44.5634 36.7981 43.9254 37.4361 43.9254 38.2231H45.3504ZM45.3504 38.2231L45.3504 38.2231H43.9254C43.9254 39.0101 44.5634 39.6481 45.3504 39.6481V38.2231ZM45.3504 33.9542C46.1374 33.9542 46.7754 33.3162 46.7754 32.5292H45.3504L45.3504 32.5292V33.9542ZM43.9254 32.5292C43.9254 33.3162 44.5634 33.9542 45.3504 33.9542V32.5292L45.3504 32.5292H43.9254ZM45.3504 31.1042C44.5634 31.1042 43.9254 31.7421 43.9254 32.5292H45.3504L45.3504 32.5292V31.1042ZM46.7754 32.5292C46.7754 31.7421 46.1374 31.1042 45.3504 31.1042V32.5292L45.3504 32.5292H46.7754ZM43.9356 46.7815L43.9356 46.7815V48.2065C44.7227 48.2065 45.3606 47.5685 45.3606 46.7815H43.9356ZM43.9356 46.7815L43.9356 46.7815H45.3606C45.3606 45.9945 44.7227 45.3565 43.9356 45.3565V46.7815ZM43.9356 46.7815L43.9356 46.7815V45.3565C43.1486 45.3565 42.5106 45.9945 42.5106 46.7815H43.9356ZM43.9356 46.7815L43.9356 46.7815H42.5106C42.5106 47.5685 43.1486 48.2065 43.9356 48.2065V46.7815ZM36.7921 63.8736C37.5791 63.8736 38.2171 63.2356 38.2171 62.4486H36.7921L36.7921 62.4486V63.8736ZM35.3671 62.4486C35.3671 63.2356 36.0051 63.8736 36.7921 63.8736V62.4486L36.7921 62.4486H35.3671ZM36.7921 61.0236C36.0051 61.0236 35.3671 61.6616 35.3671 62.4486H36.7921L36.7921 62.4486V61.0236ZM38.2171 62.4486C38.2171 61.6616 37.5791 61.0236 36.7921 61.0236V62.4486L36.7921 62.4486H38.2171ZM28.2569 63.875L28.2569 63.875V65.3C29.0439 65.3 29.6819 64.662 29.6819 63.875H28.2569ZM28.2569 63.875L28.2569 63.875H29.6819C29.6819 63.088 29.0439 62.45 28.2569 62.45V63.875ZM28.2569 63.875L28.2569 63.875V62.45C27.4699 62.45 26.8319 63.088 26.8319 63.875H28.2569ZM28.2569 63.875L28.2569 63.875H26.8319C26.8319 64.662 27.4699 65.3 28.2569 65.3V63.875ZM59.5912 58.1796C60.3782 58.1796 61.0162 57.5416 61.0162 56.7546H59.5912L59.5912 56.7546V58.1796ZM58.1662 56.7546C58.1662 57.5416 58.8042 58.1796 59.5912 58.1796V56.7546L59.5912 56.7546H58.1662ZM59.5912 55.3296C58.8042 55.3296 58.1662 55.9676 58.1662 56.7546H59.5912L59.5912 56.7546V55.3296ZM61.0162 56.7546C61.0162 55.9676 60.3782 55.3296 59.5912 55.3296V56.7546L59.5912 56.7546H61.0162ZM41.0829 39.6495L41.0829 39.6495V41.0745C41.8699 41.0745 42.5079 40.4365 42.5079 39.6495H41.0829ZM41.0829 39.6495L41.0829 39.6495H42.5079C42.5079 38.8625 41.8699 38.2245 41.0829 38.2245V39.6495ZM41.0829 39.6495L41.0829 39.6495V38.2245C40.2959 38.2245 39.6579 38.8625 39.6579 39.6495H41.0829ZM41.0829 39.6495L41.0829 39.6495H39.6579C39.6579 40.4365 40.2959 41.0745 41.0829 41.0745V39.6495ZM51.056 49.6329C51.843 49.6329 52.481 48.9949 52.481 48.2079H51.056L51.056 48.2079V49.6329ZM49.631 48.2079C49.631 48.9949 50.269 49.6329 51.056 49.6329V48.2079L51.056 48.2079H49.631ZM51.056 46.7829C50.269 46.7829 49.631 47.4209 49.631 48.2079H51.056L51.056 48.2079V46.7829ZM52.481 48.2079C52.481 47.4209 51.843 46.7829 51.056 46.7829V48.2079L51.056 48.2079H52.481ZM56.7616 43.9287L56.7616 43.9287V45.3537C57.5486 45.3537 58.1866 44.7157 58.1866 43.9287H56.7616ZM56.7616 43.9287L56.7616 43.9287H58.1866C58.1866 43.1417 57.5486 42.5037 56.7616 42.5037V43.9287ZM56.7616 43.9287L56.7616 43.9287V42.5037C55.9746 42.5037 55.3366 43.1417 55.3366 43.9287H56.7616ZM56.7616 43.9287L56.7616 43.9287H55.3366C55.3366 44.7157 55.9746 45.3537 56.7616 45.3537V43.9287ZM39.6449 46.7801C40.4319 46.7801 41.0699 46.1421 41.0699 45.3551H39.6449L39.6449 45.3551V46.7801ZM38.2199 45.3551C38.2199 46.1421 38.8579 46.7801 39.6449 46.7801V45.3551L39.6449 45.3551H38.2199ZM39.6449 43.9301C38.8579 43.9301 38.2199 44.5681 38.2199 45.3551H39.6449L39.6449 45.3551V43.9301ZM41.0699 45.3551C41.0699 44.5681 40.4319 43.9301 39.6449 43.9301V45.3551L39.6449 45.3551H41.0699ZM51.056 38.2231L51.056 38.2231V39.6481C51.843 39.6481 52.481 39.0101 52.481 38.2231H51.056ZM51.056 38.2231L51.056 38.2231H52.481C52.481 37.4361 51.843 36.7981 51.056 36.7981V38.2231ZM51.056 38.2231L51.056 38.2231V36.7981C50.269 36.7981 49.631 37.4361 49.631 38.2231H51.056ZM51.056 38.2231L51.056 38.2231H49.631C49.631 39.0101 50.269 39.6481 51.056 39.6481V38.2231ZM55.3236 29.675C56.1106 29.675 56.7486 29.037 56.7486 28.25H55.3236L55.3236 28.25V29.675ZM53.8986 28.25C53.8986 29.037 54.5366 29.675 55.3236 29.675V28.25L55.3236 28.25H53.8986ZM55.3236 26.825C54.5366 26.825 53.8986 27.463 53.8986 28.25H55.3236L55.3236 28.25V26.825ZM56.7486 28.25C56.7486 27.463 56.1106 26.825 55.3236 26.825V28.25L55.3236 28.25H56.7486ZM61.0291 28.25L61.0292 28.25V29.675C61.8162 29.675 62.4541 29.037 62.4541 28.25H61.0291ZM61.0292 28.25L61.0291 28.25H62.4541C62.4541 27.463 61.8162 26.825 61.0292 26.825V28.25ZM61.0292 28.25L61.0292 28.25V26.825C60.2421 26.825 59.6042 27.463 59.6042 28.25H61.0292ZM61.0292 28.25L61.0292 28.25H59.6042C59.6042 29.037 60.2421 29.675 61.0292 29.675V28.25ZM55.3236 39.6481C56.1106 39.6481 56.7486 39.0101 56.7486 38.2231H55.3236L55.3236 38.2231V39.6481ZM53.8986 38.2231C53.8986 39.0101 54.5366 39.6481 55.3236 39.6481V38.2231L55.3236 38.2231H53.8986ZM55.3236 36.7981C54.5366 36.7981 53.8986 37.4361 53.8986 38.2231H55.3236L55.3236 38.2231V36.7981ZM56.7486 38.2231C56.7486 37.4361 56.1106 36.7981 55.3236 36.7981V38.2231L55.3236 38.2231H56.7486ZM62.4439 39.6495L62.4439 39.6495V41.0745C63.231 41.0745 63.8689 40.4365 63.8689 39.6495H62.4439ZM62.4439 39.6495L62.4439 39.6495H63.8689C63.8689 38.8625 63.231 38.2245 62.4439 38.2245V39.6495ZM62.4439 39.6495L62.4439 39.6495V38.2245C61.6569 38.2245 61.0189 38.8625 61.0189 39.6495H62.4439ZM62.4439 39.6495L62.4439 39.6495H61.0189C61.0189 40.4365 61.6569 41.0745 62.4439 41.0745V39.6495Z" fill="#2B78D3" mask="url(#path-3-outside-1_274_608)"/>
</svg>
