<svg width="96" height="96" viewBox="0 0 96 96" fill="none" xmlns="http://www.w3.org/2000/svg">
<path d="M70 16L75 10.5M75.5 22L81.5 18.5M79 30L86 28M80 38H87.5M79.5 46.5L86 48" stroke="#2B78D3" stroke-width="1.5" stroke-linecap="round"/>
<path d="M53.6012 38.6541L53.6012 38.654C53.3014 37.5031 53.0467 36.3614 52.8357 35.2367C53.5214 34.8889 54.2879 34.5798 55.1135 34.3309L55.1136 34.3308C56.9786 33.7681 58.7362 33.6348 60.0556 33.8426C61.434 34.0597 62.0672 34.5886 62.2108 35.0863L62.2109 35.0864C62.3565 35.5906 62.0989 36.3956 61.0535 37.3457C60.0533 38.2549 58.5047 39.119 56.64 39.6816L56.6398 39.6817C55.7359 39.9547 54.8537 40.1275 54.0322 40.2084C53.8817 39.6971 53.7379 39.1788 53.6012 38.6541Z" stroke="#2B78D3" stroke-width="1.5"/>
<path fill-rule="evenodd" clip-rule="evenodd" d="M52.6667 37.7049C54.2711 43.7312 56.7052 49.0729 59.5296 53.1661C61.6562 56.248 64.0775 58.726 66.62 60.1929C66.3502 60.3243 66.0736 60.4274 65.7904 60.5028C63.3207 61.1602 60.0608 59.6909 56.6993 55.6991C53.4216 51.807 50.4241 45.9135 48.5658 38.9331C48.2674 37.8124 48.0085 36.7013 47.7877 35.6051C46.8584 30.9073 46.618 26.4629 46.9876 22.6614L47.0957 21.5503C47.1516 21.1382 47.2153 20.7353 47.2866 20.3423C47.8278 17.3606 48.762 15.134 49.934 13.6622C50.7736 12.6197 51.7337 11.9622 52.7579 11.6896C52.9716 11.6327 53.1912 11.5917 53.4163 11.5669C52.0229 14.1064 51.2051 17.4097 50.918 21.0744C50.533 25.9874 51.0834 31.7574 52.6667 37.7049ZM54.1163 37.319C51.2938 26.7171 51.8677 16.8059 55.0972 11.6656C57.1331 12.1006 59.4655 13.6629 61.8489 16.4932C65.1266 20.3854 68.1242 26.2789 69.9825 33.2593C71.8408 40.2396 72.1702 46.8435 71.2616 51.8501C70.627 55.3468 69.4517 57.8051 67.9864 59.2254L67.9848 59.2246C62.5424 56.5059 56.9848 48.0941 54.1163 37.319ZM53.5404 54.2158C51.7327 51.4881 50.095 48.2265 48.7565 44.5912C48.1328 42.9235 47.5721 41.1725 47.0881 39.3542C45.6295 33.8754 45.0779 28.5811 45.3312 24.0343L17.3647 41.3468L20.5824 53.7581L53.5404 54.2158ZM16.7944 39.9357L45.484 22.1755C45.926 18.1566 47.0499 14.8504 48.7738 12.7079C49.7814 11.4435 50.9957 10.5788 52.4001 10.2049C53.0561 10.0302 53.7294 9.96914 54.4138 10.0144C54.9672 10.0509 55.528 10.157 56.0928 10.3288L56.0623 10.3633C61.9576 12.1545 68.2988 21.1042 71.432 32.8734C75.2361 47.163 72.8705 60.1978 66.1481 61.9875C62.5315 62.9503 58.3908 60.4622 54.7443 55.7327L33.7687 55.4414L44.2157 75.0294C44.5709 75.6955 44.0883 76.5 43.3333 76.5H37.6C37.2307 76.5 36.8914 76.2964 36.7176 75.9706L25.8 55.5L25.709 55.3294L20.7459 55.2605C20.8757 55.7913 20.5548 56.3293 20.0242 56.4662L14.456 57.902C13.9212 58.0399 13.3759 57.7181 13.238 57.1833L9.24969 41.7164C9.11179 41.1816 9.43353 40.6363 9.96833 40.4984L15.5365 39.0626C16.0713 38.9247 16.6166 39.2464 16.7545 39.7812L16.7944 39.9357ZM10.827 41.826L14.5656 56.3247L19.1655 55.1385L15.4269 40.6399L10.827 41.826ZM25 80.75C24.5858 80.75 24.25 81.0858 24.25 81.5C24.25 81.9142 24.5858 82.25 25 82.25H80C80.4142 82.25 80.75 81.9142 80.75 81.5C80.75 81.0858 80.4142 80.75 80 80.75H25ZM31 84.25C30.5858 84.25 30.25 84.5858 30.25 85C30.25 85.4142 30.5858 85.75 31 85.75H86C86.4142 85.75 86.75 85.4142 86.75 85C86.75 84.5858 86.4142 84.25 86 84.25H31ZM27.5 55.5L37.9 75H42.5L32.1 55.5H27.5ZM41.7654 37.7015C42.1528 37.5549 42.3481 37.122 42.2015 36.7346C42.0549 36.3472 41.622 36.1519 41.2346 36.2985L22.7346 43.2985C22.3472 43.4451 22.1519 43.878 22.2985 44.2654C22.4451 44.6528 22.878 44.8481 23.2654 44.7015L41.7654 37.7015ZM43.5606 47.7475C43.9735 47.7141 44.281 47.3522 44.2475 46.9394C44.2141 46.5265 43.8522 46.219 43.4394 46.2525L24.9394 47.7525C24.5265 47.7859 24.219 48.1478 24.2525 48.5606C24.2859 48.9735 24.6478 49.281 25.0606 49.2475L43.5606 47.7475Z" fill="#1A1A1A"/>
</svg>
