<svg width="97" height="96" viewBox="0 0 97 96" fill="none" xmlns="http://www.w3.org/2000/svg">
<path fill-rule="evenodd" clip-rule="evenodd" d="M58.8997 49.4049C58.4942 50.4727 58.0485 51.4745 57.5679 52.4014C55.3288 56.7196 52.5292 59.089 49.75 59.4511V45.6361C52.069 45.729 54.499 45.9554 57.0151 46.3496C57.0051 46.2345 57 46.118 57 46.0003C57 45.6023 57.0581 45.2178 57.1664 44.855C54.5998 44.4562 52.1194 44.2275 49.75 44.1348V34.75H61.4946C61.4577 37.2822 61.235 39.7158 60.855 42.0026C60.9031 42.0009 60.9515 42 61 42C61.4692 42 61.9195 42.0808 62.3378 42.2292C62.7303 39.8615 62.9579 37.3517 62.9947 34.75H74.4892C74.3449 39.7442 72.7647 44.3785 70.147 48.2544C68.3982 47.6023 66.6677 47.0393 64.9616 46.5571C64.8904 47.0684 64.7225 47.5487 64.4771 47.979C66.0437 48.4197 67.632 48.9301 69.2369 49.5173C65.6201 54.227 60.3961 57.6381 54.3851 58.9303C56.7588 57.0211 58.8015 53.8878 60.3013 49.9392C59.7949 49.85 59.3213 49.6655 58.8997 49.4049ZM48.25 60.9898V75C48.25 75.0187 48.2507 75.0372 48.252 75.0556C45.9259 75.4045 44.124 77.3559 44.0061 79.75H19.5C19.0858 79.75 18.75 80.0858 18.75 80.5C18.75 80.9142 19.0858 81.25 19.5 81.25H44.1575C44.7126 83.4065 46.6702 85 49 85C51.3298 85 53.2874 83.4065 53.8425 81.25H78.5C78.9142 81.25 79.25 80.9142 79.25 80.5C79.25 80.0858 78.9142 79.75 78.5 79.75H53.9939C53.876 77.3559 52.0741 75.4045 49.748 75.0556C49.7493 75.0372 49.75 75.0187 49.75 75V60.9898C64.3149 60.5926 76 48.6609 76 34C76 19.0883 63.9117 7 49 7C34.0883 7 22 19.0883 22 34C22 48.6609 33.6851 60.5926 48.25 60.9898ZM43.6149 58.9303C37.3625 57.5862 31.9616 53.9496 28.3352 48.9435C29.6083 48.3844 31.2537 47.809 33.2146 47.2959C33.0755 46.8895 33 46.4536 33 46.0001C33 45.9333 33.0016 45.867 33.0049 45.8011C30.7598 46.3794 28.8926 47.0413 27.4784 47.6834C25.085 43.9267 23.6481 39.5012 23.5108 34.75H35.0053C35.0421 37.3517 35.2697 39.8615 35.6622 42.2292C36.0805 42.0808 36.5308 42 37 42C37.0485 42 37.0969 42.0009 37.145 42.0026C36.765 39.7158 36.5423 37.2822 36.5054 34.75H48.25V44.0937C45.5576 44.0516 43.0218 44.1826 40.6814 44.4331C40.8751 44.8877 40.9871 45.3854 40.999 45.9079C43.2415 45.674 45.6706 45.5526 48.25 45.594V59.4511C45.4708 59.089 42.6712 56.7196 40.4321 52.4014C39.9515 51.4745 39.5058 50.4727 39.1003 49.4049C38.6787 49.6655 38.2051 49.85 37.6987 49.9392C39.1985 53.8878 41.2412 57.0211 43.6149 58.9303ZM23.5108 33.25H35.0053C35.1596 22.3412 38.6689 13.048 43.6149 9.06967C32.3535 11.4906 23.8546 21.3483 23.5108 33.25ZM54.3851 9.06967C56.7588 10.9789 58.8015 14.1122 60.3013 18.0608C59.7949 18.15 59.3213 18.3345 58.8997 18.5951C58.4942 17.5273 58.0485 16.5255 57.5679 15.5986C55.3288 11.2804 52.5292 8.91099 49.75 8.54893V33.25H61.4946C61.4577 30.7178 61.235 28.2842 60.855 25.9974C60.9031 25.9991 60.9515 26 61 26C61.4692 26 61.9195 25.9192 62.3378 25.7708C62.7303 28.1385 62.9579 30.6483 62.9947 33.25H74.4892C74.1454 21.3483 65.6465 11.4906 54.3851 9.06967ZM48.25 8.54893V33.25H36.5054C36.6067 26.2873 38.1132 20.0708 40.4321 15.5986C42.6712 11.2804 45.4708 8.91099 48.25 8.54893ZM52.5 80C52.5 81.933 50.933 83.5 49 83.5C47.067 83.5 45.5 81.933 45.5 80C45.5 78.067 47.067 76.5 49 76.5C50.933 76.5 52.5 78.067 52.5 80Z" fill="#1A1A1A"/>
<circle cx="61.5" cy="46" r="3.25" stroke="#2B78D3" stroke-width="1.5"/>
<circle cx="37.5" cy="46" r="3.25" stroke="#2B78D3" stroke-width="1.5"/>
<circle cx="61.5" cy="22" r="3.25" stroke="#2B78D3" stroke-width="1.5"/>
<path fill-rule="evenodd" clip-rule="evenodd" d="M64.9951 22.1993C64.9983 22.1333 65 22.067 65 22.0002C65 21.5467 64.9245 21.1108 64.7854 20.7044C67.0216 20.1193 68.8476 19.4531 70.1789 18.8224C70.5532 18.6451 71.0004 18.8048 71.1778 19.1792C71.3551 19.5535 71.1954 20.0007 70.821 20.178C69.3753 20.8629 67.4024 21.5792 64.9951 22.1993ZM57.3185 23.5672C49.2498 24.4311 38.8587 23.8732 27.7366 19.7024C27.3488 19.557 27.1523 19.1247 27.2977 18.7369C27.4432 18.349 27.8755 18.1525 28.2633 18.298C39.0844 22.3559 49.1781 22.9082 57.001 22.0925C57.0128 22.6149 57.1248 23.1127 57.3185 23.5672Z" fill="#2B78D3"/>
</svg>
