<svg width="96" height="96" viewBox="0 0 96 96" fill="none" xmlns="http://www.w3.org/2000/svg">
<path fill-rule="evenodd" clip-rule="evenodd" d="M25.5 20.5C28.2614 20.5 30.5 18.2614 30.5 15.5C30.5 15.2705 30.4845 15.0446 30.4546 14.8234C28.7328 14.9658 27.4016 14.5058 26.5881 14.0054C24.6578 15.868 22.0726 16.0536 20.5124 15.8548C20.6944 18.4507 22.8579 20.5 25.5 20.5ZM27.0303 12.4697C27.3075 12.7468 28.3476 13.3995 30.0139 13.3467C29.2093 11.6631 27.4905 10.5 25.5 10.5C23.1312 10.5 21.1471 12.1473 20.6308 14.3589C21.9851 14.5539 24.3788 14.3739 25.9238 12.5199C26.0587 12.358 26.2555 12.2603 26.466 12.2508C26.6765 12.2412 26.8813 12.3207 27.0303 12.4697ZM25.5 22C29.0899 22 32 19.0899 32 15.5C32 11.9101 29.0899 9 25.5 9C21.9101 9 19 11.9101 19 15.5C19 19.0899 21.9101 22 25.5 22ZM18.0998 39.3001L19.05 38.5873V34C19.05 33.5858 19.3858 33.25 19.8 33.25C20.2142 33.25 20.55 33.5858 20.55 34V42.5H31.45V34C31.45 33.5858 31.7858 33.25 32.2 33.25C32.6142 33.25 32.95 33.5858 32.95 34V38.5873L33.9002 39.3001C34.0683 39.4263 34.2741 39.5 34.5 39.5C34.9732 39.5 35.3696 39.1854 35.5 38.8106V29C35.5 26.5149 33.4852 24.5 31 24.5H21C18.5148 24.5 16.5 26.5149 16.5 29V38.8106C16.6304 39.1854 17.0268 39.5 17.5 39.5C17.7259 39.5 17.9317 39.4263 18.0998 39.3001ZM34.5 41C35.7095 41 36.7684 40.1416 37 39V29C37 25.6865 34.3137 23 31 23H21C17.6863 23 15 25.6865 15 29V39C15.2316 40.1416 16.2905 41 17.5 41C18.0628 41 18.5822 40.8135 19 40.5V42.2085V43C19 43.5523 19.4477 44 20 44H32C32.5523 44 33 43.5523 33 43V42.2085V40.5C33.4178 40.8135 33.9372 41 34.5 41ZM23.25 27C23.25 26.5858 23.5858 26.25 24 26.25H26H28C28.4142 26.25 28.75 26.5858 28.75 27C28.75 27.4142 28.4142 27.75 28 27.75H26.75V34C26.75 34.4142 26.4142 34.75 26 34.75C25.5858 34.75 25.25 34.4142 25.25 34V27.75H24C23.5858 27.75 23.25 27.4142 23.25 27Z" fill="#1A1A1A"/>
<path fill-rule="evenodd" clip-rule="evenodd" d="M62.5 63.5C65.2614 63.5 67.5 61.2614 67.5 58.5C67.5 58.2705 67.4845 58.0446 67.4546 57.8234C65.7328 57.9658 64.4016 57.5058 63.5881 57.0054C61.6578 58.868 59.0726 59.0536 57.5124 58.8548C57.6944 61.4507 59.8579 63.5 62.5 63.5ZM64.0303 55.4697C64.3075 55.7468 65.3476 56.3995 67.0139 56.3467C66.2093 54.6631 64.4905 53.5 62.5 53.5C60.1312 53.5 58.1471 55.1473 57.6308 57.3589C58.9851 57.5539 61.3788 57.3739 62.9238 55.5199C63.0587 55.358 63.2555 55.2603 63.466 55.2508C63.6765 55.2412 63.8813 55.3207 64.0303 55.4697ZM62.5 65C66.0899 65 69 62.0899 69 58.5C69 54.9101 66.0899 52 62.5 52C58.9101 52 56 54.9101 56 58.5C56 62.0899 58.9101 65 62.5 65ZM55.0998 82.3001L56.05 81.5873V77C56.05 76.5858 56.3858 76.25 56.8 76.25C57.2142 76.25 57.55 76.5858 57.55 77V85.5H68.45V77C68.45 76.5858 68.7858 76.25 69.2 76.25C69.6142 76.25 69.95 76.5858 69.95 77V81.5873L70.9002 82.3001C71.0683 82.4263 71.2741 82.5 71.5 82.5C71.9732 82.5 72.3696 82.1854 72.5 81.8106V72C72.5 69.5149 70.4852 67.5 68 67.5H58C55.5148 67.5 53.5 69.5149 53.5 72V81.8106C53.6304 82.1854 54.0268 82.5 54.5 82.5C54.7259 82.5 54.9317 82.4263 55.0998 82.3001ZM71.5 84C72.7095 84 73.7684 83.1416 74 82V72C74 68.6865 71.3137 66 68 66H58C54.6863 66 52 68.6865 52 72V82C52.2316 83.1416 53.2905 84 54.5 84C55.0628 84 55.5822 83.8135 56 83.5V85.2085V86C56 86.5523 56.4477 87 57 87H69C69.5523 87 70 86.5523 70 86V85.2085V83.5C70.4178 83.8135 70.9372 84 71.5 84ZM60.25 70C60.25 69.5858 60.5858 69.25 61 69.25H63H65C65.4142 69.25 65.75 69.5858 65.75 70C65.75 70.4142 65.4142 70.75 65 70.75H63.75V77C63.75 77.4142 63.4142 77.75 63 77.75C62.5858 77.75 62.25 77.4142 62.25 77V70.75H61C60.5858 70.75 60.25 70.4142 60.25 70Z" fill="#1A1A1A"/>
<path fill-rule="evenodd" clip-rule="evenodd" d="M50.25 20C50.25 19.5858 50.5858 19.25 51 19.25H67C67.4142 19.25 67.75 19.5858 67.75 20C67.75 20.4142 67.4142 20.75 67 20.75H51C50.5858 20.75 50.25 20.4142 50.25 20ZM26 45.75C26.4142 45.75 26.75 46.0858 26.75 46.5V77C26.75 77.6904 27.3096 78.25 28 78.25H47C47.4142 78.25 47.75 78.5858 47.75 79C47.75 79.4142 47.4142 79.75 47 79.75H28C26.4812 79.75 25.25 78.5188 25.25 77V46.5C25.25 46.0858 25.5858 45.75 26 45.75ZM59 23.25C58.5858 23.25 58.25 23.5858 58.25 24C58.25 24.4142 58.5858 24.75 59 24.75H75C75.4142 24.75 75.75 24.4142 75.75 24C75.75 23.5858 75.4142 23.25 75 23.25H59ZM50.25 24C50.25 23.5858 50.5858 23.25 51 23.25H55C55.4142 23.25 55.75 23.5858 55.75 24C55.75 24.4142 55.4142 24.75 55 24.75H51C50.5858 24.75 50.25 24.4142 50.25 24ZM71 19.25C70.5858 19.25 70.25 19.5858 70.25 20C70.25 20.4142 70.5858 20.75 71 20.75H75C75.4142 20.75 75.75 20.4142 75.75 20C75.75 19.5858 75.4142 19.25 75 19.25H71ZM70.25 28C70.25 27.5858 70.5858 27.25 71 27.25H75C75.4142 27.25 75.75 27.5858 75.75 28C75.75 28.4142 75.4142 28.75 75 28.75H71C70.5858 28.75 70.25 28.4142 70.25 28ZM71 34.25C70.5858 34.25 70.25 34.5858 70.25 35C70.25 35.4142 70.5858 35.75 71 35.75H75C75.4142 35.75 75.75 35.4142 75.75 35C75.75 34.5858 75.4142 34.25 75 34.25H71ZM50.25 31C50.25 30.5858 50.5858 30.25 51 30.25H55C55.4142 30.25 55.75 30.5858 55.75 31C55.75 31.4142 55.4142 31.75 55 31.75H51C50.5858 31.75 50.25 31.4142 50.25 31ZM51 27.25C50.5858 27.25 50.25 27.5858 50.25 28C50.25 28.4142 50.5858 28.75 51 28.75H67C67.4142 28.75 67.75 28.4142 67.75 28C67.75 27.5858 67.4142 27.25 67 27.25H51ZM58.25 31C58.25 30.5858 58.5858 30.25 59 30.25H75C75.4142 30.25 75.75 30.5858 75.75 31C75.75 31.4142 75.4142 31.75 75 31.75H59C58.5858 31.75 58.25 31.4142 58.25 31ZM51 34.25C50.5858 34.25 50.25 34.5858 50.25 35C50.25 35.4142 50.5858 35.75 51 35.75H67C67.4142 35.75 67.75 35.4142 67.75 35C67.75 34.5858 67.4142 34.25 67 34.25H51Z" fill="#2B78D3"/>
<path d="M82 16H44V41H50.9211L49.5 50L60.3 41H82V16Z" stroke="#2B78D3" stroke-width="1.5" stroke-linecap="round" stroke-linejoin="round"/>
</svg>
