<svg width="97" height="96" viewBox="0 0 97 96" fill="none" xmlns="http://www.w3.org/2000/svg">
<g id="Icon / Philosophy">
<g id="chart">
<path id="Union" fill-rule="evenodd" clip-rule="evenodd" d="M73.9097 75.0602V23.457H83.8919V75.0602H73.9097ZM72.4097 22.957C72.4097 22.4047 72.8574 21.957 73.4097 21.957H84.3919C84.9442 21.957 85.3919 22.4047 85.3919 22.957V75.5602C85.3919 76.1125 84.9442 76.5602 84.3919 76.5602H73.4097C72.8574 76.5602 72.4097 76.1125 72.4097 75.5602V22.957ZM58.9302 29.4131V75.0596H68.9124V29.4131H58.9302ZM58.4302 27.9131C57.878 27.9131 57.4302 28.3608 57.4302 28.9131V75.5596C57.4302 76.1118 57.878 76.5596 58.4302 76.5596H69.4124C69.9647 76.5596 70.4124 76.1118 70.4124 75.5596V28.9131C70.4124 28.3608 69.9647 27.9131 69.4124 27.9131H58.4302ZM43.9507 75.0603V36.3633H53.933V75.0603H43.9507ZM42.4507 35.8633C42.4507 35.311 42.8985 34.8633 43.4507 34.8633H54.433C54.9852 34.8633 55.433 35.311 55.433 35.8633V75.5603C55.433 76.1125 54.9852 76.5603 54.433 76.5603H43.4507C42.8985 76.5603 42.4507 76.1125 42.4507 75.5603V35.8633ZM37.9549 45.5V75.0598H28V45.5H37.9549ZM27.4727 43.7979C26.9204 43.7979 26.4727 44.2456 26.4727 44.7978V75.5598C26.4727 75.6401 26.4821 75.7182 26.5 75.793V76C26.5 76.5523 26.9477 77 27.5 77H38.5C39.0523 77 39.5 76.5523 39.5 76V45C39.5 44.8886 39.4818 44.7814 39.4481 44.6813C39.3904 44.1839 38.9677 43.7979 38.4549 43.7979H27.4727ZM13 54.5H22.9754V75.0602H13V54.5ZM12.4932 52.7334C11.9409 52.7334 11.4932 53.1811 11.4932 53.7334V75.5602C11.4932 75.6 11.4955 75.6392 11.5 75.6778V76C11.5 76.5523 11.9477 77 12.5 77H23.5C24.0523 77 24.5 76.5523 24.5 76V54C24.5 53.9239 24.4915 53.8497 24.4754 53.7785V53.7334C24.4754 53.1811 24.0277 52.7334 23.4754 52.7334H12.4932Z" fill="#09182A"/>
<rect id="bottom" x="6.75" y="79.25" width="83.5" height="0.5" rx="0.25" stroke="#09182A" stroke-width="0.5"/>
<path id="vector" d="M9.97801 44.7906C9.58622 44.925 9.3776 45.3516 9.51204 45.7434C9.64648 46.1352 10.0731 46.3438 10.4649 46.2094L9.97801 44.7906ZM62.3227 16H63.0727C63.0727 15.5858 62.7369 15.25 62.3227 15.25V16ZM54.8797 15.25C54.4654 15.25 54.1297 15.5858 54.1297 16C54.1297 16.4142 54.4654 16.75 54.8797 16.75V15.25ZM61.5727 23.5C61.5727 23.9142 61.9085 24.25 62.3227 24.25C62.7369 24.25 63.0727 23.9142 63.0727 23.5H61.5727ZM10.4649 46.2094C17.051 43.9494 27.5586 39.7607 37.7056 34.5291C47.824 29.3124 57.698 23.0021 62.9091 16.4676L61.7363 15.5324C56.7398 21.7979 47.1201 27.9876 37.0183 33.1959C26.945 38.3894 16.5058 42.5506 9.97801 44.7906L10.4649 46.2094ZM54.8797 16.75H62.3227V15.25H54.8797V16.75ZM61.5727 16V23.5H63.0727V16H61.5727Z" fill="#2B78D3"/>
</g>
</g>
</svg>
